<svg id="Ebene_1" data-name="Ebene 1" xmlns="http://www.w3.org/2000/svg" viewBox="0 0 42.39 42.52"><defs><style>.cls-1{fill:#7a9e33;}</style></defs><title>Icons_Geräteliste</title><path class="cls-1" d="M14.15,3.54l-.34,0c-.79,0-1.57,0-2.36,0a.73.73,0,0,0-.46.21Q7.79,7,4.64,10.39a.66.66,0,0,0-.17.39c0,1.05,0,2.09,0,3.13a2.56,2.56,0,0,0,1.61,2.2V39.76h2V16.17a2.59,2.59,0,0,0,1.7-2.12c.08-1,0-2.09,0-3.13a1.39,1.39,0,0,1,.17-.6c.74-1.24,1.49-2.47,2.24-3.7l1.88-3.08"/><path class="cls-1" d="M24.18,10.15c-.18-1.14-.4-2.27-.6-3.4s-.35-2-.53-2.95c0-.1-.15-.27-.23-.27-.88,0-1.76,0-2.66,0,0,.13-.06.24-.08.36-.3,1.64-.55,3.28-.9,4.91A19.1,19.1,0,0,0,18.92,14a2.62,2.62,0,0,0,2.64,2.38A2.66,2.66,0,0,0,24.23,14c.06-.74,0-1.49,0-2.23a13.64,13.64,0,0,0-.09-1.57"/><path class="cls-1" d="M15.67,3.53a.46.46,0,0,0-.32.23C14.15,6,13,8.17,11.79,10.38a.77.77,0,0,0-.11.39c0,1,0,1.94,0,2.91a2.69,2.69,0,0,0,5.38,0c0-.92,0-1.83,0-2.75a2.4,2.4,0,0,1,.07-.6l1.14-4.51.55-2.24-.18,0c-1,0-2,0-3,0"/><path class="cls-1" d="M38.68,10.77a.54.54,0,0,0-.14-.34Q35.33,7,32.11,3.67a.46.46,0,0,0-.27-.15c-.92,0-1.85,0-2.86,0,.12.19.19.32.27.44,1.28,2.1,2.57,4.2,3.84,6.31a1.52,1.52,0,0,1,.19.69c0,.91,0,1.81,0,2.72A2.65,2.65,0,0,0,35,16.13V39.76h2V16.16a2.66,2.66,0,0,0,1.7-2.32c.05-1,0-2.05,0-3.07"/><path class="cls-1" d="M31.31,10.29c-1.07-2-2.19-4-3.23-6.06a1.12,1.12,0,0,0-1.23-.73c-.78.06-1.56,0-2.39,0a2.6,2.6,0,0,0,0,.28c.26,1.13.5,2.27.8,3.39a19.31,19.31,0,0,1,.79,6.5,1.22,1.22,0,0,0,0,.38,2.69,2.69,0,0,0,5.35-.45c0-.9,0-1.81,0-2.71a1.28,1.28,0,0,0-.15-.61"/></svg>