<svg id="Ebene_1" data-name="Ebene 1" xmlns="http://www.w3.org/2000/svg" viewBox="0 0 42.52 42.52"><defs><style>.cls-1{fill:#7a9e33;}</style></defs><title>Icons_Geräteliste</title><path class="cls-1" d="M31.28,31.5A2.54,2.54,0,0,1,28.74,34H4.11a2.55,2.55,0,0,1,0-5.09H28.74a2.55,2.55,0,0,1,2.54,2.55"/><path class="cls-1" d="M31.28,38.38a2.55,2.55,0,0,1-2.54,2.55H4.11a2.55,2.55,0,0,1,0-5.09H28.74a2.54,2.54,0,0,1,2.54,2.54"/><path class="cls-1" d="M28.33,7.53l-3.64.88a.91.91,0,0,0-1.06-.68l-5,1.21A.9.9,0,0,0,18,10.05l1.31,5.4a.9.9,0,0,0,1.07.7l5-1.2A.9.9,0,0,0,26,13.86L29.65,13a.91.91,0,0,0,.64-1.11l-.88-3.63a.92.92,0,0,0-1.08-.7"/><path class="cls-1" d="M12,27.14c-.85-1.2-2.34-4-1.55-6.32.92-2.69,4.71-4.16,7.73-4.92L16.89,11c-6.19,1.55-10,4.33-11.33,8.25a11.17,11.17,0,0,0,.61,7.93Z"/><path class="cls-1" d="M32.3,8a1.35,1.35,0,1,1-1,1.62A1.33,1.33,0,0,1,32.3,8"/><path class="cls-1" d="M39.32,6.33a1.35,1.35,0,1,1-1,1.62,1.36,1.36,0,0,1,1-1.62"/><path class="cls-1" d="M38.46,2.71a1.35,1.35,0,1,1-1,1.62,1.35,1.35,0,0,1,1-1.62"/><path class="cls-1" d="M40.18,10a1.35,1.35,0,1,1-1,1.62,1.36,1.36,0,0,1,1-1.62"/><path class="cls-1" d="M36.19,8.78a1.35,1.35,0,1,1-1,1.62,1.35,1.35,0,0,1,1-1.62"/><path class="cls-1" d="M35.42,5.55a1.34,1.34,0,1,1-1,1.62,1.34,1.34,0,0,1,1-1.62"/></svg>