<?xml version="1.0" encoding="utf-8"?>
<!-- Generator: Adobe Illustrator 24.0.2, SVG Export Plug-In . SVG Version: 6.00 Build 0)  -->
<svg version="1.1" xmlns="http://www.w3.org/2000/svg" xmlns:xlink="http://www.w3.org/1999/xlink" x="0px" y="0px"
	 viewBox="0 0 841.9 595.3" style="enable-background:new 0 0 841.9 595.3;" xml:space="preserve">
<style type="text/css">
	.st0{clip-path:url(#SVGID_2_);}
	.st1{clip-path:url(#SVGID_6_);}
	.st2{fill:#FFFFFF;}
</style>
<g id="Ebene_1">
</g>
<g id="Ebene_2">
	<g>
		<g>
			<defs>
				<path id="SVGID_1_" d="M253.4,288.2c0,96.5,78.3,174.8,174.8,174.8c96.5,0,174.8-78.3,174.8-174.8
					c0-96.5-78.3-174.8-174.8-174.8C331.7,113.4,253.4,191.7,253.4,288.2"/>
			</defs>
			<clipPath id="SVGID_2_">
				<use xlink:href="#SVGID_1_"  style="overflow:visible;"/>
			</clipPath>
			<g class="st0">
				<g>
					<defs>
						<rect id="SVGID_3_" x="253.4" y="113.4" width="349.6" height="349.6"/>
					</defs>
					<clipPath id="SVGID_4_">
						<use xlink:href="#SVGID_3_"  style="overflow:visible;"/>
					</clipPath>
					<g style="clip-path:url(#SVGID_4_);">
						
							<image style="overflow:visible;" width="1458" height="1458" xlink:href="CC642235.jpg"  transform="matrix(0.24 0 0 0.24 253.2 113.28)">
						</image>
					</g>
				</g>
			</g>
		</g>
		<g>
			<defs>
				<path id="SVGID_5_" d="M253.4,288.2c0,96.5,78.3,174.8,174.8,174.8c96.5,0,174.8-78.3,174.8-174.8
					c0-96.5-78.3-174.8-174.8-174.8C331.7,113.4,253.4,191.7,253.4,288.2"/>
			</defs>
			<clipPath id="SVGID_6_">
				<use xlink:href="#SVGID_5_"  style="overflow:visible;"/>
			</clipPath>
			<g class="st1">
				<g>
					<defs>
						<rect id="SVGID_7_" x="253.4" y="113.4" width="349.6" height="349.6"/>
					</defs>
					<clipPath id="SVGID_8_">
						<use xlink:href="#SVGID_7_"  style="overflow:visible;"/>
					</clipPath>
					<g style="clip-path:url(#SVGID_8_);">
						
							<image style="overflow:visible;" width="1458" height="1458" xlink:href="CC642237.jpg"  transform="matrix(0.24 0 0 0.24 253.2 113.28)">
						</image>
					</g>
				</g>
			</g>
		</g>
		<g>
			<path class="st2" d="M349.2,359.2H349c-2,4-6.3,6.5-11.6,6.5c-7.8,0-14.4-5.4-14.4-14.5c0-8.5,6.2-14.7,15-14.7s14.9,6,14.9,14.8
				v11.4c0,10.8-6.5,14.9-14.8,14.9c-6.7,0-12.1-2.8-14-9h3.8c1.5,3.9,5.4,5.6,10.1,5.6c6.4,0,11-3.2,11-11.4V359.2z M338,340.1
				c-6.7,0-11.2,4.7-11.2,11.2c0,6.4,4.5,11,11.2,11c6.7,0,11.2-4.6,11.2-11C349.2,344.8,344.6,340.1,338,340.1"/>
			<path class="st2" d="M389.6,365.2h-3.5v-6.6H386c-1.9,4.5-6.3,7.3-11.9,7.3c-7.8,0-14.4-5.6-14.4-14.7c0-8.5,6.2-14.7,15-14.7
				c8.8,0,14.9,6,14.9,14.8V365.2z M385.9,351.2c0-6.4-4.5-11.2-11.2-11.2c-6.7,0-11.2,4.7-11.2,11.2c0,6.4,4.5,11.2,11.2,11.2
				C381.4,362.4,385.9,357.7,385.9,351.2"/>
			<path class="st2" d="M417.5,348.9v-0.4c0-5.8-3.2-8.4-7.9-8.4c-4.8,0-7.9,2.6-7.9,8.4v16.7h-3.8v-16.7c0-8,4.8-11.9,11.7-11.9
				c6.9,0,11.7,3.9,11.7,11.9v0.3H417.5z"/>
			<path class="st2" d="M426.6,351.2c0-9.1,6.6-14.7,14.4-14.7c5.4,0,9.6,2.5,11.6,6.5h0.1v-17.9h3.8v25.9c0,8.8-6.1,14.8-14.9,14.8
				C432.8,365.9,426.6,359.7,426.6,351.2 M452.7,351.2c0-6.4-4.5-11.2-11.2-11.2c-6.7,0-11.2,4.7-11.2,11.2
				c0,6.4,4.5,11.2,11.2,11.2C448.2,362.4,452.7,357.7,452.7,351.2"/>
			<path class="st2" d="M464.1,329.8c0-1.6,1.3-2.9,2.9-2.9c1.6,0,2.9,1.3,2.9,2.9c0,1.5-1.3,2.9-2.9,2.9
				C465.4,332.6,464.1,331.3,464.1,329.8 M465.1,337.3h3.8v27.8h-3.8V337.3z"/>
			<path class="st2" d="M478.2,365.2v-29c0-7.8,4.8-11.8,11.7-11.8c6.9,0,11.7,4,11.7,12h-3.7c0-5.8-3.2-8.5-7.9-8.5
				c-4.8,0-7.9,2.6-7.9,8.3v5h16.3v3.4h-16.3v20.5H478.2z"/>
			<path class="st2" d="M529,337.3h3.8v26.8c0,9.7-6.1,13.6-13.9,13.6c-6.3,0-11.6-2.9-13.3-9h3.8c1.5,3.8,4.9,5.6,9.5,5.6
				c6,0,10.1-2.9,10.1-10.2v-4.5h-0.1c-1.9,3.7-5.6,5.9-10.4,5.9c-7.4,0-13.2-4.5-13.2-14v-14.4h3.8v14.4c0,6.9,3.9,10.5,10,10.5
				c6,0,10-3.7,10-10.5V337.3z"/>
			<path class="st2" d="M349.2,359.2H349c-2,4-6.3,6.5-11.6,6.5c-7.8,0-14.4-5.4-14.4-14.5c0-8.5,6.2-14.7,15-14.7s14.9,6,14.9,14.8
				v11.4c0,10.8-6.5,14.9-14.8,14.9c-6.7,0-12.1-2.8-14-9h3.8c1.5,3.9,5.4,5.6,10.1,5.6c6.4,0,11-3.2,11-11.4V359.2z M338,340.1
				c-6.7,0-11.2,4.7-11.2,11.2c0,6.4,4.5,11,11.2,11c6.7,0,11.2-4.6,11.2-11C349.2,344.8,344.6,340.1,338,340.1"/>
			<path class="st2" d="M389.6,365.2h-3.5v-6.6H386c-1.9,4.5-6.3,7.3-11.9,7.3c-7.8,0-14.4-5.6-14.4-14.7c0-8.5,6.2-14.7,15-14.7
				c8.8,0,14.9,6,14.9,14.8V365.2z M385.9,351.2c0-6.4-4.5-11.2-11.2-11.2c-6.7,0-11.2,4.7-11.2,11.2c0,6.4,4.5,11.2,11.2,11.2
				C381.4,362.4,385.9,357.7,385.9,351.2"/>
			<path class="st2" d="M417.5,348.9v-0.4c0-5.8-3.2-8.4-7.9-8.4c-4.8,0-7.9,2.6-7.9,8.4v16.7h-3.8v-16.7c0-8,4.8-11.9,11.7-11.9
				c6.9,0,11.7,3.9,11.7,11.9v0.3H417.5z"/>
			<path class="st2" d="M426.6,351.2c0-9.1,6.6-14.7,14.4-14.7c5.4,0,9.6,2.5,11.6,6.5h0.1v-17.9h3.8v25.9c0,8.8-6.1,14.8-14.9,14.8
				C432.8,365.9,426.6,359.7,426.6,351.2 M452.7,351.2c0-6.4-4.5-11.2-11.2-11.2c-6.7,0-11.2,4.7-11.2,11.2
				c0,6.4,4.5,11.2,11.2,11.2C448.2,362.4,452.7,357.7,452.7,351.2"/>
			<path class="st2" d="M464.1,329.8c0-1.6,1.3-2.9,2.9-2.9c1.6,0,2.9,1.3,2.9,2.9c0,1.5-1.3,2.9-2.9,2.9
				C465.4,332.6,464.1,331.3,464.1,329.8 M465.1,337.3h3.8v27.8h-3.8V337.3z"/>
			<path class="st2" d="M478.2,365.2v-29c0-7.8,4.8-11.8,11.7-11.8c6.9,0,11.7,4,11.7,12h-3.7c0-5.8-3.2-8.5-7.9-8.5
				c-4.8,0-7.9,2.6-7.9,8.3v5h16.3v3.4h-16.3v20.5H478.2z"/>
			<path class="st2" d="M529,337.3h3.8v26.8c0,9.7-6.1,13.6-13.9,13.6c-6.3,0-11.6-2.9-13.3-9h3.8c1.5,3.8,4.9,5.6,9.5,5.6
				c6,0,10.1-2.9,10.1-10.2v-4.5h-0.1c-1.9,3.7-5.6,5.9-10.4,5.9c-7.4,0-13.2-4.5-13.2-14v-14.4h3.8v14.4c0,6.9,3.9,10.5,10,10.5
				c6,0,10-3.7,10-10.5V337.3z"/>
			<path class="st2" d="M478.4,248.5c-1.1-4.3-3.8-12-8.7-17.1c-2.7-2.8-8.3-9.8-12.3-23.2c-2.7-9.1-8.3-17.9-10-20.1
				c-0.1-0.2,0-0.4,0.2-0.4c8.4,2.2,15.8,7.8,21.6,13c4,3.7,7.6,7.8,10.3,12.6c2.3,4.2,4.1,8.6,5.5,13.2c3.2,10.4,2.3,19.9,0,30.4
				c-0.9,4.2-2.9,9-3.8,11c-0.1,0.2-0.4,0.2-0.4-0.1C480.6,264.9,480.3,255.9,478.4,248.5"/>
			<path class="st2" d="M440.4,216.8c-0.2-0.1-0.1-0.5,0.2-0.4c2.2,0.6,5.9,1.5,8.4,2.4c4.8,1.6,17.8,8.3,22.9,25.3
				c0.1,0.2-0.2,0.4-0.4,0.2c-1.3-1.4-4.2-4.4-8.7-6.4C447.8,230.9,450,222.2,440.4,216.8"/>
			<path class="st2" d="M442,241.1c2.8,7.8-1.3,16.3-9.1,19.1c-7.8,2.8-16.3-1.3-19.1-9.1c-2.8-7.8,1.3-16.3,9.1-19.1
				C430.7,229.2,439.2,233.3,442,241.1"/>
			<path class="st2" d="M430.3,301.9c-0.2,0.1-0.2,0.4,0.1,0.4c2.8,0.2,11,0.1,19.7-4.6c12-6.5,13.8-15.1,12.9-21.7
				c-0.9-6-4.3-17-5-19.1c-0.1-0.2-0.3-0.2-0.4-0.1c-1.7,1.7-10.7,11.4-11.6,22C445.3,286.6,440.2,298.1,430.3,301.9"/>
			<path class="st2" d="M440,285c0.2-0.2,0.5,0,0.4,0.3c-1.4,2.6-5.4,9.4-11.3,13c-10.1,6.3-23.5,0.2-27.3-1.7
				c-0.2-0.1-0.1-0.5,0.1-0.4c3,0.3,11.2,1,16.2,0.1C423.6,295.3,428.3,295,440,285"/>
			<path class="st2" d="M440.7,277.3c0.2,0,0.2,0.2,0.1,0.4c-4.5,5.7-10.6,10.3-17.9,12.9c-15.4,5.4-28.5,2.9-42.2-11.1
				c-0.2-0.2,0-0.5,0.3-0.4c3.2,1.8,6.9,3,10.6,3.4c2.5,0.3,5.1,0.1,7.7-0.4c4.6-0.8,17.2-4.8,25.8-5.3
				C433.6,276.2,439.3,277.1,440.7,277.3"/>
			<path class="st2" d="M369.1,231c0,0-2.9,17.1,1.3,28.6c3.2,8.6,11.4,23.8,46.6,14.9c0.2-0.1,0.2-0.4,0-0.4
				c-3.3-0.3-11.3-2-16.8-10.8c-6.8-10.8-14.6-7.5-21.3-14.9C372,240.8,370.4,234.7,369.1,231"/>
			<path class="st2" d="M387.4,250.2c0.7,0.3,8.9-1,10.8-9.5c3.4-15.7,13.8-21.5,21.1-25.2c0.2-0.1,0.1-0.4-0.1-0.4
				c-4.5,0.4-21.3,2.5-29.2,13.7c-3.5,4.9-3.9,9.7-3.8,13.2C386.4,248,386.7,249.9,387.4,250.2"/>
			<path class="st2" d="M406.3,190.7c-0.2-0.1-0.2-0.3,0-0.4c3.4-1.4,21.9-8.9,31.1-3.8c9.6,5.4,12.9,14.1,15.6,23.6
				c0.1,0.2-0.2,0.4-0.4,0.2c-0.5-0.7-5.5-7.9-12.6-11c-9-3.9-13.5-2.6-18.2-3.3C417.4,195.3,412.5,194.9,406.3,190.7"/>
			<path class="st2" d="M382.4,246.4c0,0.2-0.2,0.4-0.4,0.2c-11.3-11-11.6-26.2-3.4-37.5c5.3-7.4,10.7-10.8,15.7-12.6
				c8.6-3,15.4,0.2,21.9,3c0.2,0.1,0.2,0.3,0,0.4c-10,4.9-8.9,10.1-17.4,15.7C388.4,222.6,379.6,230.4,382.4,246.4"/>
			<path class="st2" d="M421.7,209.9c-5.1-1.3-10-0.5-13.2,1.5c-0.5,0.3-0.8,0.5-0.9,0.3c0-0.1,0.1-0.4,0.8-1.2
				c2.2-2.2,5.2-5.5,9.3-7.3c6-2.5,11.9-2,16-1.2c10.8,2.2,17.9,12,19.4,13.3c0.3,0.2,0.4,0.5,0.3,0.7c-0.1,0.1-0.3,0-0.5-0.1
				c-9.3-5.3-15.7-4.6-19.3-4.3C429.4,211.9,424.4,210.5,421.7,209.9"/>
			<path class="st2" d="M475,266.1c0.4,9.8-6.3,18.7-8.9,21.7c-0.2,0.2-0.5,0-0.4-0.2c1.2-2.8,3.3-9.9,0.1-19.6
				c-3.7-11.4-5.6-15.9-5.9-26.7c0-0.2,0.2-0.3,0.3-0.2c1.1,0.4,4.9,1.9,7.8,5.5C472.5,251.8,474.7,258.7,475,266.1"/>
			<path class="st2" d="M545.5,332.1h1c1.2,0,2.1-0.4,2.1-1.3c0-0.8-0.6-1.4-1.9-1.4c-0.6,0-0.9,0.1-1.2,0.1V332.1z M545.4,337.2
				h-2.1v-9c0.8-0.2,2-0.3,3.5-0.3c1.7,0,2.5,0.3,3.1,0.7c0.5,0.4,0.9,1.1,0.9,1.9c0,1-0.8,1.8-1.9,2.1v0.1c0.9,0.3,1.4,1,1.7,2.2
				c0.3,1.4,0.4,1.9,0.7,2.2H549c-0.3-0.3-0.4-1.1-0.7-2.1c-0.2-1-0.7-1.4-1.9-1.4h-1V337.2z M546.8,325.3c-4,0-6.9,3.3-6.9,7.2
				c0,4,3,7.2,7.1,7.2c4,0.1,6.9-3.2,6.9-7.2C553.8,328.5,550.9,325.3,546.8,325.3L546.8,325.3z M546.9,323.5c5.2,0,9.2,4,9.2,9
				c0,5.1-4,9.1-9.3,9.1c-5.2,0-9.3-4-9.3-9.1C537.6,327.5,541.7,323.5,546.9,323.5L546.9,323.5z"/>
		</g>
	</g>
</g>
</svg>
