<svg id="Ebene_1" data-name="Ebene 1" xmlns="http://www.w3.org/2000/svg" xmlns:xlink="http://www.w3.org/1999/xlink" viewBox="0 0 200.07 57.02"><defs><style>.cls-1{fill:none;}.cls-2{clip-path:url(#clip-path);}.cls-3{fill:#fff;}</style><clipPath id="clip-path" transform="translate(-198.19 -437.43)"><rect class="cls-1" x="198.19" y="437.43" width="200.07" height="57.02"/></clipPath></defs><title>Gardify_Logo_Header</title><g class="cls-2"><path class="cls-3" d="M251.63,468.33a19.82,19.82,0,0,0-4.23-8.3c-1.3-1.35-4-4.74-6-11.22a36,36,0,0,0-4.84-9.73.11.11,0,0,1,.11-.17c4.07,1,7.66,3.76,10.45,6.31a24,24,0,0,1,5,6.11,33.82,33.82,0,0,1,2.65,6.41c1.53,5.06,1.11,9.62,0,14.72a33.65,33.65,0,0,1-1.82,5.32.11.11,0,0,1-.21,0,44.41,44.41,0,0,0-1.1-9.4" transform="translate(-198.19 -437.43)"/><path class="cls-3" d="M233.22,453a.11.11,0,0,1,.08-.2c1.09.28,2.87.75,4.06,1.15a18.52,18.52,0,0,1,11.11,12.27.11.11,0,0,1-.19.11,12.92,12.92,0,0,0-4.21-3.12c-7.27-3.36-6.2-7.59-10.85-10.21" transform="translate(-198.19 -437.43)"/><path class="cls-3" d="M234,464.78a7.25,7.25,0,1,1-9.25-4.42,7.25,7.25,0,0,1,9.25,4.42" transform="translate(-198.19 -437.43)"/><path class="cls-3" d="M228.35,494.22a.11.11,0,0,0,0,.21,18.39,18.39,0,0,0,9.52-2.21c5.79-3.15,6.68-7.3,6.22-10.5a78.27,78.27,0,0,0-2.4-9.26.11.11,0,0,0-.18,0c-.81.83-5.19,5.55-5.63,10.68-.32,3.72-2.79,9.3-7.56,11.13" transform="translate(-198.19 -437.43)"/><path class="cls-3" d="M233.05,486a.11.11,0,0,1,.17.13,17.75,17.75,0,0,1-5.49,6.32c-4.91,3.06-11.4.11-13.21-.83a.11.11,0,0,1,.06-.21,35.22,35.22,0,0,0,7.83.06c2.66-.47,5-.62,10.64-5.47" transform="translate(-198.19 -437.43)"/><path class="cls-3" d="M233.38,482.32a.11.11,0,0,1,.07.17,18.9,18.9,0,0,1-8.67,6.23c-7.47,2.64-13.8,1.41-20.46-5.39a.11.11,0,0,1,.13-.17,13,13,0,0,0,5.14,1.63,13.49,13.49,0,0,0,3.74-.18c2.22-.41,8.31-2.31,12.51-2.58a33.1,33.1,0,0,1,7.54.29" transform="translate(-198.19 -437.43)"/><path class="cls-3" d="M198.67,459.88s-1.43,8.28.64,13.86c1.55,4.16,5.53,11.52,22.55,7.22a.11.11,0,0,0,0-.22,10.83,10.83,0,0,1-8.14-5.21c-3.27-5.24-7.09-3.65-10.31-7.24a21.48,21.48,0,0,1-4.73-8.41" transform="translate(-198.19 -437.43)"/><path class="cls-3" d="M207.54,469.16a5.73,5.73,0,0,0,5.24-4.6c1.66-7.63,6.67-10.44,10.24-12.22a.11.11,0,0,0-.06-.21c-2.18.18-10.33,1.22-14.14,6.63a10.15,10.15,0,0,0-1.83,6.42c.07,2.94.21,3.86.55,4" transform="translate(-198.19 -437.43)"/><path class="cls-3" d="M216.72,440.34c-.08,0-.1-.16,0-.2,1.63-.7,10.61-4.33,15-1.86,4.67,2.6,6.26,6.81,7.56,11.42a.11.11,0,0,1-.2.1,16.59,16.59,0,0,0-6.1-5.33c-4.35-1.91-6.56-1.28-8.82-1.58a15.11,15.11,0,0,1-7.48-2.55" transform="translate(-198.19 -437.43)"/><path class="cls-3" d="M205.13,467.33a.11.11,0,0,1-.18.1,13.55,13.55,0,0,1-1.66-18.17,15.66,15.66,0,0,1,7.61-6.1c4.15-1.48,7.44.07,10.61,1.46a.11.11,0,0,1,0,.2c-4.83,2.38-4.3,4.89-8.43,7.63-5.06,3.34-9.31,7.13-8,14.88" transform="translate(-198.19 -437.43)"/><path class="cls-3" d="M224.15,449.64a8.64,8.64,0,0,0-6.41.71c-.26.16-.38.22-.43.16s0-.18.41-.56a14.43,14.43,0,0,1,4.51-3.51,13,13,0,0,1,7.77-.58c5.22,1.07,8.69,5.8,9.42,6.44.13.12.19.27.15.33s-.16,0-.26,0A14.7,14.7,0,0,0,230,450.5a19.84,19.84,0,0,1-5.8-.86" transform="translate(-198.19 -437.43)"/><path class="cls-3" d="M250,476.89c.19,4.73-3.06,9.05-4.31,10.48a.11.11,0,0,1-.19-.11,13.77,13.77,0,0,0,.07-9.51c-1.77-5.52-2.73-7.68-2.87-12.95a.11.11,0,0,1,.15-.11,8.88,8.88,0,0,1,3.78,2.65,15.9,15.9,0,0,1,3.37,9.55" transform="translate(-198.19 -437.43)"/><path class="cls-3" d="M285,471.72H285a6.83,6.83,0,0,1-6.35,3.58,7.59,7.59,0,0,1-7.89-7.93,8.19,8.19,0,0,1,16.37.09v6.26c0,5.89-3.55,8.17-8.08,8.17-3.67,0-6.6-1.51-7.65-4.9h2.1c.83,2.16,3,3.09,5.55,3.09,3.52,0,6-1.76,6-6.26Zm-6.1-10.45a5.86,5.86,0,0,0-6.11,6.1,6.11,6.11,0,0,0,12.21,0,5.85,5.85,0,0,0-6.1-6.1" transform="translate(-198.19 -437.43)"/><path class="cls-3" d="M307.18,475h-1.91v-3.61h-.06a6.75,6.75,0,0,1-6.51,4,7.67,7.67,0,0,1-7.89-8,8.19,8.19,0,0,1,16.37.09Zm-2.07-7.62a6.11,6.11,0,1,0-6.1,6.11,5.85,5.85,0,0,0,6.1-6.11" transform="translate(-198.19 -437.43)"/><path class="cls-3" d="M322.42,466.08v-.22c0-3.18-1.76-4.59-4.35-4.59s-4.35,1.41-4.35,4.59V475h-2.06v-9.13c0-4.38,2.62-6.51,6.41-6.51s6.38,2.13,6.38,6.54v.19Z" transform="translate(-198.19 -437.43)"/><path class="cls-3" d="M327.39,467.37a7.67,7.67,0,0,1,7.89-8,6.86,6.86,0,0,1,6.35,3.55h.06v-9.81h2.07v14.19a8.19,8.19,0,0,1-16.37.09m14.3,0a6.11,6.11,0,1,0-6.1,6.11,5.85,5.85,0,0,0,6.1-6.11" transform="translate(-198.19 -437.43)"/><path class="cls-3" d="M347.9,455.62a1.57,1.57,0,1,1,1.57,1.57,1.58,1.58,0,0,1-1.57-1.57m.55,4.13h2.07V475h-2.07Z" transform="translate(-198.19 -437.43)"/><path class="cls-3" d="M355.61,475V459.14c0-4.29,2.62-6.45,6.41-6.45s6.39,2.19,6.39,6.54h-2c0-3.18-1.76-4.63-4.35-4.63s-4.35,1.45-4.35,4.54v2.74h8.95v1.88h-8.95V475Z" transform="translate(-198.19 -437.43)"/><path class="cls-3" d="M383.43,459.75h2.06v14.68c0,5.31-3.36,7.46-7.61,7.46-3.46,0-6.32-1.6-7.28-4.9h2.06c.81,2.07,2.69,3.09,5.22,3.09,3.26,0,5.55-1.61,5.55-5.59v-2.43h-.06a6.09,6.09,0,0,1-5.71,3.24c-4.07,0-7.22-2.47-7.22-7.68v-7.87h2.07v7.87c0,3.76,2.16,5.76,5.46,5.76s5.46-2,5.46-5.76Z" transform="translate(-198.19 -437.43)"/><path class="cls-3" d="M392.44,456.91H393c.63,0,1.14-.21,1.14-.73s-.33-.75-1.05-.75a2.84,2.84,0,0,0-.64.06Zm0,2.77h-1.14v-4.91a9.58,9.58,0,0,1,1.9-.18,2.79,2.79,0,0,1,1.71.39,1.32,1.32,0,0,1,.49,1,1.27,1.27,0,0,1-1,1.18v.06a1.42,1.42,0,0,1,.91,1.2,3.24,3.24,0,0,0,.36,1.21h-1.24a3.91,3.91,0,0,1-.39-1.18c-.09-.54-.39-.78-1-.78h-.55Zm.76-6.51a3.95,3.95,0,0,0,.06,7.89,3.76,3.76,0,0,0,3.76-3.94,3.81,3.81,0,0,0-3.79-3.95Zm.06-1a5,5,0,1,1-5.12,4.94,4.95,4.95,0,0,1,5.12-4.94Z" transform="translate(-198.19 -437.43)"/></g></svg>