<?xml version="1.0" encoding="utf-8"?>
<!-- Generator: Adobe Illustrator 24.0.2, SVG Export Plug-In . SVG Version: 6.00 Build 0)  -->
<svg version="1.1" id="Ebene_1" xmlns="http://www.w3.org/2000/svg" xmlns:xlink="http://www.w3.org/1999/xlink" x="0px" y="0px"
	 viewBox="0 0 32 32" style="enable-background:new 0 0 32 32;" xml:space="preserve">
<style type="text/css">
	.st0{fill:#FFFFFF;}
</style>
<g>
	<path class="st0" d="M26.3,16c0,5.7-4.6,10.3-10.3,10.3c-5.7,0-10.3-4.6-10.3-10.3S10.3,5.7,16,5.7C21.7,5.7,26.3,10.3,26.3,16
		 M31.1,16c0-8.4-6.8-15.1-15.1-15.1S0.9,7.6,0.9,16c0,8.4,6.8,15.1,15.1,15.1S31.1,24.4,31.1,16"/>
	<path class="st0" d="M16.6,18.4h-1.6v1.3h1.6V18.4z M16.6,17.7c0-0.3,0-0.5,0.1-0.6c0.1-0.2,0.2-0.3,0.4-0.4
		c0.4-0.2,0.7-0.5,0.9-0.8c0.2-0.3,0.4-0.7,0.4-1.1c0-0.7-0.2-1.2-0.7-1.6c-0.4-0.4-1.1-0.6-1.8-0.6c-0.7,0-1.3,0.2-1.7,0.5
		c-0.4,0.3-0.7,0.8-0.6,1.5l0,0h1.6c0-0.3,0.1-0.5,0.2-0.6c0.1-0.1,0.3-0.2,0.5-0.2c0.3,0,0.5,0.1,0.6,0.2c0.1,0.2,0.2,0.4,0.2,0.7
		c0,0.3-0.1,0.5-0.2,0.7c-0.1,0.2-0.3,0.4-0.5,0.5c-0.4,0.3-0.7,0.6-0.9,0.8c-0.2,0.2-0.2,0.6-0.2,1H16.6z"/>
</g>
</svg>
