<svg id="Ebene_1" data-name="Ebene 1" xmlns="http://www.w3.org/2000/svg" viewBox="0 0 104.22 15"><defs><style>.cls-1{fill:none;}.cls-1,.cls-2{stroke:#a4a3a3;stroke-miterlimit:10;stroke-width:1.28px;}.cls-2{fill:#a4a3a3;}</style></defs><path class="cls-1" d="M96,.92c.19-.37.49-.37.68,0l1.67,3.37a1.65,1.65,0,0,0,1.1.8l3.72.54c.42.06.52.34.21.64l-2.69,2.62a1.57,1.57,0,0,0-.42,1.29l.63,3.7c.07.41-.17.59-.55.4L97,12.53a1.62,1.62,0,0,0-1.36,0l-3.33,1.75c-.38.19-.63,0-.55-.4l.63-3.7A1.6,1.6,0,0,0,92,8.89L89.32,6.27c-.31-.3-.21-.58.21-.64l3.72-.54a1.65,1.65,0,0,0,1.1-.8Z"/><path class="cls-1" d="M73.89.92c.19-.37.5-.37.69,0l1.66,3.37a1.67,1.67,0,0,0,1.1.8l3.73.54c.42.06.51.34.21.64l-2.7,2.62a1.64,1.64,0,0,0-.42,1.29l.64,3.7c.07.41-.18.59-.55.4l-3.33-1.75a1.62,1.62,0,0,0-1.36,0l-3.34,1.75c-.37.19-.62,0-.55-.4l.64-3.7a1.64,1.64,0,0,0-.42-1.29l-2.7-2.62c-.3-.3-.21-.58.21-.64l3.73-.54a1.67,1.67,0,0,0,1.1-.8Z"/><path class="cls-1" d="M51.77.92c.19-.37.49-.37.68,0l1.67,3.37a1.67,1.67,0,0,0,1.1.8L59,5.63c.42.06.51.34.2.64L56.46,8.89A1.64,1.64,0,0,0,56,10.18l.63,3.7c.08.41-.17.59-.55.4l-3.33-1.75a1.62,1.62,0,0,0-1.36,0L48.1,14.28c-.38.19-.62,0-.55-.4l.63-3.7a1.57,1.57,0,0,0-.42-1.29L45.07,6.27c-.31-.3-.21-.58.21-.64L49,5.09a1.69,1.69,0,0,0,1.11-.8Z"/><path class="cls-1" d="M29.65.92c.18-.37.49-.37.68,0L32,4.29a1.67,1.67,0,0,0,1.1.8l3.73.54c.42.06.51.34.21.64l-2.7,2.62a1.64,1.64,0,0,0-.42,1.29l.64,3.7c.07.41-.17.59-.55.4l-3.33-1.75a1.62,1.62,0,0,0-1.36,0L26,14.28c-.37.19-.62,0-.55-.4l.64-3.7a1.64,1.64,0,0,0-.42-1.29l-2.7-2.62c-.3-.3-.21-.58.21-.64l3.73-.54a1.67,1.67,0,0,0,1.1-.8Z"/><path class="cls-2" d="M7.52.92c.19-.37.49-.37.68,0L9.87,4.29a1.67,1.67,0,0,0,1.1.8l3.73.54c.42.06.51.34.21.64l-2.7,2.62a1.64,1.64,0,0,0-.42,1.29l.64,3.7c.07.41-.18.59-.55.4L8.54,12.53a1.62,1.62,0,0,0-1.36,0L3.85,14.28c-.38.19-.62,0-.55-.4l.63-3.7a1.57,1.57,0,0,0-.42-1.29L.82,6.27C.51,6,.61,5.69,1,5.63l3.73-.54a1.67,1.67,0,0,0,1.1-.8Z"/></svg>