<?xml version="1.0" encoding="utf-8"?>
<!-- Generator: Adobe Illustrator 24.0.2, SVG Export Plug-In . SVG Version: 6.00 Build 0)  -->
<svg version="1.1" id="Ebene_1" xmlns="http://www.w3.org/2000/svg" xmlns:xlink="http://www.w3.org/1999/xlink" x="0px" y="0px"
	 viewBox="0 0 32 32" style="enable-background:new 0 0 32 32;" xml:space="preserve">
<style type="text/css">
	.st0{fill:#FFFFFF;}
</style>
<g>
	<path class="st0" d="M26.3,23.1c-0.2,0.4-0.6,0.6-1,0.6H6.7c-0.4,0-0.8-0.2-1-0.6c-0.2-0.4-0.2-0.8,0-1.2L15,6.3
		c0.2-0.4,0.6-0.6,1-0.6c0.4,0,0.8,0.2,1,0.6L26.3,22C26.5,22.3,26.5,22.8,26.3,23.1 M31.1,16c0-8.3-6.8-15.1-15.1-15.1
		C7.6,0.9,0.9,7.7,0.9,16c0,8.4,6.8,15.1,15.1,15.1C24.4,31.1,31.1,24.4,31.1,16"/>
</g>
<path class="st0" d="M16.8,18.2h-1.7v1.4h1.7V18.2z M16.8,12.4h-1.7V17h1.7V12.4z"/>
</svg>
