<?xml version="1.0" encoding="utf-8"?>
<!-- Generator: Adobe Illustrator 24.0.2, SVG Export Plug-In . SVG Version: 6.00 Build 0)  -->
<svg version="1.1" id="Ebene_1" xmlns="http://www.w3.org/2000/svg" xmlns:xlink="http://www.w3.org/1999/xlink" x="0px" y="0px"
	 viewBox="0 0 32 32" style="enable-background:new 0 0 32 32;" xml:space="preserve">
<style type="text/css">
	.st0{fill:#FFFFFF;}
	.st1{fill:#FF0000;}
</style>
<g>
	<g>
		<path class="st0" d="M31.1,16c0,8.4-6.8,15.1-15.1,15.1C7.7,31.1,0.9,24.4,0.9,16C0.9,7.6,7.7,0.9,16,0.9
			C24.4,0.9,31.1,7.6,31.1,16"/>
		<path class="st1" d="M25.3,23.7H6.7c-0.4,0-0.8-0.2-1-0.6c-0.2-0.4-0.2-0.8,0-1.2L15,6.3c0.2-0.4,0.6-0.6,1-0.6
			c0.4,0,0.8,0.2,1,0.6L26.3,22c0.2,0.4,0.2,0.8,0,1.2C26.1,23.5,25.7,23.7,25.3,23.7"/>
	</g>
	<path class="st0" d="M16.8,18.4h-1.7v1.4h1.7V18.4z M16.8,12.6h-1.7v4.6h1.7V12.6z"/>
</g>
</svg>
