<?xml version="1.0" encoding="utf-8"?>
<!-- Generator: Adobe Illustrator 24.0.2, SVG Export Plug-In . SVG Version: 6.00 Build 0)  -->
<svg version="1.1" id="Ebene_1" xmlns="http://www.w3.org/2000/svg" xmlns:xlink="http://www.w3.org/1999/xlink" x="0px" y="0px"
	 viewBox="0 0 32 32" style="enable-background:new 0 0 32 32;" xml:space="preserve">
<style type="text/css">
	.st0{fill:#FFFFFF;}
</style>
<g>
	<path class="st0" d="M9.2,25.6c0-1.3,1-2.3,2.3-2.3c1.3,0,2.3,1,2.3,2.3c0,1.3-1,2.3-2.3,2.3C10.3,27.9,9.2,26.9,9.2,25.6
		 M17.3,25.6c0-1.3,1-2.3,2.3-2.3s2.3,1,2.3,2.3c0,1.3-1,2.3-2.3,2.3S17.3,26.9,17.3,25.6 M27.9,6.7C25.1,3.1,20.8,0.9,16,0.9
		C7.6,0.9,0.9,7.7,0.9,16c0,8.4,6.8,15.1,15.1,15.1c8.4,0,15.1-6.8,15.1-15.1c0-2.8-0.8-5.5-2.1-7.7l-0.8,0.2l-5.1,14.2l-14.9,0
		L5.1,9.4l20.7,0l1-2.4L27.9,6.7z"/>
</g>
</svg>
