<?xml version="1.0" encoding="utf-8"?>
<!-- Generator: Adobe Illustrator 24.0.2, SVG Export Plug-In . SVG Version: 6.00 Build 0)  -->
<svg version="1.1" id="Ebene_1" xmlns="http://www.w3.org/2000/svg" xmlns:xlink="http://www.w3.org/1999/xlink" x="0px" y="0px"
	 viewBox="0 0 32 32" style="enable-background:new 0 0 32 32;" xml:space="preserve">
<style type="text/css">
	.st0{fill:#FFFFFF;}
</style>
<g>
	<path class="st0" d="M25.9,11.6c0,0.1,0,0.1,0,0.2c0,0,0,0,0,0.1c0,0.6-0.1,1.3-0.4,1.9s-0.6,1.3-1.2,2.1c-0.4,0.5-1.1,1.5-2.3,2.8
		c-1.2,1.4-2.2,2.6-2.9,3.6c-0.8,1.1-2.8,3.4-3.1,4.3c-0.2-0.8-2.3-3.2-3.1-4.3c-0.8-1.1-1.7-2.2-2.8-3.5c-1.1-1.2-1.7-2-1.9-2.2
		c-0.8-1.1-1.4-2-1.7-2.7c-0.3-0.7-0.4-1.4-0.4-2.1c0-0.4,0.1-0.7,0.1-1c0.4-2.4,2.4-4.3,4.9-4.3c2.3,0,4.3,1.6,4.8,3.7
		c0,0,0-0.1,0.1-0.2c0.6-2.1,2.5-3.6,4.8-3.6C23.6,6.6,25.9,8.8,25.9,11.6 M31.1,16c0-8.3-6.8-15.1-15.1-15.1
		C7.6,0.9,0.9,7.7,0.9,16c0,8.4,6.8,15.1,15.1,15.1C24.4,31.1,31.1,24.4,31.1,16"/>
</g>
</svg>
