<?xml version="1.0" encoding="utf-8"?>
<!-- Generator: Adobe Illustrator 24.0.2, SVG Export Plug-In . SVG Version: 6.00 Build 0)  -->
<svg version="1.1" id="Ebene_1" xmlns="http://www.w3.org/2000/svg" xmlns:xlink="http://www.w3.org/1999/xlink" x="0px" y="0px"
	 viewBox="0 0 32 32" style="enable-background:new 0 0 32 32;" xml:space="preserve">
<style type="text/css">
	.st0{fill:#FFFFFF;}
</style>
<g>
	<path class="st0" d="M16,0.9C7.6,0.9,0.9,7.7,0.9,16c0,8.4,6.8,15.1,15.1,15.1c8.4,0,15.1-6.8,15.1-15.1C31.1,7.7,24.4,0.9,16,0.9z
		 M16,26.3c-5.7,0-10.3-4.6-10.3-10.3c0-5.7,4.6-10.3,10.3-10.3c5.7,0,10.3,4.6,10.3,10.3C26.3,21.7,21.7,26.3,16,26.3z"/>
	<path class="st0" d="M21,10.1H11c-0.6,0-1,0.4-1,1s0.4,1,1,1h10c0.6,0,1-0.4,1-1S21.6,10.1,21,10.1z"/>
	<path class="st0" d="M21,14.9H11c-0.6,0-1,0.4-1,1s0.4,1,1,1h10c0.6,0,1-0.4,1-1S21.6,14.9,21,14.9z"/>
	<path class="st0" d="M21,19.9H11c-0.6,0-1,0.4-1,1s0.4,1,1,1h10c0.6,0,1-0.4,1-1S21.6,19.9,21,19.9z"/>
</g>
</svg>
