<?xml version="1.0" encoding="utf-8"?>
<!-- Generator: Adobe Illustrator 25.2.2, SVG Export Plug-In . SVG Version: 6.00 Build 0)  -->
<svg version="1.1" id="Ebene_1" xmlns="http://www.w3.org/2000/svg" xmlns:xlink="http://www.w3.org/1999/xlink" x="0px" y="0px"
	 viewBox="0 0 24.9 21.3" style="enable-background:new 0 0 24.9 21.3;" xml:space="preserve">
<style type="text/css">
	.st0{fill:#444344;}
</style>
<path class="st0" d="M24.1,6.4H23V3.6c0-0.4-0.3-0.8-0.8-0.8h-1.4V0.7c0-0.4-0.3-0.8-0.8-0.8H4.7C4.3,0,4,0.3,4,0.7v2.1H2.6
	c-0.4,0-0.8,0.3-0.8,0.8v2.8H0.8C0.3,6.4,0,6.8,0,7.2v13.4c0,0.4,0.3,0.7,0.8,0.8h23.4c0.4,0,0.7-0.3,0.8-0.8V7.2
	C24.9,6.8,24.5,6.4,24.1,6.4z M5.5,1.5h13.9v1.4H5.5V1.5z M3.3,4.4h18.2v2.1H3.3V4.4z M17.7,11c-0.1,0.2-1.4,3.9-4,4.9
	c-0.4,0.1-0.8,0.2-1.3,0.2c-0.6,0-1.2-0.1-1.7-0.4c-0.4,0.4-0.7,0.8-1,1.2l-0.3,0.5c-0.1,0.3-0.4,0.4-0.7,0.4c-0.1,0-0.2,0-0.3-0.1
	c-0.4-0.2-0.5-0.6-0.3-1l0.3-0.6c0.3-0.5,0.7-1,1.1-1.5c-0.2-1,0.1-2.1,0.8-2.9c1.2-1.4,3.4-2,6.7-1.8c0.2,0,0.4,0.1,0.6,0.3
	C17.7,10.5,17.8,10.8,17.7,11z"/>
</svg>
