<svg id="Ebene_1" data-name="Ebene 1" xmlns="http://www.w3.org/2000/svg" xmlns:xlink="http://www.w3.org/1999/xlink" viewBox="0 0 48.73 57.57"><defs><style>.cls-1{fill:url(#Unbenannter_Verlauf_91);}.cls-2{fill:url(#Unbenannter_Verlauf_91-2);}</style><linearGradient id="Unbenannter_Verlauf_91" x1="706.1" y1="323.35" x2="811.39" y2="358.96" gradientUnits="userSpaceOnUse"><stop offset="0" stop-color="#080808"/><stop offset="0.37" stop-color="#36441a"/><stop offset="0.8" stop-color="#67842d"/><stop offset="1" stop-color="#7a9d34"/></linearGradient><linearGradient id="Unbenannter_Verlauf_91-2" x1="714.13" y1="299.6" x2="819.42" y2="335.21" xlink:href="#Unbenannter_Verlauf_91"/></defs><title>Button_Pflanzendoc_dunkel</title><path class="cls-1" d="M774.51,332.44a8.58,8.58,0,0,1,3-2.71s4.06,3.31,8,.67c3-2,3.32-7.57,5-13.35,0,0-7,7.69-10.05,9.88-1.17.84-3.46,2.45-3.46,2.45a8.56,8.56,0,0,0-3.41,2.08H754.76v12.28h-13v18.61h13v12.28h19.75V362.35h13V343.74h-13Z" transform="translate(-741.72 -317.05)"/><path class="cls-2" d="M777.48,321.36a6.19,6.19,0,0,0-.63,7.82l13.6-12.13C784.88,319.62,780.6,317.68,777.48,321.36Z" transform="translate(-741.72 -317.05)"/></svg>