<svg id="Ebene_1" data-name="Ebene 1" xmlns="http://www.w3.org/2000/svg" xmlns:xlink="http://www.w3.org/1999/xlink" viewBox="0 0 48.73 57.57"><defs><style>.cls-1{fill:url(#Unbenannter_Verlauf_13);}.cls-2{fill:url(#Unbenannter_Verlauf_13-2);}</style><linearGradient id="Unbenannter_Verlauf_13" x1="654.21" y1="370.47" x2="737.05" y2="402.21" gradientUnits="userSpaceOnUse"><stop offset="0" stop-color="#fff"/><stop offset="0.07" stop-color="#e9efde"/><stop offset="0.19" stop-color="#ccd9b1"/><stop offset="0.3" stop-color="#b3c78b"/><stop offset="0.43" stop-color="#9eb86b"/><stop offset="0.55" stop-color="#8eac53"/><stop offset="0.69" stop-color="#83a442"/><stop offset="0.83" stop-color="#7c9f37"/><stop offset="1" stop-color="#7a9d34"/></linearGradient><linearGradient id="Unbenannter_Verlauf_13-2" x1="663.22" y1="346.97" x2="746.06" y2="378.71" xlink:href="#Unbenannter_Verlauf_13"/></defs><title>Button_Pflanzendoc_hell</title><path class="cls-1" d="M691.51,370.63a8.58,8.58,0,0,1,3-2.71s4.06,3.31,8,.68c3-2,3.32-7.57,5-13.35,0,0-7,7.68-10.05,9.87-1.17.85-3.47,2.45-3.47,2.45a8.63,8.63,0,0,0-3.4,2.09H671.76v12.28h-13v18.6h13v12.28h19.75V400.54h13v-18.6h-13Z" transform="translate(-658.72 -355.25)"/><path class="cls-2" d="M694.48,359.56a6.18,6.18,0,0,0-.63,7.81l13.6-12.12C701.88,357.82,697.6,355.88,694.48,359.56Z" transform="translate(-658.72 -355.25)"/></svg>