<svg id="Ebene_1" data-name="Ebene 1" xmlns="http://www.w3.org/2000/svg" xmlns:xlink="http://www.w3.org/1999/xlink" viewBox="0 0 59.23 57.05"><defs><style>.cls-1{fill:url(#Unbenannter_Verlauf_3);}.cls-2{fill:url(#Unbenannter_Verlauf_91);}.cls-3{fill:url(#Unbenannter_Verlauf_91-2);}.cls-4{fill:url(#Unbenannter_Verlauf_91-3);}.cls-5{fill:url(#Unbenannter_Verlauf_91-4);}.cls-6{fill:url(#Unbenannter_Verlauf_91-5);}.cls-7{fill:url(#Unbenannter_Verlauf_91-6);}.cls-8{fill:url(#Unbenannter_Verlauf_91-7);}.cls-9{fill:url(#Unbenannter_Verlauf_91-8);}</style><linearGradient id="Unbenannter_Verlauf_3" x1="802.6" y1="359.7" x2="713.57" y2="406.54" gradientUnits="userSpaceOnUse"><stop offset="0" stop-color="#7a9d34"/><stop offset="0.2" stop-color="#67842d"/><stop offset="0.63" stop-color="#36441a"/><stop offset="1" stop-color="#080808"/></linearGradient><linearGradient id="Unbenannter_Verlauf_91" x1="798.07" y1="346.59" x2="709.03" y2="393.43" gradientUnits="userSpaceOnUse"><stop offset="0" stop-color="#080808"/><stop offset="0.37" stop-color="#36441a"/><stop offset="0.8" stop-color="#67842d"/><stop offset="1" stop-color="#7a9d34"/></linearGradient><linearGradient id="Unbenannter_Verlauf_91-2" x1="708.09" y1="353.68" x2="753" y2="357.55" gradientTransform="translate(966.1 -437.81) rotate(80)" xlink:href="#Unbenannter_Verlauf_91"/><linearGradient id="Unbenannter_Verlauf_91-3" x1="707.87" y1="356.3" x2="752.77" y2="360.18" gradientTransform="translate(219.88 -275.29) rotate(25)" xlink:href="#Unbenannter_Verlauf_91"/><linearGradient id="Unbenannter_Verlauf_91-4" x1="707.04" y1="365.84" x2="751.95" y2="369.71" gradientTransform="translate(678.35 -440.88) rotate(60)" xlink:href="#Unbenannter_Verlauf_91"/><linearGradient id="Unbenannter_Verlauf_91-5" x1="705.93" y1="378.82" x2="750.83" y2="382.69" gradientTransform="matrix(1, 0.09, -0.09, 1, 35.88, -61.19)" xlink:href="#Unbenannter_Verlauf_91"/><linearGradient id="Unbenannter_Verlauf_91-6" x1="707.64" y1="358.9" x2="752.55" y2="362.77" gradientTransform="translate(477.97 -427.9) rotate(45)" xlink:href="#Unbenannter_Verlauf_91"/><linearGradient id="Unbenannter_Verlauf_91-7" x1="704.91" y1="390.56" x2="749.82" y2="394.43" gradientTransform="translate(421.19 -372.89) rotate(40)" xlink:href="#Unbenannter_Verlauf_91"/><linearGradient id="Unbenannter_Verlauf_91-8" x1="704.37" y1="396.82" x2="749.28" y2="400.69" gradientTransform="translate(929.44 -412.85) rotate(74.99)" xlink:href="#Unbenannter_Verlauf_91"/></defs><title>Button_Wetter_hell</title><path class="cls-1" d="M767.77,385.5c.6-1.09,2-2.12,2.11-5.35.24-6.11-5.66-7.28-8.89-4.85,0,0,0-1.07,0-1.07a4.2,4.2,0,1,0-8.28-1c0,.12,0,.23,0,.34a6,6,0,0,0-8.25,8.36c-3.73.46-6.59,3-6.59,6.12,0,3.43,2.56,6.27,6.87,6.27,1.82,0,3.69-1.13,4-1.15a4.74,4.74,0,0,0,4,3.24,7.71,7.71,0,0,0,7.15-2.23,9.58,9.58,0,0,0,4.18.67c3.95-.1,5.5-2.28,5.5-5.48A5.23,5.23,0,0,0,767.77,385.5Z" transform="translate(-710.66 -349.5)"/><path class="cls-2" d="M744.55,382.12A5.28,5.28,0,0,1,744,379a6,6,0,0,1,4.05-5.67,9.65,9.65,0,1,0-9.62,14.52A6.65,6.65,0,0,1,744.55,382.12Z" transform="translate(-710.66 -349.5)"/><rect class="cls-3" x="736.68" y="356.01" width="14.49" height="1.5" transform="matrix(0.17, -0.98, 0.98, 0.17, -447.25, 677.95)"/><rect class="cls-4" x="730.09" y="351.04" width="1.5" height="14.49" transform="translate(-793.6 -7.08) rotate(-25)"/><rect class="cls-5" x="720.24" y="359.79" width="1.5" height="14.49" transform="translate(-668.04 458.41) rotate(-60)"/><rect class="cls-6" x="710.7" y="379.11" width="14.49" height="1.5" transform="translate(-741.07 -285.41) rotate(-5.01)"/><rect class="cls-7" x="748.28" y="362.28" width="14.49" height="1.5" transform="translate(-746.08 291.05) rotate(-45)"/><rect class="cls-8" x="715.56" y="391.36" width="14.49" height="1.5" transform="translate(-793.59 206.89) rotate(-40)"/><rect class="cls-9" x="726.56" y="398.6" width="14.49" height="1.5" transform="translate(-552.66 655.17) rotate(-74.99)"/></svg>