<svg id="Ebene_1" data-name="Ebene 1" xmlns="http://www.w3.org/2000/svg" xmlns:xlink="http://www.w3.org/1999/xlink" viewBox="0 0 20.25 20.14"><defs><style>.cls-1,.cls-3{fill:none;}.cls-2{clip-path:url(#clip-path);}.cls-3{stroke:#666;stroke-miterlimit:10;stroke-width:1.5px;}.cls-4{fill:#666;}</style><clipPath id="clip-path" transform="translate(-553.4 -448.25)"><rect id="SVGID" class="cls-1" x="553.75" y="448.5" width="19.83" height="19.61"/></clipPath></defs><title>Button_Korb_hell</title><g class="cls-2"><path class="cls-3" d="M566.44,466.27a1.28,1.28,0,1,1-1.28-1.28A1.28,1.28,0,0,1,566.44,466.27Zm-7.18.08a1.28,1.28,0,1,1-1.28-1.28A1.28,1.28,0,0,1,559.26,466.35Zm11.64-14.57-16.52-.25,2.15,8,11.56-.08M573.46,449l-1.57.41-5.29,14.11-10.4.1" transform="translate(-553.4 -448.25)"/></g><circle class="cls-4" cx="4.57" cy="18.08" r="1.62"/><circle class="cls-4" cx="11.86" cy="18.08" r="1.62"/><polygon class="cls-4" points="18.34 3.5 0.52 2.69 2.95 10.79 15.1 11.6 17.53 3.5 18.34 3.5"/></svg>