<svg id="Ebene_1" data-name="Ebene 1" xmlns="http://www.w3.org/2000/svg" viewBox="0 0 30.55 18.61"><defs><style>.cls-1{fill:#666;}</style></defs><title>Button_Nachrichten_hell</title><path class="cls-1" d="M549.35,466.37a4.52,4.52,0,0,0,.76-.54,11.33,11.33,0,0,0,1.62-2c.47-.87.2-1.31-.56-1.9a10.93,10.93,0,0,1-1.89-1.7,5.92,5.92,0,0,1,.42-8.15c3.44-3.62,10.58-4.37,14.7-1.54a6.74,6.74,0,0,1,3.12,6.51,6.9,6.9,0,0,1-4.44,5.89,10.67,10.67,0,0,1-6.36.79,1.18,1.18,0,0,0-.89.3A8,8,0,0,1,549.35,466.37Z" transform="translate(-547.85 -448.81)"/><path class="cls-1" d="M577,467.41a7.28,7.28,0,0,1-5.73-2,1.29,1.29,0,0,0-1-.35,10.6,10.6,0,0,1-5.07-.47c2.57-1.24,4.41-3,5-5.73a7.66,7.66,0,0,0-2.12-7.24,11.74,11.74,0,0,1,5.41.78,7.37,7.37,0,0,1,4.63,4.39,5.64,5.64,0,0,1-2.29,6.34c-1.39,1.06-1.46,2-.21,3.25A16,16,0,0,0,577,467.41Z" transform="translate(-547.85 -448.81)"/></svg>