<svg id="Ebene_1" data-name="Ebene 1" xmlns="http://www.w3.org/2000/svg" viewBox="0 0 18.89 18.94"><defs><style>.cls-1{fill:#fff;}</style></defs><title>Button_Einstellungen_dunkel</title><path class="cls-1" d="M563.15,461.49a3.3,3.3,0,1,1,3.3-3.3,3.3,3.3,0,0,1-3.3,3.3m7.38-1.45a2.07,2.07,0,0,0,0-4.14h-.12a7.86,7.86,0,0,0-.78-1.69,2,2,0,0,0,.51-1.35,2.06,2.06,0,0,0-3.54-1.45,7.46,7.46,0,0,0-1.47-.57,1.64,1.64,0,0,0,0-.23,2.07,2.07,0,1,0-4.14,0,2.48,2.48,0,0,0,0,.27,7.79,7.79,0,0,0-1.55.64,2,2,0,0,0-1.58-.76,2.07,2.07,0,0,0-1.35,3.64,7.19,7.19,0,0,0-.66,1.5h-.12a2.07,2.07,0,0,0,0,4.14,7.78,7.78,0,0,0,.5,1.4,2,2,0,0,0-1,1.78,2.06,2.06,0,0,0,3.68,1.29,7.34,7.34,0,0,0,2.1,1,2.06,2.06,0,0,0,4.12,0,7.14,7.14,0,0,0,1.8-.75,2,2,0,0,0,1.55.72,2.07,2.07,0,0,0,1.33-3.65,7.49,7.49,0,0,0,.71-1.81h0" transform="translate(-553.72 -448.55)"/></svg>