<svg id="Ebene_1" data-name="Ebene 1" xmlns="http://www.w3.org/2000/svg" xmlns:xlink="http://www.w3.org/1999/xlink" viewBox="0 0 113.81 113.81"><defs><style>.cls-1{fill:#7a9d34;}.cls-2{fill:#fff;}.cls-3{fill:url(#Unbenannter_Verlauf_12);}.cls-4{fill:url(#Unbenannter_Verlauf_12-2);}.cls-5{fill:none;stroke-miterlimit:10;stroke:url(#Unbenannter_Verlauf_12-3);}</style><linearGradient id="Unbenannter_Verlauf_12" x1="26.03" y1="26.37" x2="94.32" y2="86.33" gradientUnits="userSpaceOnUse"><stop offset="0" stop-color="#fff"/><stop offset="0.07" stop-color="#e9efde"/><stop offset="0.19" stop-color="#ccd9b1"/><stop offset="0.3" stop-color="#b3c78b"/><stop offset="0.43" stop-color="#9eb86b"/><stop offset="0.55" stop-color="#8eac53"/><stop offset="0.69" stop-color="#83a442"/><stop offset="0.83" stop-color="#7c9f37"/><stop offset="1" stop-color="#7a9d34"/></linearGradient><linearGradient id="Unbenannter_Verlauf_12-2" x1="38" y1="12.73" x2="106.3" y2="72.7" xlink:href="#Unbenannter_Verlauf_12"/><linearGradient id="Unbenannter_Verlauf_12-3" x1="52.24" y1="34.84" x2="74.8" y2="34.84" xlink:href="#Unbenannter_Verlauf_12"/></defs><title>Button_Video</title><circle class="cls-1" cx="56.9" cy="56.9" r="56.9"/><path class="cls-2" d="M653.7,405.13h-2v-1.51h2Zm0,9.27h-2v-7.48h2Z" transform="translate(-625.28 -326.95)"/><path class="cls-2" d="M657.34,406.92l.09,1.07a2.79,2.79,0,0,1,.92-.89,2.41,2.41,0,0,1,1.22-.32,2.23,2.23,0,0,1,1.77.73,3.45,3.45,0,0,1,.64,2.31v4.58h-2v-4.58a1.75,1.75,0,0,0-.28-1.13,1,1,0,0,0-.83-.34,1.85,1.85,0,0,0-.8.17,1.59,1.59,0,0,0-.56.47v5.41h-2v-7.48Z" transform="translate(-625.28 -326.95)"/><path class="cls-2" d="M670.19,413a1.49,1.49,0,0,0,1.22-.56,2.36,2.36,0,0,0,.48-1.57v-.65a2.29,2.29,0,0,1-.8.66,2.4,2.4,0,0,1-1,.22,2.79,2.79,0,0,1-2.2-.92,3.62,3.62,0,0,1-.79-2.48,3.48,3.48,0,0,1,.94-2.5,3.18,3.18,0,0,1,2.42-1,3.26,3.26,0,0,1,2.48,1,4,4,0,0,1,1,2.84v2.71a3.55,3.55,0,0,1-3.71,3.78,5.82,5.82,0,0,1-1.08-.11,6.76,6.76,0,0,1-1.05-.32l.34-1.46a5.12,5.12,0,0,0,.85.26A4.51,4.51,0,0,0,670.19,413Zm.24-3.38a1.86,1.86,0,0,0,.87-.2,1.8,1.8,0,0,0,.59-.54v-1.18a2.29,2.29,0,0,0-.39-1.44,1.21,1.21,0,0,0-1-.5,1.1,1.1,0,0,0-1,.56,2.46,2.46,0,0,0-.38,1.38,2.57,2.57,0,0,0,.34,1.39A1.1,1.1,0,0,0,670.43,409.61Z" transform="translate(-625.28 -326.95)"/><path class="cls-2" d="M682.23,410.76a3.93,3.93,0,0,1-.93,2.77,3.18,3.18,0,0,1-2.46,1,3.23,3.23,0,0,1-2.48-1,3.93,3.93,0,0,1-.93-2.77V408a3.93,3.93,0,0,1,.93-2.77,3.5,3.5,0,0,1,4.94,0,3.93,3.93,0,0,1,.93,2.77Zm-2-3a2.56,2.56,0,0,0-.37-1.5,1.15,1.15,0,0,0-1-.53,1.16,1.16,0,0,0-1,.53,2.64,2.64,0,0,0-.36,1.5V411a2.57,2.57,0,0,0,.37,1.51,1.16,1.16,0,0,0,1,.53,1.15,1.15,0,0,0,1-.53,2.65,2.65,0,0,0,.36-1.51Z" transform="translate(-625.28 -326.95)"/><path class="cls-2" d="M692.86,411.77a1.16,1.16,0,0,0-.4-.93,4,4,0,0,0-1.42-.67,8.14,8.14,0,0,1-2.64-1.23,2.35,2.35,0,0,1-.9-1.94,2.42,2.42,0,0,1,1-2,4.08,4.08,0,0,1,2.59-.79,4,4,0,0,1,2.69.85,2.63,2.63,0,0,1,1,2.21l0,0h-2a1.46,1.46,0,0,0-.46-1.16,1.85,1.85,0,0,0-1.28-.4,1.69,1.69,0,0,0-1.15.36,1.15,1.15,0,0,0-.41.91,1,1,0,0,0,.45.84,6,6,0,0,0,1.52.7,6.56,6.56,0,0,1,2.53,1.22,2.53,2.53,0,0,1,.87,2,2.38,2.38,0,0,1-1,2,4.35,4.35,0,0,1-2.66.75,4.74,4.74,0,0,1-2.79-.81,2.66,2.66,0,0,1-1.13-2.41v0h2a1.58,1.58,0,0,0,.52,1.31,2.23,2.23,0,0,0,1.43.42,1.94,1.94,0,0,0,1.23-.34A1.08,1.08,0,0,0,692.86,411.77Z" transform="translate(-625.28 -326.95)"/><path class="cls-2" d="M699.6,414.54a3.36,3.36,0,0,1-2.62-1,3.77,3.77,0,0,1-.94-2.64v-.27a4.08,4.08,0,0,1,.92-2.75,3.08,3.08,0,0,1,2.5-1.07,2.87,2.87,0,0,1,2.31.93,3.61,3.61,0,0,1,.81,2.48v1h-4.46l0,0a2.09,2.09,0,0,0,.47,1.25,1.58,1.58,0,0,0,1.24.47,3.89,3.89,0,0,0,1.15-.14,4.52,4.52,0,0,0,1-.42l.54,1.25a3.69,3.69,0,0,1-1.21.61A5.27,5.27,0,0,1,699.6,414.54Zm-.14-6.2a1.11,1.11,0,0,0-.93.42,2.06,2.06,0,0,0-.4,1.1v0h2.46v-.15a1.76,1.76,0,0,0-.27-1A1,1,0,0,0,699.46,408.34Z" transform="translate(-625.28 -326.95)"/><path class="cls-2" d="M706.42,411.27h-.51v3.13h-2V403.62h2v6.11h.45l1.79-2.81h2.33l-2.43,3.41,2.77,4.07H708.5Z" transform="translate(-625.28 -326.95)"/><path class="cls-2" d="M713.85,414.4h-2v-1.77h2Z" transform="translate(-625.28 -326.95)"/><path class="cls-2" d="M658.49,394.27h0a3.66,3.66,0,0,1-3.41,1.92,4.09,4.09,0,0,1-4.25-4.26,4.41,4.41,0,0,1,8.81.05v3.37c0,3.16-1.91,4.39-4.35,4.39-2,0-3.55-.81-4.11-2.64h1.13a2.88,2.88,0,0,0,3,1.66c1.89,0,3.24-.94,3.24-3.36Zm-3.29-5.62a3.14,3.14,0,0,0-3.28,3.28,3.29,3.29,0,0,0,6.57,0A3.15,3.15,0,0,0,655.2,388.65Z" transform="translate(-625.28 -326.95)"/><path class="cls-2" d="M670.4,396h-1v-1.94h0a3.63,3.63,0,0,1-3.5,2.15,4.13,4.13,0,0,1-4.25-4.31,4.41,4.41,0,0,1,8.81.05Zm-1.11-4.1a3.29,3.29,0,1,0-3.29,3.28A3.15,3.15,0,0,0,669.29,391.93Z" transform="translate(-625.28 -326.95)"/><path class="cls-2" d="M678.59,391.23v-.11a2.34,2.34,0,1,0-4.67,0V396h-1.11v-4.91a3.44,3.44,0,1,1,6.88,0v.1Z" transform="translate(-625.28 -326.95)"/><path class="cls-2" d="M681.27,391.93a4.12,4.12,0,0,1,4.24-4.31,3.69,3.69,0,0,1,3.42,1.9h0v-5.27h1.11v7.63a4.4,4.4,0,0,1-8.8.05Zm7.69,0a3.29,3.29,0,1,0-3.28,3.28A3.14,3.14,0,0,0,689,391.93Z" transform="translate(-625.28 -326.95)"/><path class="cls-2" d="M692.3,385.61a.85.85,0,1,1,1.69,0,.85.85,0,1,1-1.69,0Zm.3,10.42v-8.2h1.11V396Z" transform="translate(-625.28 -326.95)"/><path class="cls-2" d="M696.45,396V387.5a3.44,3.44,0,1,1,6.88.05h-1.09a2.19,2.19,0,0,0-2.34-2.49,2.16,2.16,0,0,0-2.34,2.44V389h4.81v1h-4.81v6Z" transform="translate(-625.28 -326.95)"/><path class="cls-2" d="M711.41,387.83h1.11v7.9c0,2.85-1.81,4-4.1,4a3.75,3.75,0,0,1-3.91-2.64h1.11a2.72,2.72,0,0,0,2.8,1.66,2.68,2.68,0,0,0,3-3v-1.31h0a3.27,3.27,0,0,1-3.07,1.74c-2.19,0-3.88-1.33-3.88-4.13v-4.23h1.11v4.23a2.94,2.94,0,1,0,5.87,0Z" transform="translate(-625.28 -326.95)"/><polygon class="cls-3" points="30.58 21.81 30.58 48.62 56.89 35.21 30.58 21.81"/><rect class="cls-4" x="48.2" y="21.97" width="30.8" height="26.48"/><path class="cls-2" d="M694.64,360.08,688,355.35a1.86,1.86,0,0,0-2.94,1.51v9.47a1.86,1.86,0,0,0,2.94,1.51l6.63-4.74A1.86,1.86,0,0,0,694.64,360.08Z" transform="translate(-625.28 -326.95)"/><circle class="cls-5" cx="63.52" cy="34.84" r="10.78"/></svg>