<svg id="Ebene_1" data-name="Ebene 1" xmlns="http://www.w3.org/2000/svg" viewBox="0 0 21.56 21.61"><defs><style>.cls-1{fill:none;stroke:#fff;stroke-linejoin:round;stroke-width:1.51px;}</style></defs><path class="cls-1" d="M494.11-185.31a2.19,2.19,0,0,0,2.2-2.19,2.19,2.19,0,0,0-2.2-2.2H494a8.29,8.29,0,0,0-.82-1.79,2.18,2.18,0,0,0,.54-1.43,2.19,2.19,0,0,0-2.19-2.2,2.17,2.17,0,0,0-1.57.66,7.19,7.19,0,0,0-1.56-.6l0-.25a2.19,2.19,0,0,0-2.2-2.2,2.19,2.19,0,0,0-2.19,2.2,1.43,1.43,0,0,0,0,.29,7.93,7.93,0,0,0-1.65.67,2.19,2.19,0,0,0-1.68-.8,2.21,2.21,0,0,0-2.2,2.2,2.22,2.22,0,0,0,.77,1.66,8.08,8.08,0,0,0-.7,1.59h-.12a2.2,2.2,0,0,0-2.2,2.2,2.19,2.19,0,0,0,2.19,2.19,8.23,8.23,0,0,0,.53,1.49,2.19,2.19,0,0,0-1.1,1.89,2.2,2.2,0,0,0,2.2,2.2,2.18,2.18,0,0,0,1.7-.83,7.84,7.84,0,0,0,2.23,1,2.21,2.21,0,0,0,2.19,2.13,2.2,2.2,0,0,0,2.19-2.09,7.47,7.47,0,0,0,1.91-.79,2.18,2.18,0,0,0,1.64.76,2.19,2.19,0,0,0,2.2-2.2,2.21,2.21,0,0,0-.78-1.67,8.06,8.06,0,0,0,.75-1.93Zm-7.83,1.55a3.5,3.5,0,0,1-3.5-3.5,3.5,3.5,0,0,1,3.5-3.5,3.5,3.5,0,0,1,3.5,3.5,3.5,3.5,0,0,1-3.5,3.5" transform="translate(-475.51 198.25)"/></svg>