<svg id="Ebene_1" data-name="Ebene 1" xmlns="http://www.w3.org/2000/svg" viewBox="0 0 23.04 23.04"><defs><style>.cls-1{fill:#75b8a4;}.cls-2{fill:none;stroke:#fff;stroke-linecap:round;stroke-linejoin:round;stroke-width:1.5px;}</style></defs><path class="cls-1" d="M11.52,23A11.52,11.52,0,1,0,0,11.52,11.52,11.52,0,0,0,11.52,23"/><path class="cls-2" d="M5.68,8.14,10,13c0,1.49,0,3,.07,4.46a.77.77,0,0,0,.42.66.74.74,0,0,0,.77-.07l1.56-1.12a.77.77,0,0,0,.31-.61V12.94l4.27-4.8a.73.73,0,0,0,.12-.8.75.75,0,0,0-.68-.45H6.24a.75.75,0,0,0-.68.45A.73.73,0,0,0,5.68,8.14Z"/></svg>