<?xml version="1.0" encoding="utf-8"?>
<!-- Generator: Adobe Illustrator 23.0.3, SVG Export Plug-In . SVG Version: 6.00 Build 0)  -->
<svg version="1.1" id="Ebene_1" xmlns="http://www.w3.org/2000/svg" xmlns:xlink="http://www.w3.org/1999/xlink" x="0px" y="0px"
	 viewBox="0 0 595.28 841.89" style="enable-background:new 0 0 595.28 841.89;" xml:space="preserve">
<style type="text/css">
	.st0{fill:#909191;}
</style>
<g>
	<path class="st0" d="M152.13,417.66c5.82-0.02,10.54-4.74,10.54-10.55c0-5.81-4.72-10.53-10.54-10.55
		c-5.81-0.02-10.59,4.76-10.56,10.57C141.6,412.95,146.33,417.68,152.13,417.66 M152.11,421.89c-5.56,0-11.12,0-16.68,0
		c-1.49,0-2.69-0.56-3.59-1.74c-0.56-0.75-0.84-1.6-0.84-2.55c0.01-2.05,0-4.11,0-6.16c0-4.19,0.04-8.37-0.01-12.56
		c-0.03-2.42,1.93-4.52,4.46-4.44c1.54,0.05,3.09,0.01,4.64,0.01c0.95,0,4.1-3.54,5.08-3.54c4.63,0,9.25,0,13.87,0
		c1.01,0,4.12,3.53,5.15,3.54c1.54,0,3.09,0,4.64,0c2.54,0.01,4.39,1.85,4.39,4.38c0,6.25,0,12.5,0,18.75
		c0,2.03-1.35,3.75-3.31,4.19c-0.39,0.09-0.8,0.11-1.2,0.11C163.19,421.89,157.65,421.89,152.11,421.89"/>
	<path class="st0" d="M152.13,413.44c-3.49,0.01-6.36-2.86-6.35-6.34c0.02-3.48,2.85-6.31,6.33-6.32c3.49,0,6.36,2.86,6.35,6.34
		C158.44,410.61,155.61,413.43,152.13,413.44"/>
</g>
</svg>
