<svg id="Ebene_1" data-name="Ebene 1" xmlns="http://www.w3.org/2000/svg" viewBox="0 0 21.13 18.17"><defs><style>.cls-1,.cls-2,.cls-3{fill:none;}.cls-2,.cls-3{stroke:#626262;stroke-width:1.3px;}.cls-2{stroke-miterlimit:10;}.cls-3{stroke-linejoin:round;}</style></defs><path class="cls-1" d="M4.76,9.77a2.9,2.9,0,1,0-2.9-2.9,2.9,2.9,0,0,0,2.9,2.9" transform="translate(0 0)"/><path class="cls-2" d="M4.76,9.77a2.9,2.9,0,1,0-2.9-2.9,2.9,2.9,0,0,0,2.9,2.9" transform="translate(0 0)"/><path class="cls-1" d="M8.07,17.52a.8.8,0,0,0,.8-.8V13.4a1.73,1.73,0,0,0-1.73-1.73H2.38A1.73,1.73,0,0,0,.65,13.4v3.32a.8.8,0,0,0,.8.8Z" transform="translate(0 0)"/><path class="cls-2" d="M8.07,17.52a.8.8,0,0,0,.8-.8V13.4a1.73,1.73,0,0,0-1.73-1.73H2.38A1.73,1.73,0,0,0,.65,13.4v3.32a.8.8,0,0,0,.8.8Z" transform="translate(0 0)"/><path class="cls-3" d="M19.07,8a1.2,1.2,0,0,0,.42-2.37h-.07a4.17,4.17,0,0,0-.28-1,1.14,1.14,0,0,0,.43-.72,1.2,1.2,0,0,0-1-1.39,1.18,1.18,0,0,0-.9.21,4.22,4.22,0,0,0-.79-.47l0-.14a1.2,1.2,0,1,0-2.37-.41.76.76,0,0,0,0,.15,5,5,0,0,0-1,.21,1.19,1.19,0,0,0-2.22.39,1.21,1.21,0,0,0,.26,1,4.74,4.74,0,0,0-.53.79h-.06a1.2,1.2,0,1,0-.42,2.36,4.08,4.08,0,0,0,.14.85,1.19,1.19,0,0,0,.2,2.3,1.2,1.2,0,0,0,1-.28,4.27,4.27,0,0,0,1.1.77,1.2,1.2,0,0,0,2.35.44,4.5,4.5,0,0,0,1.1-.24,1.19,1.19,0,0,0,.82.56,1.19,1.19,0,0,0,1.12-2,4.34,4.34,0,0,0,.59-1Zm-4.36.08a1.91,1.91,0,0,1,.67-3.77,1.91,1.91,0,1,1-.67,3.77" transform="translate(0 0)"/></svg>