<?xml version="1.0" encoding="utf-8"?>
<!-- Generator: Adobe Illustrator 23.0.3, SVG Export Plug-In . SVG Version: 6.00 Build 0)  -->
<svg version="1.1" id="Ebene_1" xmlns="http://www.w3.org/2000/svg" xmlns:xlink="http://www.w3.org/1999/xlink" x="0px" y="0px"
	 viewBox="0 0 241.6 203.9" style="enable-background:new 0 0 241.6 203.9;" xml:space="preserve">
<style type="text/css">
	.st0{fill:#B9BABA;}
</style>
<g>
	<path class="st0" d="M20.6,161.8c-6.6,0-11.2,4.7-11.2,11.2c0,6.4,4.5,11,11.2,11s11.2-4.6,11.2-11
		C31.8,166.5,27.3,161.8,20.6,161.8 M31.8,180.9h-0.1c-2,4-6.3,6.5-11.6,6.5c-7.8,0-14.4-5.4-14.4-14.5c0-8.4,6.2-14.6,15-14.6
		s14.9,6,14.9,14.8v11.4c0,10.8-6.5,14.9-14.8,14.9c-6.7,0-12.1-2.8-14-9h3.8c1.5,3.9,5.4,5.6,10.1,5.6c6.4,0,11-3.2,11-11.4
		L31.8,180.9L31.8,180.9z"/>
	<path class="st0" d="M68.5,172.9c0-6.4-4.5-11.2-11.2-11.2s-11.2,4.7-11.2,11.2c0,6.4,4.5,11.2,11.2,11.2S68.5,179.4,68.5,172.9
		 M72.2,186.9h-3.5v-6.6h-0.1c-1.9,4.4-6.3,7.3-11.9,7.3c-7.8,0-14.4-5.6-14.4-14.7c0-8.4,6.2-14.6,15-14.6s14.9,6,14.9,14.8
		L72.2,186.9L72.2,186.9z"/>
	<path class="st0" d="M100.1,170.6v-0.4c0-5.8-3.2-8.4-7.9-8.4c-4.8,0-7.9,2.6-7.9,8.4v16.7h-3.8v-16.7c0-8,4.8-11.9,11.7-11.9
		s11.7,3.9,11.7,11.9v0.3L100.1,170.6L100.1,170.6z"/>
	<path class="st0" d="M135.3,172.9c0-6.4-4.5-11.2-11.2-11.2c-6.7,0-11.2,4.7-11.2,11.2c0,6.4,4.5,11.2,11.2,11.2
		C130.8,184.1,135.3,179.4,135.3,172.9 M109.2,172.9c0-9.1,6.6-14.6,14.4-14.6c5.4,0,9.6,2.5,11.6,6.5h0.1v-17.9h3.8v25.9
		c0,8.9-6.1,14.8-14.9,14.8C115.4,187.6,109.2,181.4,109.2,172.9"/>
	<path class="st0" d="M147.7,159h3.8v27.9h-3.8V159z M146.7,151.5c0-1.6,1.3-2.9,2.9-2.9s2.9,1.3,2.9,2.9c0,1.5-1.3,2.9-2.9,2.9
		C148,154.4,146.7,153,146.7,151.5"/>
	<path class="st0" d="M160.8,186.9v-29c0-7.8,4.8-11.8,11.7-11.8s11.7,4,11.7,11.9h-3.7c0-5.8-3.2-8.5-7.9-8.5
		c-4.8,0-7.9,2.6-7.9,8.3v5h16.3v3.4h-16.3v20.5L160.8,186.9L160.8,186.9z"/>
	<path class="st0" d="M211.6,159h3.8v26.8c0,9.7-6.1,13.6-13.9,13.6c-6.3,0-11.6-2.9-13.3-9h3.8c1.5,3.8,4.9,5.6,9.5,5.6
		c6,0,10.1-2.9,10.1-10.2v-4.4h-0.1c-1.9,3.7-5.6,5.9-10.4,5.9c-7.4,0-13.2-4.5-13.2-14V159h3.8v14.4c0,6.9,3.9,10.5,10,10.5
		c6,0,10-3.7,10-10.5L211.6,159L211.6,159z"/>
	<path class="st0" d="M20.6,161.8c-6.6,0-11.2,4.7-11.2,11.2c0,6.4,4.5,11,11.2,11s11.2-4.6,11.2-11
		C31.8,166.5,27.3,161.8,20.6,161.8 M31.8,180.9h-0.1c-2,4-6.3,6.5-11.6,6.5c-7.8,0-14.4-5.4-14.4-14.5c0-8.4,6.2-14.6,15-14.6
		s14.9,6,14.9,14.8v11.4c0,10.8-6.5,14.9-14.8,14.9c-6.7,0-12.1-2.8-14-9h3.8c1.5,3.9,5.4,5.6,10.1,5.6c6.4,0,11-3.2,11-11.4
		L31.8,180.9L31.8,180.9z"/>
	<path class="st0" d="M68.5,172.9c0-6.4-4.5-11.2-11.2-11.2s-11.2,4.7-11.2,11.2c0,6.4,4.5,11.2,11.2,11.2S68.5,179.4,68.5,172.9
		 M72.2,186.9h-3.5v-6.6h-0.1c-1.9,4.4-6.3,7.3-11.9,7.3c-7.8,0-14.4-5.6-14.4-14.7c0-8.4,6.2-14.6,15-14.6s14.9,6,14.9,14.8
		L72.2,186.9L72.2,186.9z"/>
	<path class="st0" d="M100.1,170.6v-0.4c0-5.8-3.2-8.4-7.9-8.4c-4.8,0-7.9,2.6-7.9,8.4v16.7h-3.8v-16.7c0-8,4.8-11.9,11.7-11.9
		s11.7,3.9,11.7,11.9v0.3L100.1,170.6L100.1,170.6z"/>
	<path class="st0" d="M135.3,172.9c0-6.4-4.5-11.2-11.2-11.2c-6.7,0-11.2,4.7-11.2,11.2c0,6.4,4.5,11.2,11.2,11.2
		C130.8,184.1,135.3,179.4,135.3,172.9 M109.2,172.9c0-9.1,6.6-14.6,14.4-14.6c5.4,0,9.6,2.5,11.6,6.5h0.1v-17.9h3.8v25.9
		c0,8.9-6.1,14.8-14.9,14.8C115.4,187.6,109.2,181.4,109.2,172.9"/>
	<path class="st0" d="M147.7,159h3.8v27.9h-3.8V159z M146.7,151.5c0-1.6,1.3-2.9,2.9-2.9s2.9,1.3,2.9,2.9c0,1.5-1.3,2.9-2.9,2.9
		C148,154.4,146.7,153,146.7,151.5"/>
	<path class="st0" d="M160.8,186.9v-29c0-7.8,4.8-11.8,11.7-11.8s11.7,4,11.7,11.9h-3.7c0-5.8-3.2-8.5-7.9-8.5
		c-4.8,0-7.9,2.6-7.9,8.3v5h16.3v3.4h-16.3v20.5L160.8,186.9L160.8,186.9z"/>
	<path class="st0" d="M211.6,159h3.8v26.8c0,9.7-6.1,13.6-13.9,13.6c-6.3,0-11.6-2.9-13.3-9h3.8c1.5,3.8,4.9,5.6,9.5,5.6
		c6,0,10.1-2.9,10.1-10.2v-4.4h-0.1c-1.9,3.7-5.6,5.9-10.4,5.9c-7.4,0-13.2-4.5-13.2-14V159h3.8v14.4c0,6.9,3.9,10.5,10,10.5
		c6,0,10-3.7,10-10.5L211.6,159L211.6,159z"/>
	<path class="st0" d="M161,70.2c-1.1-4.3-3.8-12-8.7-17.1c-2.7-2.8-8.3-9.8-12.3-23.2c-2.7-9.1-8.3-17.9-10-20.1
		c-0.1-0.2,0-0.4,0.2-0.4c8.4,2.2,15.8,7.8,21.6,13c4.1,3.7,7.6,7.8,10.3,12.6c2.3,4.2,4.1,8.6,5.5,13.2c3.2,10.4,2.3,19.9,0,30.4
		c-0.9,4.2-2.9,9-3.8,11c-0.1,0.2-0.4,0.2-0.4-0.1C163.2,86.6,162.9,77.6,161,70.2z"/>
	<path class="st0" d="M123,38.5c-0.2-0.1-0.1-0.5,0.2-0.4c2.3,0.6,5.9,1.5,8.4,2.4c4.8,1.6,17.8,8.3,22.9,25.3
		c0.1,0.2-0.2,0.4-0.4,0.2c-1.3-1.4-4.2-4.4-8.7-6.4C130.4,52.6,132.6,43.9,123,38.5z"/>
	<circle class="st0" cx="110.5" cy="67.8" r="15"/>
	<path class="st0" d="M112.9,123.6c-0.2,0.1-0.2,0.4,0.1,0.4c2.8,0.2,11,0.1,19.7-4.6c12-6.5,13.8-15.1,12.9-21.7
		c-0.9-6-4.3-17-5-19.1c-0.1-0.2-0.3-0.2-0.4-0.1c-1.7,1.7-10.7,11.4-11.6,22C127.9,108.3,122.8,119.8,112.9,123.6z"/>
	<path class="st0" d="M122.6,106.7c0.2-0.2,0.5,0.1,0.3,0.3c-1.4,2.6-5.4,9.3-11.3,13c-10.1,6.3-23.5,0.2-27.3-1.7
		c-0.2-0.1-0.1-0.4,0.1-0.4c3,0.3,11.2,1,16.2,0.1C106.2,117,110.9,116.7,122.6,106.7z"/>
	<path class="st0" d="M123.3,99c0.2,0,0.2,0.2,0.1,0.4c-4.5,5.7-10.6,10.3-17.9,12.9c-15.4,5.4-28.5,2.9-42.3-11.1
		c-0.2-0.2,0-0.5,0.3-0.3c3.2,1.8,6.9,3,10.6,3.4c2.5,0.3,5.1,0.1,7.7-0.4c4.6-0.8,17.2-4.8,25.8-5.3
		C116.2,97.9,121.9,98.8,123.3,99z"/>
	<g>
		<path class="st0" d="M51.7,52.7c0,0-3,17.1,1.3,28.6c3.2,8.6,11.4,23.8,46.5,14.9c0.3-0.1,0.2-0.4,0-0.4
			c-3.3-0.3-11.3-2-16.8-10.8C75.9,74.2,68,77.5,61.4,70.1C54.6,62.5,53,56.4,51.7,52.7z"/>
	</g>
	<g>
		<path class="st0" d="M70,71.9c0.7,0.3,8.9-1,10.8-9.5c3.4-15.7,13.8-21.5,21.2-25.2c0.2-0.1,0.1-0.5-0.1-0.4
			c-4.5,0.4-21.3,2.5-29.2,13.7c-3.5,4.9-3.9,9.7-3.8,13.3C69,69.7,69.3,71.6,70,71.9z"/>
	</g>
	<path class="st0" d="M88.9,12.4c-0.2-0.1-0.2-0.3,0-0.4c3.4-1.4,21.9-8.9,31.1-3.8c9.6,5.4,12.9,14.1,15.6,23.6
		c0.1,0.2-0.2,0.4-0.4,0.2c-0.5-0.7-5.5-7.9-12.6-11c-9-3.9-13.6-2.6-18.2-3.3C99.9,17,95.1,16.6,88.9,12.4z"/>
	<g>
		<path class="st0" d="M65,68.1c0,0.2-0.2,0.4-0.4,0.2c-11.3-11-11.6-26.2-3.4-37.5c5.3-7.4,10.7-10.8,15.7-12.6
			c8.6-3,15.3,0.2,21.9,3c0.2,0.1,0.2,0.3,0,0.4c-10,4.9-8.9,10.1-17.4,15.7C70.9,44.3,62.2,52.1,65,68.1z"/>
	</g>
	<path class="st0" d="M104.3,31.6c-5.1-1.3-10-0.5-13.2,1.5c-0.5,0.3-0.8,0.5-0.9,0.3c0-0.1,0.1-0.4,0.8-1.2
		c2.2-2.3,5.2-5.5,9.3-7.3c6-2.5,11.9-2,16-1.2c10.8,2.2,17.9,12,19.4,13.3c0.3,0.2,0.4,0.5,0.3,0.7c-0.1,0.1-0.3,0-0.5-0.1
		c-9.3-5.3-15.8-4.6-19.3-4.3C112,33.6,107,32.2,104.3,31.6z"/>
	<path class="st0" d="M157.6,87.8c0.4,9.8-6.3,18.7-8.9,21.7c-0.2,0.2-0.5,0-0.4-0.2c1.1-2.8,3.3-9.9,0.1-19.6
		c-3.6-11.4-5.6-15.9-5.9-26.7c0-0.2,0.1-0.3,0.3-0.2c1.1,0.4,4.9,1.9,7.8,5.5C155.1,73.5,157.3,80.4,157.6,87.8z"/>
</g>
<g>
	<path class="st0" d="M229.5,145.8c5.2,0,9.2,4,9.2,9c0,5.1-4,9.1-9.3,9.1c-5.2,0-9.3-4-9.3-9.1
		C220.2,149.8,224.3,145.8,229.5,145.8L229.5,145.8z M229.4,147.6c-4,0-6.9,3.3-6.9,7.2c0,4,3,7.2,7,7.2c4,0.1,6.9-3.2,6.9-7.2
		C236.4,150.9,233.5,147.6,229.4,147.6L229.4,147.6z M228,159.5h-2.1v-9c0.8-0.2,2-0.3,3.5-0.3c1.7,0,2.5,0.3,3.1,0.7
		c0.5,0.4,0.9,1.1,0.9,1.9c0,1-0.8,1.8-1.9,2.1v0.1c0.9,0.3,1.4,1,1.7,2.2c0.3,1.4,0.4,1.9,0.7,2.2h-2.3c-0.3-0.3-0.4-1.1-0.7-2.1
		c-0.2-1-0.7-1.4-1.9-1.4h-1V159.5z M228.1,154.4h1c1.2,0,2.1-0.4,2.1-1.3c0-0.8-0.6-1.4-1.9-1.4c-0.5,0-0.9,0.1-1.2,0.1
		L228.1,154.4L228.1,154.4z"/>
</g>
</svg>
