<svg id="Ebene_1" data-name="Ebene 1" xmlns="http://www.w3.org/2000/svg" viewBox="0 0 40.99 40.99"><defs><style>.cls-1{fill:#fff;opacity:0.6;}</style></defs><path class="cls-1" d="M10.68,1.26V9.43a1.25,1.25,0,0,1-1.25,1.25H1.25A1.25,1.25,0,0,1,0,9.43V1.26A1.26,1.26,0,0,1,1.25,0H9.43A1.26,1.26,0,0,1,10.68,1.26Z"/><rect class="cls-1" x="30.31" y="15.16" width="10.68" height="10.68" rx="1.25"/><rect class="cls-1" x="30.31" y="30.24" width="10.68" height="10.68" rx="1.25"/><path class="cls-1" d="M25.84,16.41v8.18a1.26,1.26,0,0,1-1.26,1.25H16.41a1.25,1.25,0,0,1-1.25-1.25V16.41a1.25,1.25,0,0,1,1.25-1.25h8.17A1.26,1.26,0,0,1,25.84,16.41Z"/><path class="cls-1" d="M25.84,1.26V9.43a1.26,1.26,0,0,1-1.26,1.25H16.41a1.25,1.25,0,0,1-1.25-1.25V1.26A1.26,1.26,0,0,1,16.41,0h8.17A1.27,1.27,0,0,1,25.84,1.26Z"/><rect class="cls-1" y="30.32" width="10.68" height="10.67" rx="1.25"/><rect class="cls-1" y="15.16" width="10.68" height="10.68" rx="1.25"/><path class="cls-1" d="M25.84,31.57v8.17A1.26,1.26,0,0,1,24.58,41H16.41a1.25,1.25,0,0,1-1.25-1.25V31.57a1.25,1.25,0,0,1,1.25-1.25h8.17A1.26,1.26,0,0,1,25.84,31.57Z"/><path class="cls-1" d="M41,1.26V9.43a1.25,1.25,0,0,1-1.25,1.25H31.57a1.26,1.26,0,0,1-1.26-1.25V1.26A1.27,1.27,0,0,1,31.57,0h8.17A1.26,1.26,0,0,1,41,1.26Z"/></svg>