<svg xmlns="http://www.w3.org/2000/svg" viewBox="0 0 139.35 120.77"><defs><style>.cls-1{fill:#fff;}</style></defs><title>gardify_weiss</title><g id="Icons"><path class="cls-1" d="M40.2,89.56h0A4.7,4.7,0,0,1,35.81,92a5.2,5.2,0,0,1-5.4-5.42A5.36,5.36,0,0,1,36,81.09a5.31,5.31,0,0,1,5.59,5.55v4.29c0,4-2.43,5.59-5.53,5.59-2.51,0-4.51-1-5.23-3.35h1.43c.57,1.47,2,2.11,3.8,2.11,2.41,0,4.12-1.21,4.12-4.29ZM36,82.4a4,4,0,0,0-4.18,4.18A4,4,0,0,0,36,90.7a4,4,0,0,0,4.18-4.12A4,4,0,0,0,36,82.4Z"/><path class="cls-1" d="M55.35,91.79h-1.3V89.32h0a4.61,4.61,0,0,1-4.45,2.75,5.25,5.25,0,0,1-5.4-5.49,5.36,5.36,0,0,1,5.61-5.49,5.32,5.32,0,0,1,5.59,5.55Zm-1.41-5.21a4.18,4.18,0,1,0-4.18,4.18A4,4,0,0,0,53.94,86.58Z"/><path class="cls-1" d="M65.78,85.69v-.14c0-2.18-1.2-3.15-3-3.15s-3,1-3,3.15v6.24H58.42V85.55c0-3,1.79-4.46,4.39-4.46s4.36,1.46,4.36,4.48v.12Z"/><path class="cls-1" d="M69.18,86.58a5.26,5.26,0,0,1,5.41-5.49,4.69,4.69,0,0,1,4.34,2.43h0V76.81h1.42v9.71a5.61,5.61,0,0,1-11.21.06Zm9.79,0a4.18,4.18,0,1,0-4.17,4.18A4,4,0,0,0,79,86.58Z"/><path class="cls-1" d="M83.22,78.54a1.08,1.08,0,1,1,1.08,1.08A1.1,1.1,0,0,1,83.22,78.54Zm.38,13.25V81.37H85V91.79Z"/><path class="cls-1" d="M88.5,91.79V81a4,4,0,0,1,4.39-4.41c2.59,0,4.36,1.49,4.36,4.47H95.86c0-2.17-1.2-3.17-3-3.17s-3,1-3,3.11v1.87H96v1.29H89.91v7.68Z"/><path class="cls-1" d="M107.53,81.37H109v10c0,3.63-2.3,5.11-5.21,5.11-2.37,0-4.33-1.1-5-3.35h1.41a3.49,3.49,0,0,0,3.57,2.11c2.23,0,3.79-1.1,3.79-3.82V89.79h0a4.16,4.16,0,0,1-3.9,2.21c-2.79,0-4.94-1.68-4.94-5.25V81.37h1.41v5.38c0,2.57,1.48,4,3.74,4s3.73-1.4,3.73-4Z"/><path class="cls-1" d="M85.77,62c.17-.43.35-.85.5-1.29a15.19,15.19,0,0,0,.67-6,31.29,31.29,0,0,0-1.53-6.75c-.42-1.39-.83-2.78-1.2-4.18a22.3,22.3,0,0,1-.45-6.67c.06-1.4.13-2.81.12-4.22a8.23,8.23,0,0,0-.73-3.34c0-.05,0-.11-.09-.23l.39.25.32.23a18.91,18.91,0,0,1,5.82,6.53A18.61,18.61,0,0,1,91.65,42a25.85,25.85,0,0,1,.27,5.35A23.23,23.23,0,0,1,88.28,58.6c-.69,1.12-1.53,2.15-2.31,3.22L85.8,62l0,0"/><path class="cls-1" d="M51.92,40c0-.7,0-1.44,0-2.17A13.76,13.76,0,0,1,52.67,34a15.36,15.36,0,0,1,4.48-6.54,12,12,0,0,1,4.75-2.58,10,10,0,0,1,3.7-.28,11.65,11.65,0,0,1,6.48,3.09c.11.1.21.22.36.37L71.06,29.3c-3,2.69-6.71,4.12-10.53,5.26-1.45.42-2.9.84-4.3,1.39A7.82,7.82,0,0,0,53,38.17,11.52,11.52,0,0,0,52,39.73a1.83,1.83,0,0,0-.1.25"/><path class="cls-1" d="M78.71,54.6c0,1.07,0,2.09,0,3.12a17.1,17.1,0,0,1-.88,5.21,10,10,0,0,1-3.13,4.7,8.79,8.79,0,0,1-3.88,1.76,13.47,13.47,0,0,1-5.44-.13,34.15,34.15,0,0,1-5.67-1.85s-.05,0,0,0c.55,0,1.15,0,1.75,0a9.46,9.46,0,0,0,3.88-1.13,14.68,14.68,0,0,0,4.33-3.54c1-1.22,2-2.49,3-3.75a12.86,12.86,0,0,1,4-3.28l2-1.1"/><path class="cls-1" d="M48.64,35.5a8.77,8.77,0,0,0,2.16,5.79c1,1.26,2.09,2.46,3.17,3.64a14,14,0,0,1,3.56,6.66,13.51,13.51,0,0,0,1.19,3.64l.25.47-1-.27a22.61,22.61,0,0,1-4.53-1.61,20.78,20.78,0,0,1-2.7-1.59,7.51,7.51,0,0,1-2.87-4.46,21.37,21.37,0,0,1-.46-5.41,21.77,21.77,0,0,1,1.16-6.69,1.58,1.58,0,0,1,.09-.17"/><path class="cls-1" d="M70.22,59.81a14.68,14.68,0,0,1-21.83-7.13c.33.41.64.84,1,1.24a7.83,7.83,0,0,0,3.71,2.13,18.84,18.84,0,0,0,4,.65c1.52.09,3,.16,4.56.29a20,20,0,0,1,6.31,1.73c.76.34,1.49.71,2.29,1.09"/><path class="cls-1" d="M69.68,24.25c.88.07,1.76.09,2.64.2a26.81,26.81,0,0,1,3.23.51,8.23,8.23,0,0,1,6.5,6.72,16.7,16.7,0,0,1,.19,5.09c0,.54-.09,1.09-.18,1.64-.06-.33-.11-.67-.19-1a8.49,8.49,0,0,0-2-3.72c-1-1.08-2.08-2.06-3.12-3.1-1.54-1.52-3.06-3.05-4.59-4.57a7.65,7.65,0,0,0-2.45-1.78"/><path class="cls-1" d="M77.43,68.41c.47-.65.94-1.29,1.4-1.94a6.38,6.38,0,0,0,.76-1.63A17,17,0,0,0,80.21,59c0-1.6,0-3.2.05-4.8a23.22,23.22,0,0,1,1-4.64c0-.18.1-.35.15-.52s0,0,0,0A10.07,10.07,0,0,1,84,54.38a15.32,15.32,0,0,1-2.1,9.38,15.54,15.54,0,0,1-3.51,4.11,7.34,7.34,0,0,1-.94.57l0,0"/><path class="cls-1" d="M69.3,31.61a9.57,9.57,0,0,1,6.53.26,8.32,8.32,0,0,1,2.88,2.25,13.82,13.82,0,0,1,2.83,5.71c0,.05,0,.11,0,.19a11,11,0,0,0-4.38-3.59c-1.77-1-3.55-1.9-5.29-2.92a26.54,26.54,0,0,1-2.32-1.66l-.28-.24"/><path class="cls-1" d="M76.63,38.59a12.58,12.58,0,0,0,1.36.82,10.43,10.43,0,0,1,4.82,4.8A27.28,27.28,0,0,1,85,50.61a10.92,10.92,0,0,1,.24,1.73L85.07,52a13.47,13.47,0,0,0-2.27-3.74c-.84-1-1.77-1.86-2.69-2.76a11.17,11.17,0,0,1-2.88-3.95,10,10,0,0,1-.6-2.71,1.7,1.7,0,0,1,0-.23"/><path class="cls-1" d="M64.84,34.56c-.56.42-1.13.83-1.68,1.26a2.68,2.68,0,0,0-.52.49c-.82,1-1.65,2.08-2.44,3.16a7.43,7.43,0,0,1-4.39,2.86l-1.2.31c.61-1.08.73-2.29,1.32-3.35a7.42,7.42,0,0,1,4.63-3.7c1.42-.39,2.85-.73,4.27-1.09v.06"/><path class="cls-1" d="M65.86,64.27A8.68,8.68,0,0,1,63,66.07a7.74,7.74,0,0,1-7.17-1.15c-1.18-.81-2.31-1.69-3.45-2.58.51.16,1,.33,1.54.48a17.7,17.7,0,0,0,3.76.63c1.74.12,3.49.28,5.23.44.85.08,1.7.19,2.55.3a3,3,0,0,1,.39.08"/><path class="cls-1" d="M57.93,47a4.42,4.42,0,0,1,1.61,1.32,8.69,8.69,0,0,1,1.6,3c.2.64.35,1.29.52,1.94a5,5,0,0,0,1.86,3s0,.06.09.11A4,4,0,0,1,62,55.62c-.55-.36-1.07-.76-1.59-1.17a5.24,5.24,0,0,1-1.3-2.14,15.26,15.26,0,0,1-.8-3.28c-.12-.61-.23-1.23-.33-1.85a.92.92,0,0,1,0-.18"/><path class="cls-1" d="M76.05,54.71a8.26,8.26,0,0,0-2.36,1.44,13.34,13.34,0,0,1-1.62,1.07,5,5,0,0,1-3,.53c-.47,0-1-.14-1.51-.22a11.24,11.24,0,0,1,3.91-2.45,10.88,10.88,0,0,1,4.54-.37"/><path class="cls-1" d="M69.92,51.8A5.94,5.94,0,1,0,64,45.86a5.94,5.94,0,0,0,5.94,5.94"/></g></svg>