<svg id="Ebene_1" data-name="Ebene 1" xmlns="http://www.w3.org/2000/svg" viewBox="0 0 17.52 17.52"><defs><style>.cls-1{fill:#fff;}</style></defs><path class="cls-1" d="M488.48-187.45a2.2,2.2,0,0,1-2.19,2.19,2.19,2.19,0,0,1-2.19-2.19,2.2,2.2,0,0,1,2.19-2.19,2.2,2.2,0,0,1,2.19,2.19m2.19,0a4.39,4.39,0,0,0-4.38-4.38,4.39,4.39,0,0,0-4.38,4.38,4.38,4.38,0,0,0,4.38,4.38,4.39,4.39,0,0,0,4.38-4.38m1.23-4.78a.87.87,0,0,0-.87-.87.87.87,0,0,0-.86.87.87.87,0,0,0,.86.86.87.87,0,0,0,.87-.86m1,9.82a1.53,1.53,0,0,1-1.54,1.53H481.25a1.52,1.52,0,0,1-1.53-1.53v-10.07a1.53,1.53,0,0,1,1.53-1.54h10.07a1.54,1.54,0,0,1,1.54,1.54Zm2.19,0v-10.07a3.73,3.73,0,0,0-3.73-3.73H481.25a3.73,3.73,0,0,0-3.72,3.73v10.07a3.73,3.73,0,0,0,3.72,3.72h10.07a3.73,3.73,0,0,0,3.73-3.72" transform="translate(-477.53 196.21)"/></svg>