<svg id="Ebene_1" data-name="Ebene 1" xmlns="http://www.w3.org/2000/svg" viewBox="0 0 111.4 99.97"><defs><style>.cls-1{font-size:29.2px;font-family:AllRoundGothic-Book, All Round Gothic;}.cls-1,.cls-8{fill:#fff;}.cls-2{letter-spacing:0.04em;}.cls-3{letter-spacing:0.05em;}.cls-4{letter-spacing:0.05em;}.cls-5{letter-spacing:0.03em;}.cls-6{letter-spacing:0.03em;}.cls-7{letter-spacing:0.02em;}</style></defs><title>Logo_grau</title><text class="cls-1" transform="translate(0 93.43)"><tspan class="cls-2">g</tspan><tspan class="cls-3" x="19.01" y="0">a</tspan><tspan class="cls-4" x="38.17" y="0">r</tspan><tspan class="cls-5" x="53.64" y="0">d</tspan><tspan class="cls-6" x="72.45" y="0">i</tspan><tspan class="cls-7" x="79.31" y="0">f</tspan><tspan x="93.82" y="0">y</tspan></text><path class="cls-8" d="M755.31,380c.23-.59.48-1.18.68-1.78a21,21,0,0,0,.93-8.34,42.92,42.92,0,0,0-2.11-9.35c-.58-1.91-1.15-3.83-1.66-5.77a31.1,31.1,0,0,1-.63-9.23c.09-1.94.18-3.89.17-5.84a11.37,11.37,0,0,0-1-4.62l-.13-.32c.23.15.39.24.54.35l.45.32a26.4,26.4,0,0,1,8.05,9,25.64,25.64,0,0,1,2.84,8,35.24,35.24,0,0,1,.39,7.4,32.18,32.18,0,0,1-5.05,15.54c-.95,1.55-2.12,3-3.19,4.45a1.79,1.79,0,0,1-.23.25l0,0" transform="translate(-677.87 -327.77)"/><path class="cls-8" d="M708.47,349.52c0-1-.05-2,0-3a19.37,19.37,0,0,1,1-5.28,21.19,21.19,0,0,1,6.21-9,16.32,16.32,0,0,1,6.56-3.57,13.81,13.81,0,0,1,5.12-.39,16.08,16.08,0,0,1,9,4.27c.16.14.29.3.5.52-.64.58-1.27,1.16-1.9,1.72-4.21,3.73-9.29,5.71-14.58,7.28-2,.59-4,1.17-6,1.92a10.88,10.88,0,0,0-4.52,3.08,15.89,15.89,0,0,0-1.29,2.15,2.56,2.56,0,0,0-.15.34" transform="translate(-677.87 -327.77)"/><path class="cls-8" d="M745.53,369.75c0,1.48,0,2.9,0,4.32a24.11,24.11,0,0,1-1.22,7.2,14,14,0,0,1-4.34,6.52,12.09,12.09,0,0,1-5.37,2.42,18.5,18.5,0,0,1-7.52-.17,47.09,47.09,0,0,1-7.85-2.57s-.06,0,0,0c.76,0,1.6,0,2.43,0a12.72,12.72,0,0,0,5.37-1.56,20.22,20.22,0,0,0,6-4.89c1.45-1.69,2.81-3.45,4.2-5.18a17.87,17.87,0,0,1,5.51-4.54l2.81-1.53" transform="translate(-677.87 -327.77)"/><path class="cls-8" d="M703.93,343.33a12.15,12.15,0,0,0,3,8c1.39,1.73,2.88,3.39,4.39,5a19.5,19.5,0,0,1,4.91,9.21,19,19,0,0,0,1.65,5l.35.65-1.42-.37a31.53,31.53,0,0,1-6.26-2.23,28.91,28.91,0,0,1-3.73-2.19,10.32,10.32,0,0,1-4-6.17,29.05,29.05,0,0,1-.64-7.49,30.62,30.62,0,0,1,1.6-9.25,2.4,2.4,0,0,1,.12-.24" transform="translate(-677.87 -327.77)"/><path class="cls-8" d="M733.79,377c-10.86,7.44-26.16,1.94-30.2-9.87.46.56.89,1.17,1.4,1.71a10.89,10.89,0,0,0,5.13,3,26,26,0,0,0,5.47.89c2.11.13,4.21.22,6.31.41a27.64,27.64,0,0,1,8.73,2.39c1,.46,2.06,1,3.16,1.51" transform="translate(-677.87 -327.77)"/><path class="cls-8" d="M733,327.77c1.22.09,2.45.12,3.66.27a35.27,35.27,0,0,1,4.47.72,11.37,11.37,0,0,1,9,9.29,23.33,23.33,0,0,1,.26,7c-.07.76-.13,1.51-.25,2.27-.09-.45-.15-.92-.27-1.37a11.63,11.63,0,0,0-2.8-5.14c-1.38-1.49-2.88-2.85-4.32-4.28l-6.35-6.33a10.31,10.31,0,0,0-3.39-2.46" transform="translate(-677.87 -327.77)"/><path class="cls-8" d="M743.77,388.86c.64-.9,1.3-1.78,1.93-2.69a8.26,8.26,0,0,0,1-2.25,23.45,23.45,0,0,0,.86-8c-.06-2.21-.07-4.43.07-6.63a32.4,32.4,0,0,1,1.34-6.43l.21-.72s0,0,.06-.05c1.74,2.2,3.32,4.49,3.57,7.4a21.23,21.23,0,0,1-2.91,13,21.5,21.5,0,0,1-4.85,5.69,10.65,10.65,0,0,1-1.3.78l0,0" transform="translate(-677.87 -327.77)"/><path class="cls-8" d="M732.53,338a13.23,13.23,0,0,1,9,.36,11.42,11.42,0,0,1,4,3.11,19,19,0,0,1,3.92,7.9c0,.08,0,.15,0,.26-1.49-2.35-3.73-3.7-6.06-5s-4.91-2.64-7.32-4c-1.13-.66-2.14-1.52-3.2-2.29-.12-.09-.21-.19-.38-.34" transform="translate(-677.87 -327.77)"/><path class="cls-8" d="M742.66,347.61a19.1,19.1,0,0,0,1.88,1.13,14.36,14.36,0,0,1,6.67,6.64,37.31,37.31,0,0,1,3,8.86,14.36,14.36,0,0,1,.33,2.38c-.06-.16-.12-.33-.19-.49A18.89,18.89,0,0,0,751.2,361c-1.17-1.33-2.45-2.56-3.72-3.81a15.52,15.52,0,0,1-4-5.46,14.3,14.3,0,0,1-.83-3.76,3.09,3.09,0,0,1,0-.31" transform="translate(-677.87 -327.77)"/><path class="cls-8" d="M726.35,342c-.78.58-1.56,1.15-2.33,1.74a4.15,4.15,0,0,0-.71.68c-1.14,1.44-2.29,2.88-3.38,4.37a10.21,10.21,0,0,1-6.07,4l-1.66.43c.84-1.5,1-3.17,1.82-4.63a10.25,10.25,0,0,1,6.41-5.12c2-.55,3.94-1,5.9-1.52,0,0,0,.06,0,.09" transform="translate(-677.87 -327.77)"/><path class="cls-8" d="M727.77,383.13a12.2,12.2,0,0,1-4,2.5,10.74,10.74,0,0,1-9.91-1.6c-1.64-1.12-3.2-2.34-4.78-3.56.72.22,1.42.45,2.14.66a24.07,24.07,0,0,0,5.19.87c2.42.16,4.83.39,7.24.61,1.18.1,2.35.27,3.53.41a5.24,5.24,0,0,1,.55.11" transform="translate(-677.87 -327.77)"/><path class="cls-8" d="M716.8,359.24a6.19,6.19,0,0,1,2.22,1.83,12.28,12.28,0,0,1,2.22,4.1c.27.88.48,1.78.71,2.68a7,7,0,0,0,2.57,4.08s.06.08.13.15a5.59,5.59,0,0,1-2.29-.92,26.2,26.2,0,0,1-2.19-1.61,7.17,7.17,0,0,1-1.8-3,20.91,20.91,0,0,1-1.11-4.54c-.16-.85-.31-1.7-.46-2.55a2.24,2.24,0,0,1,0-.26" transform="translate(-677.87 -327.77)"/><path class="cls-8" d="M741.86,369.91a11.29,11.29,0,0,0-3.27,2,17.71,17.71,0,0,1-2.24,1.48,6.8,6.8,0,0,1-4.09.73c-.66-.06-1.32-.19-2.09-.3a15.58,15.58,0,0,1,5.41-3.4,15.14,15.14,0,0,1,6.28-.5" transform="translate(-677.87 -327.77)"/><path class="cls-8" d="M733.38,365.88a8.22,8.22,0,1,0-8.22-8.22,8.22,8.22,0,0,0,8.22,8.22" transform="translate(-677.87 -327.77)"/></svg>