<svg id="Ebene_1" data-name="Ebene 1" xmlns="http://www.w3.org/2000/svg" xmlns:xlink="http://www.w3.org/1999/xlink" viewBox="0 0 102.88 102.88"><defs><style>.cls-1{fill:url(#Unbenannter_Verlauf_41);}.cls-2{font-size:16.5px;font-family:AllRoundGothic-Book, All Round Gothic;}.cls-2,.cls-9{fill:#fff;}.cls-3{letter-spacing:0.04em;}.cls-4{letter-spacing:0.05em;}.cls-5{letter-spacing:0.05em;}.cls-6{letter-spacing:0.04em;}.cls-7{letter-spacing:0.03em;}.cls-8{letter-spacing:0.02em;}</style><linearGradient id="Unbenannter_Verlauf_41" x1="2078.41" y1="1043.31" x2="2181.29" y2="1043.31" gradientTransform="translate(1094.75 -2078.41) rotate(90)" gradientUnits="userSpaceOnUse"><stop offset="0" stop-color="#333" stop-opacity="0.97"/><stop offset="0.1" stop-color="#465033" stop-opacity="0.96"/><stop offset="0.22" stop-color="#596c34" stop-opacity="0.96"/><stop offset="0.35" stop-color="#688234" stop-opacity="0.96"/><stop offset="0.5" stop-color="#729134" stop-opacity="0.95"/><stop offset="0.68" stop-color="#789a34" stop-opacity="0.95"/><stop offset="0.97" stop-color="#7a9d34" stop-opacity="0.95"/></linearGradient></defs><title>Logo</title><circle class="cls-1" cx="51.44" cy="51.44" r="51.44"/><text class="cls-2" transform="translate(20.07 74.41)"><tspan class="cls-3">g</tspan><tspan class="cls-4" x="10.74" y="0">a</tspan><tspan class="cls-5" x="21.56" y="0">r</tspan><tspan class="cls-6" x="30.3" y="0">d</tspan><tspan class="cls-7" x="40.93" y="0">i</tspan><tspan class="cls-8" x="44.8" y="0">f</tspan><tspan x="53" y="0">y</tspan></text><path class="cls-9" d="M507.38,380.13c.13-.33.27-.66.39-1a11.7,11.7,0,0,0,.52-4.7,23.89,23.89,0,0,0-1.19-5.28c-.33-1.09-.65-2.17-.94-3.27a17.53,17.53,0,0,1-.35-5.21c.05-1.1.1-2.2.09-3.3a6.39,6.39,0,0,0-.57-2.61s0-.08-.07-.18l.3.19.26.19a15,15,0,0,1,4.55,5.1,14.55,14.55,0,0,1,1.6,4.48,20.18,20.18,0,0,1,.22,4.18,18.16,18.16,0,0,1-2.85,8.78c-.54.88-1.2,1.68-1.8,2.52l-.13.14,0,0" transform="translate(-443.56 -329.02)"/><path class="cls-9" d="M480.92,362.94c0-.55,0-1.12,0-1.7a11.16,11.16,0,0,1,.58-3,11.93,11.93,0,0,1,3.51-5.11,9.23,9.23,0,0,1,3.7-2,7.63,7.63,0,0,1,2.89-.22,9.08,9.08,0,0,1,5.07,2.41c.09.07.16.17.28.29l-1.07,1a20.84,20.84,0,0,1-8.24,4.11c-1.13.34-2.26.66-3.36,1.09a6.13,6.13,0,0,0-2.55,1.74,7.78,7.78,0,0,0-.73,1.21,1,1,0,0,0-.09.2" transform="translate(-443.56 -329.02)"/><path class="cls-9" d="M501.86,374.36c0,.84,0,1.64,0,2.44a13.68,13.68,0,0,1-.69,4.07,8,8,0,0,1-2.45,3.68,6.74,6.74,0,0,1-3,1.37,10.32,10.32,0,0,1-4.25-.1,25.89,25.89,0,0,1-4.44-1.45s0,0,0,0c.43,0,.9,0,1.37,0a7.19,7.19,0,0,0,3-.89,11.27,11.27,0,0,0,3.38-2.76c.82-1,1.59-2,2.38-2.93a10.11,10.11,0,0,1,3.11-2.56l1.59-.87" transform="translate(-443.56 -329.02)"/><path class="cls-9" d="M478.36,359.44a6.88,6.88,0,0,0,1.69,4.53c.79,1,1.63,1.91,2.48,2.84a11,11,0,0,1,2.78,5.2,10.7,10.7,0,0,0,.93,2.85l.19.36-.79-.2a17.57,17.57,0,0,1-3.54-1.27,16.37,16.37,0,0,1-2.11-1.23,5.82,5.82,0,0,1-2.24-3.49,16.25,16.25,0,0,1-.36-4.23,17.25,17.25,0,0,1,.9-5.23l.07-.13" transform="translate(-443.56 -329.02)"/><path class="cls-9" d="M495.23,378.44a11.47,11.47,0,0,1-17.06-5.57c.25.31.5.66.79,1a6.08,6.08,0,0,0,2.89,1.67,14.76,14.76,0,0,0,3.1.51c1.18.07,2.37.12,3.56.23a15.38,15.38,0,0,1,4.93,1.35c.59.26,1.16.55,1.79.85" transform="translate(-443.56 -329.02)"/><path class="cls-9" d="M494.8,350.65c.69.05,1.38.07,2.07.15a19.18,19.18,0,0,1,2.52.41,6.41,6.41,0,0,1,5.08,5.24,13,13,0,0,1,.15,4c0,.42-.07.85-.14,1.28-.05-.26-.09-.52-.15-.77a6.68,6.68,0,0,0-1.58-2.91c-.78-.84-1.63-1.61-2.44-2.42L496.72,352a5.81,5.81,0,0,0-1.92-1.39" transform="translate(-443.56 -329.02)"/><path class="cls-9" d="M500.86,385.16c.37-.51.74-1,1.09-1.52a4.93,4.93,0,0,0,.6-1.27,13.63,13.63,0,0,0,.49-4.54c0-1.25-.05-2.5,0-3.75a18,18,0,0,1,.76-3.63L504,370s0,0,0,0a7.85,7.85,0,0,1,2,4.19,12,12,0,0,1-1.64,7.33,12.24,12.24,0,0,1-2.75,3.21,5.44,5.44,0,0,1-.73.44l0,0" transform="translate(-443.56 -329.02)"/><path class="cls-9" d="M494.51,356.4a7.5,7.5,0,0,1,5.1.2,6.46,6.46,0,0,1,2.25,1.76,10.68,10.68,0,0,1,2.21,4.47s0,.08,0,.14a8.48,8.48,0,0,0-3.43-2.8c-1.38-.76-2.77-1.49-4.13-2.28-.64-.38-1.21-.86-1.81-1.3a2.6,2.6,0,0,1-.22-.19" transform="translate(-443.56 -329.02)"/><path class="cls-9" d="M500.24,361.86c.35.21.69.46,1.06.64a8.11,8.11,0,0,1,3.77,3.75,20.88,20.88,0,0,1,1.68,5,7.57,7.57,0,0,1,.19,1.35c0-.1-.07-.19-.1-.28a10.69,10.69,0,0,0-1.78-2.93c-.66-.75-1.38-1.45-2.1-2.15a8.86,8.86,0,0,1-2.26-3.09,7.65,7.65,0,0,1-.46-2.12.94.94,0,0,1,0-.17" transform="translate(-443.56 -329.02)"/><path class="cls-9" d="M491,358.71l-1.31,1a2.07,2.07,0,0,0-.4.38c-.65.82-1.3,1.63-1.91,2.47a5.82,5.82,0,0,1-3.43,2.24L483,365c.47-.85.57-1.79,1-2.62a5.79,5.79,0,0,1,3.62-2.89c1.11-.31,2.22-.57,3.33-.86v.06" transform="translate(-443.56 -329.02)"/><path class="cls-9" d="M491.82,381.92a6.72,6.72,0,0,1-2.23,1.41,6,6,0,0,1-5.6-.9c-.92-.63-1.81-1.32-2.7-2,.4.12.8.26,1.21.37a12.73,12.73,0,0,0,2.93.49c1.37.1,2.73.22,4.09.35.67.06,1.33.15,2,.23l.31.06" transform="translate(-443.56 -329.02)"/><path class="cls-9" d="M485.63,368.43a3.4,3.4,0,0,1,1.25,1,6.83,6.83,0,0,1,1.25,2.31c.16.5.28,1,.41,1.52A4,4,0,0,0,490,375.6a.3.3,0,0,1,.07.08,3.14,3.14,0,0,1-1.29-.52c-.43-.28-.84-.59-1.24-.91a4,4,0,0,1-1-1.67,11.41,11.41,0,0,1-.63-2.56c-.09-.49-.18-1-.26-1.45a.65.65,0,0,1,0-.14" transform="translate(-443.56 -329.02)"/><path class="cls-9" d="M499.79,374.46a6,6,0,0,0-1.85,1.12,10.65,10.65,0,0,1-1.27.83,3.84,3.84,0,0,1-2.31.42c-.37,0-.74-.11-1.18-.18a8.89,8.89,0,0,1,3.06-1.91,8.51,8.51,0,0,1,3.55-.28" transform="translate(-443.56 -329.02)"/><path class="cls-9" d="M495,372.18a4.65,4.65,0,1,0-4.64-4.65,4.65,4.65,0,0,0,4.64,4.65" transform="translate(-443.56 -329.02)"/></svg>