<svg id="Ebene_1" data-name="Ebene 1" xmlns="http://www.w3.org/2000/svg" viewBox="0 0 21.21 21.21"><defs><style>.cls-1{fill:#4a4949;}</style></defs><path class="cls-1" d="M5.94,1.52v2.9A1.53,1.53,0,0,1,4.42,5.94H1.52A1.53,1.53,0,0,1,0,4.42V1.52A1.53,1.53,0,0,1,1.52,0h2.9A1.52,1.52,0,0,1,5.94,1.52Z" transform="translate(0 0)"/><rect class="cls-1" y="15.27" width="5.94" height="5.94" rx="1.52"/><path class="cls-1" d="M13.57,16.79v2.9a1.52,1.52,0,0,1-1.51,1.52H9.16a1.52,1.52,0,0,1-1.52-1.52v-2.9a1.52,1.52,0,0,1,1.52-1.52h2.9A1.52,1.52,0,0,1,13.57,16.79Z" transform="translate(0 0)"/><path class="cls-1" d="M21.21,9.15v2.9a1.52,1.52,0,0,1-1.52,1.52h-2.9a1.52,1.52,0,0,1-1.51-1.52V9.15a1.52,1.52,0,0,1,1.51-1.51h2.9A1.52,1.52,0,0,1,21.21,9.15Z" transform="translate(0 0)"/><path class="cls-1" d="M5.94,9.15v2.9a1.52,1.52,0,0,1-1.52,1.52H1.52A1.53,1.53,0,0,1,0,12.05V9.15A1.52,1.52,0,0,1,1.52,7.64h2.9A1.52,1.52,0,0,1,5.94,9.15Z" transform="translate(0 0)"/><path class="cls-1" d="M13.57,9.15v2.9a1.52,1.52,0,0,1-1.51,1.52H9.16a1.52,1.52,0,0,1-1.52-1.52V9.15A1.52,1.52,0,0,1,9.16,7.64h2.9A1.52,1.52,0,0,1,13.57,9.15Z" transform="translate(0 0)"/><path class="cls-1" d="M13.57,1.52v2.9a1.52,1.52,0,0,1-1.51,1.52H9.16A1.53,1.53,0,0,1,7.64,4.42V1.52A1.52,1.52,0,0,1,9.16,0h2.9A1.52,1.52,0,0,1,13.57,1.52Z" transform="translate(0 0)"/><path class="cls-1" d="M21.21,1.52v2.9a1.53,1.53,0,0,1-1.52,1.52h-2.9a1.52,1.52,0,0,1-1.51-1.52V1.52A1.52,1.52,0,0,1,16.79,0h2.9A1.52,1.52,0,0,1,21.21,1.52Z" transform="translate(0 0)"/><path class="cls-1" d="M21.21,16.79v2.9a1.52,1.52,0,0,1-1.52,1.52h-2.9a1.52,1.52,0,0,1-1.51-1.52v-2.9a1.52,1.52,0,0,1,1.51-1.52h2.9A1.52,1.52,0,0,1,21.21,16.79Z" transform="translate(0 0)"/></svg>