<svg xmlns="http://www.w3.org/2000/svg" xmlns:xlink="http://www.w3.org/1999/xlink" viewBox="0 0 38 38"><defs><style>.cls-1,.cls-9{fill:none;}.cls-2{isolation:isolate;}.cls-3{clip-path:url(#clip-path);}.cls-4{clip-path:url(#clip-path-2);}.cls-5{mix-blend-mode:multiply;}.cls-6{clip-path:url(#clip-path-3);}.cls-7{fill:#9bb461;}.cls-8{clip-path:url(#clip-path-4);}.cls-9{stroke:#9bb461;}</style><clipPath id="clip-path"><rect class="cls-1" x="4.62" y="8.73" width="28.75" height="20.53"/></clipPath><clipPath id="clip-path-2"><rect class="cls-1" x="4.62" y="8.73" width="28.75" height="20.53"/></clipPath><clipPath id="clip-path-3"><rect class="cls-1" x="-16.13" y="-7.14" width="70.26" height="37.62"/></clipPath><clipPath id="clip-path-4"><rect id="SVGID" class="cls-1" x="0.79" y="0.79" width="36.42" height="36.42"/></clipPath></defs><g class="cls-2"><g id="Ebene_1" data-name="Ebene 1"><g class="cls-3"><g class="cls-4"><g class="cls-5"><g class="cls-6"><path class="cls-7" d="M33,15l-5.92,5.37a3.8,3.8,0,0,0-.2-.79,10.7,10.7,0,0,0-1.57-2.8,10.59,10.59,0,0,0-2.25-2.28,4.19,4.19,0,0,0-.72-.42l6.86-4.14c.36-.21.78-.22.94,0l3.14,4.17c.16.21,0,.61-.28.9"/><path class="cls-7" d="M26.54,20.72c0,.16,0,.27-.11.31s-.58,0-1.22-.43a10.07,10.07,0,0,1-2.12-2.15,10.27,10.27,0,0,1-1.49-2.64,3.11,3.11,0,0,1-.19-.92.51.51,0,0,1,.11-.38.43.43,0,0,1,.17,0l.16,0a2.74,2.74,0,0,1,.9.45,10.38,10.38,0,0,1,2.12,2.16,9.92,9.92,0,0,1,1.48,2.64,2.73,2.73,0,0,1,.19,1"/><path class="cls-7" d="M13.59,19.1a3.41,3.41,0,0,1-2.11-4c.55-3,5.65-6.42,5.65-6.42A21.82,21.82,0,0,0,17,12.55c.16,1.39,2.37,2.42,2.23,4.59s-2.52,3-3.41,3.08a2.8,2.8,0,0,0-1.54,4.22c.36.57.19,1.81,0,1.84a6.12,6.12,0,0,1-1.41-2.54,3.54,3.54,0,0,1,.37-2.25c.44-1,.86-1.36,1.33-2.38A9.23,9.23,0,0,0,15,15.68c0-.93-.76-1.52.06-2"/><path class="cls-7" d="M24,29.27H4.62a8.46,8.46,0,0,1,1-2c.67-.64.94-1.27,2-1.48.53.14.84,0,.94-.48s.37-.65.92-.52a5.31,5.31,0,0,1,1.82.12q.16.42.36.81c.6.46,1.56.05,2-.37,1-.88,1.16-1.45,2.62-1.52a7.08,7.08,0,0,1,2.34.05,2.59,2.59,0,0,0,1.57,2.39,2.7,2.7,0,0,0,1,.22,2.39,2.39,0,0,0,.92-.18s.06,0,.08,0c.65.06,1.59.32,1.87.95.14.3.22,1.82,0,2"/><path class="cls-7" d="M23,24.75a1.9,1.9,0,0,1-1.06,1,2,2,0,0,1-1.52,0,1.81,1.81,0,0,1-.48-.29l-.08-.07a1.94,1.94,0,0,1-.61-1s0,0,0,0a1.87,1.87,0,0,1,.1-1.14c.33-.76,2.24-2,3.27-2.59.28,1.17.7,3.41.38,4.16"/></g></g></g></g><g class="cls-8"><rect class="cls-9" x="1.29" y="1.29" width="35.42" height="35.42" rx="5"/></g></g></g></svg>