<svg id="Ebene_1" data-name="Ebene 1" xmlns="http://www.w3.org/2000/svg" xmlns:xlink="http://www.w3.org/1999/xlink" viewBox="0 0 23.7 23.7"><defs><style>.cls-1{fill:none;}.cls-2{clip-path:url(#clip-path);}.cls-3{fill:#9bb461;}</style><clipPath id="clip-path"><rect class="cls-1" x="3.72" y="2.06" width="16.27" height="19.58"/></clipPath></defs><g class="cls-2"><path class="cls-3" d="M19,10.41c-1.33-.59-3.5-1.84-4.28-3-.93-1.42-2.81-3-4.45-3l-.33,0-.27,0c.11-.22.31-.24.65-.3A9.08,9.08,0,0,0,12,3.69a.27.27,0,0,0,.15-.23s-.52.13-1.22.27a6.51,6.51,0,0,1-1.24.2.86.86,0,0,1-.5-.12,1.7,1.7,0,0,0-.87-.41c-.07,0-.09,0-.09,0S7.83,2.26,7.12,2.08L7,2.06A3.12,3.12,0,0,0,5.3,3c-1,1-1.81,5.91-1.52,9.77.13,1.83.83,4.71,3.1,8.77h0s.92.35.6-.66c-.6-1.86-2.13-5.79-2.35-7.82a28.4,28.4,0,0,1,.78-7.81,3.7,3.7,0,0,1,.79-1.57,1,1,0,0,1,1.12-.2,2.18,2.18,0,0,0,0,1c.09.51-.68,1.8-.66,2.12h0s.08,0,.14-.16A2.52,2.52,0,0,1,8,5.31l.13,0a4.12,4.12,0,0,0-1,2.8,12.78,12.78,0,0,0,1,4.32,6.14,6.14,0,0,1,.11,5,2,2,0,0,0,.65.11c.77,0,1.94-.45,1.87-3.19a4.46,4.46,0,0,0,3.68,1.79h.34s1.49-.45.71-4.26a3.78,3.78,0,0,0,2.22.89,2.67,2.67,0,0,0,2.2-1.26s.38-.47-.95-1.06"/></g></svg>