<svg xmlns="http://www.w3.org/2000/svg" xmlns:xlink="http://www.w3.org/1999/xlink" viewBox="0 0 23.7 23.7"><defs><style>.cls-1{fill:none;}.cls-2{isolation:isolate;}.cls-3{clip-path:url(#clip-path);}.cls-4{clip-path:url(#clip-path-2);}.cls-5{mix-blend-mode:multiply;}.cls-6{clip-path:url(#clip-path-3);}.cls-7{fill:#9bb461;}</style><clipPath id="clip-path"><rect class="cls-1" x="2.34" y="4.98" width="19.03" height="14.23"/></clipPath><clipPath id="clip-path-2"><rect class="cls-1" x="2.34" y="4.98" width="19.03" height="14.23"/></clipPath><clipPath id="clip-path-3"><rect class="cls-1" x="-6.37" y="-1.79" width="36.43" height="21.97"/></clipPath></defs><g class="cls-2"><g id="Ebene_1" data-name="Ebene 1"><g class="cls-3"><g class="cls-4"><g class="cls-5"><g class="cls-6"><path class="cls-7" d="M4.8,13.71A1.79,1.79,0,1,1,6.58,15.5,1.78,1.78,0,0,1,4.8,13.71M8,10.2A1.79,1.79,0,1,1,9.83,12,1.79,1.79,0,0,1,8,10.2m3,3.51a1.79,1.79,0,1,1,1.78,1.79,1.78,1.78,0,0,1-1.78-1.79m-7.92-3a2.85,2.85,0,0,0-.76,2.66,3.35,3.35,0,0,0,2.47,2.8c.33.1,1,.29,1.69.44l.19.29-.88,1.21a.43.43,0,0,0,.1.6.39.39,0,0,0,.25.08.46.46,0,0,0,.35-.17l1-1.46a.41.41,0,0,0,0-.37l.26,0a17.82,17.82,0,0,0,3,.06l.29.43-.88,1.22a.43.43,0,0,0,.1.6.46.46,0,0,0,.25.08.42.42,0,0,0,.35-.18l1-1.46a.44.44,0,0,0,0-.49l-.21-.3a9.29,9.29,0,0,0,3.55-1.16l.06,0,.22.32-.88,1.22a.44.44,0,0,0,.1.6.49.49,0,0,0,.25.08.41.41,0,0,0,.35-.18l1.05-1.46a.42.42,0,0,0,0-.49L16.19,15a1.43,1.43,0,0,0,.4-.68,27.71,27.71,0,0,1-.45-4.85c0-.08-.22-.23-.44-.12a.93.93,0,0,1-1.43-.57,1.33,1.33,0,0,0-1.47-1c-1.39.08-2.79.07-4.16.25a9,9,0,0,0-5.48,2.65m13.45-4A10.39,10.39,0,0,0,11.52,5a10.62,10.62,0,0,0-5.15.66A5.5,5.5,0,0,0,2.89,9.15c0,.11-.07.06.07.16s0,0,.89-.63a8.42,8.42,0,0,1,4.46-2,19.36,19.36,0,0,1,5.48.16,1.57,1.57,0,0,0,.83-.13c.69-.33,1.05.42,1.24,1.11s1.35-.59.75-1M21.24,11c-.25-.77-1-1.16-1.33-1.53a6,6,0,0,0-1.73-1.49.67.67,0,0,0-.57,0,2.38,2.38,0,0,0-.87,1.62A20.89,20.89,0,0,0,17,13.35c.19,1,1.46.81,1.61.77a5.72,5.72,0,0,0,2.28-.76A2.86,2.86,0,0,0,21.24,11"/></g></g></g></g></g></g></svg>