<svg id="Ebene_1" data-name="Ebene 1" xmlns="http://www.w3.org/2000/svg" viewBox="0 0 23.7 23.7"><defs><style>.cls-1{fill:#63868d;}</style></defs><polygon class="cls-1" points="15.25 8.39 15.04 10.94 12.63 10.35 12.27 11.44 14.56 12.4 13.22 14.63 14.16 15.31 15.86 13.28 17.52 15.31 18.46 14.63 17.11 12.4 19.43 11.44 19.07 10.35 16.64 10.92 16.43 8.39 15.25 8.39"/><polygon class="cls-1" points="7.25 8.39 7.04 10.94 4.63 10.35 4.27 11.44 6.56 12.4 5.22 14.63 6.16 15.31 7.86 13.28 9.52 15.31 10.46 14.63 9.11 12.4 11.43 11.44 11.07 10.35 8.64 10.92 8.43 8.39 7.25 8.39"/></svg>