<svg id="Ebene_1" data-name="Ebene 1" xmlns="http://www.w3.org/2000/svg" xmlns:xlink="http://www.w3.org/1999/xlink" viewBox="0 0 23.7 23.7"><defs><style>.cls-1{fill:none;}.cls-2{clip-path:url(#clip-path);}.cls-3{fill:#9bb461;}</style><clipPath id="clip-path"><rect class="cls-1" x="1.44" y="4.98" width="20.82" height="13.74"/></clipPath></defs><g class="cls-2"><path class="cls-3" d="M16.59,17.93c2.17-1.33,3.63-3.18,3.39-6l-.05-.49c-.21-2.41-.22-2.56.3-3.77A2.18,2.18,0,0,1,21.7,6.37a1.3,1.3,0,0,0,.41-.19.39.39,0,0,0,.12-.45c-.11-.3-.31-.3-1.24-.29a8.16,8.16,0,0,1-.9,0,4.25,4.25,0,0,1-.51-.13,5.47,5.47,0,0,0-3-.18,4.34,4.34,0,0,0-3,2.88,4.87,4.87,0,0,1-.47.87,8.15,8.15,0,0,1-1.85,1.54c-.29.2-.58.39-.84.59a3.46,3.46,0,0,1-1.3.64,5,5,0,0,1-.82-.56,9.29,9.29,0,0,0-.78-.55c-.57-.34-5-3.39-5.06-3.42a.42.42,0,0,0-.43,0,.39.39,0,0,0-.24.34l0,.42a.55.55,0,0,0-.1.44l0,.12,0,0a.41.41,0,0,0-.19.29A.38.38,0,0,0,1.56,9c.13.14,4.91,7,5.48,7.35-.35.4-.94,1.08-1.3,1.54a.46.46,0,0,0,0,.63c.2.23.39.45,3.34-.93a8.75,8.75,0,0,0,3.5,1.05,10.83,10.83,0,0,0,4-.74"/></g></svg>