<svg id="Ebene_1" data-name="Ebene 1" xmlns="http://www.w3.org/2000/svg" xmlns:xlink="http://www.w3.org/1999/xlink" viewBox="0 0 23.7 23.7"><defs><style>.cls-1{fill:none;}.cls-2{clip-path:url(#clip-path);}.cls-3{fill:#494949;}</style><clipPath id="clip-path"><rect class="cls-1" x="2.26" y="9.55" width="19.18" height="4.61"/></clipPath></defs><g class="cls-2"><path class="cls-3" d="M19.21,14.15a2.22,2.22,0,0,0,2.23-2.3,2.22,2.22,0,0,0-2.23-2.3A2.2,2.2,0,0,0,17,11.85a2.2,2.2,0,0,0,2.21,2.3m-7.37,0a2.22,2.22,0,0,0,2.23-2.3,2.22,2.22,0,1,0-4.44,0,2.21,2.21,0,0,0,2.21,2.3m-7.37,0a2.22,2.22,0,0,0,2.23-2.3,2.22,2.22,0,1,0-4.44,0,2.21,2.21,0,0,0,2.21,2.3"/></g></svg>