<svg id="Ebene_1" data-name="Ebene 1" xmlns="http://www.w3.org/2000/svg" xmlns:xlink="http://www.w3.org/1999/xlink" viewBox="0 0 38 38"><defs><style>.cls-1,.cls-3{fill:none;}.cls-2{clip-path:url(#clip-path);}.cls-3{stroke:#9bb461;}.cls-4{clip-path:url(#clip-path-2);}.cls-5{fill:#9bb461;}</style><clipPath id="clip-path"><rect class="cls-1" x="0.79" y="0.79" width="36.42" height="36.42"/></clipPath><clipPath id="clip-path-2"><rect id="SVGID" class="cls-1" x="7.72" y="9.5" width="20.64" height="20.64"/></clipPath></defs><g class="cls-2"><rect class="cls-3" x="1.29" y="1.29" width="35.42" height="35.42" rx="5"/></g><g class="cls-4"><path class="cls-5" d="M12.83,20.68l-.1.05a20,20,0,0,0-.83,3.34A1.66,1.66,0,0,0,13.79,26a21.07,21.07,0,0,0,3.35-.83,1,1,0,0,1,0-.1Zm13.1-4.61c0,.34-.07.71-.11,1.1s-.08.64-.13,1-.07.52-.11.79c-.5,3.17-1.51,7-3.53,8.73a3.54,3.54,0,0,1-2.87.89c-.92-.12-1.05-.48-1.09-.61a2.53,2.53,0,0,1,.25-1.77,13.05,13.05,0,0,1,1.06-2c.27-.43.59-.91,1-1.44s.6-.82.94-1.27.92-1.16,1.47-1.81c.32-.39.66-.78,1-1.2s1-1.12,1.55-1.74l.58-.63m-3.22,1.28-1,1.19-2.36-2.36,1.2-1Zm-.91-5.42-.64.59c-.61.55-1.19,1.06-1.74,1.54l-1.19,1c-.66.55-1.26,1-1.82,1.47s-.87.66-1.27.95-1,.7-1.44,1a12.62,12.62,0,0,1-2,1.06,2.66,2.66,0,0,1-1.77.25c-.12-.05-.49-.17-.6-1.1a3.45,3.45,0,0,1,.89-2.86c1.75-2,5.56-3,8.73-3.54l.78-.11,1-.12,1.11-.12M16.24,18.6c.41-.3.83-.61,1.27-1l2.71,2.71c-.34.43-.66.86-.95,1.26ZM27.7,10.16A2.28,2.28,0,0,0,24.65,10h0c-.33-.23-.61-.11-1,.22l-2.87.22c-3.6.4-9.21,1.47-11.71,4.33a5.07,5.07,0,0,0-1.27,4.09,3.07,3.07,0,0,0,.79,1.84h0a2.24,2.24,0,0,0,.83.52,2.47,2.47,0,0,0,.47.11,5.55,5.55,0,0,0,2.88-.63l0-.11.07.06c.45-.21.92-.47,1.44-.77L18,23.6A15,15,0,0,0,17.18,25l.07.06-.11,0A5.43,5.43,0,0,0,16.5,28a3.37,3.37,0,0,0,.12.48,2.25,2.25,0,0,0,.51.82h0A3,3,0,0,0,19,30.1a5.06,5.06,0,0,0,4.09-1.27c.12-.1.24-.22.35-.33,2.61-2.64,3.6-7.93,4-11.38.14-1.29.2-2.33.22-2.86.34-.41.45-.7.22-1h0a2.3,2.3,0,0,0-.14-3.06"/></g></svg>