<svg id="Ebene_1" data-name="Ebene 1" xmlns="http://www.w3.org/2000/svg" xmlns:xlink="http://www.w3.org/1999/xlink" viewBox="0 0 23.7 23.7"><defs><style>.cls-1,.cls-9{fill:none;}.cls-2{clip-path:url(#clip-path);}.cls-3{clip-path:url(#clip-path-2);}.cls-4{opacity:0.5;}.cls-5{clip-path:url(#clip-path-3);}.cls-6{fill:#63868d;}.cls-7{clip-path:url(#clip-path-4);}.cls-8{clip-path:url(#clip-path-5);}.cls-9{stroke:#666;stroke-linecap:round;stroke-width:1.39px;}</style><clipPath id="clip-path"><rect class="cls-1" x="0.32" y="2.78" width="23.06" height="18.76"/></clipPath><clipPath id="clip-path-2"><rect class="cls-1" x="0.32" y="2.78" width="23.06" height="18.76"/></clipPath><clipPath id="clip-path-3"><rect class="cls-1" x="-0.73" y="1.7" width="25.16" height="14.92"/></clipPath><clipPath id="clip-path-4"><rect class="cls-1" x="7.22" y="1.7" width="25.16" height="14.92"/></clipPath><clipPath id="clip-path-5"><rect class="cls-1" x="-8.68" y="1.7" width="25.16" height="14.92"/></clipPath></defs><g class="cls-2"><g class="cls-3"><g class="cls-4"><g class="cls-5"><polygon class="cls-6" points="10.16 15.62 11.86 13.59 13.52 15.62 14.46 14.93 13.11 12.71 15.43 11.74 15.07 10.66 12.64 11.22 12.43 8.7 11.25 8.7 11.04 11.25 8.63 10.66 8.27 11.74 10.56 12.71 9.22 14.93 10.16 15.62"/></g></g><g class="cls-4"><g class="cls-7"><polygon class="cls-6" points="18.11 15.62 19.81 13.59 21.47 15.62 22.41 14.93 21.06 12.71 23.38 11.74 23.02 10.66 20.59 11.22 20.38 8.7 19.2 8.7 18.98 11.25 16.57 10.66 16.22 11.74 18.51 12.71 17.17 14.93 18.11 15.62"/></g></g><g class="cls-4"><g class="cls-8"><polygon class="cls-6" points="2.21 15.62 3.91 13.59 5.57 15.62 6.51 14.93 5.16 12.71 7.48 11.74 7.13 10.66 4.69 11.22 4.48 8.7 3.3 8.7 3.08 11.25 0.68 10.66 0.32 11.74 2.61 12.71 1.27 14.93 2.21 15.62"/></g></g><line class="cls-9" x1="3.01" y1="3.47" x2="20.38" y2="20.84"/></g></g></svg>