<svg id="Ebene_1" data-name="Ebene 1" xmlns="http://www.w3.org/2000/svg" xmlns:xlink="http://www.w3.org/1999/xlink" viewBox="0 0 23.7 23.7"><defs><style>.cls-1{fill:none;}.cls-2{clip-path:url(#clip-path);}.cls-3{fill:#9bb461;}</style><clipPath id="clip-path"><rect class="cls-1" x="3.28" y="3.6" width="16.49" height="16.49"/></clipPath></defs><g class="cls-2"><path class="cls-3" d="M7.36,12.53l-.08,0a16.19,16.19,0,0,0-.66,2.68,1.32,1.32,0,0,0,1.51,1.51,16.57,16.57,0,0,0,2.68-.67l0-.07ZM17.83,8.85c0,.27,0,.57-.09.88s-.06.51-.1.78l-.09.63c-.4,2.53-1.21,5.57-2.82,7a2.8,2.8,0,0,1-2.29.71c-.74-.09-.84-.39-.88-.48a2.11,2.11,0,0,1,.2-1.42,10,10,0,0,1,.85-1.61c.22-.35.47-.73.78-1.15s.47-.66.75-1,.74-.93,1.17-1.45l.82-.95c.38-.44.79-.9,1.24-1.39l.46-.51m-2.58,1-.81,1L12.55,8.94l1-.82Zm-.72-4.33L14,6,12.63,7.25l-1,.81c-.53.44-1,.83-1.46,1.17s-.69.54-1,.76-.8.56-1.15.78a11.65,11.65,0,0,1-1.61.84,2.11,2.11,0,0,1-1.42.2c-.1,0-.39-.13-.48-.87a2.77,2.77,0,0,1,.71-2.29c1.4-1.62,4.44-2.42,7-2.82l.62-.1.78-.09.89-.1m-4.44,5.33c.32-.23.66-.49,1-.76l2.17,2.17c-.28.35-.53.68-.76,1Zm9.16-6.74A1.82,1.82,0,0,0,16.81,4h0c-.26-.18-.49-.09-.81.18l-2.3.18c-2.87.31-7.36,1.17-9.35,3.46a4,4,0,0,0-1,3.27A2.31,2.31,0,0,0,4,12.57H4A1.8,1.8,0,0,0,4.6,13a2.34,2.34,0,0,0,.38.09,4.38,4.38,0,0,0,2.3-.51l0-.09.05,0a11.94,11.94,0,0,0,1.15-.61l3,2.94c-.24.41-.45.8-.62,1.16l.05.05-.08,0a4.32,4.32,0,0,0-.51,2.3,2.11,2.11,0,0,0,.09.38,1.71,1.71,0,0,0,.41.66h0a2.46,2.46,0,0,0,1.47.63,4.07,4.07,0,0,0,3.27-1l.28-.27c2.08-2.1,2.88-6.33,3.18-9.09.11-1,.16-1.86.17-2.29.27-.32.36-.56.18-.82h0a1.83,1.83,0,0,0-.11-2.44"/></g></svg>