<svg xmlns="http://www.w3.org/2000/svg" xmlns:xlink="http://www.w3.org/1999/xlink" viewBox="0 0 23.7 23.7"><defs><style>.cls-1{fill:none;}.cls-2{isolation:isolate;}.cls-3{clip-path:url(#clip-path);}.cls-4{clip-path:url(#clip-path-2);}.cls-5{mix-blend-mode:multiply;}.cls-6{clip-path:url(#clip-path-3);}.cls-7{fill:#9bb461;}</style><clipPath id="clip-path"><rect class="cls-1" x="0.39" y="3.66" width="22.93" height="16.37"/></clipPath><clipPath id="clip-path-2"><rect class="cls-1" x="0.39" y="3.66" width="22.93" height="16.37"/></clipPath><clipPath id="clip-path-3"><rect class="cls-1" x="-16.16" y="-8.99" width="56.02" height="30"/></clipPath></defs><g class="cls-2"><g id="Ebene_1" data-name="Ebene 1"><g class="cls-3"><g class="cls-4"><g class="cls-5"><g class="cls-6"><path class="cls-7" d="M23,8.63l-4.71,4.29a4.16,4.16,0,0,0-.16-.63,8.44,8.44,0,0,0-1.26-2.24,8.85,8.85,0,0,0-1.79-1.82,3.66,3.66,0,0,0-.57-.33L20,4.6c.29-.17.62-.17.75,0l2.5,3.33c.13.17,0,.48-.23.71"/><path class="cls-7" d="M17.86,13.22c0,.13,0,.21-.08.25s-.47,0-1-.34a8.13,8.13,0,0,1-1.69-1.72,8.33,8.33,0,0,1-1.19-2.1,2.6,2.6,0,0,1-.15-.73.42.42,0,0,1,.09-.31.28.28,0,0,1,.13,0h.14a2.75,2.75,0,0,1,.71.36,8.2,8.2,0,0,1,1.69,1.73,7.67,7.67,0,0,1,1.18,2.1,2.11,2.11,0,0,1,.15.78"/><path class="cls-7" d="M7.53,11.93A2.72,2.72,0,0,1,5.86,8.78c.43-2.41,4.5-5.12,4.5-5.12a17.25,17.25,0,0,0-.1,3c.12,1.11,1.88,1.93,1.77,3.67s-2,2.37-2.72,2.45a2.23,2.23,0,0,0-1.22,3.37c.28.45.15,1.44,0,1.46a4.82,4.82,0,0,1-1.13-2,2.81,2.81,0,0,1,.3-1.79c.35-.83.69-1.09,1.05-1.9A7.37,7.37,0,0,0,8.65,9.2c0-.74-.6-1.21,0-1.59"/><path class="cls-7" d="M15.84,20H.39a6.7,6.7,0,0,1,.77-1.59c.54-.51.75-1,1.57-1.19.42.12.67,0,.75-.38s.29-.52.73-.41a4.15,4.15,0,0,1,1.45.09c.09.22.18.44.29.65.48.37,1.24,0,1.6-.3.77-.7.93-1.16,2.09-1.21a5.81,5.81,0,0,1,1.86,0,2.08,2.08,0,0,0,1.26,1.91,2.2,2.2,0,0,0,.83.17,1.91,1.91,0,0,0,.74-.14s0,0,.06,0c.51.05,1.26.26,1.49.76.11.25.17,1.45,0,1.63"/><path class="cls-7" d="M15,16.43a1.49,1.49,0,0,1-.85.82,1.59,1.59,0,0,1-1.21,0,1.36,1.36,0,0,1-.38-.24s0,0-.06-.05A1.48,1.48,0,0,1,12,16.1s0,0,0,0a1.44,1.44,0,0,1,.08-.91,8.26,8.26,0,0,1,2.61-2.06,8.24,8.24,0,0,1,.3,3.31"/></g></g></g></g></g></g></svg>