<svg xmlns="http://www.w3.org/2000/svg" xmlns:xlink="http://www.w3.org/1999/xlink" viewBox="0 0 38 38"><defs><style>.cls-1,.cls-9{fill:none;}.cls-2{isolation:isolate;}.cls-3{clip-path:url(#clip-path);}.cls-4{clip-path:url(#clip-path-2);}.cls-5{mix-blend-mode:multiply;}.cls-6{clip-path:url(#clip-path-3);}.cls-7{fill:#9bb461;}.cls-8{clip-path:url(#clip-path-4);}.cls-9{stroke:#9bb461;}</style><clipPath id="clip-path"><rect class="cls-1" x="-39.08" y="8.73" width="28.75" height="20.53"/></clipPath><clipPath id="clip-path-2"><rect class="cls-1" x="-39.08" y="8.73" width="28.75" height="20.53"/></clipPath><clipPath id="clip-path-3"><rect class="cls-1" x="10.4" y="7.44" width="20.06" height="24.13"/></clipPath><clipPath id="clip-path-4"><rect id="SVGID" class="cls-1" x="0.79" y="0.79" width="36.42" height="36.42"/></clipPath></defs><g class="cls-2"><g id="Ebene_1" data-name="Ebene 1"><g class="cls-6"><path class="cls-7" d="M29.22,17.73C27.58,17,24.9,15.46,23.93,14c-1.14-1.75-3.45-3.71-5.48-3.71a2.83,2.83,0,0,0-.41,0l-.33.06c.13-.27.39-.29.8-.37a10.59,10.59,0,0,0,2.12-.55.34.34,0,0,0,.19-.28s-.65.17-1.51.34a8,8,0,0,1-1.52.25,1,1,0,0,1-.62-.16,2.12,2.12,0,0,0-1.07-.5.24.24,0,0,0-.12,0s-.51-1.43-1.39-1.65l-.2,0a3.79,3.79,0,0,0-2,1.2c-1.29,1.28-2.23,7.27-1.88,12,.17,2.25,1,5.8,3.83,10.81h0s1.14.43.74-.81c-.75-2.3-2.63-7.14-2.89-9.64a34.68,34.68,0,0,1,1-9.63,4.5,4.5,0,0,1,1-1.93,1.19,1.19,0,0,1,1.39-.25,2.63,2.63,0,0,0,0,1.2c.11.62-.84,2.21-.82,2.61h0s.09,0,.16-.18a3,3,0,0,1,.93-1.42l.16-.07a5.07,5.07,0,0,0-1.2,3.45,15.94,15.94,0,0,0,1.17,5.33C16.51,22.09,17,23,16,26.35a2.46,2.46,0,0,0,.8.13c.95,0,2.39-.55,2.3-3.93a5.51,5.51,0,0,0,4.55,2.2h.41s1.83-.55.88-5.24a4.66,4.66,0,0,0,2.73,1.09A3.31,3.31,0,0,0,30.39,19s.47-.58-1.17-1.31"/></g><g class="cls-8"><rect class="cls-9" x="1.29" y="1.29" width="35.42" height="35.42" rx="5"/></g></g></g></svg>