<svg id="Ebene_1" data-name="Ebene 1" xmlns="http://www.w3.org/2000/svg" xmlns:xlink="http://www.w3.org/1999/xlink" viewBox="0 0 23.7 23.7"><defs><style>.cls-1,.cls-2,.cls-5,.cls-7{fill:none;}.cls-2,.cls-5,.cls-7{stroke:#fff;stroke-linecap:round;}.cls-2,.cls-7{stroke-width:1.5px;}.cls-3{clip-path:url(#clip-path);}.cls-4{fill:#93bda7;}.cls-5,.cls-7{stroke-linejoin:round;}.cls-5{stroke-width:1.28px;}.cls-6{fill:#a4bc5b;}</style><clipPath id="clip-path"><rect id="SVGID" class="cls-1" x="0.33" y="0.66" width="23.04" height="23.04"/></clipPath></defs><line class="cls-2" x1="7.53" y1="11.9" x2="16.24" y2="11.9"/><line class="cls-2" x1="11.89" y1="7.55" x2="11.89" y2="16.26"/><g class="cls-3"><path class="cls-4" d="M11.85,23.7A11.52,11.52,0,1,0,.33,12.18,11.52,11.52,0,0,0,11.85,23.7"/><path class="cls-5" d="M6.09,7.73l4.31,4.84c0,1.5,0,3,.07,4.5a.64.64,0,0,0,.36.56.63.63,0,0,0,.66-.06L13,16.45a.63.63,0,0,0,.27-.52V12.56l4.3-4.83a.64.64,0,0,0,.1-.69.64.64,0,0,0-.58-.38H6.57A.64.64,0,0,0,6,7,.63.63,0,0,0,6.09,7.73Z"/><path class="cls-6" d="M11.85,23.7A11.52,11.52,0,1,0,.33,12.18,11.52,11.52,0,0,0,11.85,23.7"/><path class="cls-7" d="M6,8.65l4.28,4.8c0,1.49.05,3,.07,4.46a.76.76,0,0,0,.42.66.74.74,0,0,0,.77-.06l1.56-1.13a.75.75,0,0,0,.31-.6V13.45l4.27-4.8a.75.75,0,0,0-.56-1.25H6.57A.75.75,0,0,0,6,8.65Z"/></g></svg>