<svg id="Ebene_1" data-name="Ebene 1" xmlns="http://www.w3.org/2000/svg" xmlns:xlink="http://www.w3.org/1999/xlink" viewBox="0 0 23.7 23.7"><defs><style>.cls-1{fill:none;}.cls-2{clip-path:url(#clip-path);}.cls-3{fill:#b35853;}</style><clipPath id="clip-path"><rect class="cls-1" x="2.95" y="2.22" width="17.81" height="19.27"/></clipPath></defs><g class="cls-2"><path class="cls-3" d="M4.09,19.61a1.18,1.18,0,0,1-1-.68,1.14,1.14,0,0,1,.58-1.52,1.36,1.36,0,0,1,1.2.17c.52.22,1,.44,1.26.32.06,0,.43-.22,1-.48L16,13.12c.56-.29.94-.46,1-.48.28-.15.39-.64.54-1.19a1.35,1.35,0,0,1,.62-1,1.12,1.12,0,0,1,1.54.49,1.14,1.14,0,0,1-.11,1.23,1.15,1.15,0,0,1,1.05.62,1.18,1.18,0,0,1-.52,1.56c-.43.22-.9,0-1.3-.2a1.86,1.86,0,0,0-1.2-.22l-1,.5L7.7,18.69l-1,.47c-.26.13-.43.59-.58,1.07s-.2.95-.65,1.15a1.19,1.19,0,0,1-1.55-.56,1.15,1.15,0,0,1,.18-1.21"/><path class="cls-3" d="M19.61,19.61a1.18,1.18,0,0,0,1-.68,1.14,1.14,0,0,0-.58-1.52,1.36,1.36,0,0,0-1.2.17c-.52.22-1,.44-1.26.32-.06,0-.43-.22-1-.48L7.7,13.12c-.56-.29-.94-.46-1-.48-.28-.15-.39-.64-.54-1.19a1.35,1.35,0,0,0-.62-1A1.12,1.12,0,0,0,4,10.9a1.14,1.14,0,0,0,.11,1.23,1.15,1.15,0,0,0-1.05.62,1.18,1.18,0,0,0,.52,1.56c.43.22.9,0,1.3-.2a1.86,1.86,0,0,1,1.2-.22l1,.5L16,18.69l1,.47c.26.13.43.59.58,1.07s.2.95.65,1.15a1.19,1.19,0,0,0,1.55-.56,1.15,1.15,0,0,0-.18-1.21"/><path class="cls-3" d="M14.51,10.46a2.9,2.9,0,0,1-.93,0,1.22,1.22,0,0,1-1.06-1.16c0-.43.23-.56.63-.72a3.88,3.88,0,0,1,1.3-.47c.78,0,.86.35,1,1.12a1.08,1.08,0,0,1-.9,1.25m-1.82,1.93a.3.3,0,0,1-.42,0,.4.4,0,0,0-.32-.11.38.38,0,0,0-.32.11.31.31,0,0,1-.43,0,.29.29,0,0,1,0-.43,3,3,0,0,0,.46-.92.27.27,0,0,1,.22-.18H12a.27.27,0,0,1,.22.18,2.87,2.87,0,0,0,.47.92.3.3,0,0,1,0,.43m-2.37-2a3,3,0,0,1-.94,0,1.08,1.08,0,0,1-.89-1.25c.1-.77.17-1.16.95-1.12a3.88,3.88,0,0,1,1.3.47c.41.16.69.29.63.72a1.21,1.21,0,0,1-1,1.16M14,2.68A4.6,4.6,0,0,0,12,2.24v0h-.19v0A4.61,4.61,0,0,0,7.47,8.17,2.76,2.76,0,0,1,7.58,9.8,2.59,2.59,0,0,0,8,11.17c.1.15,1,.55,1.12.91a6.87,6.87,0,0,1,.19.75.77.77,0,0,0,.54.6,6.63,6.63,0,0,0,2,.38H12a6.57,6.57,0,0,0,2-.38.74.74,0,0,0,.54-.6,6.87,6.87,0,0,1,.19-.75c.11-.36,1-.76,1.12-.91a2.5,2.5,0,0,0,.4-1.37,2.76,2.76,0,0,1,.11-1.63A4.58,4.58,0,0,0,14,2.68"/></g></svg>