<svg id="Ebene_1" data-name="Ebene 1" xmlns="http://www.w3.org/2000/svg" xmlns:xlink="http://www.w3.org/1999/xlink" viewBox="0 0 23.7 23.7"><defs><style>.cls-1{fill:none;}.cls-2{clip-path:url(#clip-path);}.cls-3{fill:#9bb461;}</style><clipPath id="clip-path"><rect class="cls-1" x="1.9" y="2.94" width="19.91" height="17.81"/></clipPath></defs><g class="cls-2"><path class="cls-3" d="M8.82,13.81a22,22,0,0,1,3.47.67,14.72,14.72,0,0,0,1.89.1h1a7.87,7.87,0,0,0,1.7-.21.77.77,0,0,1,.57.77v.29c0,.85-1.51,1.35-4.52,1.52-1.11-.06-1.76-.1-2-.1l-.09.47v.11c0,.31.81.47,2.44.47h.94a8,8,0,0,0,5-2.28,4.46,4.46,0,0,1,1.41-.3h.18c.63,0,.94.26.94.77v.19q-5.49,4.47-9.21,4.48a41.77,41.77,0,0,1-5.47-1.05H4.48c-.05,0-2.17-.18-2.54-1.58A3.28,3.28,0,0,1,3.26,15a36.34,36.34,0,0,1,5.56-1.23"/><path class="cls-3" d="M8.09,11.69c.54,0,1.09.09,1.64.08a5,5,0,0,0,4.33-2.68,19.54,19.54,0,0,1,1-1.69,3.74,3.74,0,0,1,1.23-1c-1.22,1-1.63,2.47-2.28,3.78a3.57,3.57,0,0,1-2.57,1.75,4.33,4.33,0,0,0,4.9-1.1,20.27,20.27,0,0,0,2-3,13.09,13.09,0,0,1,3.17-4,9.52,9.52,0,0,0-7.87.11,7.45,7.45,0,0,0-3.32,3.43,2.94,2.94,0,0,0,.14,3.33c-.89.61-1.63-.07-2.27-.08"/></g></svg>