<svg xmlns="http://www.w3.org/2000/svg" xmlns:xlink="http://www.w3.org/1999/xlink" viewBox="0 0 38 38"><defs><style>.cls-1,.cls-9{fill:none;}.cls-2{isolation:isolate;}.cls-3{clip-path:url(#clip-path);}.cls-4{clip-path:url(#clip-path-2);}.cls-5{mix-blend-mode:multiply;}.cls-6{clip-path:url(#clip-path-3);}.cls-7{fill:#9bb461;}.cls-8{clip-path:url(#clip-path-4);}.cls-9{stroke:#9bb461;}</style><clipPath id="clip-path"><rect class="cls-1" x="7.89" y="11" width="23.6" height="17.65"/></clipPath><clipPath id="clip-path-2"><rect class="cls-1" x="7.89" y="11" width="23.59" height="17.65"/></clipPath><clipPath id="clip-path-3"><rect class="cls-1" x="-2.9" y="2.61" width="45.18" height="27.24"/></clipPath><clipPath id="clip-path-4"><rect id="SVGID" class="cls-1" x="0.79" y="0.79" width="36.42" height="36.42"/></clipPath></defs><g class="cls-2"><g id="Ebene_1" data-name="Ebene 1"><g class="cls-3"><g class="cls-4"><g class="cls-5"><g class="cls-6"><path class="cls-7" d="M10.94,21.83A2.22,2.22,0,1,1,13.16,24a2.22,2.22,0,0,1-2.22-2.21m4-4.36a2.21,2.21,0,1,1,2.21,2.22A2.21,2.21,0,0,1,15,17.47m3.76,4.36A2.22,2.22,0,1,1,20.94,24a2.21,2.21,0,0,1-2.21-2.21M8.91,18.12A3.54,3.54,0,0,0,8,21.41,4.12,4.12,0,0,0,11,24.89a21.09,21.09,0,0,0,2.09.54l.23.36L12.28,27.3a.53.53,0,0,0,.12.74.5.5,0,0,0,.31.1.51.51,0,0,0,.43-.22l1.3-1.81a.51.51,0,0,0,.06-.45l.32,0a23.19,23.19,0,0,0,3.76.06l.36.54-1.08,1.52a.53.53,0,0,0,.12.74.5.5,0,0,0,.31.1.53.53,0,0,0,.43-.22L20,26.62A.53.53,0,0,0,20,26l-.25-.38a11.42,11.42,0,0,0,4.4-1.44s.05,0,.08-.06l.27.4-1.09,1.52a.53.53,0,0,0,.12.74.52.52,0,0,0,.31.1.56.56,0,0,0,.44-.22l1.29-1.81a.53.53,0,0,0,0-.61l-.55-.81a1.73,1.73,0,0,0,.5-.85,34.78,34.78,0,0,1-.56-6c0-.09-.27-.29-.55-.15a1.15,1.15,0,0,1-1.77-.71,1.66,1.66,0,0,0-1.83-1.19c-1.71.1-3.45.08-5.15.3a11.23,11.23,0,0,0-6.8,3.29m16.69-5a12.93,12.93,0,0,0-6.32-2.1,13.24,13.24,0,0,0-6.39.82,6.83,6.83,0,0,0-4.31,4.3c0,.13-.09.07.08.19s0,0,1.11-.78a10.45,10.45,0,0,1,5.53-2.54,24.13,24.13,0,0,1,6.79.2,1.87,1.87,0,0,0,1-.17c.85-.4,1.29.52,1.53,1.38s1.67-.73.94-1.3m5.74,5.25c-.31-1-1.28-1.44-1.66-1.9a7.43,7.43,0,0,0-2.14-1.85.8.8,0,0,0-.71,0,3,3,0,0,0-1.08,2,25.81,25.81,0,0,0,.35,4.73c.24,1.26,1.81,1,2,.95a7.15,7.15,0,0,0,2.82-.94,3.52,3.52,0,0,0,.42-3"/></g></g></g></g><g class="cls-8"><rect class="cls-9" x="1.29" y="1.29" width="35.42" height="35.42" rx="5"/></g></g></g></svg>