<svg id="Ebene_1" data-name="Ebene 1" xmlns="http://www.w3.org/2000/svg" viewBox="0 0 23.7 23.7"><defs><style>.cls-1{fill:#63868d;}</style></defs><polygon class="cls-1" points="11.25 8.39 11.04 10.94 8.63 10.35 8.27 11.44 10.56 12.4 9.22 14.63 10.16 15.31 11.86 13.28 13.52 15.31 14.46 14.63 13.12 12.4 15.43 11.44 15.07 10.35 12.64 10.92 12.43 8.39 11.25 8.39"/><polygon class="cls-1" points="19.2 8.39 18.99 10.94 16.57 10.35 16.22 11.44 18.51 12.4 17.17 14.63 18.11 15.31 19.81 13.28 21.47 15.31 22.41 14.63 21.07 12.4 23.38 11.44 23.03 10.35 20.59 10.92 20.38 8.39 19.2 8.39"/><polygon class="cls-1" points="3.3 8.39 3.08 10.94 0.68 10.35 0.32 11.44 2.61 12.4 1.27 14.63 2.21 15.31 3.91 13.28 5.57 15.31 6.51 14.63 5.16 12.4 7.48 11.44 7.13 10.35 4.69 10.92 4.48 8.39 3.3 8.39"/></svg>