<svg id="Ebene_1" data-name="Ebene 1" xmlns="http://www.w3.org/2000/svg" xmlns:xlink="http://www.w3.org/1999/xlink" viewBox="0 0 38 38"><defs><style>.cls-1,.cls-5{fill:none;}.cls-2{clip-path:url(#clip-path);}.cls-3{fill:#9bb461;}.cls-4{clip-path:url(#clip-path-2);}.cls-5{stroke:#9bb461;}</style><clipPath id="clip-path"><rect class="cls-1" x="6.94" y="8.21" width="24.13" height="21.59"/></clipPath><clipPath id="clip-path-2"><rect id="SVGID" class="cls-1" x="0.79" y="0.79" width="36.42" height="36.42"/></clipPath></defs><g class="cls-2"><path class="cls-3" d="M15.33,21.38a27.4,27.4,0,0,1,4.21.81,16.65,16.65,0,0,0,2.28.11h1.25a10.12,10.12,0,0,0,2.06-.24.91.91,0,0,1,.69.92v.36c0,1-1.82,1.64-5.48,1.84-1.33-.08-2.13-.12-2.39-.12l-.12.57v.13c0,.38,1,.57,3,.57h1.14q2.81,0,6.06-2.76a5.44,5.44,0,0,1,1.71-.36h.22q1.14,0,1.14.93v.22q-6.66,5.43-11.17,5.43a51.14,51.14,0,0,1-6.62-1.26h-3.2c-.06,0-2.62-.22-3.07-1.92a3.94,3.94,0,0,1,1.59-3.74,43,43,0,0,1,6.74-1.49"/><path class="cls-3" d="M14.44,18.81c.66,0,1.33.11,2,.09a6.08,6.08,0,0,0,5.24-3.24c.42-.69.78-1.42,1.25-2.06a4.55,4.55,0,0,1,1.5-1.23c-1.48,1.21-2,3-2.77,4.59a4.3,4.3,0,0,1-3.11,2.11,5.24,5.24,0,0,0,5.94-1.33,25.54,25.54,0,0,0,2.46-3.67,15.76,15.76,0,0,1,3.84-4.9c-2-1.18-6.68-1.44-9.53.14a9,9,0,0,0-4,4.15c-.62,1.35-.88,2.68.17,4-1.08.74-2-.09-2.76-.11"/></g><g class="cls-4"><rect class="cls-5" x="1.29" y="1.29" width="35.42" height="35.42" rx="5"/></g></svg>