<svg id="Ebene_1" data-name="Ebene 1" xmlns="http://www.w3.org/2000/svg" xmlns:xlink="http://www.w3.org/1999/xlink" viewBox="0 0 23.7 23.7"><defs><style>.cls-1{fill:none;}.cls-2{clip-path:url(#clip-path);}.cls-3{fill:#9bb461;}</style><clipPath id="clip-path"><rect class="cls-1" x="1.98" y="4.49" width="19.75" height="14.71"/></clipPath></defs><g class="cls-2"><path class="cls-3" d="M20.25,4.49a3.94,3.94,0,0,0-.84.1A9.81,9.81,0,0,0,13.07,9a5.08,5.08,0,0,0-.58,1.74v-.51h0V9.38a.64.64,0,0,0-1.28,0v.88h0v.51A5.08,5.08,0,0,0,10.63,9,9.81,9.81,0,0,0,4.29,4.59a3.94,3.94,0,0,0-.84-.1l-.36,0c-1,.12-1.31.65-1,1.59a4.37,4.37,0,0,0,.34.73,16.72,16.72,0,0,1,1.39,3.53c.35,1.46.79,1.77,2.43,1.93a3.74,3.74,0,0,0-1.82,2.26,5.24,5.24,0,0,0,.33,3.08,3.06,3.06,0,0,0,2.59,1.58,4.24,4.24,0,0,0,2.94-1.29,6.48,6.48,0,0,0,.92-2.46v1.79a.64.64,0,0,0,1.28,0V15.46a6.31,6.31,0,0,0,.92,2.46,4.22,4.22,0,0,0,2.94,1.29,3.06,3.06,0,0,0,2.59-1.58,5.32,5.32,0,0,0,.33-3.08,3.74,3.74,0,0,0-1.82-2.26c1.64-.16,2.08-.47,2.43-1.93a16.72,16.72,0,0,1,1.39-3.53,5.35,5.35,0,0,0,.34-.73c.31-.94,0-1.47-1-1.59l-.36,0"/></g></svg>