<svg id="Ebene_1" data-name="Ebene 1" xmlns="http://www.w3.org/2000/svg" xmlns:xlink="http://www.w3.org/1999/xlink" viewBox="0 0 23.7 23.7"><defs><style>.cls-1,.cls-5{fill:none;}.cls-2{clip-path:url(#clip-path);}.cls-3{fill:#a4bc5b;}.cls-4{fill:#fff;}.cls-5{stroke:#fff;stroke-miterlimit:10;stroke-width:0.76px;}</style><clipPath id="clip-path"><rect class="cls-1" x="0.33" y="0.38" width="23.04" height="23.04"/></clipPath></defs><g class="cls-2"><path class="cls-3" d="M11.85,23.42A11.52,11.52,0,1,0,.33,11.9,11.52,11.52,0,0,0,11.85,23.42"/><path class="cls-4" d="M11.68,16.62,4.51,9.46a.24.24,0,0,1,.18-.41H19a.24.24,0,0,1,.17.41L12,16.62a.23.23,0,0,1-.34,0"/><path class="cls-5" d="M11.68,16.62,4.51,9.46a.24.24,0,0,1,.18-.41H19a.24.24,0,0,1,.17.41L12,16.62A.23.23,0,0,1,11.68,16.62Z"/></g></svg>