<svg xmlns="http://www.w3.org/2000/svg" viewBox="0 0 53.75 63.51"><defs><style>.cls-1{isolation:isolate;}.cls-2{mix-blend-mode:multiply;}.cls-3{fill:#fff;}</style></defs><title>Pflanzendoc_weiß</title><g class="cls-1"><g id="Ebene_1" data-name="Ebene 1"><g class="cls-2"><g class="cls-2"><path class="cls-3" d="M448.28,265.91c-6.14,2.84-10.86.7-14.3,4.76a6.8,6.8,0,0,0-.69,8.62Zm0,0s-7.74,8.48-11.09,10.89c-1.29.94-3.82,2.71-3.82,2.71a9.43,9.43,0,0,0-3.75,2.3H408.91v13.54H394.53v20.52h14.38v13.55H430.7V315.87h14.38V295.35H430.7V282.88c2-2.48,3.3-3,3.3-3s4.47,3.66,8.78.75c3.28-2.22,3.65-8.35,5.5-14.73" transform="translate(-394.53 -265.91)"/></g></g></g></g></svg>