<svg id="Ebene_1" data-name="Ebene 1" xmlns="http://www.w3.org/2000/svg" viewBox="0 0 14.67 18.38"><defs><style>.cls-1{fill:#fff;}</style></defs><path class="cls-1" d="M481.56-185.54c-2.21-.43-3-3.39-2.33-5.71,1.12-3.68,5.45-5.8,9.58-4.68,2.37.64,4.12,2,4.64,4.48a7.25,7.25,0,0,1-2.12,7.17,4.65,4.65,0,0,1-6.2.28c-.65,2.17-1.08,4.42-2.88,6.15a8.34,8.34,0,0,1-.05-4.32c.24-1.09.53-2.17.78-3.25a7.17,7.17,0,0,0,.29-3.6,2.36,2.36,0,0,1,1-2.66,2.11,2.11,0,0,1,1.68-.24,1.79,1.79,0,0,1,.81,1.44,14.5,14.5,0,0,1-.7,3c-.27.9-.42,1.75.48,2.38a2.24,2.24,0,0,0,2.75-.41,6,6,0,0,0,1.67-4.06c.12-1.62-.16-3.07-1.63-4.05-2.87-1.9-7.22-.29-8,3.06a4.83,4.83,0,0,0,.31,2.86,2,2,0,0,1-.08,2.16" transform="translate(-478.99 196.23)"/></svg>