<?xml version="1.0" encoding="utf-8"?>
<!-- Generator: Adobe Illustrator 23.0.1, SVG Export Plug-In . SVG Version: 6.00 Build 0)  -->
<svg version="1.1" id="Ebene_1" xmlns="http://www.w3.org/2000/svg" xmlns:xlink="http://www.w3.org/1999/xlink" x="0px" y="0px"
	 viewBox="0 0 841.9 595.3" style="enable-background:new 0 0 841.9 595.3;" xml:space="preserve">
<style type="text/css">
	.st0{clip-path:url(#SVGID_2_);}
	.st1{clip-path:url(#SVGID_6_);}
	.st2{clip-path:url(#SVGID_8_);}
	.st3{fill:#1F1E22;}
	.st4{clip-path:url(#SVGID_10_);}
	.st5{clip-path:url(#SVGID_12_);}
</style>
<g>
	<g>
		<g>
			<defs>
				<rect id="SVGID_1_" x="310" y="210.6" width="178" height="153.7"/>
			</defs>
			<clipPath id="SVGID_2_">
				<use xlink:href="#SVGID_1_"  style="overflow:visible;"/>
			</clipPath>
			<g class="st0">
				<g>
					<g>
						<defs>
							<rect id="SVGID_3_" x="327.8" y="224.5" width="142.1" height="137.8"/>
						</defs>
						<clipPath id="SVGID_4_">
							<use xlink:href="#SVGID_3_"  style="overflow:visible;"/>
						</clipPath>
					</g>
				</g>
			</g>
		</g>
	</g>
	<g>
		<g>
			<defs>
				<path id="SVGID_5_" d="M421.6,339.4c-9-6.1-18.1-12.2-27.2-18.3c-0.3-0.2-0.6-0.5-1.2-1c19.4-3.5,38.6-7,57.7-10.5
					c0.1,0.1,0.3,0.3,0.4,0.4c-2,3.5-3.9,7.2-6.2,10.6c-5.3,8-12.1,14.5-20.8,18.9c-0.5,0.2-0.9,0.4-1.3,0.4
					C422.5,339.9,422.1,339.8,421.6,339.4 M378.4,344.4c-0.7-0.2-1.5-1-1.7-1.7c-2.1-10.7-4.2-21.4-6.2-32.2c0-0.2,0-0.5,0-1
					c16.3,10.7,32.4,21.2,48.9,32c-6.5,2.6-12.9,4.2-19.5,4.9c-2,0.2-4,0.3-6,0.3C388.5,346.8,383.4,346,378.4,344.4 M365.8,339.5
					c-9.8-5.3-17.9-12.4-23.4-22.3c-0.6-1.2-0.6-2,0.2-3.1c6.2-8.5,12.3-17.1,18.4-25.6c0.3-0.5,0.7-0.9,1.3-1.7
					c3.7,18.8,7.3,37.3,11,56.3C370.5,341.8,368.1,340.8,365.8,339.5 M335.5,300.9c-2-9.1-2-18.3,1-27.3c0.2-0.7,1-1.5,1.6-1.6
					c11.1-2.1,22.2-4,33.3-6c0.2,0,0.5,0,1.1,0c-11,15.8-21.9,31.4-32.8,46.9c-0.2,0-0.4,0-0.7,0
					C337.8,308.8,336.4,304.9,335.5,300.9 M449.8,264.9c1,2.9,2,5.3,2.7,7.8c3,10.2,3.5,20.5,0.6,30.9c-0.5,1.8-1.3,2.6-3.3,2.9
					c-10.4,1.8-20.8,3.7-31.2,5.5c-0.5,0.1-1.1,0.1-2.1,0.2C427.7,296.4,438.6,280.9,449.8,264.9 M356.6,243.8
					c2.6-2,5.6-3.6,8.5-5.3c0.5-0.3,1.6-0.3,2.1,0.1c9.3,6.2,18.6,12.4,27.9,18.6c0.2,0.1,0.4,0.3,0.8,0.7c-19.4,3.5-38.5,7-58,10.6
					C342.3,258.6,348.2,250.2,356.6,243.8 M415.8,235.1c5.9,2.3,11.1,5.3,15.8,8.8c6.3,4.7,11.5,10.3,15.2,17.2
					c0.5,0.9,0.6,1.6-0.1,2.5c-6.4,8.9-12.8,17.9-19.2,26.8c-0.1,0.2-0.3,0.3-0.8,0.8C423.1,272.5,419.5,254,415.8,235.1
					 M369.8,236.6c9.4-3.7,18.6-5.7,28.3-5c4.3,0.3,8.6,1.4,12.9,2.2c0.6,0.1,1.4,0.9,1.5,1.5c2.1,10.8,4.2,21.6,6.3,32.3
					c0,0.2,0,0.5,0,1C402.3,257.9,386.2,247.3,369.8,236.6 M348.4,244.2c-22.8,21.8-25.8,56.5-7.1,81.8c16.5,22.4,46,32,73.1,23.8
					c27.4-8.3,46-32.9,46-60.7c0-13.1-4.1-25.8-11.7-36.1c-13.1-18.1-33.5-27.4-54.1-27.4C378.1,225.6,361.4,231.7,348.4,244.2"/>
			</defs>
			<clipPath id="SVGID_6_">
				<use xlink:href="#SVGID_5_"  style="overflow:visible;"/>
			</clipPath>
			<g class="st1">
				<g>
					<g>
						<defs>
							<rect id="SVGID_7_" x="322.6" y="225.6" width="137.8" height="132.4"/>
						</defs>
						<clipPath id="SVGID_8_">
							<use xlink:href="#SVGID_7_"  style="overflow:visible;"/>
						</clipPath>
						<g class="st2">
							
								<image style="overflow:visible;enable-background:new    ;" width="579" height="558" xlink:href="9E51B41.jpeg"  transform="matrix(0.2374 0 0 0.2374 322.8271 225.6)">
							</image>
						</g>
					</g>
				</g>
			</g>
		</g>
	</g>
	<g>
		<path class="st3" d="M418.6,267.6c-2.1-10.8-4.1-21.6-6.3-32.3c-0.1-0.6-0.9-1.4-1.5-1.5c-4.3-0.9-8.5-1.9-12.9-2.2
			c-9.6-0.7-18.9,1.3-28.3,5c16.4,10.8,32.5,21.3,48.8,32C418.6,268,418.7,267.8,418.6,267.6"/>
		<path class="st3" d="M395.1,257.2c-9.3-6.2-18.5-12.4-27.9-18.6c-0.5-0.3-1.6-0.4-2.1-0.1c-2.9,1.7-5.8,3.3-8.5,5.3
			c-8.4,6.4-14.3,14.8-18.8,24.8c19.5-3.6,38.6-7.1,58-10.6C395.4,257.5,395.3,257.4,395.1,257.2"/>
		<path class="st3" d="M370.4,310.5c2,10.7,4.1,21.5,6.2,32.2c0.1,0.7,1,1.5,1.7,1.7c7,2.2,14.1,2.7,21.4,2c6.6-0.7,13-2.2,19.5-4.9
			c-16.5-10.8-32.6-21.3-48.9-32C370.4,310.1,370.4,310.3,370.4,310.5"/>
		<path class="st3" d="M427.5,290.4c6.4-8.9,12.8-17.9,19.2-26.8c0.6-0.9,0.6-1.6,0.1-2.5c-3.7-6.9-8.9-12.5-15.2-17.2
			c-4.8-3.6-9.9-6.5-15.8-8.8c3.7,18.9,7.3,37.4,11,56.1C427.2,290.8,427.4,290.6,427.5,290.4"/>
		<path class="st3" d="M360.9,288.5c-6.1,8.5-12.2,17.1-18.4,25.6c-0.8,1.1-0.9,1.9-0.2,3.1c5.5,9.9,13.6,17,23.4,22.3
			c2.3,1.3,4.7,2.3,7.5,3.7c-3.7-19-7.3-37.5-11-56.3C361.7,287.6,361.3,288.1,360.9,288.5"/>
		<path class="st3" d="M393.2,320.2c0.6,0.5,0.9,0.8,1.2,1c9.1,6.1,18.2,12.1,27.2,18.3c1,0.6,1.7,0.6,2.7,0.1
			c8.7-4.4,15.5-10.8,20.8-18.9c2.3-3.4,4.1-7.1,6.2-10.6c-0.1-0.1-0.3-0.3-0.4-0.4C431.7,313.1,412.6,316.6,393.2,320.2"/>
		<path class="st3" d="M371.3,265.9c-11.1,2-22.2,4-33.3,6c-0.6,0.1-1.4,1-1.6,1.6c-3,9-3,18.1-1,27.3c0.9,4,2.3,8,3.5,12
			c0.2,0,0.4,0,0.7,0c10.9-15.6,21.8-31.1,32.8-46.9C371.8,265.9,371.6,265.9,371.3,265.9"/>
		<path class="st3" d="M452.5,272.8c-0.7-2.5-1.7-5-2.7-7.8c-11.2,16-22,31.5-33.2,47.4c1-0.1,1.5-0.1,2.1-0.2
			c10.4-1.9,20.8-3.8,31.2-5.6c1.9-0.3,2.8-1.2,3.3-2.9C456,293.3,455.5,283,452.5,272.8"/>
	</g>
	<g>
		<g>
			<defs>
				<path id="SVGID_9_" d="M376,271.2c5.7,11.9,1.7,21.1,9.6,27.7c8.1,6.7,15.5,2.1,16.8,1.1L376,271.2z M376,271.2
					c0,0,16.7,14.8,21.5,21.2c1.9,2.5,5.4,7.4,5.4,7.4s2,5.8,5.3,7.8c1.7,1,3.1-1.3,1.4-2.6c-5-3.8-6-6.4-6-6.4s7-8.8,1.2-17.1
					C400.4,275.2,388.5,274.6,376,271.2z"/>
			</defs>
			<clipPath id="SVGID_10_">
				<use xlink:href="#SVGID_9_"  style="overflow:visible;"/>
			</clipPath>
			<g class="st4">
				<g>
					<g>
						<defs>
							<rect id="SVGID_11_" x="376" y="271.2" width="35.2" height="37.3"/>
						</defs>
						<clipPath id="SVGID_12_">
							<use xlink:href="#SVGID_11_"  style="overflow:visible;"/>
						</clipPath>
						<g class="st5">
							
								<image style="overflow:visible;enable-background:new    ;" width="154" height="158" xlink:href="9E51B43.jpeg"  transform="matrix(0.2306 0 0 0.2306 375.84 271.6987)">
							</image>
						</g>
					</g>
				</g>
			</g>
		</g>
	</g>
</g>
</svg>
