<?xml version="1.0" encoding="utf-8"?>
<!-- Generator: Adobe Illustrator 24.0.2, SVG Export Plug-In . SVG Version: 6.00 Build 0)  -->
<svg version="1.1" id="Ebene_1" xmlns="http://www.w3.org/2000/svg" xmlns:xlink="http://www.w3.org/1999/xlink" x="0px" y="0px"
	 viewBox="0 0 1103.2 1096.3" style="enable-background:new 0 0 1103.2 1096.3;" xml:space="preserve">
<style type="text/css">
	.st0{fill:#8C8C8C;}
</style>
<g>
	<path class="st0" d="M561.2,36.1C277.9,36.1,48.3,265.8,48.3,549c0,217.3,135.2,403,326,477.8c-4.5-40.6-8.5-103,1.8-147.3
		c9.3-40,60.1-254.9,60.1-254.9s-15.3-30.7-15.3-76.1c0-71.3,41.3-124.6,92.8-124.6c43.8,0,64.9,32.9,64.9,72.2
		c0,44-28,109.8-42.5,170.8c-12.1,51.1,25.6,92.7,76,92.7c91.2,0,161.2-96.1,161.2-234.9C773.2,401.9,685,316,559,316
		c-145.9,0-231.6,109.5-231.6,222.6c0,44.1,17,91.4,38.2,117c4.2,5.1,4.8,9.5,3.6,14.7c-3.9,16.2-12.5,51-14.2,58.2
		c-2.2,9.4-7.4,11.4-17.2,6.9c-64.1-29.8-104.1-123.5-104.1-198.7c0-161.8,117.6-310.4,338.9-310.4c177.9,0,316.2,126.8,316.2,296.2
		c0,176.8-111.5,319-266.1,319c-52,0-100.8-27-117.6-58.9c0,0-25.7,97.9-32,121.9c-11.6,44.6-42.8,100.4-63.7,134.5
		c48,14.9,99,22.9,151.9,22.9c283.3,0,512.9-229.6,512.9-512.9C1074,265.8,844.4,36.1,561.2,36.1z"/>
</g>
</svg>
