<?xml version="1.0" encoding="utf-8"?>
<!-- Generator: Adobe Illustrator 24.0.2, SVG Export Plug-In . SVG Version: 6.00 Build 0)  -->
<svg version="1.1" id="Ebene_1" xmlns="http://www.w3.org/2000/svg" xmlns:xlink="http://www.w3.org/1999/xlink" x="0px" y="0px"
	 viewBox="0 0 1103.2 1096.3" style="enable-background:new 0 0 1103.2 1096.3;" xml:space="preserve">
<style type="text/css">
	.st0{fill:#8C8C8C;}
</style>
<g>
	
		<ellipse transform="matrix(0.7071 -0.7071 0.7071 0.7071 -223.856 557.5995)" class="st0" cx="561.2" cy="549" rx="116.4" ry="116.4"/>
	<path class="st0" d="M833.3,343.1c-6.3-16.3-13.9-27.9-26.1-40.1c-12.2-12.2-23.8-19.8-40.1-26.1c-12.3-4.8-30.8-10.5-64.8-12
		c-36.8-1.7-47.9-2-141.1-2s-104.3,0.4-141.1,2c-34,1.6-52.5,7.2-64.8,12c-16.3,6.3-27.9,13.9-40.1,26.1
		c-12.2,12.2-19.8,23.8-26.1,40.1c-4.8,12.3-10.5,30.8-12,64.8c-1.7,36.8-2,47.9-2,141.1s0.4,104.3,2,141.1c1.6,34,7.2,52.5,12,64.8
		c6.3,16.3,13.9,27.9,26.1,40.1c12.2,12.2,23.8,19.8,40.1,26.1c12.3,4.8,30.8,10.5,64.8,12c36.8,1.7,47.9,2,141.1,2
		s104.3-0.4,141.1-2c34-1.6,52.5-7.2,64.8-12c16.3-6.3,27.9-13.9,40.1-26.1c12.2-12.2,19.8-23.8,26.1-40.1
		c4.8-12.3,10.5-30.8,12-64.8c1.7-36.8,2-47.9,2-141.1s-0.4-104.3-2-141.1C843.8,373.9,838.1,355.4,833.3,343.1z M561.2,728.3
		c-99,0-179.3-80.3-179.3-179.3s80.3-179.3,179.3-179.3c99,0,179.3,80.3,179.3,179.3S660.2,728.3,561.2,728.3z M747.5,404.5
		c-23.1,0-41.9-18.8-41.9-41.9s18.8-41.9,41.9-41.9s41.9,18.8,41.9,41.9S770.7,404.5,747.5,404.5z"/>
	<path class="st0" d="M561.2,36.1C277.9,36.1,48.3,265.8,48.3,549s229.6,512.9,512.9,512.9S1074,832.3,1074,549
		S844.4,36.1,561.2,36.1z M908.2,693c-1.7,37.2-7.6,62.5-16.2,84.8c-8.9,23-20.9,42.4-40.3,61.8c-19.4,19.4-38.9,31.3-61.8,40.3
		c-22.2,8.6-47.6,14.5-84.8,16.2c-37.2,1.7-49.1,2.1-144,2.1s-106.7-0.4-144-2.1c-37.2-1.7-62.5-7.6-84.8-16.2
		c-23-8.9-42.4-20.9-61.8-40.3c-19.4-19.4-31.3-38.9-40.3-61.8c-8.6-22.2-14.5-47.6-16.2-84.8c-1.7-37.2-2.1-49.1-2.1-144
		c0-94.8,0.4-106.7,2.1-144c1.7-37.2,7.6-62.5,16.2-84.8c8.9-23,20.9-42.4,40.3-61.8c19.4-19.4,38.9-31.3,61.8-40.3
		c22.2-8.6,47.6-14.5,84.8-16.2c37.2-1.7,49.1-2.1,144-2.1s106.7,0.4,144,2.1c37.2,1.7,62.5,7.6,84.8,16.2
		c23,8.9,42.4,20.9,61.8,40.3c19.4,19.4,31.3,38.9,40.3,61.8c8.6,22.2,14.5,47.6,16.2,84.8c1.7,37.2,2.1,49.1,2.1,144
		S909.9,655.7,908.2,693z"/>
</g>
</svg>
