<svg id="Ebene_1" data-name="Ebene 1" xmlns="http://www.w3.org/2000/svg" viewBox="0 0 23.4 22"><defs><style>.cls-1{fill:#7a9d34;}</style></defs><title>Wunschliste</title><path class="cls-1" d="M419.06,287.67a5.65,5.65,0,0,0-3.31-1,6.71,6.71,0,0,0-4.28,1.39,4.49,4.49,0,0,0-1.77,3.71,6.41,6.41,0,0,0,.9,3.31,20.35,20.35,0,0,0,2.83,3.53q2.73,2.86,3.55,3.83a26.5,26.5,0,0,1,1.9,2.62,24.33,24.33,0,0,1,1.51,2.6,2.71,2.71,0,0,0,.4.69,1.49,1.49,0,0,0,.5.32h.21a1.49,1.49,0,0,0,.5-.32,2.63,2.63,0,0,0,.4-.69,30.51,30.51,0,0,1,3.44-5.25q.82-1,3.52-3.8a18.34,18.34,0,0,0,2.93-3.71,6.83,6.83,0,0,0,.81-3.3,4.36,4.36,0,0,0-1.75-3.52,6.63,6.63,0,0,0-4.29-1.41,5.74,5.74,0,0,0-3.31,1,7,7,0,0,0-2.36,3.67,6.9,6.9,0,0,0-2.33-3.66" transform="translate(-409.7 -286.67)"/></svg>