<svg id="Ebene_1" data-name="Ebene 1" xmlns="http://www.w3.org/2000/svg" xmlns:xlink="http://www.w3.org/1999/xlink" viewBox="0 0 113.39 113.39"><defs><style>.cls-1{fill:url(#Unbenannter_Verlauf_12);}.cls-2{fill:url(#Unbenannter_Verlauf_12-2);}.cls-3{fill:url(#Unbenannter_Verlauf_12-3);}.cls-4{fill:url(#Unbenannter_Verlauf_12-4);}.cls-5{fill:url(#Unbenannter_Verlauf_12-5);}.cls-6{fill:url(#Unbenannter_Verlauf_12-6);}.cls-7{fill:url(#Unbenannter_Verlauf_12-7);}.cls-8{fill:url(#Unbenannter_Verlauf_9);}.cls-9{fill:url(#Unbenannter_Verlauf_8);}.cls-10{fill:url(#Unbenannter_Verlauf_5);}.cls-11{fill:url(#Unbenannter_Verlauf_12-8);}.cls-12{fill:url(#Unbenannter_Verlauf_12-9);}.cls-13{fill:url(#Unbenannter_Verlauf_12-10);}</style><linearGradient id="Unbenannter_Verlauf_12" x1="13.05" y1="71.48" x2="33.71" y2="79.7" gradientUnits="userSpaceOnUse"><stop offset="0" stop-color="#fff"/><stop offset="0.07" stop-color="#e9efde"/><stop offset="0.19" stop-color="#ccd9b1"/><stop offset="0.3" stop-color="#b3c78b"/><stop offset="0.43" stop-color="#9eb86b"/><stop offset="0.55" stop-color="#8eac53"/><stop offset="0.69" stop-color="#83a442"/><stop offset="0.83" stop-color="#7c9f37"/><stop offset="1" stop-color="#7a9d34"/></linearGradient><linearGradient id="Unbenannter_Verlauf_12-2" x1="11.08" y1="66.22" x2="35.35" y2="75.87" xlink:href="#Unbenannter_Verlauf_12"/><linearGradient id="Unbenannter_Verlauf_12-3" x1="15.47" y1="62.52" x2="37.44" y2="77.12" xlink:href="#Unbenannter_Verlauf_12"/><linearGradient id="Unbenannter_Verlauf_12-4" x1="11.77" y1="80.14" x2="29.81" y2="83.56" xlink:href="#Unbenannter_Verlauf_12"/><linearGradient id="Unbenannter_Verlauf_12-5" x1="10.11" y1="77.84" x2="30.42" y2="81.69" xlink:href="#Unbenannter_Verlauf_12"/><linearGradient id="Unbenannter_Verlauf_12-6" x1="15.34" y1="74.94" x2="31.62" y2="81.73" xlink:href="#Unbenannter_Verlauf_12"/><linearGradient id="Unbenannter_Verlauf_12-7" x1="-73.33" y1="200.36" x2="-63.01" y2="200.36" gradientTransform="translate(164.19 -98.36) rotate(12.34)" xlink:href="#Unbenannter_Verlauf_12"/><linearGradient id="Unbenannter_Verlauf_9" x1="-76.56" y1="193.05" x2="-49.48" y2="192.45" gradientTransform="translate(164.19 -98.36) rotate(12.34)" gradientUnits="userSpaceOnUse"><stop offset="0" stop-color="#fff"/><stop offset="0.04" stop-color="#eef2e4"/><stop offset="0.11" stop-color="#d3debb"/><stop offset="0.19" stop-color="#bbcd97"/><stop offset="0.27" stop-color="#a7be78"/><stop offset="0.36" stop-color="#96b25f"/><stop offset="0.46" stop-color="#8aa84c"/><stop offset="0.58" stop-color="#81a23e"/><stop offset="0.72" stop-color="#7c9e36"/><stop offset="1" stop-color="#7a9d34"/></linearGradient><linearGradient id="Unbenannter_Verlauf_8" x1="72.53" y1="82.03" x2="89.71" y2="80.25" gradientUnits="userSpaceOnUse"><stop offset="0" stop-color="#fff"/><stop offset="0.11" stop-color="#e5ecd8"/><stop offset="0.27" stop-color="#c5d4a7"/><stop offset="0.43" stop-color="#aac07d"/><stop offset="0.59" stop-color="#95b15d"/><stop offset="0.74" stop-color="#86a646"/><stop offset="0.88" stop-color="#7d9f39"/><stop offset="1" stop-color="#7a9d34"/></linearGradient><linearGradient id="Unbenannter_Verlauf_5" x1="46.59" y1="77.76" x2="17.26" y2="78.65" gradientTransform="matrix(0.25, 1.15, -0.97, 0.29, 95.72, -164.79)" gradientUnits="userSpaceOnUse"><stop offset="0" stop-color="#7a9d34"/><stop offset="0.17" stop-color="#7c9f37"/><stop offset="0.31" stop-color="#83a442"/><stop offset="0.45" stop-color="#8eac53"/><stop offset="0.57" stop-color="#9eb86b"/><stop offset="0.7" stop-color="#b3c78b"/><stop offset="0.81" stop-color="#ccd9b1"/><stop offset="0.93" stop-color="#e9efde"/><stop offset="1" stop-color="#fff"/></linearGradient><linearGradient id="Unbenannter_Verlauf_12-8" x1="30.29" y1="83.73" x2="38.38" y2="88.86" xlink:href="#Unbenannter_Verlauf_12"/><linearGradient id="Unbenannter_Verlauf_12-9" x1="1161.2" y1="212.3" x2="1199.19" y2="212.3" gradientTransform="translate(-1101.7 403.43) rotate(-26.55)" xlink:href="#Unbenannter_Verlauf_12"/><linearGradient id="Unbenannter_Verlauf_12-10" x1="38.08" y1="79.92" x2="43.79" y2="81.75" xlink:href="#Unbenannter_Verlauf_12"/></defs><title>Illus_v1_hell</title><path class="cls-1" d="M30.27,86.15a54.25,54.25,0,0,0-1.43-6.73,23.61,23.61,0,0,0-1.11-3.16,13.85,13.85,0,0,0-1.57-2.86A15.25,15.25,0,0,0,24,71a30.29,30.29,0,0,0-2.58-2.18c-1.8-1.38-3.72-2.65-5.68-3.93a26,26,0,0,1,6.44,2.82,18.4,18.4,0,0,1,5.41,4.72,16.36,16.36,0,0,1,2.6,6.72A22.13,22.13,0,0,1,30.27,86.15Z"/><path class="cls-2" d="M30.71,85.35c-.39-2.88-.85-5.72-1.46-8.51a36.53,36.53,0,0,0-2.64-8,27.21,27.21,0,0,0-5.05-6.65,73.71,73.71,0,0,0-6.47-5.69,31.84,31.84,0,0,1,7.38,4.7,28.29,28.29,0,0,1,3.16,3.13,21,21,0,0,1,2.52,3.75,28.29,28.29,0,0,1,2.42,8.54A37.05,37.05,0,0,1,30.71,85.35Z"/><path class="cls-3" d="M30.72,85.78c.2-3,.32-5.88.3-8.78a40.43,40.43,0,0,0-.86-8.56,28.23,28.23,0,0,0-3.45-7.78,75.48,75.48,0,0,0-5.06-7.16,33.24,33.24,0,0,1,6.18,6.41,30,30,0,0,1,2.38,3.84A21.91,21.91,0,0,1,31.83,68a30.16,30.16,0,0,1,.61,4.51A39.54,39.54,0,0,1,32.36,77,39.1,39.1,0,0,1,30.72,85.78Z"/><path class="cls-4" d="M28.4,86.6a11.83,11.83,0,0,0-2.56-4,7.11,7.11,0,0,0-1.8-1.3,10,10,0,0,0-2.14-.73c-1.53-.4-3.15-.61-4.77-.87s-3.27-.47-4.93-.79a22.41,22.41,0,0,1,5-.55,21,21,0,0,1,5.08.54,10.66,10.66,0,0,1,2.53,1,7.15,7.15,0,0,1,2,1.85A7.75,7.75,0,0,1,28.4,86.6Z"/><path class="cls-5" d="M28.76,86.05A21.72,21.72,0,0,0,26.11,81,9.83,9.83,0,0,0,22,77.55a34.5,34.5,0,0,0-5.41-1.72l-5.71-1.36a25.2,25.2,0,0,1,6,0A21.17,21.17,0,0,1,22.69,76a10.17,10.17,0,0,1,2.66,1.76,10.56,10.56,0,0,1,1.89,2.5A12.14,12.14,0,0,1,28.76,86.05Z"/><path class="cls-6" d="M28.81,86.28a31.38,31.38,0,0,0-.51-5.39,8.67,8.67,0,0,0-2-4.48A16.86,16.86,0,0,0,22,73.48c-1.59-.83-3.24-1.6-4.93-2.39a19.57,19.57,0,0,1,5.48,1.16,13.16,13.16,0,0,1,4.95,3,7.6,7.6,0,0,1,1.57,2.62,10.76,10.76,0,0,1,.54,2.88A13.7,13.7,0,0,1,28.81,86.28Z"/><circle class="cls-7" cx="54.79" cy="82.81" r="5.16"/><polyline class="cls-8" points="49.94 68.12 74.9 73.58 67.15 83.57 51.1 80.61 47.81 67.65"/><polygon class="cls-9" points="79.21 87.14 78.42 75.61 79.56 75.53 80.19 84.61 87.99 77.1 88.78 77.93 79.21 87.14"/><rect class="cls-10" x="69.45" y="46.85" width="3.44" height="51.97" transform="translate(-14.73 127.54) rotate(-78.15)"/><ellipse class="cls-11" cx="35.91" cy="87.29" rx="5.61" ry="1.35"/><rect class="cls-12" x="28.24" y="64.6" width="41.33" height="2.3" transform="translate(-31.47 81.7) rotate(-64.59)"/><path class="cls-13" d="M43.17,83.94c-2.1,2.72-6.64,1.79-5.51-2.44a17.22,17.22,0,0,1,2.57-5.94l6.34,2.73A30.45,30.45,0,0,1,43.17,83.94Z"/></svg>