<svg id="Ebene_1" data-name="Ebene 1" xmlns="http://www.w3.org/2000/svg" xmlns:xlink="http://www.w3.org/1999/xlink" viewBox="0 0 113.39 113.39"><defs><style>.cls-1{fill:url(#Unbenannter_Verlauf_4);}.cls-2{fill:url(#Unbenannter_Verlauf_4-2);}.cls-3{fill:url(#Unbenannter_Verlauf_4-3);}.cls-4{fill:url(#Unbenannter_Verlauf_4-4);}.cls-5{fill:url(#Unbenannter_Verlauf_4-5);}.cls-6{fill:url(#Unbenannter_Verlauf_4-6);}.cls-7{fill:url(#Unbenannter_Verlauf_3);}.cls-8{fill:url(#Unbenannter_Verlauf_3-2);}.cls-9{fill:url(#Unbenannter_Verlauf_4-7);}.cls-10{fill:url(#Unbenannter_Verlauf_4-8);}.cls-11{fill:url(#Unbenannter_Verlauf_3-3);}.cls-12{fill:url(#Unbenannter_Verlauf_3-4);}.cls-13{fill:url(#Unbenannter_Verlauf_3-5);}</style><linearGradient id="Unbenannter_Verlauf_4" x1="13.05" y1="69.81" x2="33.71" y2="78.03" gradientUnits="userSpaceOnUse"><stop offset="0" stop-color="#080808"/><stop offset="0.37" stop-color="#36441a"/><stop offset="0.8" stop-color="#67842d"/><stop offset="1" stop-color="#7a9d34"/></linearGradient><linearGradient id="Unbenannter_Verlauf_4-2" x1="11.08" y1="64.54" x2="35.35" y2="74.2" xlink:href="#Unbenannter_Verlauf_4"/><linearGradient id="Unbenannter_Verlauf_4-3" x1="15.47" y1="60.85" x2="37.44" y2="75.45" xlink:href="#Unbenannter_Verlauf_4"/><linearGradient id="Unbenannter_Verlauf_4-4" x1="11.77" y1="78.47" x2="29.81" y2="81.89" xlink:href="#Unbenannter_Verlauf_4"/><linearGradient id="Unbenannter_Verlauf_4-5" x1="10.11" y1="76.16" x2="30.42" y2="80.01" xlink:href="#Unbenannter_Verlauf_4"/><linearGradient id="Unbenannter_Verlauf_4-6" x1="15.34" y1="73.27" x2="31.62" y2="80.06" xlink:href="#Unbenannter_Verlauf_4"/><linearGradient id="Unbenannter_Verlauf_3" x1="40.29" y1="186.41" x2="50.62" y2="186.41" gradientTransform="translate(50.21 -110.68) rotate(12.34)" gradientUnits="userSpaceOnUse"><stop offset="0" stop-color="#0e0e09"/><stop offset="1" stop-color="#7b9e33"/></linearGradient><linearGradient id="Unbenannter_Verlauf_3-2" x1="37.06" y1="179.1" x2="64.14" y2="178.5" xlink:href="#Unbenannter_Verlauf_3"/><linearGradient id="Unbenannter_Verlauf_4-7" x1="72.53" y1="80.35" x2="89.71" y2="78.58" xlink:href="#Unbenannter_Verlauf_4"/><linearGradient id="Unbenannter_Verlauf_4-8" x1="39.77" y1="101.07" x2="48.7" y2="98.25" gradientTransform="matrix(0.25, 1.15, -0.97, 0.29, 99.43, -118.37)" xlink:href="#Unbenannter_Verlauf_4"/><linearGradient id="Unbenannter_Verlauf_3-3" x1="30.29" y1="82.05" x2="38.38" y2="87.18" gradientTransform="matrix(1, 0, 0, 1, 0, 0)" xlink:href="#Unbenannter_Verlauf_3"/><linearGradient id="Unbenannter_Verlauf_3-4" x1="629.43" y1="-331.82" x2="667.42" y2="-331.82" gradientTransform="translate(-382.79 650.76) rotate(-26.55)" xlink:href="#Unbenannter_Verlauf_3"/><linearGradient id="Unbenannter_Verlauf_3-5" x1="38.08" y1="78.24" x2="43.79" y2="80.08" gradientTransform="matrix(1, 0, 0, 1, 0, 0)" xlink:href="#Unbenannter_Verlauf_3"/></defs><title>Illus_v1_dunkel</title><path class="cls-1" d="M30.27,84.48a54.25,54.25,0,0,0-1.43-6.73,24.25,24.25,0,0,0-1.11-3.17,14,14,0,0,0-1.57-2.85A15.76,15.76,0,0,0,24,69.29a32.14,32.14,0,0,0-2.58-2.17c-1.8-1.38-3.72-2.65-5.68-3.93A26,26,0,0,1,22.14,66a18.4,18.4,0,0,1,5.41,4.72,16.3,16.3,0,0,1,2.6,6.72A22.12,22.12,0,0,1,30.27,84.48Z"/><path class="cls-2" d="M30.71,83.68c-.39-2.88-.85-5.72-1.46-8.51a36.36,36.36,0,0,0-2.64-8,27.21,27.21,0,0,0-5.05-6.65,75.49,75.49,0,0,0-6.47-5.7,32.21,32.21,0,0,1,7.38,4.71,29.08,29.08,0,0,1,3.16,3.12,21.39,21.39,0,0,1,2.52,3.75,28.29,28.29,0,0,1,2.42,8.54A37.14,37.14,0,0,1,30.71,83.68Z"/><path class="cls-3" d="M30.72,84.11c.2-3,.32-5.88.3-8.79a40.33,40.33,0,0,0-.86-8.55A28.23,28.23,0,0,0,26.71,59a76.92,76.92,0,0,0-5.06-7.17,33,33,0,0,1,6.18,6.42,30,30,0,0,1,2.38,3.84,21.91,21.91,0,0,1,1.62,4.29,30.16,30.16,0,0,1,.61,4.51,39.54,39.54,0,0,1-.08,4.49A39.21,39.21,0,0,1,30.72,84.11Z"/><path class="cls-4" d="M28.4,84.93a11.73,11.73,0,0,0-2.56-4,7.11,7.11,0,0,0-1.8-1.3,10.57,10.57,0,0,0-2.14-.74c-1.53-.39-3.15-.61-4.77-.86s-3.27-.47-4.93-.79a21.31,21.31,0,0,1,5-.55,21.45,21.45,0,0,1,5.08.53,10.7,10.7,0,0,1,2.53,1,7.15,7.15,0,0,1,2,1.85A7.75,7.75,0,0,1,28.4,84.93Z"/><path class="cls-5" d="M28.76,84.38a21.79,21.79,0,0,0-2.65-5.1A9.88,9.88,0,0,0,22,75.88a34.5,34.5,0,0,0-5.41-1.72l-5.71-1.37a25.2,25.2,0,0,1,6,0,20.84,20.84,0,0,1,5.87,1.48,10.17,10.17,0,0,1,2.66,1.76,10.36,10.36,0,0,1,1.89,2.5A12.14,12.14,0,0,1,28.76,84.38Z"/><path class="cls-6" d="M28.81,84.61a31.6,31.6,0,0,0-.51-5.4,8.74,8.74,0,0,0-2-4.48A17.39,17.39,0,0,0,22,71.8c-1.59-.82-3.24-1.59-4.93-2.38a19.56,19.56,0,0,1,5.48,1.15,13.32,13.32,0,0,1,4.95,3,7.51,7.51,0,0,1,1.57,2.62,10.76,10.76,0,0,1,.54,2.88A13.73,13.73,0,0,1,28.81,84.61Z"/><circle class="cls-7" cx="54.79" cy="81.14" r="5.16"/><polyline class="cls-8" points="49.94 66.44 74.9 71.9 67.15 81.89 51.1 78.94 47.81 65.98"/><polygon class="cls-9" points="79.21 85.47 78.42 73.94 79.56 73.86 80.19 82.94 87.99 75.43 88.78 76.26 79.21 85.47"/><rect class="cls-10" x="69.45" y="45.18" width="3.44" height="51.97" transform="translate(-13.09 126.21) rotate(-78.15)"/><ellipse class="cls-11" cx="35.91" cy="85.62" rx="5.61" ry="1.35"/><rect class="cls-12" x="28.24" y="62.93" width="41.33" height="2.3" transform="translate(-29.96 80.75) rotate(-64.59)"/><path class="cls-13" d="M43.17,82.27c-2.1,2.71-6.64,1.79-5.51-2.44a17.09,17.09,0,0,1,2.57-5.94l6.34,2.73A30.45,30.45,0,0,1,43.17,82.27Z"/></svg>