<?xml version="1.0" encoding="utf-8"?>
<!-- Generator: Adobe Illustrator 24.0.2, SVG Export Plug-In . SVG Version: 6.00 Build 0)  -->
<svg version="1.1" id="Ebene_1" xmlns="http://www.w3.org/2000/svg" xmlns:xlink="http://www.w3.org/1999/xlink" x="0px" y="0px"
	 viewBox="0 0 59.4 59.1" style="enable-background:new 0 0 59.4 59.1;" xml:space="preserve">
<style type="text/css">
	.st0{fill:#EEEEEE;}
	.st1{fill:#ECCD23;}
</style>
<g>
	<path class="st0" d="M39.7,35.5c2-2.7,3.3-4.5,3.9-5.5c0.9-1.5,1.6-2.9,2-4.1c0.4-1.2,0.6-2.5,0.6-3.7c0-2.4-0.7-4.4-2.2-6
		c-1.4-1.5-3.3-2.3-5.6-2.3c-2.1,0-3.9,0.6-5.3,1.9c-1.5,1.3-2.6,3.2-3.4,5.8c-0.8-2.6-2-4.5-3.4-5.8c-1.5-1.3-3.2-1.9-5.3-1.9
		c-2.3,0-4.1,0.8-5.6,2.3c-1.4,1.5-2.2,3.5-2.2,5.9c0,1.4,0.2,2.8,0.7,4.1c0.5,1.3,1.4,3.1,2.8,5.1c0.3,0.4,1.4,1.9,3.2,4.3
		c1.8,2.4,9.1,9.6,9.8,9.6C30.4,45.3,37.7,38.2,39.7,35.5"/>
	<path class="st1" d="M24.7,31.6C24.7,31.6,24.6,31.6,24.7,31.6c-0.4,1-0.6,1.9-0.7,2.6c-0.1,0.7,0.5,1.6,1.4,1.4
		c0.7-0.1,1.6-0.3,2.5-0.6c0,0,0-0.1,0-0.1L24.7,31.6z M34.6,28.1c0,0.3-0.1,0.5-0.1,0.8c0,0.2-0.1,0.5-0.1,0.7
		c0,0.2-0.1,0.4-0.1,0.6c-0.4,2.4-1.1,5.3-2.7,6.6c-0.6,0.6-1.3,0.8-2.2,0.7c-0.7-0.1-0.8-0.4-0.8-0.5c-0.1-0.2-0.1-0.7,0.2-1.3
		c0.2-0.4,0.4-0.9,0.8-1.5c0.2-0.3,0.4-0.7,0.7-1.1c0.2-0.3,0.5-0.6,0.7-1c0.3-0.4,0.7-0.9,1.1-1.4c0.2-0.3,0.5-0.6,0.8-0.9
		c0.4-0.4,0.7-0.9,1.2-1.3C34.3,28.4,34.4,28.2,34.6,28.1 M32.2,29c-0.3,0.3-0.5,0.6-0.8,0.9l-1.8-1.8c0.3-0.2,0.6-0.5,0.9-0.8
		L32.2,29z M31.5,24.9c-0.2,0.1-0.3,0.3-0.5,0.4c-0.5,0.4-0.9,0.8-1.3,1.2c-0.3,0.3-0.6,0.5-0.9,0.8c-0.5,0.4-0.9,0.8-1.4,1.1
		c-0.3,0.3-0.7,0.5-1,0.7c-0.4,0.3-0.8,0.5-1.1,0.7c-0.6,0.4-1.1,0.6-1.5,0.8c-0.7,0.3-1.1,0.3-1.3,0.2c-0.1,0-0.4-0.1-0.5-0.8
		c-0.1-0.8,0.1-1.5,0.7-2.2c1.3-1.5,4.2-2.3,6.6-2.7c0.2,0,0.4-0.1,0.6-0.1c0.3,0,0.5-0.1,0.7-0.1C30.9,25,31.2,25,31.5,24.9
		 M27.3,30c0.3-0.2,0.6-0.5,1-0.7l2,2c-0.3,0.3-0.5,0.6-0.7,1L27.3,30z M35.9,23.6c-0.6-0.6-1.6-0.7-2.3-0.1c0,0,0,0,0,0
		c-0.2-0.2-0.5-0.1-0.8,0.2l-2.2,0.2c-2.7,0.3-7,1.1-8.8,3.3c-0.8,0.9-1.1,1.9-1,3.1c0.1,0.7,0.3,1.1,0.6,1.4l0,0
		c0.2,0.2,0.4,0.3,0.6,0.4c0.1,0,0.2,0.1,0.4,0.1c0.6,0.1,1.3-0.1,2.2-0.5c0,0,0-0.1,0-0.1l0,0c0.3-0.2,0.7-0.4,1.1-0.6l2.8,2.8
		c-0.2,0.4-0.4,0.7-0.6,1.1l0,0c0,0-0.1,0-0.1,0c-0.4,0.9-0.6,1.6-0.5,2.2c0,0.1,0,0.2,0.1,0.4c0.1,0.2,0.2,0.4,0.4,0.6l0,0
		c0.3,0.3,0.7,0.5,1.4,0.6c1.2,0.1,2.2-0.2,3.1-1c0.1-0.1,0.2-0.2,0.3-0.3c2-2,2.7-6,3-8.6c0.1-1,0.2-1.8,0.2-2.2
		c0.3-0.3,0.3-0.5,0.2-0.8c0,0,0,0,0,0C36.6,25.2,36.6,24.2,35.9,23.6"/>
</g>
</svg>
