<?xml version="1.0" encoding="utf-8"?>
<!-- Generator: Adobe Illustrator 24.0.2, SVG Export Plug-In . SVG Version: 6.00 Build 0)  -->
<svg version="1.1" id="Ebene_1" xmlns="http://www.w3.org/2000/svg" xmlns:xlink="http://www.w3.org/1999/xlink" x="0px" y="0px"
	 viewBox="0 0 59.4 59.1" style="enable-background:new 0 0 59.4 59.1;" xml:space="preserve">
<style type="text/css">
	.st0{clip-path:url(#SVGID_2_);fill:#ECCD24;}
</style>
<g>
	<polygon points="24.6,30.6 24.5,30.3 26.2,29.4 30.1,33.2 29,34.7 28.5,34.7 	"/>
	<polygon points="27.7,28.3 29.2,27.1 32.1,30.1 30.8,31.6 	"/>
	<polygon points="30.8,26 32.2,24.7 34.6,27.1 33.2,28.6 	"/>
	<g>
		<defs>
			<rect id="SVGID_1_" x="19.6" y="19.4" width="20.3" height="20.3"/>
		</defs>
		<clipPath id="SVGID_2_">
			<use xlink:href="#SVGID_1_"  style="overflow:visible;"/>
		</clipPath>
		<path class="st0" d="M39.2,20.1c-0.8-0.8-2.1-0.9-3-0.1c0,0,0,0,0,0c-0.3-0.2-0.6-0.1-1,0.2l-2.8,0.2c-3.5,0.4-9,1.4-11.5,4.2
			c-1,1.2-1.4,2.5-1.2,4c0.1,0.9,0.4,1.4,0.8,1.8l0,0c0.3,0.3,0.5,0.4,0.8,0.5c0.1,0.1,0.3,0.1,0.5,0.1c0.8,0.1,1.7-0.1,2.8-0.6
			c0,0,0,0,0.1,0c0,0,0-0.1,0-0.1c0.4-0.2,0.9-0.5,1.4-0.8l3.6,3.6c-0.3,0.5-0.6,1-0.8,1.4c0,0,0,0,0,0c0,0,0,0.1,0,0.1
			c-0.5,1.1-0.7,2.1-0.6,2.8c0,0.2,0.1,0.3,0.1,0.5c0.1,0.3,0.2,0.5,0.5,0.8l0,0c0.4,0.4,0.9,0.7,1.8,0.8c1.5,0.2,2.9-0.2,4-1.2
			c0.1-0.1,0.2-0.2,0.3-0.3c2.6-2.6,3.5-7.8,3.9-11.2c0.1-1.3,0.2-2.3,0.2-2.8c0.3-0.4,0.4-0.7,0.2-1c0,0,0,0,0,0
			C40,22.2,40,20.9,39.2,20.1 M27.9,28.4c0.4-0.3,0.8-0.6,1.2-0.9l2.7,2.7c-0.3,0.4-0.6,0.8-0.9,1.2L27.9,28.4z M33.4,21.8
			c-0.2,0.2-0.4,0.4-0.6,0.6c-0.6,0.5-1.2,1-1.7,1.5c-0.4,0.4-0.8,0.7-1.2,1c-0.6,0.5-1.2,1-1.8,1.4c-0.4,0.3-0.9,0.7-1.2,0.9
			c-0.5,0.4-1,0.7-1.4,1c-0.8,0.5-1.5,0.8-2,1c-0.9,0.4-1.4,0.4-1.7,0.2c-0.1,0-0.5-0.2-0.6-1.1c-0.1-1.1,0.2-2,0.9-2.8
			c1.7-2,5.5-3,8.6-3.5c0.3,0,0.5-0.1,0.8-0.1c0.3,0,0.7-0.1,1-0.1C32.7,21.9,33.1,21.9,33.4,21.8 M34.3,27.1
			c-0.3,0.4-0.7,0.8-1,1.2L31,26c0.4-0.3,0.8-0.7,1.2-1L34.3,27.1z M37.5,25.9c0,0.3-0.1,0.7-0.1,1.1c0,0.3-0.1,0.6-0.1,1
			c0,0.3-0.1,0.5-0.1,0.8c-0.5,3.1-1.5,6.8-3.5,8.6c-0.8,0.7-1.7,1-2.8,0.9c-0.9-0.1-1-0.5-1.1-0.6c-0.1-0.3-0.1-0.8,0.2-1.7
			c0.2-0.5,0.5-1.2,1-2c0.3-0.4,0.6-0.9,1-1.4c0.3-0.4,0.6-0.8,0.9-1.2c0.4-0.5,0.9-1.1,1.4-1.8c0.3-0.4,0.6-0.8,1-1.2
			c0.5-0.5,1-1.1,1.5-1.7C37.1,26.3,37.3,26.1,37.5,25.9 M24.6,30.4C24.6,30.4,24.5,30.4,24.6,30.4c-0.5,1.3-0.8,2.4-0.9,3.3
			c-0.2,0.9,0.6,2.1,1.9,1.9c0.9-0.1,2.1-0.4,3.3-0.8c0,0,0-0.1,0-0.1L24.6,30.4z"/>
	</g>
</g>
</svg>
