<svg id="Ebene_1" data-name="Ebene 1" xmlns="http://www.w3.org/2000/svg" xmlns:xlink="http://www.w3.org/1999/xlink" viewBox="0 0 113.39 113.39"><defs><style>.cls-1{fill:url(#Unbenannter_Verlauf_12);}.cls-2{fill:url(#Unbenannter_Verlauf_12-2);}</style><linearGradient id="Unbenannter_Verlauf_12" x1="28.89" y1="43.54" x2="111.73" y2="75.28" gradientUnits="userSpaceOnUse"><stop offset="0" stop-color="#fff"/><stop offset="0.07" stop-color="#e9efde"/><stop offset="0.19" stop-color="#ccd9b1"/><stop offset="0.3" stop-color="#b3c78b"/><stop offset="0.43" stop-color="#9eb86b"/><stop offset="0.55" stop-color="#8eac53"/><stop offset="0.69" stop-color="#83a442"/><stop offset="0.83" stop-color="#7c9f37"/><stop offset="1" stop-color="#7a9d34"/></linearGradient><linearGradient id="Unbenannter_Verlauf_12-2" x1="37.9" y1="20.03" x2="120.74" y2="51.77" xlink:href="#Unbenannter_Verlauf_12"/></defs><title>Illus_v1_hell</title><path class="cls-1" d="M66.19,43.7a8.54,8.54,0,0,1,3-2.71s4,3.31,8,.67c3-2,3.31-7.57,5-13.35,0,0-7,7.69-10,9.88-1.17.84-3.46,2.45-3.46,2.45a8.56,8.56,0,0,0-3.41,2.08H46.44V55h-13V73.61h13V85.89H66.19V73.61h13V55h-13Z"/><path class="cls-2" d="M69.16,32.62a6.19,6.19,0,0,0-.62,7.82L82.13,28.31C76.56,30.88,72.28,28.94,69.16,32.62Z"/></svg>