<svg id="Ebene_1" data-name="Ebene 1" xmlns="http://www.w3.org/2000/svg" xmlns:xlink="http://www.w3.org/1999/xlink" viewBox="0 0 113.39 113.39"><defs><style>.cls-1{fill:url(#Unbenannter_Verlauf_4);}.cls-2{fill:url(#Unbenannter_Verlauf_4-2);}</style><linearGradient id="Unbenannter_Verlauf_4" x1="-3.7" y1="31.33" x2="101.6" y2="66.94" gradientUnits="userSpaceOnUse"><stop offset="0" stop-color="#080808"/><stop offset="0.37" stop-color="#36441a"/><stop offset="0.8" stop-color="#67842d"/><stop offset="1" stop-color="#7a9d34"/></linearGradient><linearGradient id="Unbenannter_Verlauf_4-2" x1="4.34" y1="7.58" x2="109.63" y2="43.19" xlink:href="#Unbenannter_Verlauf_4"/></defs><title>Illus_v1_dunkel</title><path class="cls-1" d="M64.71,40.42a8.54,8.54,0,0,1,3-2.71s4.05,3.31,8,.67c3-2,3.31-7.57,5-13.35,0,0-7,7.69-10.05,9.88-1.17.84-3.46,2.45-3.46,2.45a8.56,8.56,0,0,0-3.41,2.08H45V51.72h-13V70.33H45V82.61H64.71V70.33h13V51.72h-13Z"/><path class="cls-2" d="M67.68,29.34a6.19,6.19,0,0,0-.62,7.82L80.65,25C75.08,27.6,70.8,25.66,67.68,29.34Z"/></svg>