<?xml version="1.0" encoding="utf-8"?>
<!-- Generator: Adobe Illustrator 24.0.3, SVG Export Plug-In . SVG Version: 6.00 Build 0)  -->
<svg version="1.1" id="Ebene_1" xmlns="http://www.w3.org/2000/svg" xmlns:xlink="http://www.w3.org/1999/xlink" x="0px" y="0px"
	 viewBox="0 0 200 120" style="enable-background:new 0 0 200 120;" xml:space="preserve">
<style type="text/css">
	.st0{fill:#B9BABA;}
</style>
<g>
	<path class="st0" d="M92.8,88.6c0-7.5-5.7-12.9-12.6-12.9c-7.5,0-12.9,5.7-13.3,12.2c-0.4,8.3,5.7,14,12.9,14
		C87.1,101.9,92.8,96.1,92.8,88.6 M98.6,90c-0.7,9.3-8.3,17.6-19.4,17.6c-10.1,0-18.7-8.6-18.7-19
		c-0.4-10.4,8.6-19.4,19.8-19C90,69.9,99.7,78.2,98.6,90 M59.8,72.8c0,2.2-1.8,3.6-3.6,3.6c-2.2,0-3.6-1.8-3.6-3.6
		c0-0.7,0-1.1,0.4-1.8l0.4-0.4c0.7-1.1,1.8-1.8,2.9-1.8C58,69.2,59.8,71,59.8,72.8 M104.7,74.6h-7.2v-10.4
		c0,0-3.2-4.7-4.3-6.5c-0.7-1.1-1.8-1.8-2.9-1.8c-6.8,0-13.7,0-20.5,0c-1.8,0-2.9,1.1-3.6,2.5c-1.1,1.8-2.2,3.6-2.9,5.4
		c0,0-0.4,0.4-0.7,0.4c-1.8,0-3.6,0-5.4,0c-3.2,0-5.7,1.1-8.3,3.2c-2.5,2.2-3.6,5-4,8.3c0,0,0,27.3,0,28c0.7,2.2,1.8,4,3.2,5.4
		c1.8,1.8,4.3,3.2,6.8,3.6c1.1,0,2.2,0.4,3.2,0.4c14.7,0,29.5,0,43.8,0c2.5,0,5-1.1,7.2-2.5c1.4-1.1,2.9-2.5,4-4.3s1.4-3.6,1.4-5.4
		c0-7.2,0-11.9,0-18.7h-10.4v-7.5H104.7z M121.9,69.2v-5h-7.2V57h-5v7.2h-7.2v5h0.4h6.8v7.2h0.4l0,0l0,0h4.7v-7.2H121.9z"></path>
</g>
</svg>
