<?xml version="1.0" encoding="utf-8"?>
<!-- Generator: Adobe Illustrator 24.0.2, SVG Export Plug-In . SVG Version: 6.00 Build 0)  -->
<svg version="1.1" id="Ebene_1" xmlns="http://www.w3.org/2000/svg" xmlns:xlink="http://www.w3.org/1999/xlink" x="0px" y="0px"
	 viewBox="0 0 59.4 59.1" style="enable-background:new 0 0 59.4 59.1;" xml:space="preserve">
<style type="text/css">
	.st0{clip-path:url(#SVGID_2_);fill:#79278E;}
</style>
<g>
	<defs>
		<rect id="SVGID_1_" x="19.3" y="17" width="20.8" height="25"/>
	</defs>
	<clipPath id="SVGID_2_">
		<use xlink:href="#SVGID_1_"  style="overflow:visible;"/>
	</clipPath>
	<path class="st0" d="M38.8,27.7c-1.7-0.8-4.5-2.3-5.5-3.9C32.2,22,29.8,20,27.7,20c-0.1,0-0.3,0-0.4,0c-0.1,0-0.2,0-0.3,0.1
		c0.1-0.3,0.4-0.3,0.8-0.4c0.8-0.1,1.7-0.4,2.2-0.6c0.2-0.1,0.2-0.3,0.2-0.3s-0.7,0.2-1.6,0.4c-0.5,0.1-1.1,0.3-1.6,0.3
		c-0.3,0-0.5,0-0.6-0.2c-0.6-0.4-1-0.5-1.1-0.5c-0.1,0-0.1,0-0.1,0s-0.5-1.5-1.4-1.7c-0.1,0-0.1,0-0.2,0c-0.8,0-1.8,0.9-2.1,1.2
		c-1.3,1.3-2.3,7.6-2,12.5c0.2,2.3,1.1,6,4,11.2c0,0,0,0,0,0c0,0,1.2,0.5,0.8-0.8c-0.8-2.4-2.7-7.4-3-10c-0.3-2.6,0.3-7.2,1-10
		c0.1-0.6,0.6-1.6,1-2c0.7-0.6,1.5-0.3,1.4-0.3c0,0.1-0.2,0.6,0,1.2c0.1,0.6-0.9,2.3-0.8,2.7c0,0,0,0,0,0c0,0,0.1,0,0.2-0.2
		c0.2-0.4,0.4-1.2,1-1.5l0.2-0.1c-0.8,0.8-1.2,2.1-1.2,3.6c0,1.9,0.5,3.5,1.2,5.5c0.7,2,1.2,3,0.1,6.4c0,0,0.4,0.1,0.8,0.1
		c1,0,2.5-0.6,2.4-4.1c0,0,1.5,2.3,4.7,2.3c0.1,0,0.3,0,0.4,0c0,0,1.9-0.6,0.9-5.4c0,0,1.3,1.1,2.8,1.1c0.9,0,1.9-0.4,2.8-1.6
		C40.1,29.1,40.5,28.5,38.8,27.7"/>
</g>
</svg>
