<?xml version="1.0" encoding="utf-8"?>
<!-- Generator: Adobe Illustrator 24.0.2, SVG Export Plug-In . SVG Version: 6.00 Build 0)  -->
<svg version="1.1" id="Ebene_1" xmlns="http://www.w3.org/2000/svg" xmlns:xlink="http://www.w3.org/1999/xlink" x="0px" y="0px"
	 viewBox="0 0 59.4 59.1" style="enable-background:new 0 0 59.4 59.1;" xml:space="preserve">
<style type="text/css">
	.st0{fill:#FFFFFF;}
	.st1{opacity:0.8;fill:#DB9B1F;}
</style>
<g>
	<path class="st0" d="M39.7,35.5c2-2.7,3.3-4.5,3.9-5.5c0.9-1.5,1.6-2.9,2-4.1c0.4-1.2,0.6-2.5,0.6-3.7c0-2.4-0.7-4.4-2.2-6
		c-1.4-1.5-3.3-2.3-5.6-2.3c-2.1,0-3.9,0.6-5.3,1.9c-1.5,1.3-2.6,3.2-3.4,5.8c-0.8-2.6-2-4.5-3.4-5.8c-1.5-1.3-3.2-1.9-5.3-1.9
		c-2.3,0-4.1,0.8-5.6,2.3c-1.4,1.5-2.2,3.5-2.2,5.9c0,1.4,0.2,2.8,0.7,4.1c0.5,1.3,1.4,3.1,2.8,5.1c0.3,0.4,1.4,1.9,3.2,4.3
		c1.8,2.4,9.1,9.6,9.8,9.6C30.4,45.3,37.7,38.2,39.7,35.5"/>
</g>
<path class="st1" d="M37.3,30.6c-1.3-0.6-3.4-1.8-4.2-3c-1-1.5-3-3.2-4.7-2.9c-0.1,0-0.2,0-0.3,0.1c0.1-0.2,0.3-0.2,0.6-0.3
	c0.6-0.1,1.3-0.3,1.7-0.4c0.1-0.1,0.1-0.2,0.1-0.2s-0.5,0.1-1.2,0.3c-0.6,0.1-1.3,0.3-1.7,0.1c-0.8-0.5-0.9-0.4-0.9-0.4
	S26,22,25.4,22.4c0,0-0.4,0.3-0.6,0.7c-0.6,1.3-1.1,5.8-0.8,9.6c0.1,1.8,1,5.1,1.4,8.8l0.8,0.8c-0.2-4.2-1.1-6.8-1.4-9.9
	c-0.3-3.2,0.4-9.5,0.7-9.5s0.8,0.7,0.8,0.8c0,0.1-0.1,0.5,0,1c0.1,0.5-0.7,1.8-0.7,2.1c0,0,0.1,0,0.2-0.1c0.1-0.3,0.3-0.9,0.7-1.1
	c0,0,0.1,0,0.2-0.1c-0.6,0.6-1,1.6-1,2.8c0,1.4,0.4,2.7,0.9,4.3c0.5,1.5,0.9,2.3,0.1,4.9c0,0,2.6,1,2.5-3c0,0,1.2,1.9,4,1.7
	c0,0,1.5-0.4,0.7-4.2c0,0,2.5,2.2,4.4-0.4C38.2,31.6,38.6,31.1,37.3,30.6z"/>
</svg>
