<?xml version="1.0" encoding="utf-8"?>
<!-- Generator: Adobe Illustrator 24.0.2, SVG Export Plug-In . SVG Version: 6.00 Build 0)  -->
<svg version="1.1" id="Ebene_1" xmlns="http://www.w3.org/2000/svg" xmlns:xlink="http://www.w3.org/1999/xlink" x="0px" y="0px"
	 viewBox="0 0 59.4 59.1" style="enable-background:new 0 0 59.4 59.1;" xml:space="preserve">
<style type="text/css">
	.st0{clip-path:url(#SVGID_2_);fill:#993D57;}
</style>
<g>
	<defs>
		<rect id="SVGID_1_" x="20" y="22.3" width="19.4" height="14.5"/>
	</defs>
	<clipPath id="SVGID_2_">
		<use xlink:href="#SVGID_1_"  style="overflow:visible;"/>
	</clipPath>
	<path class="st0" d="M22.5,31.2c0-1,0.8-1.8,1.8-1.8c1,0,1.8,0.8,1.8,1.8c0,1-0.8,1.8-1.8,1.8C23.3,33,22.5,32.2,22.5,31.2
		 M25.8,27.6c0-1,0.8-1.8,1.8-1.8c1,0,1.8,0.8,1.8,1.8c0,1-0.8,1.8-1.8,1.8C26.6,29.5,25.8,28.6,25.8,27.6 M28.9,31.2
		c0-1,0.8-1.8,1.8-1.8c1,0,1.8,0.8,1.8,1.8c0,1-0.8,1.8-1.8,1.8C29.7,33,28.9,32.2,28.9,31.2 M20.8,28.2c-0.7,0.7-1,1.7-0.8,2.7
		c0.3,1.5,1,2.4,2.5,2.9c0.3,0.1,1,0.3,1.7,0.4l0.2,0.3l-0.9,1.2c-0.1,0.2-0.1,0.5,0.1,0.6c0.1,0.1,0.2,0.1,0.3,0.1
		c0.1,0,0.3-0.1,0.4-0.2l1.1-1.5c0.1-0.1,0.1-0.2,0-0.4c0.1,0,0.2,0,0.3,0c1.4,0.1,2.1,0.1,3.1,0.1l0.3,0.4l-0.9,1.2
		c-0.1,0.2-0.1,0.5,0.1,0.6c0.1,0.1,0.2,0.1,0.3,0.1c0.1,0,0.3-0.1,0.4-0.2l1.1-1.5c0.1-0.1,0.1-0.3,0-0.5l-0.2-0.3
		c1.3-0.1,2.5-0.5,3.6-1.2c0,0,0,0,0.1,0l0.2,0.3l-0.9,1.2c-0.1,0.2-0.1,0.5,0.1,0.6c0.1,0.1,0.2,0.1,0.3,0.1c0.1,0,0.3-0.1,0.4-0.2
		l1.1-1.5c0.1-0.1,0.1-0.3,0-0.5l-0.4-0.7c0.2-0.3,0.4-0.5,0.4-0.7c-0.1-0.3-0.6-3.6-0.5-4.9c0-0.1-0.2-0.2-0.5-0.1
		c-0.7,0.3-1.2,0.1-1.5-0.6s-0.7-1-1.5-1c-1.4,0.1-2.8,0.1-4.2,0.2C24.3,25.7,22.4,26.6,20.8,28.2 M34.6,24.1
		c-0.9-0.7-2.9-1.6-5.2-1.7c-2.2-0.2-3.7,0-5.3,0.7c-1.6,0.7-3,1.7-3.5,3.5c0,0.1-0.1,0.1,0.1,0.2c0.2,0.1,0,0,0.9-0.6
		c1.5-1.2,2.6-1.8,4.6-2.1c1.7-0.3,3.9-0.1,5.6,0.2c0.3,0,0.6,0,0.9-0.1c0.7-0.3,1.1,0.4,1.3,1.1C34,25.8,35.2,24.6,34.6,24.1
		 M39.3,28.4c-0.3-0.8-1-1.2-1.4-1.6c-0.5-0.6-1.1-1.2-1.8-1.5c-0.1-0.1-0.4-0.1-0.6,0c-0.4,0.3-0.8,0.8-0.9,1.7
		c-0.1,1,0.2,3.4,0.3,3.9c0.2,1,1.5,0.8,1.6,0.8c0.5-0.1,1.7-0.3,2.3-0.8C39.3,30.6,39.6,29.3,39.3,28.4"/>
</g>
</svg>
