<?xml version="1.0" encoding="utf-8"?>
<!-- Generator: Adobe Illustrator 23.0.3, SVG Export Plug-In . SVG Version: 6.00 Build 0)  -->
<svg version="1.1" id="Ebene_1" xmlns="http://www.w3.org/2000/svg" xmlns:xlink="http://www.w3.org/1999/xlink" x="0px" y="0px"
	 viewBox="0 0 59.4 59.1" style="enable-background:new 0 0 59.4 59.1;" xml:space="preserve">
<style type="text/css">
	.st0{fill:#EEEFEF;}
	.st1{fill:#9A3E58;}
</style>
<g>
	<path class="st0" d="M39.7,35.5c2-2.7,3.3-4.5,3.9-5.5c0.9-1.5,1.6-2.9,2-4.1c0.4-1.2,0.6-2.5,0.6-3.7c0-2.4-0.7-4.4-2.2-6
		c-1.4-1.5-3.3-2.3-5.6-2.3c-2.1,0-3.9,0.6-5.3,1.9c-1.5,1.3-2.6,3.2-3.4,5.8c-0.8-2.6-2-4.5-3.4-5.8c-1.5-1.3-3.2-1.9-5.3-1.9
		c-2.3,0-4.1,0.8-5.6,2.3c-1.4,1.5-2.2,3.5-2.2,5.9c0,1.4,0.2,2.8,0.7,4.1c0.5,1.3,1.4,3.1,2.8,5.1c0.3,0.4,1.4,1.9,3.2,4.3
		c1.8,2.4,9.1,9.6,9.8,9.6C30.4,45.3,37.7,38.2,39.7,35.5"/>
	<path class="st1" d="M24.4,32.3c0-0.8,0.6-1.4,1.4-1.4s1.4,0.6,1.4,1.4c0,0.8-0.6,1.4-1.4,1.4S24.4,33,24.4,32.3 M26.9,29.5
		c0-0.8,0.6-1.4,1.4-1.4c0.8,0,1.4,0.6,1.4,1.4c0,0.8-0.6,1.4-1.4,1.4C27.5,30.9,26.9,30.3,26.9,29.5 M29.3,32.3
		c0-0.8,0.6-1.4,1.4-1.4c0.8,0,1.4,0.6,1.4,1.4c0,0.8-0.6,1.4-1.4,1.4C29.9,33.7,29.3,33,29.3,32.3 M23.1,29.9
		c-0.6,0.6-0.7,1.3-0.6,2.1c0.2,1.1,0.8,1.8,1.9,2.2c0.3,0.1,0.8,0.2,1.3,0.3l0.2,0.2l-0.7,1c-0.1,0.2-0.1,0.4,0.1,0.5
		c0.1,0,0.1,0.1,0.2,0.1c0.1,0,0.2,0,0.3-0.1l0.8-1.1c0.1-0.1,0.1-0.2,0-0.3c0.1,0,0.1,0,0.2,0c1.1,0.1,1.6,0.1,2.4,0l0.2,0.3
		l-0.7,1c-0.1,0.2-0.1,0.4,0.1,0.5c0.1,0,0.1,0.1,0.2,0.1c0.1,0,0.2,0,0.3-0.1l0.8-1.1c0.1-0.1,0.1-0.3,0-0.4L30,34.7
		c1-0.1,1.9-0.4,2.8-0.9c0,0,0,0,0.1,0L33,34l-0.7,1c-0.1,0.2-0.1,0.4,0.1,0.5c0.1,0,0.1,0.1,0.2,0.1c0.1,0,0.2,0,0.3-0.1l0.8-1.1
		c0.1-0.1,0.1-0.3,0-0.4l-0.3-0.5c0.2-0.2,0.3-0.4,0.3-0.5c0-0.2-0.5-2.8-0.4-3.8c0-0.1-0.2-0.2-0.3-0.1c-0.5,0.3-0.9,0.1-1.1-0.4
		c-0.2-0.6-0.6-0.8-1.2-0.8c-1.1,0.1-2.2,0.1-3.3,0.2C25.7,28.1,24.2,28.7,23.1,29.9 M33.6,26.8c-0.7-0.5-2.3-1.2-4-1.3
		c-1.7-0.1-2.9,0-4,0.5c-1.3,0.5-2.3,1.3-2.7,2.7c0,0.1-0.1,0,0.1,0.1c0.1,0.1,0,0,0.7-0.5c1.2-1,2-1.3,3.5-1.6
		c1.3-0.2,3-0.1,4.3,0.1c0.2,0,0.5,0,0.7-0.1c0.5-0.3,0.8,0.3,1,0.9C33.2,28.1,34.1,27.1,33.6,26.8 M37.3,30.1
		c-0.2-0.6-0.8-0.9-1-1.2c-0.4-0.5-0.8-0.9-1.4-1.2c-0.1-0.1-0.3-0.1-0.4,0c-0.3,0.2-0.6,0.6-0.7,1.3c-0.1,0.8,0.1,2.6,0.2,3
		c0.1,0.8,1.1,0.6,1.3,0.6c0.4-0.1,1.3-0.2,1.8-0.6C37.3,31.8,37.5,30.8,37.3,30.1"/>
</g>
</svg>
