<svg id="Ebene_1" data-name="Ebene 1" xmlns="http://www.w3.org/2000/svg" xmlns:xlink="http://www.w3.org/1999/xlink" viewBox="0 0 113.39 113.39"><defs><style>.cls-1{fill:#7a9d34;}.cls-2{fill:url(#Unbenannter_Verlauf_4);}.cls-3{fill:url(#Unbenannter_Verlauf_4-2);}.cls-4{fill:url(#Unbenannter_Verlauf_4-3);}.cls-5{fill:url(#Unbenannter_Verlauf_4-4);}</style><linearGradient id="Unbenannter_Verlauf_4" x1="19.86" y1="58.9" x2="44.67" y2="86.81" gradientUnits="userSpaceOnUse"><stop offset="0" stop-color="#080808"/><stop offset="0.37" stop-color="#36441a"/><stop offset="0.8" stop-color="#67842d"/><stop offset="1" stop-color="#7a9d34"/></linearGradient><linearGradient id="Unbenannter_Verlauf_4-2" x1="14.65" y1="57" x2="41.8" y2="57" xlink:href="#Unbenannter_Verlauf_4"/><linearGradient id="Unbenannter_Verlauf_4-3" x1="33.13" y1="53.1" x2="42.14" y2="61.6" xlink:href="#Unbenannter_Verlauf_4"/><linearGradient id="Unbenannter_Verlauf_4-4" x1="91.14" y1="43.76" x2="54.7" y2="98.04" xlink:href="#Unbenannter_Verlauf_4"/></defs><title>Illus_v1_dunkel</title><path class="cls-1" d="M89.4,86.53a2.43,2.43,0,0,1-1.19,1.75,10.19,10.19,0,0,1-1.82,1,35.37,35.37,0,0,1-3.89,1.41,82.14,82.14,0,0,1-8,2,73.44,73.44,0,0,1-8.21,1.06c-2.75.19-5.51.22-8.26.14-5.51-.2-11-.94-16.41-1.67-2.72-.38-5.44-.8-8.14-1.38a33.21,33.21,0,0,1-4-1.13,10.6,10.6,0,0,1-2-1,4.29,4.29,0,0,1-.94-.79,2.46,2.46,0,0,1-.59-1.42,2.6,2.6,0,0,1,.51-1.48,4.72,4.72,0,0,1,.9-.89A10.37,10.37,0,0,1,29.25,83a24.52,24.52,0,0,1,4-1.45,62.63,62.63,0,0,1,8.18-1.63A114.47,114.47,0,0,1,58,78.83a89.33,89.33,0,0,1,16.47,1.52,78.77,78.77,0,0,1,8,2,31.89,31.89,0,0,1,3.9,1.42,9.61,9.61,0,0,1,1.82,1A2.41,2.41,0,0,1,89.4,86.53Zm-.3,0A2.1,2.1,0,0,0,88,85.05a7.87,7.87,0,0,0-1.79-.89,23.82,23.82,0,0,0-3.92-1,62.8,62.8,0,0,0-8.09-.81C68.8,82.13,63.39,82,58,82s-10.82.2-16.19.71a80.09,80.09,0,0,0-7.95,1.16,29,29,0,0,0-3.8,1,8.24,8.24,0,0,0-1.67.76,3.39,3.39,0,0,0-.6.47.94.94,0,0,0-.23.4.82.82,0,0,0,.15.46,2.79,2.79,0,0,0,.57.57,7.86,7.86,0,0,0,1.63,1,22.83,22.83,0,0,0,3.78,1.32,51.43,51.43,0,0,0,8,1.4,119.83,119.83,0,0,0,16.3.14l8.12-.29c2.71-.1,5.41-.17,8.12-.31a62.79,62.79,0,0,0,8.1-.82,22.76,22.76,0,0,0,3.91-1A8.42,8.42,0,0,0,88,88,2.11,2.11,0,0,0,89.1,86.53Z"/><polygon class="cls-2" points="42.39 87.62 32.58 87.62 29.48 73.55 45.75 73.62 42.39 87.62"/><rect class="cls-1" x="37.06" y="63.89" width="1.51" height="9.65"/><path class="cls-3" d="M44.94,59.49a24.64,24.64,0,0,0,6.17-1.2,24.37,24.37,0,0,0-5.88-3A24.8,24.8,0,0,0,49.89,51s-4.92-.43-8,.86a13.15,13.15,0,0,0-1.35.66c.11-.29.22-.59.32-.92,1-3.21.15-8.08.15-8.08a24.21,24.21,0,0,0-3.93,5.33,24.85,24.85,0,0,0-3.43-5.27,24.24,24.24,0,0,0-.62,6.6,24.89,24.89,0,0,0-5.65-2.75,24.25,24.25,0,0,0,2.86,6A25.17,25.17,0,0,0,24,54a24,24,0,0,0,5.53,3.65,24.82,24.82,0,0,0-5.08,3.7,24,24,0,0,0,6.61.28,24.74,24.74,0,0,0-2.45,5.78,24.33,24.33,0,0,0,5.82-3.16,24.68,24.68,0,0,0,.88,6.21,24,24,0,0,0,3.35-5.71,24.78,24.78,0,0,0,4,4.88A24.07,24.07,0,0,0,42.5,63a24.57,24.57,0,0,0,5.91,2.14A24.36,24.36,0,0,0,44.94,59.49ZM38.5,55.15a2.12,2.12,0,0,0,.14.55,1.81,1.81,0,0,0,.45.64.76.76,0,0,0,0,.16,1.85,1.85,0,0,0,0,.78l-.1.11a1.87,1.87,0,0,0-.36.7l-.15,0a1.91,1.91,0,0,0-.66.42l-.15,0a1.91,1.91,0,0,0-.79,0l-.1-.11a1.86,1.86,0,0,0-.68-.39.83.83,0,0,0,0-.15,1.8,1.8,0,0,0-.38-.69l.06-.15a1.87,1.87,0,0,0,0-.78l.11-.1a1.82,1.82,0,0,0,.44-.66l.15,0a2,2,0,0,0,.7-.35l.15.06A1.74,1.74,0,0,0,38.5,55.15Z"/><circle class="cls-4" cx="37.17" cy="56.91" r="2.15"/><path class="cls-5" d="M86.12,72.17A12.67,12.67,0,0,0,71,63a12.37,12.37,0,0,0-9.72,10.53,7.78,7.78,0,0,0-5.59-.86,7.34,7.34,0,0,0-5.7,8.8,7.53,7.53,0,0,0,7.16,5.67v0l16.42,0c.26,0,.51,0,.77,0h.27l0,0a12.45,12.45,0,0,0,11.54-15Z"/><path class="cls-1" d="M77.41,85.55a30.55,30.55,0,0,1,.4-8.74,20.85,20.85,0,0,1,3.26-8.27,23.7,23.7,0,0,1,6.65-5.88,36.36,36.36,0,0,1,7.9-3.74,84.79,84.79,0,0,0-7.24,4.71,38.92,38.92,0,0,0-3.29,2.69,19.41,19.41,0,0,0-2.8,3.09,16.86,16.86,0,0,0-2,3.64,29.2,29.2,0,0,0-1.35,4A56.58,56.58,0,0,0,77.41,85.55Z"/><path class="cls-1" d="M76.86,84.55a51.67,51.67,0,0,1,.43-10.9,45.49,45.49,0,0,1,1.12-5.38,31.85,31.85,0,0,1,1.94-5.19,25.71,25.71,0,0,1,3.1-4.64,37.8,37.8,0,0,1,3.88-3.92,44.56,44.56,0,0,1,9.06-6.07,78.8,78.8,0,0,0-8.27,6.93,33.35,33.35,0,0,0-6.43,8.36,43.59,43.59,0,0,0-3.25,10.11A99.92,99.92,0,0,0,76.86,84.55Z"/><path class="cls-1" d="M76.85,85.08a54.45,54.45,0,0,1-1.8-10.94,49.45,49.45,0,0,1,0-5.58A36.35,36.35,0,0,1,75.78,63a28.06,28.06,0,0,1,2-5.32,40.21,40.21,0,0,1,2.91-4.79,45.9,45.9,0,0,1,7.52-8.16,77,77,0,0,0-6.54,8.82,34.29,34.29,0,0,0-4.41,9.79,48.37,48.37,0,0,0-1,10.78C76.25,77.75,76.45,81.42,76.85,85.08Z"/><path class="cls-1" d="M79.75,86.11a10.13,10.13,0,0,1,2.12-6,9,9,0,0,1,2.48-2.21,12.93,12.93,0,0,1,3.08-1.18A29.53,29.53,0,0,1,93.74,76a33.79,33.79,0,0,1,6.27.43l-6.19.74a53.24,53.24,0,0,0-6,1,13.12,13.12,0,0,0-2.75,1,9.24,9.24,0,0,0-2.3,1.74A13.52,13.52,0,0,0,79.75,86.11Z"/><path class="cls-1" d="M79.29,85.41a16.46,16.46,0,0,1,2.12-7.13,13.63,13.63,0,0,1,2.35-3A12.6,12.6,0,0,1,87,73.13a27.44,27.44,0,0,1,7.25-1.9,37.3,37.3,0,0,1,7.39-.3c-2.42.46-4.82.91-7.18,1.45a38.66,38.66,0,0,0-6.85,2.12,11.67,11.67,0,0,0-2.92,1.8,14.44,14.44,0,0,0-2.31,2.61A24.38,24.38,0,0,0,79.29,85.41Z"/><path class="cls-1" d="M79.24,85.7a18.51,18.51,0,0,1-.78-6.92,14,14,0,0,1,.71-3.52,9.36,9.36,0,0,1,1.91-3.16,17,17,0,0,1,6.06-3.71,28.32,28.32,0,0,1,6.74-1.68c-2.14.86-4.24,1.76-6.26,2.75a20.37,20.37,0,0,0-5.45,3.67,10.88,10.88,0,0,0-2.56,5.8A33,33,0,0,0,79.24,85.7Z"/></svg>