<?xml version="1.0" encoding="utf-8"?>
<!-- Generator: Adobe Illustrator 24.0.3, SVG Export Plug-In . SVG Version: 6.00 Build 0)  -->
<svg version="1.1" id="Ebene_1" xmlns="http://www.w3.org/2000/svg" xmlns:xlink="http://www.w3.org/1999/xlink" x="0px" y="0px"
	 viewBox="0 0 158 117" style="enable-background:new 0 0 158 117;" xml:space="preserve">
<style type="text/css">
	.st0{fill:#7A9D34;}
	.st1{opacity:0.15;fill:#7A9D34;}
</style>
<title>Navigation_Icons_Öko_Icon_v4</title>
<path class="st0" d="M58.7,100.8c0,1-0.3,1.9-1,2.6c-0.7,0.7-1.6,1-2.5,1c-0.9,0-1.8-0.3-2.5-1c-0.7-0.7-1-1.6-1-2.6v-1.5
	c0-1,0.3-1.9,1-2.6c0.6-0.7,1.6-1,2.5-1c1,0,1.9,0.3,2.5,1c0.7,0.7,1,1.6,1,2.6L58.7,100.8z M54.5,94.8h-1.4v-1.2h1.4V94.8z
	 M57.3,99.3c0-0.6-0.2-1.3-0.6-1.8c-0.4-0.5-0.9-0.7-1.5-0.7c-0.6,0-1.1,0.2-1.5,0.7c-0.4,0.5-0.6,1.1-0.5,1.8v1.5
	c0,0.6,0.2,1.3,0.5,1.8c0.4,0.5,0.9,0.7,1.5,0.7c0.6,0,1.2-0.2,1.5-0.7c0.4-0.5,0.6-1.1,0.6-1.8L57.3,99.3z M57.3,94.8h-1.4v-1.2
	h1.4V94.8z"/>
<path class="st0" d="M63.5,100.6h-0.7v3.7h-1.4v-8.5h1.4v3.6h0.5l2.8-3.6h1.7l0,0l-3.2,4l3.5,4.5h-1.8L63.5,100.6z"/>
<path class="st0" d="M76.9,100.8c0,1-0.3,1.9-1,2.6c-0.7,0.7-1.6,1-2.6,1c-0.9,0-1.8-0.3-2.5-1c-0.7-0.7-1-1.6-1-2.6v-1.5
	c0-1,0.3-1.9,1-2.6c0.6-0.7,1.6-1,2.5-1c1,0,1.9,0.3,2.6,1c0.7,0.7,1,1.6,1,2.6L76.9,100.8z M75.5,99.3c0-0.6-0.1-1.2-0.5-1.8
	c-0.4-0.5-1-0.7-1.6-0.7c-0.6,0-1.1,0.2-1.5,0.7c-0.4,0.5-0.6,1.1-0.5,1.8v1.5c0,0.6,0.2,1.3,0.5,1.8c0.4,0.5,0.9,0.7,1.5,0.7
	c0.6,0,1.2-0.2,1.6-0.7c0.4-0.5,0.6-1.1,0.6-1.8L75.5,99.3z"/>
<path class="st0" d="M84.1,102.1c0-0.3-0.1-0.7-0.4-0.9c-0.4-0.3-0.9-0.5-1.3-0.6c-0.8-0.2-1.5-0.5-2.1-1c-0.5-0.4-0.8-1-0.7-1.6
	c0-0.7,0.3-1.3,0.8-1.7c1.3-0.9,3-0.9,4.3,0.1c0.5,0.5,0.8,1.1,0.8,1.8l0,0h-1.4c0-0.4-0.1-0.8-0.4-1.1c-0.3-0.3-0.8-0.4-1.2-0.4
	c-0.4,0-0.8,0.1-1.1,0.3C81.1,97.3,81,97.7,81,98c0,0.3,0.2,0.6,0.4,0.8c0.4,0.3,0.9,0.5,1.4,0.6c0.7,0.2,1.4,0.5,2,1
	c0.5,0.4,0.7,1,0.7,1.7c0,0.7-0.3,1.3-0.8,1.7c-0.6,0.4-1.4,0.7-2.2,0.6c-0.8,0-1.6-0.2-2.3-0.7c-0.6-0.4-1-1.2-0.9-2l0,0h1.4
	c0,0.4,0.2,0.9,0.5,1.2c0.4,0.3,0.8,0.4,1.3,0.4c0.4,0,0.8-0.1,1.2-0.3C84,102.7,84.1,102.4,84.1,102.1z"/>
<path class="st0" d="M94.5,101.5L94.5,101.5c0.1,0.8-0.3,1.6-0.8,2.1c-0.6,0.6-1.5,0.8-2.3,0.8c-0.9,0-1.8-0.3-2.4-1
	c-0.6-0.7-1-1.6-0.9-2.6v-1.6c0-0.9,0.3-1.9,0.9-2.6c0.6-0.7,1.5-1,2.4-1c0.9,0,1.7,0.2,2.4,0.8c0.6,0.5,0.9,1.3,0.8,2.1l0,0h-1.4
	c0-0.5-0.1-1-0.5-1.3c-0.4-0.3-0.9-0.5-1.4-0.4c-0.5,0-1.1,0.2-1.4,0.7c-0.4,0.5-0.5,1.1-0.5,1.7v1.6c0,0.6,0.2,1.2,0.5,1.8
	c0.3,0.5,0.9,0.7,1.4,0.7c0.9,0.1,1.7-0.5,1.8-1.4c0-0.1,0-0.2,0-0.4L94.5,101.5z"/>
<path class="st0" d="M101.5,102.3h-3l-0.7,2h-1.5l3-8.5h1.3l3,8.5h-1.5L101.5,102.3z M98.9,101.1h2.2l-1.1-3.4l0,0L98.9,101.1z"/>
<path class="st0" d="M112.5,104.3h-1.4l-3.8-6.1l0,0v6.1h-1.4v-8.5h1.4l3.8,6.2l0,0v-6.2h1.4V104.3z"/>
<path class="st1" d="M103.6,63.7c-0.8,0-1.5,0.7-1.5,1.5v7.2c0,0.5-0.4,0.8-0.8,0.8c0,0,0,0,0,0H94c-0.8,0-1.5,0.7-1.5,1.5
	s0.7,1.5,1.5,1.5h7.2c2.1,0,3.8-1.7,3.8-3.8v-7.2C105,64.4,104.4,63.7,103.6,63.7z"/>
<path class="st1" d="M71.7,73.2h-7.2c-0.5,0-0.8-0.4-0.8-0.8c0,0,0,0,0,0v-7.2c0-0.8-0.7-1.5-1.5-1.5s-1.5,0.7-1.5,1.5v7.2
	c0,2.1,1.7,3.8,3.8,3.8h7.2c0.8,0,1.5-0.7,1.5-1.5S72.5,73.2,71.7,73.2z"/>
<path class="st1" d="M62.2,44.5c0.8,0,1.5-0.7,1.5-1.5v-7.2c0-0.5,0.4-0.8,0.8-0.8h7.2c0.8,0,1.5-0.7,1.5-1.5s-0.7-1.5-1.5-1.5h-7.2
	c-2.1,0-3.8,1.7-3.8,3.8l0,0V43C60.7,43.8,61.3,44.5,62.2,44.5z"/>
<path class="st1" d="M101.2,31.9H94c-0.8,0-1.5,0.7-1.5,1.5c0,0.8,0.7,1.5,1.5,1.5h7.2c0.5,0,0.8,0.4,0.8,0.8V43
	c0,0.8,0.7,1.5,1.5,1.5s1.5-0.7,1.5-1.5v-7.2C105,33.6,103.3,31.9,101.2,31.9z"/>
<path class="st1" d="M101.4,56.7l0.8-0.9l-0.8-0.9c-4.5-5.6-10.5-8.9-17-9.3c-1-0.2-2.1-0.2-3.1,0c-6.5,0.5-12.4,3.7-17,9.3
	l-0.8,0.9l0.8,0.9c4.9,6.1,11.5,9.4,18.5,9.4S96.5,62.7,101.4,56.7z M90.2,55.7c0,4-3.3,7.3-7.3,7.3c-4,0-7.3-3.3-7.3-7.3
	c0-3.5,2.5-6.6,6-7.2c0.4,0,0.8,0,1.3,0s0.8,0,1.3,0C87.6,49.1,90.2,52.1,90.2,55.7L90.2,55.7z M67.5,55.8c1.8-2.1,3.9-3.8,6.4-5.1
	c-1.8,3.2-1.7,7.1,0.2,10.2C71.5,59.6,69.3,57.8,67.5,55.8L67.5,55.8z M91.7,60.9c1.9-3.1,1.9-7,0.2-10.2c2.4,1.3,4.6,3,6.4,5.1
	C96.4,57.9,94.2,59.6,91.7,60.9L91.7,60.9z"/>
<path class="st1" d="M81.5,51.5c-0.3,0.1-0.5,0.4-0.4,0.7l0.6,2.2l-2-1c-0.3-0.1-0.6,0-0.8,0.3c0,0,0,0,0,0c-1.1,2.2-0.2,4.8,2,5.8
	c2.2,1.1,4.8,0.2,5.8-2c1.1-2.2,0.2-4.8-2-5.8c-0.6-0.3-1.3-0.5-1.9-0.5C82.4,51.3,81.9,51.3,81.5,51.5z"/>
<path class="st1" d="M78.1,42.8c0.2,0.7,0.8,1.1,1.4,1.1c0.1,0,0.3,0,0.4,0c0.8-0.2,1.3-1,1.1-1.8c0,0,0-0.1,0-0.1l-0.9-3.2
	c-0.2-0.8-1-1.3-1.8-1.1c-0.8,0.2-1.3,1-1.1,1.8L78.1,42.8z"/>
<path class="st1" d="M85.8,43.9c0.1,0,0.3,0,0.4,0c0.7,0,1.3-0.5,1.4-1.1l0.9-3.2c0.2-0.8-0.3-1.6-1.1-1.8c-0.8-0.2-1.6,0.3-1.8,1.1
	L84.8,42C84.5,42.8,85,43.6,85.8,43.9C85.8,43.9,85.8,43.9,85.8,43.9z"/>
</svg>
