<?xml version="1.0" encoding="utf-8"?>
<!-- Generator: Adobe Illustrator 24.0.3, SVG Export Plug-In . SVG Version: 6.00 Build 0)  -->
<svg version="1.1" id="Ebene_1" xmlns="http://www.w3.org/2000/svg" xmlns:xlink="http://www.w3.org/1999/xlink" x="0px" y="0px"
	 viewBox="0 0 158 117" style="enable-background:new 0 0 158 117;" xml:space="preserve">
<style type="text/css">
	.st0{fill:#7A9D34;}
</style>
<title>Navigation_Icons_Öko_Icon_v4</title>
<path class="st0" d="M103.6,63.7c-0.8,0-1.5,0.7-1.5,1.5v7.2c0,0.5-0.4,0.8-0.8,0.8c0,0,0,0,0,0H94c-0.8,0-1.5,0.7-1.5,1.5
	s0.7,1.5,1.5,1.5h7.2c2.1,0,3.8-1.7,3.8-3.8v-7.2C105,64.4,104.4,63.7,103.6,63.7z"/>
<path class="st0" d="M71.7,73.2h-7.2c-0.5,0-0.8-0.4-0.8-0.8c0,0,0,0,0,0v-7.2c0-0.8-0.7-1.5-1.5-1.5s-1.5,0.7-1.5,1.5v7.2
	c0,2.1,1.7,3.8,3.8,3.8h7.2c0.8,0,1.5-0.7,1.5-1.5S72.5,73.2,71.7,73.2z"/>
<path class="st0" d="M62.2,44.5c0.8,0,1.5-0.7,1.5-1.5v-7.2c0-0.5,0.4-0.8,0.8-0.8h7.2c0.8,0,1.5-0.7,1.5-1.5s-0.7-1.5-1.5-1.5h-7.2
	c-2.1,0-3.8,1.7-3.8,3.8l0,0V43C60.7,43.8,61.3,44.5,62.2,44.5z"/>
<path class="st0" d="M101.2,31.9H94c-0.8,0-1.5,0.7-1.5,1.5c0,0.8,0.7,1.5,1.5,1.5h7.2c0.5,0,0.8,0.4,0.8,0.8V43
	c0,0.8,0.7,1.5,1.5,1.5s1.5-0.7,1.5-1.5v-7.2C105,33.6,103.3,31.9,101.2,31.9z"/>
<path class="st0" d="M101.4,56.7l0.8-0.9l-0.8-0.9c-4.5-5.6-10.5-8.9-17-9.3c-1-0.2-2.1-0.2-3.1,0c-6.5,0.5-12.4,3.7-17,9.3
	l-0.8,0.9l0.8,0.9c4.9,6.1,11.5,9.4,18.5,9.4S96.5,62.7,101.4,56.7z M90.2,55.7c0,4-3.3,7.3-7.3,7.3c-4,0-7.3-3.3-7.3-7.3
	c0-3.5,2.5-6.6,6-7.2c0.4,0,0.8,0,1.3,0s0.8,0,1.3,0C87.6,49.1,90.2,52.1,90.2,55.7L90.2,55.7z M67.5,55.8c1.8-2.1,3.9-3.8,6.4-5.1
	c-1.8,3.2-1.7,7.1,0.2,10.2C71.5,59.6,69.3,57.8,67.5,55.8L67.5,55.8z M91.7,60.9c1.9-3.1,1.9-7,0.2-10.2c2.4,1.3,4.6,3,6.4,5.1
	C96.4,57.9,94.2,59.6,91.7,60.9L91.7,60.9z"/>
<path class="st0" d="M81.5,51.5c-0.3,0.1-0.5,0.4-0.4,0.7l0.6,2.2l-2-1c-0.3-0.1-0.6,0-0.8,0.3c0,0,0,0,0,0c-1.1,2.2-0.2,4.8,2,5.8
	c2.2,1.1,4.8,0.2,5.8-2c1.1-2.2,0.2-4.8-2-5.8c-0.6-0.3-1.3-0.5-1.9-0.5C82.4,51.3,81.9,51.3,81.5,51.5z"/>
<path class="st0" d="M78.1,42.8c0.2,0.7,0.8,1.1,1.4,1.1c0.1,0,0.3,0,0.4,0c0.8-0.2,1.3-1,1.1-1.8c0,0,0-0.1,0-0.1l-0.9-3.2
	c-0.2-0.8-1-1.3-1.8-1.1c-0.8,0.2-1.3,1-1.1,1.8L78.1,42.8z"/>
<path class="st0" d="M85.8,43.9c0.1,0,0.3,0,0.4,0c0.7,0,1.3-0.5,1.4-1.1l0.9-3.2c0.2-0.8-0.3-1.6-1.1-1.8c-0.8-0.2-1.6,0.3-1.8,1.1
	L84.8,42C84.5,42.8,85,43.6,85.8,43.9C85.8,43.9,85.8,43.9,85.8,43.9z"/>
</svg>
