<svg xmlns="http://www.w3.org/2000/svg" viewBox="0 0 50 50" width="50" height="50">
	<style>
		tspan { white-space:pre }
		.shp0 { fill: #7a9d34 } 
	</style>
	<path id="Layer" class="shp0" d="M45.6 34.7C44.8 34.7 44.1 35.4 44.1 36.2L44.1 43.4C44.1 43.9 43.7 44.2 43.3 44.2L43.3 44.2L36 44.2C35.2 44.2 34.5 44.9 34.5 45.7C34.5 46.5 35.2 47.2 36 47.2L43.2 47.2C45.3 47.2 47 45.5 47 43.4L47 36.2C47 35.4 46.4 34.7 45.6 34.7Z" />
	<path id="Layer" class="shp0" d="M13.7 44.2L6.5 44.2C6 44.2 5.7 43.8 5.7 43.4L5.7 43.4L5.7 36.2C5.7 35.4 5 34.7 4.2 34.7C3.4 34.7 2.7 35.4 2.7 36.2L2.7 43.4C2.7 45.5 4.4 47.2 6.5 47.2L13.7 47.2C14.5 47.2 15.2 46.5 15.2 45.7C15.2 44.9 14.5 44.2 13.7 44.2Z" />
	<path id="Layer" class="shp0" d="M4.2 15.5C5 15.5 5.7 14.8 5.7 14L5.7 6.8C5.7 6.3 6.1 6 6.5 6L13.7 6C14.5 6 15.2 5.3 15.2 4.5C15.2 3.7 14.5 3 13.7 3L6.5 3C4.4 3 2.7 4.7 2.7 6.8L2.7 6.8L2.7 14C2.7 14.8 3.3 15.5 4.2 15.5Z" />
	<path id="Layer" class="shp0" d="M43.2 2.9L36 2.9C35.2 2.9 34.5 3.6 34.5 4.4C34.5 5.2 35.2 5.9 36 5.9L43.2 5.9C43.7 5.9 44 6.3 44 6.7L44 14C44 14.8 44.7 15.5 45.5 15.5C46.3 15.5 47 14.8 47 14L47 6.8C47 4.6 45.3 2.9 43.2 2.9Z" />
	<path id="Layer" fill-rule="evenodd" class="shp0" d="M24.8 37.1C17.8 37.1 11.2 33.8 6.3 27.7L5.5 26.8L6.3 25.9C10.9 20.3 16.8 17.1 23.3 16.6C24.3 16.4 25.4 16.4 26.4 16.6C32.9 17 38.9 20.3 43.4 25.9L44.2 26.8L43.4 27.7C38.5 33.7 31.8 37.1 24.8 37.1ZM32.2 26.7C32.2 23.1 29.6 20.1 26.2 19.5C25.7 19.5 25.4 19.5 24.9 19.5C24.4 19.5 24 19.5 23.6 19.5C20.1 20.1 17.6 23.2 17.6 26.7C17.6 30.7 20.9 34 24.9 34C28.9 34 32.2 30.7 32.2 26.7ZM9.5 26.8C11.3 28.8 13.5 30.6 16.1 31.9C14.2 28.8 14.1 24.9 15.9 21.7C13.4 23 11.3 24.7 9.5 26.8ZM33.7 31.9C36.2 30.6 38.4 28.9 40.3 26.8C38.5 24.7 36.3 23 33.9 21.7C35.6 24.9 35.6 28.8 33.7 31.9Z" />
	<path id="Layer" class="shp0" d="M23.5 22.5C23.2 22.6 23 22.9 23.1 23.2L23.7 25.4L21.7 24.4C21.4 24.3 21.1 24.4 20.9 24.7L20.9 24.7C19.8 26.9 20.7 29.5 22.9 30.5C25.1 31.6 27.7 30.7 28.7 28.5C29.8 26.3 28.9 23.7 26.7 22.7C26.1 22.4 25.4 22.2 24.8 22.2C24.4 22.3 23.9 22.3 23.5 22.5Z" />
	<path id="Layer" class="shp0" d="M20.1 13.8C20.3 14.5 20.9 14.9 21.5 14.9C21.6 14.9 21.8 14.9 21.9 14.9C22.7 14.7 23.2 13.9 23 13.1L23 13L22.1 9.8C21.9 9 21.1 8.5 20.3 8.7C19.5 8.9 19 9.7 19.2 10.5L20.1 13.8Z" />
	<path id="Layer" class="shp0" d="M27.8 14.9C27.9 14.9 28.1 14.9 28.2 14.9C28.9 14.9 29.5 14.4 29.6 13.8L30.5 10.6C30.7 9.8 30.2 9 29.4 8.8C28.6 8.6 27.8 9.1 27.6 9.9L26.8 13C26.5 13.8 27 14.6 27.8 14.9L27.8 14.9Z" />
</svg>