<?xml version="1.0" encoding="utf-8"?>
<!-- Generator: Adobe Illustrator 24.0.2, SVG Export Plug-In . SVG Version: 6.00 Build 0)  -->
<svg version="1.1" id="Ebene_1" xmlns="http://www.w3.org/2000/svg" xmlns:xlink="http://www.w3.org/1999/xlink" x="0px" y="0px"
	 viewBox="0 0 59.4 59.1" style="enable-background:new 0 0 59.4 59.1;" xml:space="preserve">
<style type="text/css">
	.st0{clip-path:url(#SVGID_2_);fill:#7A9E33;}
</style>
<g>
	<defs>
		<rect id="SVGID_1_" x="17.5" y="18.6" width="24.4" height="21.9"/>
	</defs>
	<clipPath id="SVGID_2_">
		<use xlink:href="#SVGID_1_"  style="overflow:visible;"/>
	</clipPath>
	<path class="st0" d="M26,32c0.5,0,2,0.3,4.3,0.8c0.5,0.1,1.3,0.1,2.3,0.1h1.3c0.6,0,1.3-0.1,2.1-0.2c0.5,0.2,0.7,0.5,0.7,0.9V34
		c0,1-1.8,1.7-5.6,1.9c-1.4-0.1-2.2-0.1-2.4-0.1l-0.1,0.6v0.1c0,0.4,1,0.6,3,0.6h1.2c1.9,0,3.9-0.9,6.1-2.8c0.7-0.2,1.3-0.4,1.7-0.4
		h0.2c0.8,0,1.2,0.3,1.2,0.9V35c-4.5,3.7-8.3,5.5-11.3,5.5c-0.7,0-2.9-0.4-6.7-1.3h-3.2c-0.1,0-2.7-0.2-3.1-1.9
		c-0.3-1,0.3-3,1.6-3.8C23,32.5,25.2,32,26,32"/>
	<path class="st0" d="M25.1,29.4c0.7,0,1.3,0.1,2,0.1c2.4-0.1,4.1-1.3,5.3-3.3c0.4-0.7,0.8-1.4,1.3-2.1c0.4-0.5,0.9-0.9,1.5-1.3
		c-1.5,1.2-2,3-2.8,4.6c-0.6,1.3-1.8,1.8-3.2,2.1c1.7,0.9,4.6,0.4,6-1.3c1-1.1,1.7-2.4,2.5-3.7c1.1-1.8,2.1-3.7,3.9-5
		c-2-1.2-6.8-1.5-9.7,0.1c-1.8,1-3.2,2.3-4.1,4.2c-0.6,1.4-0.9,2.7,0.2,4.1c-1.1,0.7-2-0.1-2.8-0.1"/>
</g>
</svg>
