<?xml version="1.0" encoding="utf-8"?>
<!-- Generator: Adobe Illustrator 24.0.1, SVG Export Plug-In . SVG Version: 6.00 Build 0)  -->
<svg version="1.1" id="Ebene_1" xmlns="http://www.w3.org/2000/svg" xmlns:xlink="http://www.w3.org/1999/xlink" x="0px" y="0px"
	 viewBox="0 0 59.4 59.1" style="enable-background:new 0 0 59.4 59.1;" xml:space="preserve">
<style type="text/css">
	.st0{fill:#FFFFFF;}
	.st1{fill:#776329;}
	.st2{clip-path:url(#SVGID_4_);fill:#776329;}
</style>
<g>
	<path class="st0" d="M39.7,35.5c2-2.7,3.3-4.5,3.9-5.5c0.9-1.5,1.6-2.9,2-4.1c0.4-1.2,0.6-2.5,0.6-3.7c0-2.4-0.7-4.4-2.2-6
		c-1.4-1.5-3.3-2.3-5.6-2.3c-2.1,0-3.9,0.6-5.3,1.9c-1.5,1.3-2.6,3.2-3.4,5.8c-0.8-2.6-2-4.5-3.4-5.8c-1.5-1.3-3.2-1.9-5.3-1.9
		c-2.3,0-4.1,0.8-5.6,2.3c-1.4,1.5-2.2,3.5-2.2,5.9c0,1.4,0.2,2.8,0.7,4.1c0.5,1.3,1.4,3.1,2.8,5.1c0.3,0.4,1.4,1.9,3.2,4.3
		c1.8,2.4,9.1,9.6,9.8,9.6C30.4,45.3,37.7,38.2,39.7,35.5"/>
</g>
<g>
	<defs>
		<rect id="SVGID_1_" x="13.2" y="13.8" width="33" height="31.4"/>
	</defs>
	<clipPath id="SVGID_2_">
		<use xlink:href="#SVGID_1_"  style="overflow:visible;"/>
	</clipPath>
</g>
<polygon class="st1" points="29.7,22.4 22.7,27.4 23.4,28.4 29.7,24 36,28.4 36.7,27.4 "/>
<g>
	<defs>
		<rect id="SVGID_3_" x="13.2" y="13.8" width="33" height="31.4"/>
	</defs>
	<clipPath id="SVGID_4_">
		<use xlink:href="#SVGID_3_"  style="overflow:visible;"/>
	</clipPath>
	<path class="st2" d="M29.7,33c-1.2,0-2.2-1-2.2-2.2c0-1.2,1-2.2,2.2-2.2s2.2,1,2.2,2.2C31.9,32,30.9,33,29.7,33 M34.9,34.2v-5.5
		L29.7,25l-5.2,3.7v5.5v0.6h10.4L34.9,34.2L34.9,34.2z"/>
</g>
<rect x="22.7" y="35.6" class="st1" width="14" height="1.1"/>
</svg>
