<?xml version="1.0" encoding="utf-8"?>
<!-- Generator: Adobe Illustrator 24.0.2, SVG Export Plug-In . SVG Version: 6.00 Build 0)  -->
<svg version="1.1" id="Ebene_1" xmlns="http://www.w3.org/2000/svg" xmlns:xlink="http://www.w3.org/1999/xlink" x="0px" y="0px"
	 viewBox="0 0 21.5 13.3" style="enable-background:new 0 0 21.5 13.3;" xml:space="preserve">
<style type="text/css">
	.st0{fill:#5D5F5D;}
</style>
<g>
	<path class="st0" d="M13.9,8.5c0.3-0.5,0.5-1.2,0.5-1.8c0-0.6-0.2-1.2-0.4-1.7c0.8,0.4,1.6,1,2.2,1.8C15.5,7.5,14.7,8.1,13.9,8.5
		 M5.4,6.7c0.7-0.7,1.4-1.3,2.2-1.8C7.3,5.4,7.2,6,7.2,6.7c0,0.7,0.2,1.3,0.5,1.8C6.9,8.1,6.1,7.5,5.4,6.7 M13.4,6.7
		c0,1.4-1.1,2.6-2.6,2.6S8.2,8.1,8.2,6.7c0-1.3,0.9-2.3,2.1-2.5c0.1,0,0.2,0,0.4,0c0.3,0,0.4,0,0.4,0C12.4,4.3,13.4,5.4,13.4,6.7
		 M17.3,7l0.3-0.3l-0.3-0.3c-1.6-2-3.7-3.1-5.9-3.3c-0.2,0-0.9,0-1.1,0C8,3.3,5.9,4.4,4.3,6.4L4,6.7L4.3,7c1.7,2.1,4,3.3,6.5,3.3
		C13.3,10.3,15.6,9.1,17.3,7"/>
	<path class="st0" d="M10.3,5.2c-0.1,0-0.2,0.1-0.1,0.3l0.2,0.8L9.7,5.9C9.6,5.8,9.5,5.9,9.4,6C9.3,6.2,9.3,6.4,9.3,6.7
		c0,0.8,0.7,1.5,1.5,1.5c0.8,0,1.5-0.7,1.5-1.5s-0.7-1.5-1.5-1.5C10.6,5.1,10.5,5.2,10.3,5.2"/>
</g>
</svg>
