<svg id="Ebene_1" data-name="Ebene 1" xmlns="http://www.w3.org/2000/svg" xmlns:xlink="http://www.w3.org/1999/xlink" viewBox="0 0 113.39 113.39"><defs><style>.cls-1{fill:url(#Unbenannter_Verlauf_4);}.cls-2{fill:#7a9d34;}.cls-3{fill:url(#Unbenannter_Verlauf_46);}.cls-4{fill:url(#Unbenannter_Verlauf_49);}</style><linearGradient id="Unbenannter_Verlauf_4" x1="21.71" y1="42.07" x2="50.56" y2="58.26" gradientUnits="userSpaceOnUse"><stop offset="0" stop-color="#080808"/><stop offset="0.37" stop-color="#36441a"/><stop offset="0.8" stop-color="#67842d"/><stop offset="1" stop-color="#7a9d34"/></linearGradient><linearGradient id="Unbenannter_Verlauf_46" x1="67.31" y1="69.43" x2="24.33" y2="41.46" gradientUnits="userSpaceOnUse"><stop offset="0" stop-color="#080808"/><stop offset="0.07" stop-color="#1b200f"/><stop offset="0.21" stop-color="#38461a"/><stop offset="0.35" stop-color="#506624"/><stop offset="0.49" stop-color="#627e2b"/><stop offset="0.64" stop-color="#708f30"/><stop offset="0.8" stop-color="#779a33"/><stop offset="1" stop-color="#7a9d34"/></linearGradient><linearGradient id="Unbenannter_Verlauf_49" x1="49.9" y1="40.35" x2="104.94" y2="91.57" gradientTransform="translate(116.32 -32.22) rotate(67.88)" gradientUnits="userSpaceOnUse"><stop offset="0" stop-color="#080808"/><stop offset="0.09" stop-color="#191e0e"/><stop offset="0.3" stop-color="#3b4b1c"/><stop offset="0.5" stop-color="#576f26"/><stop offset="0.69" stop-color="#6a882e"/><stop offset="0.86" stop-color="#769832"/><stop offset="1" stop-color="#7a9d34"/></linearGradient></defs><title>Illus_v1_dunkel</title><path class="cls-1" d="M37.77,47.47s7.79,6.9,10,9.91c.86,1.16,2.5,3.43,2.5,3.43s.91,2.69,2.48,3.62c.78.46,1.43-.62.66-1.21a8.66,8.66,0,0,1-2.8-3s3.26-4.1.56-8c-2-2.94-7.61-3.2-13.42-4.79,2.65,5.53.78,9.84,4.5,12.91a6.18,6.18,0,0,0,7.82.51"/><rect class="cls-2" x="71.74" y="53.35" width="3.24" height="26.83" transform="matrix(0.38, -0.93, 0.93, 0.38, -16.12, 109.58)"/><path class="cls-3" d="M46.33,73.06a17.28,17.28,0,1,1,6.5-33.28h0a17.28,17.28,0,0,1-6.5,33.28Zm0-31.56a14.33,14.33,0,1,0,5.37,1.06h0A14.12,14.12,0,0,0,46.33,41.5Z"/><rect class="cls-4" x="78.27" y="56.91" width="7.66" height="26.83" transform="translate(-13.96 119.89) rotate(-67.88)"/></svg>