<svg id="Ebene_1" data-name="Ebene 1" xmlns="http://www.w3.org/2000/svg" xmlns:xlink="http://www.w3.org/1999/xlink" viewBox="0 0 113.39 113.39"><defs><style>.cls-1{fill:url(#Unbenannter_Verlauf_4);}.cls-2{fill:none;stroke-miterlimit:10;stroke:url(#Unbenannter_Verlauf_4-2);}.cls-3{fill:url(#Unbenannter_Verlauf_4-3);}</style><linearGradient id="Unbenannter_Verlauf_4" x1="25.68" y1="56.4" x2="86.17" y2="56.4" gradientUnits="userSpaceOnUse"><stop offset="0" stop-color="#080808"/><stop offset="0.37" stop-color="#36441a"/><stop offset="0.8" stop-color="#67842d"/><stop offset="1" stop-color="#7a9d34"/></linearGradient><linearGradient id="Unbenannter_Verlauf_4-2" x1="19.35" y1="55.65" x2="92.75" y2="55.65" xlink:href="#Unbenannter_Verlauf_4"/><linearGradient id="Unbenannter_Verlauf_4-3" x1="3772.97" y1="399.35" x2="3690.13" y2="402.45" gradientTransform="translate(595.5 -41.78) rotate(90.82)" xlink:href="#Unbenannter_Verlauf_4"/></defs><title>Illus_v1_dunkel</title><polygon class="cls-1" points="65.34 46.57 86.17 50.13 70.67 64.49 73.72 85.4 55.28 75.1 36.34 84.46 40.43 63.73 25.68 48.61 46.65 46.1 56.47 27.4 65.34 46.57"/><polygon class="cls-2" points="67.14 44.18 91.67 48.37 73.42 65.29 77.01 89.91 55.28 77.78 32.97 88.81 37.79 64.39 20.41 46.59 45.12 43.63 56.69 21.59 67.14 44.18"/><path class="cls-3" d="M66.3,51.29s-7,7.69-10,9.88l-3.47,2.45s-2.7.87-3.65,2.43c-.48.77.59,1.44,1.19.67a8.56,8.56,0,0,1,3-2.75s4,3.31,8,.67c3-2,3.31-7.57,5-13.35-5.57,2.57-9.85.64-13,4.31a6.19,6.19,0,0,0-.63,7.82"/></svg>