<svg id="Ebene_1" data-name="Ebene 1" xmlns="http://www.w3.org/2000/svg" xmlns:xlink="http://www.w3.org/1999/xlink" viewBox="0 0 113.39 113.39"><defs><style>.cls-1{fill:url(#Unbenannter_Verlauf_12);}.cls-2{fill:url(#Unbenannter_Verlauf_12-2);}.cls-3{fill:none;stroke-miterlimit:10;stroke:url(#Unbenannter_Verlauf_12-3);}</style><linearGradient id="Unbenannter_Verlauf_12" x1="29.16" y1="57.51" x2="89.65" y2="57.51" gradientUnits="userSpaceOnUse"><stop offset="0" stop-color="#fff"/><stop offset="0.07" stop-color="#e9efde"/><stop offset="0.19" stop-color="#ccd9b1"/><stop offset="0.3" stop-color="#b3c78b"/><stop offset="0.43" stop-color="#9eb86b"/><stop offset="0.55" stop-color="#8eac53"/><stop offset="0.69" stop-color="#83a442"/><stop offset="0.83" stop-color="#7c9f37"/><stop offset="1" stop-color="#7a9d34"/></linearGradient><linearGradient id="Unbenannter_Verlauf_12-2" x1="55.63" y1="64.36" x2="111.37" y2="28.75" xlink:href="#Unbenannter_Verlauf_12"/><linearGradient id="Unbenannter_Verlauf_12-3" x1="22.83" y1="56.77" x2="96.23" y2="56.77" xlink:href="#Unbenannter_Verlauf_12"/></defs><title>Illus_v1_hell</title><polygon class="cls-1" points="68.83 47.69 89.65 51.25 74.16 65.61 77.21 86.51 58.76 76.22 39.82 85.57 43.91 64.85 29.16 49.73 50.14 47.22 59.96 28.51 68.83 47.69"/><path class="cls-2" d="M69.78,52.41s-7,7.68-10.05,9.87c-1.17.85-3.46,2.45-3.46,2.45s-2.71.88-3.66,2.43c-.47.78.59,1.44,1.2.68a8.59,8.59,0,0,1,3-2.76s4,3.31,8,.68c3-2,3.31-7.57,5-13.35-5.57,2.57-9.85.63-13,4.31a6.17,6.17,0,0,0-.62,7.81"/><polygon class="cls-3" points="70.62 45.29 95.15 49.49 76.9 66.4 80.49 91.03 58.77 78.9 36.46 89.92 41.28 65.51 23.9 47.7 48.6 44.74 60.17 22.71 70.62 45.29"/></svg>