<svg id="Ebene_1" data-name="Ebene 1" xmlns="http://www.w3.org/2000/svg" xmlns:xlink="http://www.w3.org/1999/xlink" viewBox="0 0 113.39 113.39"><defs><style>.cls-1{fill:url(#Unbenannter_Verlauf_4);}.cls-2{fill:#1a1a1a;}.cls-3{fill:url(#Unbenannter_Verlauf_4-2);}</style><linearGradient id="Unbenannter_Verlauf_4" x1="25.7" y1="57.83" x2="86.97" y2="57.83" gradientUnits="userSpaceOnUse"><stop offset="0" stop-color="#080808"/><stop offset="0.37" stop-color="#36441a"/><stop offset="0.8" stop-color="#67842d"/><stop offset="1" stop-color="#7a9d34"/></linearGradient><linearGradient id="Unbenannter_Verlauf_4-2" x1="54.84" y1="47.01" x2="54.84" y2="53.59" xlink:href="#Unbenannter_Verlauf_4"/></defs><title>Illus_v1_dunkel</title><path class="cls-1" d="M86.19,57.82a29.78,29.78,0,0,1-21.46,28.3A31.2,31.2,0,0,1,30.61,75,28.87,28.87,0,0,1,34,36.85,31.25,31.25,0,0,1,80.74,41,28.68,28.68,0,0,1,86.19,57.82ZM43.91,33.3,66.69,48.21a2.56,2.56,0,0,0,0-.44c-1-5-1.92-10.05-2.92-15.08a1.09,1.09,0,0,0-.68-.69,48,48,0,0,0-6-1A30,30,0,0,0,43.91,33.3ZM29,48.23l27.07-4.95c-.23-.2-.3-.28-.39-.34-4.33-2.9-8.66-5.81-13-8.68a1.13,1.13,0,0,0-1,0,37.25,37.25,0,0,0-4,2.46A28.6,28.6,0,0,0,29,48.23Zm38,34L44.22,67.35a2.87,2.87,0,0,0,0,.45c1,5,1.9,10,2.9,15a1.32,1.32,0,0,0,.79.81,24.75,24.75,0,0,0,10,.93A32.72,32.72,0,0,0,67,82.27ZM65.39,32.63c1.73,8.81,3.41,17.42,5.12,26.17a4.88,4.88,0,0,0,.35-.39q4.47-6.24,9-12.49a.93.93,0,0,0,0-1.15,24.34,24.34,0,0,0-7.07-8A31.67,31.67,0,0,0,65.39,32.63Zm-25,24.12c-.29.36-.46.57-.62.79-2.86,4-5.7,8-8.57,11.94a1.16,1.16,0,0,0-.1,1.44A26.41,26.41,0,0,0,42.05,81.31c1.08.59,2.2,1.08,3.5,1.71C43.82,74.15,42.14,65.53,40.42,56.75ZM54.83,72.29c.28.23.42.36.57.46,4.23,2.84,8.47,5.67,12.7,8.53a1.08,1.08,0,0,0,1.24,0,25.09,25.09,0,0,0,9.71-8.8c1-1.6,1.92-3.31,2.88-5l-.19-.19ZM29.55,68.87l.31,0L45.17,47h-.52c-5.19.93-10.37,1.85-15.54,2.82a1.22,1.22,0,0,0-.74.75,23.48,23.48,0,0,0-.45,12.74C28.35,65.17,29,67,29.55,68.87Zm36.19-.23c.47,0,.72-.07,1-.11,4.85-.87,9.69-1.77,14.54-2.59a1.64,1.64,0,0,0,1.52-1.37,25.48,25.48,0,0,0-.28-14.4c-.35-1.17-.79-2.32-1.26-3.65Z"/><path class="cls-2" d="M66.71,47.77c-1-5-1.92-10.05-2.92-15.08a1.09,1.09,0,0,0-.68-.69,48,48,0,0,0-6-1,30,30,0,0,0-13.2,2.34L66.69,48.21A2.56,2.56,0,0,0,66.71,47.77Z"/><path class="cls-2" d="M55.72,42.94c-4.33-2.9-8.66-5.81-13-8.68a1.12,1.12,0,0,0-1,0,37.25,37.25,0,0,0-4,2.46A28.6,28.6,0,0,0,29,48.23l27.07-4.95C55.88,43.08,55.81,43,55.72,42.94Z"/><path class="cls-2" d="M44.23,67.8c1,5,1.9,10,2.9,15a1.32,1.32,0,0,0,.79.81,24.75,24.75,0,0,0,10,.93A32.72,32.72,0,0,0,67,82.27L44.22,67.35A2.87,2.87,0,0,0,44.23,67.8Z"/><path class="cls-2" d="M70.86,58.41q4.47-6.24,9-12.49a.93.93,0,0,0,0-1.15,24.34,24.34,0,0,0-7.07-8,31.67,31.67,0,0,0-7.39-4.11c1.73,8.81,3.41,17.42,5.12,26.17A4.88,4.88,0,0,0,70.86,58.41Z"/><path class="cls-2" d="M39.8,57.54c-2.86,4-5.7,8-8.57,11.94a1.16,1.16,0,0,0-.1,1.44A26.41,26.41,0,0,0,42.05,81.31c1.08.59,2.2,1.08,3.5,1.71-1.73-8.87-3.41-17.49-5.13-26.27C40.13,57.11,40,57.32,39.8,57.54Z"/><path class="cls-2" d="M54.83,72.29c.28.23.42.36.57.46,4.23,2.84,8.47,5.67,12.7,8.53a1.08,1.08,0,0,0,1.24,0,25.09,25.09,0,0,0,9.71-8.8c1-1.6,1.92-3.31,2.88-5l-.19-.19Z"/><path class="cls-2" d="M44.65,47c-5.19.93-10.37,1.85-15.54,2.82a1.22,1.22,0,0,0-.74.75,23.48,23.48,0,0,0-.45,12.74c.43,1.89,1.08,3.73,1.63,5.59l.31,0L45.17,47Z"/><path class="cls-2" d="M82.48,50.17c-.35-1.17-.79-2.32-1.26-3.65L65.74,68.64c.47,0,.72-.07,1-.11,4.85-.87,9.69-1.77,14.54-2.59a1.64,1.64,0,0,0,1.52-1.37A25.48,25.48,0,0,0,82.48,50.17Z"/><path class="cls-3" d="M46.84,49.46s7.79,6.9,10,9.91c.86,1.16,2.5,3.43,2.5,3.43s.91,2.69,2.48,3.62c.78.46,1.43-.62.66-1.21a8.52,8.52,0,0,1-2.8-3s3.25-4.1.56-8c-2-2.94-7.62-3.2-13.42-4.79,2.65,5.53.77,9.84,4.49,12.91a6.18,6.18,0,0,0,7.83.51"/></svg>