<?xml version="1.0" encoding="utf-8"?>
<!-- Generator: Adobe Illustrator 24.0.2, SVG Export Plug-In . SVG Version: 6.00 Build 0)  -->
<svg version="1.1" id="Ebene_1" xmlns="http://www.w3.org/2000/svg" xmlns:xlink="http://www.w3.org/1999/xlink" x="0px" y="0px"
	 viewBox="0 0 59.4 59.1" style="enable-background:new 0 0 59.4 59.1;" xml:space="preserve">
<style type="text/css">
	.st0{clip-path:url(#SVGID_2_);fill:#A7C0E4;}
</style>
<g>
	<defs>
		<rect id="SVGID_1_" x="18" y="20.8" width="23.4" height="17.4"/>
	</defs>
	<clipPath id="SVGID_2_">
		<use xlink:href="#SVGID_1_"  style="overflow:visible;"/>
	</clipPath>
	<path class="st0" d="M39.7,20.8c-0.3,0-0.7,0-1,0.1c-3.2,0.7-5.7,2.5-7.5,5.2c-0.3,0.4-0.5,1.2-0.7,2.1v-0.6v0v0v-0.6v-0.4
		c0-0.5-0.4-0.7-0.8-0.7c-0.4,0-0.8,0.2-0.8,0.7v0.4v0.6v0v0v0.6c-0.2-0.9-0.4-1.6-0.7-2.1c-1.8-2.8-4.3-4.5-7.5-5.2
		c-0.3-0.1-0.7-0.1-1-0.1c-0.1,0-0.3,0-0.4,0c-1.2,0.1-1.6,0.8-1.2,1.9c0.1,0.3,0.3,0.6,0.4,0.9c0.7,1.3,1.3,2.7,1.7,4.2
		c0.4,1.7,0.9,2.1,2.9,2.3c-0.7,0.3-1.8,1.4-2.2,2.7c-0.4,1.4,0.1,3,0.4,3.7c0.4,1.1,2,1.9,3.1,1.9c0.6,0,2.5-0.3,3.5-1.5
		c0.4-0.5,0.8-1.6,1.1-2.9V36c0,0.5,0.4,0.7,0.8,0.7c0.4,0,0.8-0.2,0.8-0.7v-2.1c0.3,1.4,0.7,2.5,1.1,2.9c1,1.2,2.9,1.5,3.5,1.5
		c1.1,0,2.6-0.8,3.1-1.9c0.3-0.7,0.8-2.2,0.4-3.7c-0.3-1.3-1.4-2.4-2.2-2.7c2-0.2,2.5-0.6,2.9-2.3c0.4-1.5,1-2.8,1.7-4.2
		c0.1-0.3,0.3-0.6,0.4-0.9c0.4-1.1,0-1.7-1.2-1.9C40,20.9,39.8,20.8,39.7,20.8"/>
</g>
</svg>
