<?xml version="1.0" encoding="utf-8"?>
<!-- Generator: Adobe Illustrator 24.0.2, SVG Export Plug-In . SVG Version: 6.00 Build 0)  -->
<svg version="1.1" id="Ebene_1" xmlns="http://www.w3.org/2000/svg" xmlns:xlink="http://www.w3.org/1999/xlink" x="0px" y="0px"
	 viewBox="0 0 59.4 59.1" style="enable-background:new 0 0 59.4 59.1;" xml:space="preserve">
<style type="text/css">
	.st0{fill:#FFFFFF;}
	.st1{opacity:0.7;fill:#5293D1;}
</style>
<g>
	<path class="st0" d="M39.7,35.5c2-2.7,3.3-4.5,3.9-5.5c0.9-1.5,1.6-2.9,2-4.1c0.4-1.2,0.6-2.5,0.6-3.7c0-2.4-0.7-4.4-2.2-6
		c-1.4-1.5-3.3-2.3-5.6-2.3c-2.1,0-3.9,0.6-5.3,1.9c-1.5,1.3-2.6,3.2-3.4,5.8c-0.8-2.6-2-4.5-3.4-5.8c-1.5-1.3-3.2-1.9-5.3-1.9
		c-2.3,0-4.1,0.8-5.6,2.3c-1.4,1.5-2.2,3.5-2.2,5.9c0,1.4,0.2,2.8,0.7,4.1c0.5,1.3,1.4,3.1,2.8,5.1c0.3,0.4,1.4,1.9,3.2,4.3
		c1.8,2.4,9.1,9.6,9.8,9.6C30.4,45.3,37.7,38.2,39.7,35.5"/>
</g>
<path class="st1" d="M37.7,22.9c-0.4,0-0.7,0-1.1,0.1c-2.5,0.6-4.4,1.9-5.8,4c-0.2,0.3-0.4,0.9-0.5,1.6c0-1,0,0.1,0-0.9
	c0-0.1,0-0.2,0-0.3c0-0.8-1.2-0.8-1.2,0c0,0.1,0,0.2,0,0.3c0,1,0-0.1,0,0.9c-0.1-0.7-0.3-1.3-0.5-1.6c-1.4-2.1-3.3-3.5-5.8-4
	c-0.4-0.1-0.7-0.1-1.1-0.1c-0.9,0.1-1.2,0.6-0.9,1.4c0.1,0.2,0.2,0.5,0.3,0.7c0.5,1,1,2.1,1.3,3.2c0.3,1.3,0.7,1.6,2.2,1.8
	c-0.6,0.2-1.4,1.1-1.7,2.1c-0.3,1.1,0.1,2.3,0.3,2.8c0.3,0.8,1.5,1.4,2.4,1.4c0.4,0,1.9-0.2,2.7-1.2c0.3-0.4,0.6-1.2,0.8-2.2
	c0,0.5,0,1.1,0,1.6c0,0.8,1.2,0.8,1.2,0c0-0.5,0-1.1,0-1.6c0.2,1,0.5,1.9,0.8,2.2c0.8,0.9,2.2,1.2,2.7,1.2c0.8,0,2-0.6,2.4-1.4
	c0.2-0.5,0.6-1.7,0.3-2.8c-0.2-1-1.1-1.8-1.7-2.1c1.5-0.1,1.9-0.4,2.2-1.8c0.3-1.1,0.7-2.2,1.3-3.2c0.1-0.2,0.2-0.4,0.3-0.7
	C38.9,23.5,38.6,23,37.7,22.9z"/>
</svg>
