<svg id="Ebene_1" data-name="Ebene 1" xmlns="http://www.w3.org/2000/svg" xmlns:xlink="http://www.w3.org/1999/xlink" viewBox="0 0 113.39 113.39"><defs><style>.cls-1{fill:url(#Unbenannter_Verlauf_12);}.cls-2{fill:url(#Unbenannter_Verlauf_12-2);}</style><linearGradient id="Unbenannter_Verlauf_12" x1="105.07" y1="62.75" x2="-17.82" y2="83.62" gradientUnits="userSpaceOnUse"><stop offset="0" stop-color="#fff"/><stop offset="0.07" stop-color="#e9efde"/><stop offset="0.19" stop-color="#ccd9b1"/><stop offset="0.3" stop-color="#b3c78b"/><stop offset="0.43" stop-color="#9eb86b"/><stop offset="0.55" stop-color="#8eac53"/><stop offset="0.69" stop-color="#83a442"/><stop offset="0.83" stop-color="#7c9f37"/><stop offset="1" stop-color="#7a9d34"/></linearGradient><linearGradient id="Unbenannter_Verlauf_12-2" x1="802.01" y1="-403.2" x2="748.21" y2="-406.3" gradientTransform="translate(189.67 907.88) rotate(-71.06)" xlink:href="#Unbenannter_Verlauf_12"/></defs><title>Illus_v1_hell</title><path class="cls-1" d="M43.93,86.23A4.26,4.26,0,1,0,48.19,82a4.26,4.26,0,0,0-4.26,4.26M63.4,81.82h-.28a4.27,4.27,0,1,0,.28,0M81.09,51.27l-.8-3.05h0L76.21,49.3l-1.74,4.24-35.88,0,5.36,20,23.46,0-2,5.31-21,0,0,3.15,18.64-.18.15,0,.13,0,4,0L78.59,51.93Z"/><path class="cls-2" d="M45,45.6s12.94-7.32,18-8.94c2-.63,5.79-1.79,5.79-1.79s4.07,0,6-1.67c1-.85-.16-2.22-1.32-1.45-3.47,2.3-5.34,2.39-5.34,2.39s-4-6.29-10.5-4.45C52.76,31.1,49.83,38.49,45,45.6c8.7-1,13.66,3.51,19.52-.09s4.67-9.3,4.32-10.33"/></svg>