<svg id="Ebene_1" data-name="Ebene 1" xmlns="http://www.w3.org/2000/svg" xmlns:xlink="http://www.w3.org/1999/xlink" viewBox="0 0 113.39 113.39"><defs><style>.cls-1{fill:url(#Unbenannter_Verlauf_4);}.cls-2{fill:url(#Unbenannter_Verlauf_4-2);}</style><linearGradient id="Unbenannter_Verlauf_4" x1="2.32" y1="80.62" x2="92.09" y2="69.81" gradientUnits="userSpaceOnUse"><stop offset="0" stop-color="#080808"/><stop offset="0.37" stop-color="#36441a"/><stop offset="0.8" stop-color="#67842d"/><stop offset="1" stop-color="#7a9d34"/></linearGradient><linearGradient id="Unbenannter_Verlauf_4-2" x1="545.83" y1="-571.31" x2="515.28" y2="-592.93" gradientTransform="translate(694.34 547.49) rotate(-71.06)" xlink:href="#Unbenannter_Verlauf_4"/></defs><title>Illus_v1_dunkel</title><path class="cls-1" d="M43.93,89.2a4.26,4.26,0,1,0,4.26-4.26,4.26,4.26,0,0,0-4.26,4.26M63.4,84.8h-.28a4.27,4.27,0,1,0,.28,0M81.09,54.24l-.8-3.05h0l-4.08,1.08-1.74,4.24-35.88,0,5.36,20,23.46,0-2,5.31-21,0,0,3.15,18.64-.17c.06,0,.1,0,.15,0a.5.5,0,0,1,.13,0l4,0L78.59,54.9Z"/><path class="cls-2" d="M45,48.57s12.94-7.32,18-8.94c2-.63,5.79-1.79,5.79-1.79s4.07,0,6-1.67c1-.84-.16-2.22-1.32-1.45-3.47,2.31-5.34,2.39-5.34,2.39s-4-6.29-10.5-4.45c-4.93,1.41-7.86,8.81-12.7,15.91,8.7-1,13.66,3.52,19.52-.09s4.67-9.3,4.32-10.33"/></svg>