<?xml version="1.0" encoding="utf-8"?>
<!-- Generator: Adobe Illustrator 24.0.2, SVG Export Plug-In . SVG Version: 6.00 Build 0)  -->
<svg version="1.1" id="Ebene_1" xmlns="http://www.w3.org/2000/svg" xmlns:xlink="http://www.w3.org/1999/xlink" x="0px" y="0px"
	 viewBox="0 0 59.4 59.1" style="enable-background:new 0 0 59.4 59.1;" xml:space="preserve">
<style type="text/css">
	.st0{clip-path:url(#SVGID_2_);fill:#9A8F23;}
</style>
<g>
	<defs>
		<rect id="SVGID_1_" x="17.1" y="21.2" width="25.2" height="16.6"/>
	</defs>
	<clipPath id="SVGID_2_">
		<use xlink:href="#SVGID_1_"  style="overflow:visible;"/>
	</clipPath>
	<path class="st0" d="M35.4,36.9c2.6-1.6,4.4-3.8,4.1-7.3l0-0.6c-0.3-2.9-0.3-3.1,0.4-4.6c0.5-1.1,1.3-1.4,1.8-1.5
		c0.2-0.1,0.4-0.1,0.5-0.2c0.2-0.1,0.2-0.4,0.2-0.6c-0.1-0.4-0.4-0.4-1.5-0.3c-0.4,0-0.9,0-1.1,0c-0.2,0-0.4-0.1-0.6-0.2
		c-0.8-0.2-2-0.6-3.7-0.2c-2.2,0.5-3,2.2-3.6,3.5c-0.2,0.4-0.4,0.8-0.6,1.1c-0.5,0.7-1.4,1.3-2.2,1.9c-0.4,0.2-0.7,0.5-1,0.7
		c-0.7,0.6-1.4,0.7-1.6,0.8c-0.3-0.1-0.7-0.4-1-0.7c-0.3-0.2-0.6-0.5-0.9-0.7c-0.7-0.4-6.1-4.1-6.1-4.1c-0.2-0.1-0.4-0.1-0.5,0
		c-0.2,0.1-0.3,0.2-0.3,0.4l0,0.5c-0.1,0.1-0.2,0.3-0.1,0.5c0,0.1,0,0.1,0,0.2c0,0,0,0,0,0c-0.1,0.1-0.2,0.2-0.2,0.4
		c0,0.1,0,0.3,0.1,0.4c0.2,0.2,5.9,8.4,6.6,8.9c-0.4,0.5-1.1,1.3-1.6,1.9c-0.3,0.4-0.1,0.7,0,0.8c0.2,0.3,0.5,0.5,4.1-1.1
		c0,0,1.9,1.1,4.2,1.3C31.9,37.9,34.4,37.4,35.4,36.9"/>
</g>
</svg>
