<svg id="Ebene_1" data-name="Ebene 1" xmlns="http://www.w3.org/2000/svg" xmlns:xlink="http://www.w3.org/1999/xlink" viewBox="0 0 113.39 113.39"><defs><style>.cls-1{fill:url(#Unbenannter_Verlauf_2);}.cls-2{fill:url(#Unbenannter_Verlauf_4);}.cls-3{fill:url(#Unbenannter_Verlauf_4-2);}.cls-4{fill:url(#Unbenannter_Verlauf_4-3);}.cls-5{fill:url(#Unbenannter_Verlauf_4-4);}.cls-6{fill:url(#Unbenannter_Verlauf_4-5);}.cls-7{fill:url(#Unbenannter_Verlauf_4-6);}.cls-8{fill:url(#Unbenannter_Verlauf_4-7);}.cls-9{fill:url(#Unbenannter_Verlauf_4-8);}</style><linearGradient id="Unbenannter_Verlauf_2" x1="118.51" y1="43.13" x2="29.48" y2="89.97" gradientUnits="userSpaceOnUse"><stop offset="0" stop-color="#7a9d34"/><stop offset="0.2" stop-color="#67842d"/><stop offset="0.63" stop-color="#36441a"/><stop offset="1" stop-color="#080808"/></linearGradient><linearGradient id="Unbenannter_Verlauf_4" x1="113.98" y1="30.02" x2="24.95" y2="76.86" gradientUnits="userSpaceOnUse"><stop offset="0" stop-color="#080808"/><stop offset="0.37" stop-color="#36441a"/><stop offset="0.8" stop-color="#67842d"/><stop offset="1" stop-color="#7a9d34"/></linearGradient><linearGradient id="Unbenannter_Verlauf_4-2" x1="24.01" y1="37.11" x2="68.91" y2="40.98" gradientTransform="translate(89.04 -25.72) rotate(80)" xlink:href="#Unbenannter_Verlauf_4"/><linearGradient id="Unbenannter_Verlauf_4-3" x1="23.78" y1="39.74" x2="68.68" y2="43.61" gradientTransform="translate(22.01 -15.85) rotate(25)" xlink:href="#Unbenannter_Verlauf_4"/><linearGradient id="Unbenannter_Verlauf_4-4" x1="22.96" y1="49.27" x2="67.86" y2="53.14" gradientTransform="translate(62.16 -6.73) rotate(60)" xlink:href="#Unbenannter_Verlauf_4"/><linearGradient id="Unbenannter_Verlauf_4-5" x1="21.84" y1="62.25" x2="66.74" y2="66.12" gradientTransform="matrix(1, 0.09, -0.09, 1, 5.65, -2.71)" xlink:href="#Unbenannter_Verlauf_4"/><linearGradient id="Unbenannter_Verlauf_4-6" x1="23.55" y1="42.33" x2="68.46" y2="46.2" gradientTransform="translate(53.77 -36.91) rotate(45)" xlink:href="#Unbenannter_Verlauf_4"/><linearGradient id="Unbenannter_Verlauf_4-7" x1="20.83" y1="73.99" x2="65.73" y2="77.87" gradientTransform="translate(57.62 -7.21) rotate(40)" xlink:href="#Unbenannter_Verlauf_4"/><linearGradient id="Unbenannter_Verlauf_4-8" x1="20.29" y1="80.25" x2="65.19" y2="84.12" gradientTransform="translate(116.8 13.32) rotate(74.99)" xlink:href="#Unbenannter_Verlauf_4"/></defs><title>Illus_v1_dunkel</title><path class="cls-1" d="M83.68,68.93c.6-1.09,2-2.12,2.12-5.35.23-6.11-5.66-7.28-8.9-4.85,0,0,0-1.07,0-1.07a4.21,4.21,0,1,0-8.29-1c0,.12,0,.23,0,.34a6,6,0,0,0-8.25,8.36c-3.73.46-6.59,3-6.59,6.12,0,3.43,2.56,6.27,6.87,6.27,1.82,0,3.69-1.13,4-1.15a4.74,4.74,0,0,0,4,3.24,7.71,7.71,0,0,0,7.15-2.23,9.72,9.72,0,0,0,4.18.68c4-.11,5.51-2.28,5.51-5.49A5.24,5.24,0,0,0,83.68,68.93Z"/><path class="cls-2" d="M60.46,65.55a5.35,5.35,0,0,1-.52-3.14,6,6,0,0,1,4-5.67,9.65,9.65,0,1,0-9.62,14.53A6.65,6.65,0,0,1,60.46,65.55Z"/><rect class="cls-3" x="52.59" y="39.45" width="14.49" height="1.5" transform="matrix(0.17, -0.98, 0.98, 0.17, 9.87, 92.15)"/><rect class="cls-4" x="46" y="34.47" width="1.5" height="14.49" transform="translate(-13.25 23.67) rotate(-25)"/><rect class="cls-5" x="36.15" y="43.22" width="1.5" height="14.49" transform="translate(-25.26 57.19) rotate(-60)"/><rect class="cls-6" x="26.61" y="62.54" width="14.49" height="1.5" transform="translate(-5.39 3.2) rotate(-5.01)"/><rect class="cls-7" x="64.19" y="45.71" width="14.49" height="1.5" transform="translate(-11.93 64.12) rotate(-45)"/><rect class="cls-8" x="31.47" y="74.79" width="14.49" height="1.5" transform="translate(-39.5 42.56) rotate(-40)"/><rect class="cls-9" x="42.47" y="82.03" width="14.49" height="1.5" transform="translate(-43.12 109.36) rotate(-74.99)"/></svg>