<?xml version="1.0" encoding="utf-8"?>
<!-- Generator: Adobe Illustrator 24.0.2, SVG Export Plug-In . SVG Version: 6.00 Build 0)  -->
<svg version="1.1" id="Ebene_1" xmlns="http://www.w3.org/2000/svg" xmlns:xlink="http://www.w3.org/1999/xlink" x="0px" y="0px"
	 viewBox="0 0 59.4 59.1" style="enable-background:new 0 0 59.4 59.1;" xml:space="preserve">
<style type="text/css">
	.st0{fill:#776329;}
	.st1{clip-path:url(#SVGID_2_);fill:#776329;}
</style>
<g>
	<polygon class="st0" points="29.7,20.3 20.6,26.7 21.5,28 29.7,22.3 37.9,28 38.8,26.7 	"/>
	<g>
		<defs>
			<rect id="SVGID_1_" x="20.6" y="20.3" width="18.2" height="18.6"/>
		</defs>
		<clipPath id="SVGID_2_">
			<use xlink:href="#SVGID_1_"  style="overflow:visible;"/>
		</clipPath>
		<path class="st1" d="M29.7,33.9c-1.6,0-2.8-1.3-2.8-2.8c0-1.6,1.3-2.8,2.8-2.8c1.6,0,2.8,1.3,2.8,2.8
			C32.5,32.7,31.3,33.9,29.7,33.9 M36.5,35.5v-7.1l-6.8-4.8L23,28.4v7.1v0.8h13.5L36.5,35.5L36.5,35.5z"/>
	</g>
	<rect x="20.6" y="37.4" class="st0" width="18.2" height="1.5"/>
</g>
</svg>
