<svg id="Ebene_1" data-name="Ebene 1" xmlns="http://www.w3.org/2000/svg" viewBox="0 0 27.36 15.94"><defs><style>.cls-1,.cls-2{fill:none;stroke:#626262;stroke-linecap:round;stroke-width:1.3px;}.cls-1{stroke-linejoin:round;}</style></defs><polyline class="cls-1" points="16.02 3.92 0.65 3.92 0.65 15.29 20.45 15.29 20.45 9.94"/><path class="cls-1" d="M8.75,10.4S7.81,6.66,14.4,7.12c0,0-1.9,5.65-5.64,3.26" transform="translate(0 0)"/><path class="cls-1" d="M8.64,10.82A6.14,6.14,0,0,0,7.72,12l-.23.49" transform="translate(0 0)"/><line class="cls-2" x1="20.48" y1="1.04" x2="20.48" y2="6.8"/><line class="cls-2" x1="20.47" y1="0.65" x2="18.66" y2="2.46"/><line class="cls-2" x1="22.31" y1="2.46" x2="20.5" y2="0.65"/><line class="cls-2" x1="24.88" y1="6.8" x2="24.88" y2="1.04"/><line class="cls-2" x1="24.9" y1="7.18" x2="26.71" y2="5.37"/><line class="cls-2" x1="23.06" y1="5.37" x2="24.87" y2="7.18"/></svg>