<svg id="Ebene_1" data-name="Ebene 1" xmlns="http://www.w3.org/2000/svg" viewBox="0 0 18.89 18.89"><defs><style>.cls-1{fill:none;stroke:#c2c2c2;stroke-linecap:round;stroke-linejoin:round;stroke-width:1.5px;}.cls-2{fill:#c2c2c2;}</style></defs><path class="cls-1" d="M9.45,18.14A8.7,8.7,0,1,0,.75,9.45,8.69,8.69,0,0,0,9.45,18.14Z" transform="translate(0)"/><path class="cls-1" d="M5.59,12.55a5.19,5.19,0,0,0,3.9,1.56,5.24,5.24,0,0,0,3.81-1.48" transform="translate(0)"/><path class="cls-2" d="M6.32,6.5A1.14,1.14,0,1,0,7.46,7.64,1.14,1.14,0,0,0,6.32,6.5Z" transform="translate(0)"/><path class="cls-2" d="M12.57,6.5a1.14,1.14,0,1,0,1.14,1.14A1.14,1.14,0,0,0,12.57,6.5Z" transform="translate(0)"/></svg>