<svg id="Ebene_1" data-name="Ebene 1" xmlns="http://www.w3.org/2000/svg" viewBox="0 0 24.55 21.6"><defs><style>.cls-1{fill:#70706f;}</style></defs><path class="cls-1" d="M22.8,11.48h-21A1.75,1.75,0,0,0,0,13.23v6.62A1.76,1.76,0,0,0,1.75,21.6H22.8a1.75,1.75,0,0,0,1.75-1.75V13.23A1.75,1.75,0,0,0,22.8,11.48ZM10.88,14.67h5.86a.75.75,0,0,1,0,1.5H10.88a.75.75,0,0,1,0-1.5ZM8.7,17.52A1.75,1.75,0,0,1,7,19.27H5a1.75,1.75,0,0,1-1.75-1.75v-2A1.75,1.75,0,0,1,5,13.81H7A1.75,1.75,0,0,1,8.7,15.56Zm12,.87H10.88a.75.75,0,0,1,0-1.5h9.85a.75.75,0,1,1,0,1.5Z" transform="translate(0 0)"/><path class="cls-1" d="M22.8,0h-21A1.75,1.75,0,0,0,0,1.75V8.37a1.75,1.75,0,0,0,1.75,1.75H22.8a1.75,1.75,0,0,0,1.75-1.75V1.75A1.75,1.75,0,0,0,22.8,0ZM10.88,3.19h5.86a.75.75,0,0,1,0,1.5H10.88a.75.75,0,1,1,0-1.5ZM8.7,6A1.75,1.75,0,0,1,7,7.79H5A1.75,1.75,0,0,1,3.25,6v-2A1.75,1.75,0,0,1,5,2.33H7A1.75,1.75,0,0,1,8.7,4.08Zm12,.88H10.88a.75.75,0,0,1,0-1.5h9.85a.75.75,0,0,1,0,1.5Z" transform="translate(0 0)"/></svg>