<svg id="Ebene_1" data-name="Ebene 1" xmlns="http://www.w3.org/2000/svg" viewBox="0 0 12.07 12.07"><defs><style>.cls-1{fill:#787878;}</style></defs><path class="cls-1" d="M7.54,6a1.5,1.5,0,1,1-3,0,1.5,1.5,0,0,1,3,0M9,6a3,3,0,1,0-3,3A3,3,0,0,0,9,6m.81-3.28a.59.59,0,0,0-.59-.59.6.6,0,0,0-.59.6.59.59,0,0,0,1.18,0m.73,6.72a1,1,0,0,1-1,1.06l-6.9.07a1.06,1.06,0,0,1-1.06-1L1.5,2.64a1.06,1.06,0,0,1,1-1.07l6.9-.07a1.06,1.06,0,0,1,1.06,1Zm1.5,0L12,2.52A2.55,2.55,0,0,0,9.42,0L2.52.07A2.56,2.56,0,0,0,0,2.65l.07,6.9a2.55,2.55,0,0,0,2.58,2.52L9.55,12a2.55,2.55,0,0,0,2.52-2.58"/></svg>