<svg id="Ebene_1" data-name="Ebene 1" xmlns="http://www.w3.org/2000/svg" viewBox="0 0 19.47 17.01"><defs><style>.cls-1,.cls-2{fill:none;stroke:#626262;stroke-width:1.3px;}.cls-1{stroke-miterlimit:10;}.cls-2{stroke-linecap:round;stroke-linejoin:round;}</style></defs><path class="cls-1" d="M4.76,8.61a2.9,2.9,0,1,0-2.9-2.9,2.9,2.9,0,0,0,2.9,2.9" transform="translate(0 0)"/><path class="cls-1" d="M8.07,16.36a.8.8,0,0,0,.8-.8V12.24a1.72,1.72,0,0,0-1.73-1.73H2.38A1.72,1.72,0,0,0,.65,12.24v3.32a.8.8,0,0,0,.8.8Z" transform="translate(0 0)"/><path class="cls-2" d="M9.92,1.73,13,5.22l.06,3.22a.64.64,0,0,0,.36.57.65.65,0,0,0,.67,0l1.14-.83a.63.63,0,0,0,.27-.52V5.21l3.11-3.48a.62.62,0,0,0,.11-.7.64.64,0,0,0-.59-.38H10.41a.66.66,0,0,0-.6.38A.66.66,0,0,0,9.92,1.73Z" transform="translate(0 0)"/></svg>