<svg id="Ebene_1" data-name="Ebene 1" xmlns="http://www.w3.org/2000/svg" viewBox="0 0 22.7 18.1"><defs><style>.cls-1{fill:#70706f;}</style></defs><path class="cls-1" d="M8.85,9,.55,1.4A3.1,3.1,0,0,1,3.15,0h16.4a3.2,3.2,0,0,1,2.62,1.43L13.93,9A3.7,3.7,0,0,1,8.85,9Z" transform="translate(0 0)"/><path class="cls-1" d="M22.7,3.15V15a3.2,3.2,0,0,1-3.15,3.15H3.15A3.19,3.19,0,0,1,0,15V3.05a.5.5,0,0,1,0-.12l7.81,7.16A5.21,5.21,0,0,0,11.4,11.5,5.13,5.13,0,0,0,15,10.1L22.69,3A.86.86,0,0,1,22.7,3.15Z" transform="translate(0 0)"/></svg>