<svg id="Ebene_1" data-name="Ebene 1" xmlns="http://www.w3.org/2000/svg" viewBox="0 0 10.05 12.58"><defs><style>.cls-1{fill:#787878;}</style></defs><path class="cls-1" d="M1.76,7.31C.25,7-.31,5,.17,3.41.93.89,3.89-.56,6.73.21A4,4,0,0,1,9.9,3.27,5,5,0,0,1,8.45,8.18a3.19,3.19,0,0,1-4.25.2c-.44,1.48-.73,3-2,4.2a5.72,5.72,0,0,1,0-3c.16-.74.36-1.48.54-2.22a4.9,4.9,0,0,0,.19-2.47,1.59,1.59,0,0,1,.66-1.81A1.41,1.41,0,0,1,4.74,3a1.24,1.24,0,0,1,.55,1A9.33,9.33,0,0,1,4.81,6c-.18.62-.29,1.19.33,1.63A1.55,1.55,0,0,0,7,7.34,4.14,4.14,0,0,0,8.17,4.56,2.75,2.75,0,0,0,7.05,1.79,3.65,3.65,0,0,0,1.6,3.88a3.22,3.22,0,0,0,.22,2,1.39,1.39,0,0,1-.06,1.47" transform="translate(0 0)"/></svg>