<?xml version="1.0" encoding="utf-8"?>
<!-- Generator: Adobe Illustrator 23.0.3, SVG Export Plug-In . SVG Version: 6.00 Build 0)  -->
<svg version="1.1" xmlns="http://www.w3.org/2000/svg" xmlns:xlink="http://www.w3.org/1999/xlink" x="0px" y="0px"
	 viewBox="0 0 107 107" style="enable-background:new 0 0 107 107;" xml:space="preserve">
<style type="text/css">
	.st0{fill:#E6E6E6;}
	.st1{fill:#EBCB13;}
	.st2{fill:#CDE3FF;}
	.st3{fill:#FF1D25;}
	.st4{fill:#FFFFFF;}
</style>
<g id="Ebene_2">
</g>
<g id="Ebene_1">
	<g>
		<g>
			<g>
				<g>
					<path class="st0" d="M77.84,54.31c0,0.01,0,0.01,0,0.02c-0.24,1.16-0.7,2.22-1.36,3.14c-0.86,1.26-2.05,2.25-3.42,2.89
						l0.47-1.54l0.62-2.01l-2.01-0.61l-2.12-0.65l-2.01-0.61l-0.62,2.01l-0.61,2l-1.43-1.53l-1.43-1.54l-1.54,1.44l-1.62,1.51
						l-1.54,1.43l1.43,1.54l1.44,1.53l-2.05,0.48L58,64.28l0.47,2.05l0.14,0.61c-2.1,0.98-4.53,1.32-6.98,0.81
						c-1.81-0.37-3.43-1.17-4.78-2.27l3.95-6.59c0.21-0.31,0.33-0.69,0.33-1.1c0-1.1-0.89-1.99-1.98-2h-0.03
						c-0.05,0-0.11,0.01-0.17,0.01c-0.31,0.03-0.59,0.12-0.84,0.27l-4.48,2.54l3.14-5.23c0.31-0.52,0.37-1.15,0.16-1.72
						c-0.21-0.57-0.67-1.02-1.25-1.21l-1.84-0.61c-0.21-0.07-0.42-0.1-0.63-0.1c-0.69,0-1.35,0.36-1.72,0.97l-5.52,9.2
						c-0.06-0.01-0.11-0.02-0.17-0.03c-4.62-0.96-7.6-5.48-6.64-10.11c0.72-3.48,3.46-6.02,6.75-6.66c-0.7-1.79-0.91-3.8-0.49-5.83
						c1.16-5.59,6.63-9.19,12.23-8.04c3.25,0.68,5.82,2.81,7.18,5.58c0.95-1.54,2.36-2.72,3.99-3.4c1.07-0.43,2.23-0.65,3.43-0.61
						c0.48,0.01,0.97,0.07,1.46,0.17c4.56,0.94,7.49,5.4,6.54,9.96c-0.24,1.16-0.71,2.22-1.35,3.13c0.75-0.05,1.53-0.01,2.3,0.15
						c0.59,0.12,1.15,0.3,1.68,0.55h0.01c1.44,0.62,2.65,1.62,3.53,2.85C77.76,49.49,78.34,51.89,77.84,54.31z"/>
				</g>
			</g>
			<g>
				<g>
					<polygon class="st1" points="49.13,57.79 45.38,64.05 37.04,77.97 35.34,77.12 44.03,62.61 32.89,68.92 38.23,60.03 
						43.21,51.74 45.05,52.35 40.82,59.38 37.99,64.1 43.51,60.97 					"/>
				</g>
			</g>
		</g>
		<polygon class="st2" points="70.45,65.86 74.36,70.05 72.74,71.56 68.83,67.37 67.15,72.86 65.03,72.21 66.7,66.72 61.11,68.01 
			60.61,65.85 66.2,64.56 63.89,62.08 62.29,60.37 63.91,58.85 64.81,59.81 67.83,63.05 68.43,61.07 69.5,57.56 71.62,58.21 
			70.75,61.06 69.95,63.69 75.54,62.4 76.04,64.56 		"/>
	</g>
	<g>
		<path class="st3" d="M88.73,83.68l-7.39,12.81c-0.68,1.18,0.17,2.66,1.54,2.66h14.79c1.37,0,2.22-1.48,1.54-2.66l-7.39-12.81
			C91.12,82.49,89.42,82.49,88.73,83.68z"/>
		<g>
			<path class="st4" d="M89.41,94.91h1.73v1.77h-1.73V94.91z M89.44,87.39h1.65v6.45h-1.65V87.39z"/>
		</g>
	</g>
</g>
</svg>
