<?xml version="1.0" encoding="utf-8"?>
<!-- Generator: Adobe Illustrator 23.0.3, SVG Export Plug-In . SVG Version: 6.00 Build 0)  -->
<svg version="1.1" xmlns="http://www.w3.org/2000/svg" xmlns:xlink="http://www.w3.org/1999/xlink" x="0px" y="0px"
	 viewBox="0 0 107 107" style="enable-background:new 0 0 107 107;" xml:space="preserve">
<style type="text/css">
	.st0{fill:#E6E6E6;}
	.st1{fill:#CDE3FF;}
	.st2{fill:#EBCB13;}
	.st3{fill:#FF1D25;}
	.st4{fill:#FFFFFF;}
</style>
<g id="Ebene_2">
</g>
<g id="Ebene_1">
	<g>
		<g>
			<g>
				<path class="st0" d="M77.84,54.37c0,0.01,0,0.01,0,0.02c-0.24,1.16-0.7,2.22-1.36,3.14c-1,1.47-2.45,2.58-4.12,3.17l-4.98-2.87
					l-1.05-0.61l-1.05,0.61l-5.9,3.43l-1.05,0.6v5.28c-2.04,0.87-4.36,1.15-6.7,0.67c-1.83-0.38-3.47-1.19-4.83-2.31l4-6.67
					c0.21-0.31,0.33-0.69,0.33-1.1c0-1.1-0.89-1.99-1.98-2h-0.03c-0.05,0-0.11,0.01-0.17,0.01c-0.31,0.03-0.59,0.12-0.84,0.27
					l-4.48,2.54l3.14-5.23c0.31-0.52,0.37-1.15,0.16-1.72c-0.21-0.57-0.67-1.02-1.25-1.21l-1.84-0.61c-0.21-0.07-0.42-0.1-0.63-0.1
					c-0.69,0-1.35,0.36-1.72,0.97l-5.59,9.31c-0.03-0.01-0.07-0.01-0.1-0.02c-4.62-0.96-7.6-5.48-6.64-10.11
					c0.72-3.48,3.46-6.02,6.75-6.66c-0.7-1.79-0.91-3.8-0.49-5.83c1.16-5.59,6.63-9.19,12.23-8.04c3.25,0.68,5.82,2.81,7.18,5.58
					c0.95-1.54,2.36-2.72,3.99-3.4c1.07-0.43,2.23-0.65,3.43-0.61c0.48,0.01,0.97,0.07,1.46,0.17c4.56,0.94,7.49,5.4,6.54,9.96
					c-0.24,1.16-0.71,2.22-1.35,3.13c0.75-0.05,1.53-0.01,2.3,0.15c0.59,0.12,1.15,0.3,1.68,0.55h0.01
					c1.44,0.62,2.65,1.62,3.53,2.85C77.76,49.55,78.34,51.95,77.84,54.37z"/>
			</g>
			<g>
				<polygon class="st1" points="72.25,63.07 72.25,69.91 66.34,73.32 60.43,69.91 60.43,63.07 64.42,60.76 65.41,60.18 
					66.33,59.65 69.01,61.2 				"/>
			</g>
		</g>
		<g>
			<g>
				<polygon class="st2" points="49.13,57.73 45.34,64.06 37.04,77.91 35.34,77.06 44.03,62.55 32.89,68.86 38.16,60.09 
					43.21,51.68 45.05,52.29 40.73,59.48 37.99,64.04 43.47,60.94 				"/>
			</g>
		</g>
	</g>
	<g>
		<path class="st3" d="M88.73,83.68l-7.39,12.81c-0.68,1.18,0.17,2.66,1.54,2.66h14.79c1.37,0,2.22-1.48,1.54-2.66l-7.39-12.81
			C91.12,82.49,89.42,82.49,88.73,83.68z"/>
		<g>
			<path class="st4" d="M89.41,94.91h1.73v1.77h-1.73V94.91z M89.44,87.39h1.65v6.45h-1.65V87.39z"/>
		</g>
	</g>
</g>
</svg>
