<?xml version="1.0" encoding="utf-8"?>
<!-- Generator: Adobe Illustrator 23.0.3, SVG Export Plug-In . SVG Version: 6.00 Build 0)  -->
<svg version="1.1" xmlns="http://www.w3.org/2000/svg" xmlns:xlink="http://www.w3.org/1999/xlink" x="0px" y="0px"
	 viewBox="0 0 107 107" style="enable-background:new 0 0 107 107;" xml:space="preserve">
<style type="text/css">
	.st0{opacity:0.7;fill:#CDE3FF;}
</style>
<g id="Ebene_2">
</g>
<g id="Ebene_1">
	<g>
		<path class="st0" d="M55.46,54.63c0,2.64-2.24,4.78-5,4.78s-5-2.14-5-4.78c0-1.03,0.35-1.99,0.94-2.77c0,0,2.6-3.36,3.32-5.36
			l0.67-1.91l0.07-0.18l0.12,0.33l0.63,1.76c0.71,2,3.31,5.36,3.31,5.36C55.11,52.64,55.46,53.6,55.46,54.63z"/>
		<path class="st0" d="M61.54,57.81c0,2.64-2.24,4.78-5,4.78s-5-2.14-5-4.78c0-1.03,0.35-1.99,0.94-2.77c0,0,2.6-3.36,3.32-5.36
			l0.67-1.91l0.07-0.18l0.12,0.33l0.63,1.76c0.71,2,3.31,5.36,3.31,5.36C61.19,55.82,61.54,56.78,61.54,57.81z"/>
	</g>
</g>
</svg>
