<?xml version="1.0" encoding="utf-8"?>
<!-- Generator: Adobe Illustrator 23.0.3, SVG Export Plug-In . SVG Version: 6.00 Build 0)  -->
<svg version="1.1" xmlns="http://www.w3.org/2000/svg" xmlns:xlink="http://www.w3.org/1999/xlink" x="0px" y="0px"
	 viewBox="0 0 107 107" style="enable-background:new 0 0 107 107;" xml:space="preserve">
<style type="text/css">
	.st0{fill:#EBCB13;}
	.st1{fill:#E6E6E6;}
	.st2{fill:#CDE3FF;}
</style>
<g id="Ebene_2">
</g>
<g id="Ebene_1">
	<g>
		<path class="st0" d="M66.66,36.95c-4.67-6.49-4.68-14.9-0.66-21.17c-2.18,0.55-4.29,1.51-6.22,2.9
			c-4.83,3.48-7.45,8.88-7.63,14.45c0.44-0.05,0.88-0.09,1.32-0.09c0.13,0,0.25,0,0.38,0.01c0.61,0.01,1.28,0.09,1.96,0.23
			c3,0.62,5.57,2.36,7.24,4.92c1.68,2.55,2.26,5.6,1.63,8.6c-0.01,0.03-0.01,0.07-0.02,0.1c0.11,0.04,0.22,0.08,0.32,0.12H65
			l0.58,0.24c1.91,0.82,3.57,2.16,4.78,3.86c0.37,0.51,0.68,1.06,0.95,1.62c3.65-0.05,7.32-1.16,10.49-3.45
			c1.93-1.39,3.51-3.09,4.72-4.98C79.31,46.11,71.33,43.44,66.66,36.95z"/>
		<g>
			<path class="st1" d="M69.33,59.5c0,0.01,0,0.01,0,0.02c-0.24,1.16-0.7,2.22-1.36,3.14c-0.86,1.26-2.05,2.25-3.42,2.89l0.47-1.54
				L65.64,62l-2.01-0.61l-2.12-0.65l-2.01-0.61l-0.62,2.01l-0.61,2l-1.43-1.53l-1.43-1.54l-1.54,1.44l-1.62,1.51l-1.54,1.43
				l1.43,1.54l1.44,1.53L51.53,69l-2.04,0.47l0.47,2.05l0.14,0.61c-2.1,0.98-4.53,1.32-6.98,0.81c-4.79-0.99-8.23-4.91-8.86-9.5
				c-1.9,1.48-4.42,2.16-6.97,1.63c-4.62-0.96-7.6-5.48-6.64-10.11c0.72-3.48,3.46-6.02,6.75-6.66c-0.7-1.79-0.91-3.8-0.49-5.83
				c1.16-5.59,6.63-9.19,12.23-8.04c3.25,0.68,5.82,2.81,7.18,5.58c0.95-1.54,2.36-2.72,3.99-3.4c1.07-0.43,2.23-0.65,3.43-0.61
				c0.48,0.01,0.97,0.07,1.46,0.17c4.56,0.94,7.49,5.4,6.54,9.96c-0.24,1.16-0.71,2.22-1.35,3.13c0.75-0.05,1.53-0.01,2.3,0.15
				c0.59,0.12,1.15,0.3,1.68,0.55h0.01c1.44,0.62,2.65,1.62,3.53,2.85C69.25,54.68,69.83,57.08,69.33,59.5z"/>
		</g>
		<polygon class="st2" points="61.84,71.05 65.75,75.24 64.13,76.75 60.22,72.56 58.54,78.05 56.42,77.4 58.09,71.91 52.5,73.2 
			52,71.04 57.59,69.75 55.28,67.27 53.68,65.56 55.3,64.04 56.2,65 59.22,68.24 59.82,66.26 60.89,62.75 63.01,63.4 62.14,66.25 
			61.34,68.88 66.93,67.59 67.43,69.75 		"/>
		<g>
			<polygon class="st2" points="48.68,84.22 52.59,88.41 50.97,89.92 47.06,85.73 45.37,91.22 43.25,90.57 44.92,85.08 39.33,86.37 
				38.83,84.21 44.42,82.92 42.11,80.44 40.51,78.73 42.13,77.21 43.03,78.17 46.05,81.41 46.66,79.43 47.73,75.92 49.85,76.57 
				48.98,79.42 48.18,82.05 53.77,80.76 54.27,82.92 			"/>
		</g>
	</g>
	<g>
		<path class="st0" d="M66.66,36.95c-4.67-6.49-4.68-14.9-0.66-21.17c-2.18,0.55-4.29,1.51-6.22,2.9
			c-4.83,3.48-7.45,8.88-7.63,14.45c0.44-0.05,0.88-0.09,1.32-0.09c0.13,0,0.25,0,0.38,0.01c0.61,0.01,1.28,0.09,1.96,0.23
			c3,0.62,5.57,2.36,7.24,4.92c1.68,2.55,2.26,5.6,1.63,8.6c-0.01,0.03-0.01,0.07-0.02,0.1c0.11,0.04,0.22,0.08,0.32,0.12H65
			l0.58,0.24c1.91,0.82,3.57,2.16,4.78,3.86c0.37,0.51,0.68,1.06,0.95,1.62c3.65-0.05,7.32-1.16,10.49-3.45
			c1.93-1.39,3.51-3.09,4.72-4.98C79.31,46.11,71.33,43.44,66.66,36.95z"/>
		<g>
			<path class="st1" d="M69.33,59.5c0,0.01,0,0.01,0,0.02c-0.24,1.16-0.7,2.22-1.36,3.14c-0.86,1.26-2.05,2.25-3.42,2.89l0.47-1.54
				L65.64,62l-2.01-0.61l-2.12-0.65l-2.01-0.61l-0.62,2.01l-0.61,2l-1.43-1.53l-1.43-1.54l-1.54,1.44l-1.62,1.51l-1.54,1.43
				l1.43,1.54l1.44,1.53L51.53,69l-2.04,0.47l0.47,2.05l0.14,0.61c-2.1,0.98-4.53,1.32-6.98,0.81c-4.79-0.99-8.23-4.91-8.86-9.5
				c-1.9,1.48-4.42,2.16-6.97,1.63c-4.62-0.96-7.6-5.48-6.64-10.11c0.72-3.48,3.46-6.02,6.75-6.66c-0.7-1.79-0.91-3.8-0.49-5.83
				c1.16-5.59,6.63-9.19,12.23-8.04c3.25,0.68,5.82,2.81,7.18,5.58c0.95-1.54,2.36-2.72,3.99-3.4c1.07-0.43,2.23-0.65,3.43-0.61
				c0.48,0.01,0.97,0.07,1.46,0.17c4.56,0.94,7.49,5.4,6.54,9.96c-0.24,1.16-0.71,2.22-1.35,3.13c0.75-0.05,1.53-0.01,2.3,0.15
				c0.59,0.12,1.15,0.3,1.68,0.55h0.01c1.44,0.62,2.65,1.62,3.53,2.85C69.25,54.68,69.83,57.08,69.33,59.5z"/>
		</g>
		<polygon class="st2" points="61.84,71.05 65.75,75.24 64.13,76.75 60.22,72.56 58.54,78.05 56.42,77.4 58.09,71.91 52.5,73.2 
			52,71.04 57.59,69.75 55.28,67.27 53.68,65.56 55.3,64.04 56.2,65 59.22,68.24 59.82,66.26 60.89,62.75 63.01,63.4 62.14,66.25 
			61.34,68.88 66.93,67.59 67.43,69.75 		"/>
		<g>
			<polygon class="st2" points="48.68,84.22 52.59,88.41 50.97,89.92 47.06,85.73 45.37,91.22 43.25,90.57 44.92,85.08 39.33,86.37 
				38.83,84.21 44.42,82.92 42.11,80.44 40.51,78.73 42.13,77.21 43.03,78.17 46.05,81.41 46.66,79.43 47.73,75.92 49.85,76.57 
				48.98,79.42 48.18,82.05 53.77,80.76 54.27,82.92 			"/>
		</g>
	</g>
</g>
</svg>
