<?xml version="1.0" encoding="utf-8"?>
<!-- Generator: Adobe Illustrator 23.0.3, SVG Export Plug-In . SVG Version: 6.00 Build 0)  -->
<svg version="1.1" xmlns="http://www.w3.org/2000/svg" xmlns:xlink="http://www.w3.org/1999/xlink" x="0px" y="0px"
	 viewBox="0 0 107 107" style="enable-background:new 0 0 107 107;" xml:space="preserve">
<style type="text/css">
	.st0{fill:#E6E6E6;}
	.st1{fill:#CDE3FF;}
	.st2{fill:#FF1D25;}
	.st3{fill:#FFFFFF;}
</style>
<g id="Ebene_2">
</g>
<g id="Ebene_1">
	<g>
		<path class="st0" d="M72.07,52.67c0,0.01,0,0.01,0,0.02c-0.23,1.11-0.67,2.14-1.28,3.03H51.77c-1.69,0-3.01,1.58-3.01,3.6
			c0,0.98,0.31,1.86,0.83,2.5H39.15c-1.14-1.51-1.89-3.31-2.15-5.21c-1.91,1.48-4.42,2.16-6.97,1.63
			c-4.63-0.96-7.61-5.48-6.64-10.11c0.71-3.48,3.45-6.02,6.75-6.66c-0.7-1.79-0.92-3.8-0.49-5.83c1.15-5.59,6.63-9.19,12.23-8.04
			c3.25,0.68,5.82,2.81,7.17,5.58c0.96-1.54,2.36-2.72,3.99-3.4c1.07-0.43,2.24-0.65,3.43-0.61c0.49,0.01,0.98,0.07,1.47,0.17
			c4.56,0.94,7.48,5.4,6.53,9.96c-0.24,1.16-0.7,2.22-1.34,3.13c0.75-0.05,1.52-0.01,2.29,0.15c0.6,0.12,1.16,0.3,1.68,0.55h0.01
			c1.44,0.62,2.66,1.62,3.54,2.85C71.98,47.85,72.57,50.25,72.07,52.67z"/>
	</g>
	<g>
		<g>
			<path class="st1" d="M67.8,78.11c0,0.83-0.38,1.5-0.86,1.5H37.63c-0.47,0-0.86-0.67-0.86-1.5c0-0.83,0.39-1.5,0.86-1.5h29.31
				C67.42,76.61,67.8,77.28,67.8,78.11z"/>
		</g>
	</g>
	<g>
		<g>
			<path class="st1" d="M83.8,59.32c0,0.83-0.41,1.5-0.91,1.5H51.77c-0.5,0-0.91-0.67-0.91-1.5c0-0.83,0.41-1.5,0.91-1.5h31.12
				C83.39,57.82,83.8,58.49,83.8,59.32z"/>
		</g>
	</g>
	<g>
		<g>
			<path class="st1" d="M77.15,65.42c0,0.83-0.58,1.5-1.3,1.5H31.6c-0.72,0-1.3-0.67-1.3-1.5c0-0.83,0.58-1.5,1.3-1.5h44.25
				C76.57,63.92,77.15,64.59,77.15,65.42z"/>
		</g>
	</g>
	<g>
		<g>
			<path class="st1" d="M80.44,71.51c0.01,0.82-0.43,1.5-0.97,1.51c0,0,0,0-0.01,0l-33.59,0.04c-0.54,0-0.99-0.67-1-1.49
				c0-0.83,0.43-1.5,0.97-1.51c0.01,0,0.01,0,0.01,0l33.59-0.04C79.98,70.01,80.44,70.68,80.44,71.51z"/>
		</g>
	</g>
	<g>
		<path class="st2" d="M88.73,83.68l-7.39,12.81c-0.68,1.18,0.17,2.66,1.54,2.66h14.79c1.37,0,2.22-1.48,1.54-2.66l-7.39-12.81
			C91.12,82.49,89.42,82.49,88.73,83.68z"/>
		<g>
			<path class="st3" d="M89.41,94.91h1.73v1.77h-1.73V94.91z M89.44,87.39h1.65v6.45h-1.65V87.39z"/>
		</g>
	</g>
</g>
</svg>
