<?xml version="1.0" encoding="utf-8"?>
<!-- Generator: Adobe Illustrator 23.0.3, SVG Export Plug-In . SVG Version: 6.00 Build 0)  -->
<svg version="1.1" xmlns="http://www.w3.org/2000/svg" xmlns:xlink="http://www.w3.org/1999/xlink" x="0px" y="0px"
	 viewBox="0 0 107 107" style="enable-background:new 0 0 107 107;" xml:space="preserve">
<style type="text/css">
	.st0{fill:#E6E6E6;}
	.st1{fill:#CDE3FF;}
</style>
<g id="Ebene_2">
</g>
<g id="Ebene_1">
	<g>
		<g>
			<path class="st0" d="M77.84,50.29c0,0.01,0,0.01,0,0.02c-0.24,1.16-0.7,2.22-1.36,3.14c-0.86,1.26-2.05,2.25-3.42,2.89l0.47-1.54
				l0.62-2.01l-2.01-0.61l-2.12-0.65l-2.01-0.61l-0.62,2.01l-0.61,2l-1.43-1.53l-1.43-1.54l-1.54,1.44l-1.62,1.51l-1.54,1.43
				l1.43,1.54l1.44,1.53l-2.05,0.48L58,60.26l0.47,2.05l0.14,0.61c-2.1,0.98-4.53,1.32-6.98,0.81c-4.79-0.99-8.23-4.91-8.86-9.5
				c-1.9,1.48-4.42,2.16-6.97,1.63c-4.62-0.96-7.6-5.48-6.64-10.11c0.72-3.48,3.46-6.02,6.75-6.66c-0.7-1.79-0.91-3.8-0.49-5.83
				c1.16-5.59,6.63-9.19,12.23-8.04c3.25,0.68,5.82,2.81,7.18,5.58c0.95-1.54,2.36-2.72,3.99-3.4c1.07-0.43,2.23-0.65,3.43-0.61
				c0.48,0.01,0.97,0.07,1.46,0.17c4.56,0.94,7.49,5.4,6.54,9.96c-0.24,1.16-0.71,2.22-1.35,3.13c0.75-0.05,1.53-0.01,2.3,0.15
				c0.59,0.12,1.15,0.3,1.68,0.55h0.01c1.44,0.62,2.65,1.62,3.53,2.85C77.76,45.47,78.34,47.87,77.84,50.29z"/>
		</g>
		<polygon class="st1" points="70.35,61.84 74.26,66.03 72.64,67.54 68.73,63.35 67.05,68.84 64.93,68.19 66.6,62.7 61.01,63.99 
			60.51,61.83 66.1,60.54 63.79,58.06 62.19,56.35 63.81,54.83 64.71,55.79 67.73,59.03 68.33,57.05 69.4,53.54 71.52,54.19 
			70.65,57.04 69.85,59.67 75.44,58.38 75.94,60.54 		"/>
		<polygon class="st1" points="57.19,75 61.1,79.19 59.48,80.7 55.57,76.51 53.89,82 51.77,81.35 53.44,75.86 47.85,77.15 
			47.35,74.99 52.94,73.7 50.63,71.22 49.03,69.51 50.65,67.99 51.55,68.95 54.57,72.19 55.17,70.21 56.24,66.7 58.36,67.35 
			57.49,70.2 56.69,72.83 62.28,71.54 62.78,73.7 		"/>
	</g>
</g>
</svg>
