<?xml version="1.0" encoding="utf-8"?>
<!-- Generator: Adobe Illustrator 23.0.3, SVG Export Plug-In . SVG Version: 6.00 Build 0)  -->
<svg version="1.1" xmlns="http://www.w3.org/2000/svg" xmlns:xlink="http://www.w3.org/1999/xlink" x="0px" y="0px"
	 viewBox="0 0 107 107" style="enable-background:new 0 0 107 107;" xml:space="preserve">
<style type="text/css">
	.st0{fill:#EBCB13;}
	.st1{fill:#E6E6E6;}
	.st2{fill:#CDE3FF;}
	.st3{fill:#FF1D25;}
	.st4{fill:#FFFFFF;}
</style>
<g id="Ebene_2">
</g>
<g id="Ebene_1">
	<g>
		<g>
			<path class="st0" d="M65.86,47.99c0,3.4-1.91,6.35-4.7,7.81c-0.01-0.04-0.01-0.07-0.02-0.11c-0.23-1.65-0.81-3.25-1.75-4.68
				c-1.68-2.55-4.25-4.3-7.24-4.91c-0.68-0.14-1.35-0.22-1.96-0.23c-0.13-0.01-0.26-0.01-0.38-0.01c-0.34,0-0.67,0.02-1,0.05
				c0.92-3.85,4.32-6.71,8.4-6.71C61.99,39.2,65.86,43.14,65.86,47.99z"/>
			<polygon class="st0" points="51.75,34.64 43.17,18.32 41.34,19.31 49.92,35.63 			"/>
			<polygon class="st0" points="65.45,16 63.42,15.57 59.65,33.66 61.69,34.1 			"/>
			<polygon class="st0" points="83.99,28.76 82.71,27.1 68.36,38.51 69.64,40.17 			"/>
			<polygon class="st0" points="67.38,59.01 80.94,71.36 82.33,69.79 68.77,57.44 			"/>
			
				<rect x="79.98" y="40.15" transform="matrix(0.0332 -0.9994 0.9994 0.0332 29.1072 128.6133)" class="st0" width="2.11" height="18.23"/>
			<polygon class="st0" points="44.48,41.53 27.57,34.62 26.79,36.58 43.7,43.48 			"/>
		</g>
		<g>
			<path class="st1" d="M65.68,72.48c0,0.01,0,0.01,0,0.02c-0.24,1.16-0.7,2.22-1.36,3.14c-1,1.47-2.45,2.58-4.12,3.17l-4.98-2.87
				l-1.05-0.61l-1.05,0.61l-5.9,3.43l-1.05,0.6v5.28c-2.04,0.87-4.36,1.15-6.7,0.67c-4.79-0.99-8.23-4.91-8.86-9.5
				c-1.9,1.48-4.42,2.16-6.97,1.63c-4.62-0.96-7.6-5.48-6.64-10.11c0.72-3.48,3.46-6.02,6.75-6.66c-0.7-1.79-0.91-3.8-0.49-5.83
				c1.16-5.59,6.63-9.19,12.23-8.04c3.25,0.68,5.82,2.81,7.18,5.58c0.95-1.54,2.36-2.72,3.99-3.4c1.07-0.43,2.23-0.65,3.43-0.61
				c0.48,0.01,0.97,0.07,1.46,0.17c4.56,0.94,7.49,5.4,6.54,9.96c-0.24,1.16-0.71,2.22-1.35,3.13c0.75-0.05,1.53-0.01,2.3,0.15
				c0.59,0.12,1.15,0.3,1.68,0.55h0.01c1.44,0.62,2.65,1.62,3.53,2.85C65.6,67.66,66.18,70.06,65.68,72.48z"/>
		</g>
		<g>
			<polygon class="st2" points="60.09,81.18 60.09,88.02 54.18,91.43 48.27,88.02 48.27,81.18 52.26,78.87 53.25,78.29 54.17,77.76 
				56.85,79.31 			"/>
		</g>
	</g>
	<g>
		<path class="st3" d="M88.73,83.68l-7.39,12.81c-0.68,1.18,0.17,2.66,1.54,2.66h14.79c1.37,0,2.22-1.48,1.54-2.66l-7.39-12.81
			C91.12,82.49,89.42,82.49,88.73,83.68z"/>
		<g>
			<path class="st4" d="M89.41,94.91h1.73v1.77h-1.73V94.91z M89.44,87.39h1.65v6.45h-1.65V87.39z"/>
		</g>
	</g>
</g>
</svg>
