<?xml version="1.0" encoding="utf-8"?>
<!-- Generator: Adobe Illustrator 23.0.3, SVG Export Plug-In . SVG Version: 6.00 Build 0)  -->
<svg version="1.1" xmlns="http://www.w3.org/2000/svg" xmlns:xlink="http://www.w3.org/1999/xlink" x="0px" y="0px"
	 viewBox="0 0 107 107" style="enable-background:new 0 0 107 107;" xml:space="preserve">
<style type="text/css">
	.st0{fill:#EBCB13;}
</style>
<g id="Ebene_2">
</g>
<g id="Ebene_1">
	<g>
		<path class="st0" d="M57.9,54l5.79,0.2l0.02-0.67l-5.79-0.2L57.9,54z M54.21,58.02l-0.65,0.09l0.81,5.82l0.65-0.09L54.21,58.02z
			 M50.53,57.18l-3.06,4.99l0.56,0.35l3.06-4.99L50.53,57.18z M48.8,54.62l-5.5,1.82l0.2,0.64l5.5-1.82L48.8,54.62z M49.19,51.31
			l-5.37-2.19l-0.25,0.62l5.37,2.19L49.19,51.31z M50.92,49.44l0.58-0.32l-2.73-5.18l-0.58,0.32L50.92,49.44z M54.66,48.95l1.2-5.75
			l-0.65-0.14l-1.2,5.75L54.66,48.95z M55.99,53.36c0-1.54-1.23-2.79-2.75-2.79s-2.75,1.25-2.75,2.79s1.23,2.79,2.75,2.79
			S55.99,54.9,55.99,53.36 M56.91,56.36l-0.44,0.5l4.31,3.93l0.44-0.5L56.91,56.36z M57.19,50.88l4.56-3.62l-0.41-0.53l-4.56,3.62
			L57.19,50.88z"/>
	</g>
</g>
</svg>
