<?xml version="1.0" encoding="utf-8"?>
<!-- Generator: Adobe Illustrator 23.0.3, SVG Export Plug-In . SVG Version: 6.00 Build 0)  -->
<svg version="1.1" xmlns="http://www.w3.org/2000/svg" xmlns:xlink="http://www.w3.org/1999/xlink" x="0px" y="0px"
	 viewBox="0 0 107 107" style="enable-background:new 0 0 107 107;" xml:space="preserve">
<style type="text/css">
	.st0{fill:#EBCB13;}
	.st1{fill:#FF1D25;}
	.st2{fill:#FFFFFF;}
</style>
<g id="Ebene_2">
</g>
<g id="Ebene_1">
	<g>
		<path class="st0" d="M67.35,55.09l18.22,0.62l0.07-2.11l-18.22-0.62L67.35,55.09z M55.74,67.74l-2.06,0.3l2.56,18.31l2.06-0.3
			L55.74,67.74z M44.16,65.1l-9.64,15.7l1.76,1.12l9.64-15.7L44.16,65.1z M38.69,57.02l-17.33,5.74l0.65,2.01l17.33-5.74
			L38.69,57.02z M39.94,46.61L23.03,39.7l-0.78,1.96l16.91,6.9L39.94,46.61z M45.38,40.71l1.83-0.99L38.63,23.4l-1.83,0.99
			L45.38,40.71z M57.15,39.18l3.76-18.1l-2.03-0.44l-3.76,18.1L57.15,39.18z M61.33,53.06c0-4.85-3.88-8.78-8.66-8.78
			s-8.66,3.93-8.66,8.78s3.88,8.78,8.66,8.78S61.33,57.92,61.33,53.06 M64.23,62.52l-1.39,1.57L76.4,76.44l1.39-1.57L64.23,62.52z
			 M65.1,45.25l14.35-11.41l-1.28-1.66L63.82,43.59L65.1,45.25z"/>
	</g>
	<g>
		<path class="st1" d="M88.73,83.68l-7.39,12.81c-0.68,1.18,0.17,2.66,1.54,2.66h14.79c1.37,0,2.22-1.48,1.54-2.66l-7.39-12.81
			C91.12,82.49,89.42,82.49,88.73,83.68z"/>
		<g>
			<path class="st2" d="M89.41,94.91h1.73v1.77h-1.73V94.91z M89.44,87.39h1.65v6.45h-1.65V87.39z"/>
		</g>
	</g>
</g>
</svg>
