<?xml version="1.0" encoding="utf-8"?>
<!-- Generator: Adobe Illustrator 23.0.3, SVG Export Plug-In . SVG Version: 6.00 Build 0)  -->
<svg version="1.1" xmlns="http://www.w3.org/2000/svg" xmlns:xlink="http://www.w3.org/1999/xlink" x="0px" y="0px"
	 viewBox="0 0 107 107" style="enable-background:new 0 0 107 107;" xml:space="preserve">
<style type="text/css">
	.st0{fill:#EBCB13;}
	.st1{fill:#E6E6E6;}
	.st2{fill:#CDE3FF;}
	.st3{fill:#FF1D25;}
	.st4{fill:#FFFFFF;}
</style>
<g id="Ebene_2">
</g>
<g id="Ebene_1">
	<g>
		<g>
			<path class="st0" d="M65.86,42.18c0,3.4-1.91,6.35-4.7,7.81c-0.01-0.04-0.01-0.07-0.02-0.11c-0.23-1.65-0.81-3.25-1.75-4.68
				c-1.68-2.55-4.25-4.3-7.24-4.91c-0.68-0.14-1.35-0.22-1.96-0.23c-0.13-0.01-0.26-0.01-0.38-0.01c-0.34,0-0.67,0.02-1,0.05
				c0.92-3.85,4.32-6.71,8.4-6.71C61.99,33.39,65.86,37.33,65.86,42.18z"/>
			<polygon class="st0" points="51.75,28.83 43.17,12.51 41.34,13.5 49.92,29.82 			"/>
			<polygon class="st0" points="65.45,10.19 63.42,9.76 59.65,27.86 61.69,28.29 			"/>
			<polygon class="st0" points="83.99,22.95 82.71,21.29 68.36,32.7 69.64,34.36 			"/>
			<polygon class="st0" points="67.38,53.2 80.94,65.56 82.33,63.99 68.77,51.63 			"/>
			
				<rect x="79.98" y="34.34" transform="matrix(0.0332 -0.9994 0.9994 0.0332 34.9099 122.9999)" class="st0" width="2.11" height="18.23"/>
			<polygon class="st0" points="44.48,35.72 27.57,28.82 26.79,30.77 43.7,37.68 			"/>
		</g>
		<g>
			<path class="st1" d="M65.68,66.68c0,0.01,0,0.01,0,0.02c-0.24,1.16-0.7,2.22-1.36,3.14c-1.87,2.73-5.28,4.22-8.74,3.5
				c-0.04-0.01-0.08-0.02-0.12-0.03c-0.72-1.15-1.37-2.34-1.72-3.31l-1.07-3.01L51.59,70c-1.02,2.89-4.77,7.72-4.77,7.72
				c-0.42,0.56-0.76,1.19-1,1.86c0,0,0,0,0,0.01c-1.95,0.76-4.14,0.99-6.35,0.53c-4.79-0.99-8.23-4.91-8.86-9.5
				c-1.9,1.48-4.42,2.16-6.97,1.63c-4.62-0.96-7.6-5.48-6.64-10.11c0.72-3.48,3.46-6.02,6.75-6.66c-0.7-1.79-0.91-3.8-0.49-5.83
				c1.16-5.59,6.63-9.19,12.23-8.04c3.25,0.68,5.82,2.81,7.18,5.58c0.95-1.54,2.36-2.72,3.99-3.4c1.07-0.43,2.23-0.65,3.43-0.61
				c0.48,0.01,0.97,0.07,1.46,0.17c4.56,0.94,7.49,5.4,6.54,9.96c-0.24,1.16-0.71,2.22-1.35,3.13c0.75-0.05,1.53-0.01,2.3,0.15
				c0.59,0.12,1.15,0.3,1.68,0.55h0.01c1.44,0.62,2.65,1.62,3.53,2.85C65.6,61.86,66.18,64.26,65.68,66.68z"/>
		</g>
		<path class="st2" d="M57.63,81.87c0,2.63-2.24,4.77-5,4.77s-5-2.14-5-4.77c0-1.04,0.35-2,0.94-2.78c0,0,1.84-2.36,2.84-4.31
			c0.19-0.37,0.35-0.73,0.47-1.05l0.75-2.09l0.23,0.64l0.51,1.45c0.72,2.01,3.32,5.36,3.32,5.36
			C57.28,79.87,57.63,80.83,57.63,81.87z"/>
		<g>
			<path class="st2" d="M47.98,92.47c0,2.63-2.24,4.77-5,4.77s-5-2.14-5-4.77c0-1.04,0.35-2,0.94-2.78c0,0,1.84-2.36,2.84-4.31
				c0.19-0.37,0.35-0.73,0.47-1.05l0.75-2.09l0.23,0.64l0.51,1.45c0.72,2.01,3.32,5.36,3.32,5.36
				C47.63,90.47,47.98,91.43,47.98,92.47z"/>
		</g>
	</g>
	<g>
		<path class="st3" d="M88.73,83.68l-7.39,12.81c-0.68,1.18,0.17,2.66,1.54,2.66h14.79c1.37,0,2.22-1.48,1.54-2.66l-7.39-12.81
			C91.12,82.49,89.42,82.49,88.73,83.68z"/>
		<g>
			<path class="st4" d="M89.41,94.91h1.73v1.77h-1.73V94.91z M89.44,87.39h1.65v6.45h-1.65V87.39z"/>
		</g>
	</g>
</g>
</svg>
