<?xml version="1.0" encoding="utf-8"?>
<!-- Generator: Adobe Illustrator 23.0.3, SVG Export Plug-In . SVG Version: 6.00 Build 0)  -->
<svg version="1.1" xmlns="http://www.w3.org/2000/svg" xmlns:xlink="http://www.w3.org/1999/xlink" x="0px" y="0px"
	 viewBox="0 0 107 107" style="enable-background:new 0 0 107 107;" xml:space="preserve">
<style type="text/css">
	.st0{fill:#EBCB13;}
	.st1{fill:#E6E6E6;}
	.st2{fill:#CDE3FF;}
	.st3{fill:#FFFFFF;}
	.st4{fill:none;stroke:#000000;stroke-width:2;stroke-linecap:round;stroke-linejoin:round;stroke-miterlimit:10;}
	.st5{fill:none;stroke:#000000;stroke-width:2;stroke-miterlimit:10;}
</style>
<g id="Ebene_2">
</g>
<g id="Ebene_1">
	<g>
		<g>
			<path class="st0" d="M65.86,48.19c0,3.4-1.91,6.35-4.7,7.81c-0.01-0.04-0.01-0.07-0.02-0.11c-0.23-1.65-0.81-3.25-1.75-4.68
				c-1.68-2.55-4.25-4.3-7.24-4.91c-0.68-0.14-1.35-0.22-1.96-0.23c-0.13-0.01-0.26-0.01-0.38-0.01c-0.34,0-0.67,0.02-1,0.05
				c0.92-3.85,4.32-6.71,8.4-6.71C61.99,39.4,65.86,43.34,65.86,48.19z"/>
			<polygon class="st0" points="51.75,34.84 43.17,18.52 41.34,19.51 49.92,35.83 			"/>
			<polygon class="st0" points="65.45,16.2 63.42,15.77 59.65,33.86 61.69,34.3 			"/>
			<polygon class="st0" points="83.99,28.96 82.71,27.3 68.36,38.71 69.64,40.37 			"/>
			
				<rect x="79.98" y="40.35" transform="matrix(0.0332 -0.9994 0.9994 0.0332 28.9057 128.8051)" class="st0" width="2.11" height="18.23"/>
			<polygon class="st0" points="44.48,41.73 27.57,34.82 26.79,36.78 43.7,43.68 			"/>
		</g>
		<g>
			<path class="st1" d="M65.69,72.68c0,0.01,0,0.01,0,0.02c-0.24,1.16-0.7,2.22-1.36,3.14c-0.86,1.26-2.05,2.25-3.42,2.89l0.47-1.54
				L62,75.18l-2.01-0.61l-2.12-0.65l-2.01-0.61l-0.62,2.01l-0.61,2l-1.43-1.53l-1.43-1.54l-1.54,1.44l-1.62,1.51l-1.54,1.43
				l1.43,1.54l1.44,1.53l-2.05,0.48l-2.04,0.47l0.47,2.05l0.14,0.61c-2.1,0.98-4.53,1.32-6.98,0.81c-4.79-0.99-8.23-4.91-8.86-9.5
				c-1.9,1.48-4.42,2.16-6.97,1.63c-4.62-0.96-7.6-5.48-6.64-10.11c0.72-3.48,3.46-6.02,6.75-6.66c-0.7-1.79-0.91-3.8-0.49-5.83
				c1.16-5.59,6.63-9.19,12.23-8.04c3.25,0.68,5.82,2.81,7.18,5.58c0.95-1.54,2.36-2.72,3.99-3.4c1.07-0.43,2.23-0.65,3.43-0.61
				c0.48,0.01,0.97,0.07,1.46,0.17c4.56,0.94,7.49,5.4,6.54,9.96c-0.24,1.16-0.71,2.22-1.35,3.13c0.75-0.05,1.53-0.01,2.3,0.15
				c0.59,0.12,1.15,0.3,1.68,0.55h0.01c1.44,0.62,2.65,1.62,3.53,2.85C65.61,67.86,66.19,70.26,65.69,72.68z"/>
		</g>
		<polygon class="st2" points="58.2,84.23 62.11,88.42 60.49,89.93 56.58,85.74 54.9,91.23 52.78,90.58 54.45,85.09 48.86,86.38 
			48.36,84.22 53.95,82.93 51.64,80.45 50.04,78.74 51.66,77.22 52.56,78.18 55.58,81.42 56.18,79.44 57.25,75.93 59.37,76.58 
			58.5,79.43 57.7,82.06 63.29,80.77 63.79,82.93 		"/>
	</g>
	<g>
		<path class="st3" d="M67.1,56.83c0,0-0.12,3.08,1.52,4.73c1.65,1.65,9.19,8.71,9.19,8.71s4.35-0.58,2.81-2.71
			c-1.55-2.13-6.39-9.39-8.23-9.87C70.56,57.2,67.1,56.83,67.1,56.83z"/>
		<g>
			<line class="st4" x1="66.99" y1="56.9" x2="66.99" y2="76.6"/>
			<path class="st5" d="M67.1,56.83l1.12,3.52c0.19,0.6,0.54,1.14,1,1.58l8.2,7.7c0.77,0.73,1.92,0.77,2.6,0.1l0.45-0.45
				c0.67-0.67,0.63-1.82-0.1-2.6l-7.7-8.2c-0.44-0.47-0.99-0.81-1.58-1l-3.52-1.12C67.27,56.26,67.01,56.52,67.1,56.83z"/>
			<path class="st4" d="M73.46,65.52c0,0,2.39-0.52,2.87-2.87"/>
			<path class="st4" d="M70.21,62.27c0,0,2.39-0.52,2.87-2.87"/>
			<path class="st4" d="M77.16,69.1c0,0,2.2-0.58,2.75-2.75"/>
		</g>
	</g>
</g>
</svg>
