<?xml version="1.0" encoding="utf-8"?>
<!-- Generator: Adobe Illustrator 23.0.3, SVG Export Plug-In . SVG Version: 6.00 Build 0)  -->
<svg version="1.1" xmlns="http://www.w3.org/2000/svg" xmlns:xlink="http://www.w3.org/1999/xlink" x="0px" y="0px"
	 viewBox="0 0 107 107" style="enable-background:new 0 0 107 107;" xml:space="preserve">
<style type="text/css">
	.st0{fill:#EBCB13;}
	.st1{fill:#FFFFFF;}
	.st2{fill:none;stroke:#FF1D25;stroke-width:2;stroke-linecap:round;stroke-linejoin:round;stroke-miterlimit:10;}
	.st3{fill:none;stroke:#FF1D25;stroke-width:2;stroke-miterlimit:10;}
</style>
<g id="Ebene_2">
</g>
<g id="Ebene_1">
	<g>
		<path class="st0" d="M50.46,50.93c-5.34-7.42-5.35-17.03-0.75-24.19c-2.49,0.63-4.91,1.72-7.11,3.31
			C33.07,36.9,31,50.28,37.95,59.93s20.3,11.93,29.82,5.08c2.21-1.59,4.01-3.53,5.4-5.7C64.91,61.4,55.8,58.34,50.46,50.93z"/>
		<g>
			<path class="st1" d="M58.06,60.5c0,0-0.12,3.08,1.52,4.73c1.65,1.65,9.19,8.71,9.19,8.71s4.35-0.58,2.81-2.71
				c-1.55-2.13-6.39-9.39-8.23-9.87C61.51,60.87,58.06,60.5,58.06,60.5z"/>
			<g>
				<line class="st2" x1="57.94" y1="60.57" x2="57.94" y2="80.27"/>
				<path class="st3" d="M58.06,60.5l1.12,3.52c0.19,0.6,0.54,1.14,1,1.58l8.2,7.7c0.77,0.73,1.92,0.77,2.6,0.1l0.45-0.45
					c0.67-0.67,0.63-1.82-0.1-2.6l-7.7-8.2c-0.44-0.47-0.99-0.81-1.58-1l-3.52-1.12C58.22,59.93,57.96,60.19,58.06,60.5z"/>
				<path class="st2" d="M64.42,69.19c0,0,2.39-0.52,2.87-2.87"/>
				<path class="st2" d="M61.16,65.94c0,0,2.39-0.52,2.87-2.87"/>
				<path class="st2" d="M68.11,72.77c0,0,2.2-0.58,2.75-2.75"/>
			</g>
		</g>
	</g>
</g>
</svg>
