<?xml version="1.0" encoding="utf-8"?>
<!-- Generator: Adobe Illustrator 23.0.3, SVG Export Plug-In . SVG Version: 6.00 Build 0)  -->
<svg version="1.1" xmlns="http://www.w3.org/2000/svg" xmlns:xlink="http://www.w3.org/1999/xlink" x="0px" y="0px"
	 viewBox="0 0 107 107" style="enable-background:new 0 0 107 107;" xml:space="preserve">
<style type="text/css">
	.st0{fill:#EBCB13;}
	.st1{fill:#E6E6E6;}
	.st2{fill:#CDE3FF;}
	.st3{fill:#FFFFFF;}
	.st4{fill:none;stroke:#FF1D25;stroke-width:2;stroke-linecap:round;stroke-linejoin:round;stroke-miterlimit:10;}
	.st5{fill:none;stroke:#FF1D25;stroke-width:2;stroke-miterlimit:10;}
	.st6{fill:#FF1D25;}
</style>
<g id="Ebene_2">
</g>
<g id="Ebene_1">
	<g>
		<g>
			<path class="st0" d="M65.86,41.73c0,3.4-1.91,6.35-4.7,7.81c-0.01-0.04-0.01-0.07-0.02-0.11c-0.23-1.65-0.81-3.25-1.75-4.68
				c-1.68-2.55-4.25-4.3-7.24-4.91c-0.68-0.14-1.35-0.22-1.96-0.23c-0.13-0.01-0.26-0.01-0.38-0.01c-0.34,0-0.67,0.02-1,0.05
				c0.92-3.85,4.32-6.71,8.4-6.71C61.99,32.94,65.86,36.88,65.86,41.73z"/>
			<polygon class="st0" points="51.75,28.38 43.17,12.06 41.34,13.06 49.92,29.38 			"/>
			<polygon class="st0" points="65.45,9.75 63.42,9.31 59.65,27.41 61.69,27.85 			"/>
			<polygon class="st0" points="83.99,22.51 82.71,20.85 68.36,32.26 69.64,33.92 			"/>
			
				<rect x="79.98" y="33.89" transform="matrix(0.0332 -0.9994 0.9994 0.0332 35.3564 122.5683)" class="st0" width="2.11" height="18.23"/>
			<polygon class="st0" points="44.48,35.28 27.57,28.37 26.79,30.33 43.7,37.23 			"/>
		</g>
		<g>
			<path class="st1" d="M65.68,66.23c0,0.01,0,0.01,0,0.02c-0.24,1.16-0.7,2.22-1.36,3.14c-1,1.47-2.45,2.58-4.12,3.17l-4.98-2.87
				l-1.05-0.61l-1.05,0.61l-5.9,3.43l-1.05,0.6V79c-2.04,0.87-4.36,1.15-6.7,0.67c-4.79-0.99-8.23-4.91-8.86-9.5
				c-1.9,1.48-4.42,2.16-6.97,1.63c-4.62-0.96-7.6-5.48-6.64-10.11c0.72-3.48,3.46-6.02,6.75-6.66c-0.7-1.79-0.91-3.8-0.49-5.83
				c1.16-5.59,6.63-9.19,12.23-8.04c3.25,0.68,5.82,2.81,7.18,5.58c0.95-1.54,2.36-2.72,3.99-3.4c1.07-0.43,2.23-0.65,3.43-0.61
				c0.48,0.01,0.97,0.07,1.46,0.17c4.56,0.94,7.49,5.4,6.54,9.96c-0.24,1.16-0.71,2.22-1.35,3.13c0.75-0.05,1.53-0.01,2.3,0.15
				c0.59,0.12,1.15,0.3,1.68,0.55h0.01c1.44,0.62,2.65,1.62,3.53,2.85C65.6,61.41,66.18,63.81,65.68,66.23z"/>
		</g>
		<g>
			<polygon class="st2" points="60.09,74.93 60.09,81.77 54.18,85.18 48.27,81.77 48.27,74.93 52.26,72.62 53.25,72.04 54.17,71.51 
				56.85,73.06 			"/>
		</g>
		<g>
			<g>
				<polygon class="st2" points="48.17,87.44 48.17,94.28 42.26,97.69 36.35,94.28 36.35,87.44 40.34,85.13 41.33,84.55 
					42.25,84.02 44.93,85.57 				"/>
			</g>
		</g>
	</g>
	<path class="st3" d="M65.9,51.98c0,0-0.12,3.08,1.52,4.73c1.65,1.65,9.19,8.71,9.19,8.71s4.35-0.58,2.81-2.71
		c-1.55-2.13-6.39-9.39-8.23-9.87C69.36,52.35,65.9,51.98,65.9,51.98z"/>
	<g>
		<line class="st4" x1="65.83" y1="52.14" x2="65.83" y2="71.84"/>
		<path class="st5" d="M65.94,52.07l1.12,3.52c0.19,0.6,0.54,1.14,1,1.58l8.2,7.7c0.77,0.73,1.92,0.77,2.6,0.1l0.45-0.45
			c0.67-0.67,0.63-1.82-0.1-2.6l-7.7-8.2c-0.44-0.47-0.99-0.81-1.58-1l-3.52-1.12C66.11,51.5,65.85,51.76,65.94,52.07z"/>
		<path class="st4" d="M72.31,60.77c0,0,2.39-0.52,2.87-2.87"/>
		<path class="st4" d="M69.05,57.51c0,0,2.39-0.52,2.87-2.87"/>
		<path class="st4" d="M76,64.34c0,0,2.2-0.58,2.75-2.75"/>
	</g>
	<g>
		<path class="st6" d="M88.73,83.68l-7.39,12.81c-0.68,1.18,0.17,2.66,1.54,2.66h14.79c1.37,0,2.22-1.48,1.54-2.66l-7.39-12.81
			C91.12,82.49,89.42,82.49,88.73,83.68z"/>
		<g>
			<path class="st3" d="M89.41,94.91h1.73v1.77h-1.73V94.91z M89.44,87.39h1.65v6.45h-1.65V87.39z"/>
		</g>
	</g>
</g>
</svg>
