<?xml version="1.0" encoding="utf-8"?>
<!-- Generator: Adobe Illustrator 23.0.3, SVG Export Plug-In . SVG Version: 6.00 Build 0)  -->
<svg version="1.1" xmlns="http://www.w3.org/2000/svg" xmlns:xlink="http://www.w3.org/1999/xlink" x="0px" y="0px"
	 viewBox="0 0 107 107" style="enable-background:new 0 0 107 107;" xml:space="preserve">
<style type="text/css">
	.st0{fill:#EBCB13;}
	.st1{fill:#FFFFFF;}
	.st2{fill:none;stroke:#000000;stroke-width:2;stroke-linecap:round;stroke-linejoin:round;stroke-miterlimit:10;}
	.st3{fill:none;stroke:#000000;stroke-width:2;stroke-miterlimit:10;}
	.st4{fill:#FF1D25;}
</style>
<g id="Ebene_2">
</g>
<g id="Ebene_1">
	<g>
		<path class="st0" d="M67.26,54.3l18.22,0.62l0.07-2.11l-18.22-0.62L67.26,54.3z M55.65,66.96l-2.06,0.3l2.56,18.31l2.06-0.3
			L55.65,66.96z M44.07,64.31l-9.64,15.7l1.76,1.12l9.64-15.7L44.07,64.31z M38.6,56.24l-17.33,5.74l0.65,2l17.33-5.74L38.6,56.24z
			 M39.85,45.82l-16.91-6.91l-0.78,1.96l16.91,6.9L39.85,45.82z M45.29,39.92l1.83-0.99l-8.58-16.32l-1.83,0.99L45.29,39.92z
			 M57.06,38.39l3.77-18.1l-2.03-0.44l-3.76,18.1L57.06,38.39z M61.24,52.28c0-4.85-3.88-8.78-8.66-8.78s-8.66,3.93-8.66,8.78
			s3.88,8.78,8.66,8.78S61.24,57.13,61.24,52.28 M64.13,61.73l-1.39,1.57l13.56,12.36l1.39-1.57L64.13,61.73z M65.01,44.46
			l14.35-11.41l-1.28-1.66L63.73,42.8L65.01,44.46z"/>
		<g>
			<path class="st1" d="M71.87,67.38c0,0-0.12,3.08,1.52,4.73c1.65,1.65,9.19,8.71,9.19,8.71s4.35-0.58,2.81-2.71
				c-1.55-2.13-6.39-9.39-8.23-9.87C75.33,67.75,71.87,67.38,71.87,67.38z"/>
			<g>
				<line class="st2" x1="71.75" y1="67.45" x2="71.75" y2="87.14"/>
				<path class="st3" d="M71.87,67.38l1.12,3.52c0.19,0.6,0.54,1.14,1,1.58l8.2,7.7c0.77,0.73,1.92,0.77,2.6,0.1l0.45-0.45
					c0.67-0.67,0.63-1.82-0.1-2.6l-7.7-8.2c-0.44-0.47-0.99-0.81-1.58-1l-3.52-1.12C72.04,66.8,71.77,67.07,71.87,67.38z"/>
				<path class="st2" d="M78.23,76.07c0,0,2.39-0.52,2.87-2.87"/>
				<path class="st2" d="M74.98,72.82c0,0,2.39-0.52,2.87-2.87"/>
				<path class="st2" d="M81.93,79.64c0,0,2.2-0.58,2.75-2.75"/>
			</g>
		</g>
	</g>
	<g>
		<path class="st4" d="M88.73,83.68l-7.39,12.81c-0.68,1.18,0.17,2.66,1.54,2.66h14.79c1.37,0,2.22-1.48,1.54-2.66l-7.39-12.81
			C91.12,82.49,89.42,82.49,88.73,83.68z"/>
		<g>
			<path class="st1" d="M89.41,94.91h1.73v1.77h-1.73V94.91z M89.44,87.39h1.65v6.45h-1.65V87.39z"/>
		</g>
	</g>
</g>
</svg>
