<?xml version="1.0" encoding="utf-8"?>
<!-- Generator: Adobe Illustrator 23.0.3, SVG Export Plug-In . SVG Version: 6.00 Build 0)  -->
<svg version="1.1" xmlns="http://www.w3.org/2000/svg" xmlns:xlink="http://www.w3.org/1999/xlink" x="0px" y="0px"
	 viewBox="0 0 107 107" style="enable-background:new 0 0 107 107;" xml:space="preserve">
<style type="text/css">
	.st0{fill:#EBCB13;}
	.st1{fill:#E6E6E6;}
	.st2{fill:#CDE3FF;}
	.st3{fill:#FFFFFF;}
	.st4{fill:none;stroke:#000000;stroke-width:2;stroke-linecap:round;stroke-linejoin:round;stroke-miterlimit:10;}
	.st5{fill:none;stroke:#000000;stroke-width:2;stroke-miterlimit:10;}
</style>
<g id="Ebene_2">
</g>
<g id="Ebene_1">
	<g>
		<path class="st0" d="M65.86,47.99c0,3.4-1.91,6.35-4.7,7.81c-0.01-0.04-0.01-0.07-0.02-0.11c-0.23-1.65-0.81-3.25-1.75-4.68
			c-1.68-2.55-4.25-4.3-7.24-4.91c-0.68-0.14-1.35-0.22-1.96-0.23c-0.13-0.01-0.26-0.01-0.38-0.01c-0.34,0-0.67,0.02-1,0.05
			c0.92-3.85,4.32-6.71,8.4-6.71C61.99,39.2,65.86,43.14,65.86,47.99z"/>
		<polygon class="st0" points="51.75,34.64 43.17,18.32 41.34,19.31 49.92,35.63 		"/>
		<polygon class="st0" points="65.45,16 63.42,15.57 59.65,33.66 61.69,34.1 		"/>
		<polygon class="st0" points="83.99,28.76 82.71,27.1 68.36,38.51 69.64,40.17 		"/>
		
			<rect x="79.98" y="40.15" transform="matrix(0.0332 -0.9994 0.9994 0.0332 29.1072 128.6133)" class="st0" width="2.11" height="18.23"/>
		<polygon class="st0" points="44.48,41.53 27.57,34.62 26.79,36.58 43.7,43.48 		"/>
	</g>
	<g>
		<path class="st1" d="M65.68,72.48c0,0.01,0,0.01,0,0.02c-0.24,1.16-0.7,2.22-1.36,3.14c-1,1.47-2.45,2.58-4.12,3.17l-4.98-2.87
			l-1.05-0.61l-1.05,0.61l-5.9,3.43l-1.05,0.6v5.28c-2.04,0.87-4.36,1.15-6.7,0.67c-4.79-0.99-8.23-4.91-8.86-9.5
			c-1.9,1.48-4.42,2.16-6.97,1.63c-4.62-0.96-7.6-5.48-6.64-10.11c0.72-3.48,3.46-6.02,6.75-6.66c-0.7-1.79-0.91-3.8-0.49-5.83
			c1.16-5.59,6.63-9.19,12.23-8.04c3.25,0.68,5.82,2.81,7.18,5.58c0.95-1.54,2.36-2.72,3.99-3.4c1.07-0.43,2.23-0.65,3.43-0.61
			c0.48,0.01,0.97,0.07,1.46,0.17c4.56,0.94,7.49,5.4,6.54,9.96c-0.24,1.16-0.71,2.22-1.35,3.13c0.75-0.05,1.53-0.01,2.3,0.15
			c0.59,0.12,1.15,0.3,1.68,0.55h0.01c1.44,0.62,2.65,1.62,3.53,2.85C65.6,67.66,66.18,70.06,65.68,72.48z"/>
	</g>
	<g>
		<polygon class="st2" points="60.09,81.18 60.09,88.02 54.18,91.43 48.27,88.02 48.27,81.18 52.26,78.87 53.25,78.29 54.17,77.76 
			56.85,79.31 		"/>
	</g>
	<g>
		<path class="st3" d="M66.17,56.83c0,0-0.12,3.08,1.52,4.73c1.65,1.65,9.19,8.71,9.19,8.71s4.35-0.58,2.81-2.71
			c-1.55-2.13-6.39-9.39-8.23-9.87C69.62,57.2,66.17,56.83,66.17,56.83z"/>
		<g>
			<line class="st4" x1="66.05" y1="56.9" x2="66.05" y2="76.6"/>
			<path class="st5" d="M66.17,56.83l1.12,3.52c0.19,0.6,0.54,1.14,1,1.58l8.2,7.7c0.77,0.73,1.92,0.77,2.6,0.1l0.45-0.45
				c0.67-0.67,0.63-1.82-0.1-2.6l-7.7-8.2c-0.44-0.47-0.99-0.81-1.58-1l-3.52-1.12C66.33,56.26,66.07,56.52,66.17,56.83z"/>
			<path class="st4" d="M72.53,65.52c0,0,2.39-0.52,2.87-2.87"/>
			<path class="st4" d="M69.27,62.27c0,0,2.39-0.52,2.87-2.87"/>
			<path class="st4" d="M76.22,69.1c0,0,2.2-0.58,2.75-2.75"/>
		</g>
	</g>
</g>
</svg>
