<?xml version="1.0" encoding="utf-8"?>
<!-- Generator: Adobe Illustrator 23.0.3, SVG Export Plug-In . SVG Version: 6.00 Build 0)  -->
<svg version="1.1" xmlns="http://www.w3.org/2000/svg" xmlns:xlink="http://www.w3.org/1999/xlink" x="0px" y="0px"
	 viewBox="0 0 107 107" style="enable-background:new 0 0 107 107;" xml:space="preserve">
<style type="text/css">
	.st0{fill:#FFFFFF;}
	.st1{fill:none;stroke:#000000;stroke-width:2;stroke-linecap:round;stroke-linejoin:round;stroke-miterlimit:10;}
	.st2{fill:none;stroke:#000000;stroke-width:2;stroke-miterlimit:10;}
</style>
<g id="Ebene_2">
</g>
<g id="Ebene_1">
	<g>
		<path class="st0" d="M46.63,43.87c0,0-0.12,3.08,1.52,4.73s9.19,8.71,9.19,8.71s4.35-0.58,2.81-2.71s-6.39-9.39-8.23-9.87
			C50.09,44.24,46.63,43.87,46.63,43.87z"/>
		<g>
			<line class="st1" x1="46.51" y1="43.94" x2="46.51" y2="63.63"/>
			<path class="st2" d="M46.63,43.87l1.12,3.52c0.19,0.6,0.54,1.14,1,1.58l8.2,7.7c0.77,0.73,1.92,0.77,2.6,0.1L60,56.31
				c0.67-0.67,0.63-1.82-0.1-2.6l-7.7-8.2c-0.44-0.47-0.99-0.81-1.58-1l-3.52-1.12C46.8,43.29,46.53,43.56,46.63,43.87z"/>
			<path class="st1" d="M52.99,52.56c0,0,2.39-0.52,2.87-2.87"/>
			<path class="st1" d="M49.74,49.31c0,0,2.39-0.52,2.87-2.87"/>
			<path class="st1" d="M56.69,56.13c0,0,2.2-0.58,2.75-2.75"/>
		</g>
	</g>
</g>
</svg>
