<?xml version="1.0" encoding="utf-8"?>
<!-- Generator: Adobe Illustrator 23.0.3, SVG Export Plug-In . SVG Version: 6.00 Build 0)  -->
<svg version="1.1" xmlns="http://www.w3.org/2000/svg" xmlns:xlink="http://www.w3.org/1999/xlink" x="0px" y="0px"
	 viewBox="0 0 107 107" style="enable-background:new 0 0 107 107;" xml:space="preserve">
<style type="text/css">
	.st0{fill:#E6E6E6;}
	.st1{fill:#CDE3FF;}
	.st2{fill:none;stroke:#FF1D25;stroke-width:2;stroke-linecap:round;stroke-linejoin:round;stroke-miterlimit:10;}
	.st3{fill:none;stroke:#FF1D25;stroke-width:2;stroke-miterlimit:10;}
</style>
<g id="Ebene_2">
</g>
<g id="Ebene_1">
	<g>
		<g>
			<path class="st0" d="M77.84,50.41c0,0.01,0,0.01,0,0.02c-0.24,1.16-0.7,2.22-1.36,3.14c-1,1.47-2.45,2.58-4.12,3.17l-4.98-2.87
				l-1.05-0.61l-1.05,0.61l-5.9,3.43l-1.05,0.6v5.28c-2.04,0.87-4.36,1.15-6.7,0.67c-4.79-0.99-8.23-4.91-8.86-9.5
				c-1.9,1.48-4.42,2.16-6.97,1.63c-4.62-0.96-7.6-5.48-6.64-10.11c0.72-3.48,3.46-6.02,6.75-6.66c-0.7-1.79-0.91-3.8-0.49-5.83
				c1.16-5.59,6.63-9.19,12.23-8.04c3.25,0.68,5.82,2.81,7.18,5.58c0.95-1.54,2.36-2.72,3.99-3.4c1.07-0.43,2.23-0.65,3.43-0.61
				c0.48,0.01,0.97,0.07,1.46,0.17c4.56,0.94,7.49,5.4,6.54,9.96c-0.24,1.16-0.71,2.22-1.35,3.13c0.75-0.05,1.53-0.01,2.3,0.15
				c0.59,0.12,1.15,0.3,1.68,0.55h0.01c1.44,0.62,2.65,1.62,3.53,2.85C77.76,45.59,78.34,47.99,77.84,50.41z"/>
		</g>
		<g>
			<polygon class="st1" points="72.25,59.11 72.25,65.95 66.34,69.36 60.43,65.95 60.43,59.11 64.42,56.8 65.41,56.22 66.33,55.69 
				69.01,57.24 			"/>
		</g>
		<g>
			<polygon class="st1" points="60.32,71.63 60.32,78.47 54.41,81.88 48.5,78.47 48.5,71.63 52.49,69.32 53.48,68.74 54.4,68.21 
				57.08,69.76 			"/>
		</g>
	</g>
	<g>
		<line class="st2" x1="77.86" y1="36.85" x2="77.86" y2="56.55"/>
		<path class="st3" d="M77.98,36.78l1.12,3.52c0.19,0.6,0.54,1.14,1,1.58l8.2,7.7c0.77,0.73,1.92,0.77,2.6,0.1l0.45-0.45
			c0.67-0.67,0.63-1.82-0.1-2.6l-7.7-8.2c-0.44-0.47-0.99-0.81-1.58-1l-3.52-1.12C78.14,36.21,77.88,36.47,77.98,36.78z"/>
		<path class="st2" d="M84.34,45.48c0,0,2.39-0.52,2.87-2.87"/>
		<path class="st2" d="M81.09,42.22c0,0,2.39-0.52,2.87-2.87"/>
		<path class="st2" d="M88.03,49.05c0,0,2.2-0.58,2.75-2.75"/>
	</g>
</g>
</svg>
