<?xml version="1.0" encoding="utf-8"?>
<!-- Generator: Adobe Illustrator 23.0.3, SVG Export Plug-In . SVG Version: 6.00 Build 0)  -->
<svg version="1.1" xmlns="http://www.w3.org/2000/svg" xmlns:xlink="http://www.w3.org/1999/xlink" x="0px" y="0px"
	 viewBox="0 0 107 107" style="enable-background:new 0 0 107 107;" xml:space="preserve">
<style type="text/css">
	.st0{fill:#EBCB13;}
	.st1{fill:#E6E6E6;}
	.st2{fill:#CDE3FF;}
	.st3{fill:#FFFFFF;}
	.st4{fill:none;stroke:#FF1D25;stroke-width:2;stroke-linecap:round;stroke-linejoin:round;stroke-miterlimit:10;}
	.st5{fill:none;stroke:#FF1D25;stroke-width:2;stroke-miterlimit:10;}
	.st6{fill:#FF1D25;}
</style>
<g id="Ebene_2">
</g>
<g id="Ebene_1">
	<g>
		<path class="st0" d="M66.66,37.07c-4.67-6.49-4.68-14.9-0.66-21.17c-2.18,0.55-4.29,1.51-6.22,2.9
			c-4.83,3.48-7.45,8.88-7.63,14.45c0.44-0.05,0.88-0.09,1.32-0.09c0.13,0,0.25,0,0.38,0.01c0.61,0.01,1.28,0.09,1.96,0.23
			c3,0.62,5.57,2.36,7.24,4.92c1.68,2.55,2.26,5.6,1.63,8.6c-0.01,0.03-0.01,0.07-0.02,0.1c0.11,0.04,0.22,0.08,0.32,0.12H65
			l0.58,0.24c1.91,0.82,3.57,2.16,4.78,3.86c0.37,0.51,0.68,1.06,0.95,1.62c3.65-0.05,7.32-1.16,10.49-3.45
			c1.93-1.39,3.51-3.09,4.72-4.98C79.31,46.23,71.33,43.55,66.66,37.07z"/>
		<g>
			<path class="st1" d="M69.33,59.62c0,0.01,0,0.01,0,0.02c-0.24,1.16-0.7,2.22-1.36,3.14c-1,1.47-2.45,2.58-4.12,3.17l-4.98-2.87
				l-1.05-0.61l-1.05,0.61l-5.9,3.43l-1.05,0.6v5.28c-2.04,0.87-4.36,1.15-6.7,0.67c-4.79-0.99-8.23-4.91-8.86-9.5
				c-1.9,1.48-4.42,2.16-6.97,1.63c-4.62-0.96-7.6-5.48-6.64-10.11c0.72-3.48,3.46-6.02,6.75-6.66c-0.7-1.79-0.91-3.8-0.49-5.83
				c1.16-5.59,6.63-9.19,12.23-8.04c3.25,0.68,5.82,2.81,7.18,5.58c0.95-1.54,2.36-2.72,3.99-3.4c1.07-0.43,2.23-0.65,3.43-0.61
				c0.48,0.01,0.97,0.07,1.46,0.17c4.56,0.94,7.49,5.4,6.54,9.96c-0.24,1.16-0.71,2.22-1.35,3.13c0.75-0.05,1.53-0.01,2.3,0.15
				c0.59,0.12,1.15,0.3,1.68,0.55h0.01c1.44,0.62,2.65,1.62,3.53,2.85C69.25,54.8,69.83,57.2,69.33,59.62z"/>
		</g>
		<g>
			<polygon class="st2" points="63.74,68.32 63.74,75.16 57.83,78.57 51.92,75.16 51.92,68.32 55.91,66.01 56.9,65.43 57.82,64.9 
				60.5,66.45 			"/>
		</g>
		<g>
			<g>
				<polygon class="st2" points="51.81,80.85 51.81,87.69 45.89,91.1 39.98,87.69 39.98,80.85 43.97,78.54 44.96,77.96 45.88,77.43 
					48.57,78.98 				"/>
			</g>
		</g>
	</g>
	<g>
		<path class="st3" d="M70.31,47.42c0,0-0.12,3.08,1.52,4.73c1.65,1.65,9.19,8.71,9.19,8.71s4.35-0.58,2.81-2.71
			c-1.55-2.13-6.39-9.39-8.23-9.87C73.77,47.79,70.31,47.42,70.31,47.42z"/>
		<g>
			<line class="st4" x1="70.24" y1="47.59" x2="70.24" y2="67.28"/>
			<path class="st5" d="M70.36,47.52l1.12,3.52c0.19,0.6,0.54,1.14,1,1.58l8.2,7.7c0.77,0.73,1.92,0.77,2.6,0.1l0.45-0.45
				c0.67-0.67,0.63-1.82-0.1-2.6l-7.7-8.2c-0.44-0.47-0.99-0.81-1.58-1l-3.52-1.12C70.52,46.94,70.26,47.21,70.36,47.52z"/>
			<path class="st4" d="M76.72,56.21c0,0,2.39-0.52,2.87-2.87"/>
			<path class="st4" d="M73.47,52.96c0,0,2.39-0.52,2.87-2.87"/>
			<path class="st4" d="M80.41,59.78c0,0,2.2-0.58,2.75-2.75"/>
		</g>
	</g>
	<g>
		<path class="st6" d="M88.73,83.68l-7.39,12.81c-0.68,1.18,0.17,2.66,1.54,2.66h14.79c1.37,0,2.22-1.48,1.54-2.66l-7.39-12.81
			C91.12,82.49,89.42,82.49,88.73,83.68z"/>
		<g>
			<path class="st3" d="M89.41,94.91h1.73v1.77h-1.73V94.91z M89.44,87.39h1.65v6.45h-1.65V87.39z"/>
		</g>
	</g>
</g>
</svg>
