<?xml version="1.0" encoding="utf-8"?>
<!-- Generator: Adobe Illustrator 23.0.3, SVG Export Plug-In . SVG Version: 6.00 Build 0)  -->
<svg version="1.1" xmlns="http://www.w3.org/2000/svg" xmlns:xlink="http://www.w3.org/1999/xlink" x="0px" y="0px"
	 viewBox="0 0 107 107" style="enable-background:new 0 0 107 107;" xml:space="preserve">
<style type="text/css">
	.st0{fill:#E6E6E6;}
	.st1{fill:#CDE3FF;}
	.st2{fill:#EBCB13;}
	.st3{fill:none;stroke:#FF1D25;stroke-width:2;stroke-linecap:round;stroke-linejoin:round;stroke-miterlimit:10;}
	.st4{fill:none;stroke:#FF1D25;stroke-width:2;stroke-miterlimit:10;}
</style>
<g id="Ebene_2">
</g>
<g id="Ebene_1">
	<g>
		<g>
			<g>
				<path class="st0" d="M44.03,58.59l-0.01,0.02c-0.01,0-0.01,0-0.01-0.01L44.03,58.59z"/>
				<path class="st0" d="M77.84,50.87c0,0.01,0,0.01,0,0.02c-0.24,1.16-0.7,2.22-1.36,3.14c-1.87,2.73-5.28,4.22-8.74,3.5
					c-0.04-0.01-0.08-0.02-0.12-0.03c-0.72-1.15-1.37-2.34-1.72-3.31l-1.07-3.01l-1.08,3.01c-1.02,2.89-4.77,7.72-4.77,7.72
					c-0.42,0.56-0.76,1.19-1,1.86c0,0,0,0,0,0.01c-1.95,0.76-4.14,0.99-6.35,0.53c-1.91-0.39-3.62-1.26-5.01-2.46l4.18-6.98
					c0.21-0.31,0.33-0.69,0.33-1.1c0-1.1-0.89-1.99-1.98-2h-0.03c-0.05,0-0.11,0.01-0.17,0.01c-0.31,0.03-0.59,0.12-0.84,0.27
					l-4.48,2.54l3.14-5.23c0.31-0.52,0.37-1.15,0.16-1.72c-0.21-0.57-0.67-1.02-1.25-1.21l-1.84-0.61c-0.21-0.07-0.42-0.1-0.63-0.1
					c-0.69,0-1.35,0.36-1.72,0.97l-5.83,9.71c-4.54-1.01-7.45-5.49-6.5-10.07c0.72-3.48,3.46-6.02,6.75-6.66
					c-0.7-1.79-0.91-3.8-0.49-5.83c1.16-5.59,6.63-9.19,12.23-8.04c3.25,0.68,5.82,2.81,7.18,5.58c0.95-1.54,2.36-2.72,3.99-3.4
					c1.07-0.43,2.23-0.65,3.43-0.61c0.48,0.01,0.97,0.07,1.46,0.17c4.56,0.94,7.49,5.4,6.54,9.96c-0.24,1.16-0.71,2.22-1.35,3.13
					c0.75-0.05,1.53-0.01,2.3,0.15c0.59,0.12,1.15,0.3,1.68,0.55h0.01c1.44,0.62,2.65,1.62,3.53,2.85
					C77.76,46.05,78.34,48.45,77.84,50.87z"/>
			</g>
			<path class="st1" d="M69.79,66.06c0,2.63-2.24,4.77-5,4.77s-5-2.14-5-4.77c0-1.04,0.35-2,0.94-2.78c0,0,1.84-2.36,2.84-4.31
				c0.19-0.37,0.35-0.73,0.47-1.05l0.75-2.09l0.23,0.64l0.51,1.45c0.72,2.01,3.32,5.36,3.32,5.36
				C69.44,64.06,69.79,65.02,69.79,66.06z"/>
			<path class="st1" d="M59.21,76.64c0,2.63-2.24,4.77-5,4.77s-5-2.14-5-4.77c0-1.04,0.35-2,0.94-2.78c0,0,1.84-2.36,2.84-4.31
				c0.19-0.37,0.35-0.73,0.47-1.05l0.75-2.09l0.23,0.64l0.51,1.45c0.72,2.01,3.32,5.36,3.32,5.36
				C58.86,74.64,59.21,75.6,59.21,76.64z"/>
		</g>
		<g>
			<g>
				<path class="st2" d="M44.03,58.59l-0.01,0.02c-0.01,0-0.01,0-0.01-0.01L44.03,58.59z"/>
				<path class="st2" d="M44.01,58.6c0,0.01,0,0.01,0.01,0.01l0.01-0.02L44.01,58.6z"/>
				<polygon class="st2" points="49.13,53.77 45.18,60.37 37.04,73.95 35.34,73.1 44.02,58.61 44.03,58.59 44.01,58.6 32.89,64.9 
					37.87,56.61 43.21,47.72 45.05,48.33 40.37,56.13 37.99,60.08 43.33,57.06 				"/>
			</g>
		</g>
	</g>
	<g>
		<line class="st3" x1="77.86" y1="36.85" x2="77.86" y2="56.55"/>
		<path class="st4" d="M77.98,36.78l1.12,3.52c0.19,0.6,0.54,1.14,1,1.58l8.2,7.7c0.77,0.73,1.92,0.77,2.6,0.1l0.45-0.45
			c0.67-0.67,0.63-1.82-0.1-2.6l-7.7-8.2c-0.44-0.47-0.99-0.81-1.58-1l-3.52-1.12C78.14,36.21,77.88,36.47,77.98,36.78z"/>
		<path class="st3" d="M84.34,45.48c0,0,2.39-0.52,2.87-2.87"/>
		<path class="st3" d="M81.09,42.22c0,0,2.39-0.52,2.87-2.87"/>
		<path class="st3" d="M88.03,49.05c0,0,2.2-0.58,2.75-2.75"/>
	</g>
</g>
</svg>
