<?xml version="1.0" encoding="utf-8"?>
<!-- Generator: Adobe Illustrator 23.0.3, SVG Export Plug-In . SVG Version: 6.00 Build 0)  -->
<svg version="1.1" xmlns="http://www.w3.org/2000/svg" xmlns:xlink="http://www.w3.org/1999/xlink" x="0px" y="0px"
	 viewBox="0 0 107 107" style="enable-background:new 0 0 107 107;" xml:space="preserve">
<style type="text/css">
	.st0{fill:#EBCB13;}
	.st1{fill:#f4f4f4;}
	.st2{fill:#FF1D25;}
	.st3{fill:#FFFFFF;}
</style>
<g id="Ebene_2">
</g>
<g id="Ebene_1">
	<g>
		<g>
			<path class="st0" d="M65.86,50.62c0,3.4-1.91,6.35-4.7,7.81c-0.01-0.04-0.01-0.07-0.02-0.11c-0.23-1.65-0.81-3.25-1.75-4.68
				c-1.68-2.55-4.25-4.3-7.24-4.91c-0.68-0.14-1.35-0.22-1.96-0.23c-0.13-0.01-0.26-0.01-0.38-0.01c-0.34,0-0.67,0.02-1,0.05
				c0.92-3.85,4.32-6.71,8.4-6.71C61.99,41.83,65.86,45.77,65.86,50.62z"/>
			<polygon class="st0" points="51.75,37.27 43.17,20.95 41.34,21.94 49.92,38.26 			"/>
			<polygon class="st0" points="65.45,18.64 63.42,18.2 59.66,36.3 61.69,36.73 			"/>
			<polygon class="st0" points="83.99,31.4 82.71,29.74 68.36,41.14 69.64,42.8 			"/>
			<polygon class="st0" points="67.38,61.64 80.94,74 82.33,72.43 68.77,60.07 			"/>
			
				<rect x="79.98" y="42.78" transform="matrix(0.0332 -0.9994 0.9994 0.0332 26.4732 131.1618)" class="st0" width="2.11" height="18.23"/>
			<polygon class="st0" points="44.48,44.16 27.57,37.26 26.79,39.22 43.7,46.12 			"/>
		</g>
		<g>
			<path class="st1" d="M65.68,75.12c0,0.01,0,0.01,0,0.02c-0.24,1.16-0.7,2.22-1.36,3.14c-1.87,2.73-5.28,4.22-8.74,3.5
				c-1.1-0.23-2.11-0.66-3-1.25c-1.55,5.67-7.26,9.24-13.11,8.03c-4.79-0.99-8.23-4.91-8.86-9.5c-1.9,1.48-4.42,2.16-6.97,1.63
				c-4.62-0.96-7.6-5.48-6.64-10.11c0.72-3.48,3.46-6.02,6.75-6.66c-0.7-1.79-0.91-3.8-0.49-5.83c1.16-5.59,6.63-9.19,12.23-8.04
				c3.25,0.68,5.82,2.81,7.18,5.58c0.95-1.54,2.36-2.72,3.99-3.4c1.07-0.43,2.23-0.65,3.43-0.61c0.48,0.01,0.97,0.07,1.46,0.17
				c4.56,0.94,7.49,5.4,6.54,9.96c-0.24,1.16-0.71,2.22-1.35,3.13c0.75-0.05,1.53-0.01,2.3,0.15c0.59,0.12,1.15,0.3,1.68,0.55h0.01
				c1.44,0.62,2.65,1.62,3.53,2.85C65.6,70.3,66.18,72.7,65.68,75.12z"/>
		</g>
	</g>
	<g>
		<path class="st2" d="M88.73,83.68l-7.39,12.81c-0.68,1.18,0.17,2.66,1.54,2.66h14.79c1.37,0,2.22-1.48,1.54-2.66l-7.39-12.81
			C91.12,82.49,89.42,82.49,88.73,83.68z"/>
		<g>
			<path class="st3" d="M89.41,94.91h1.73v1.77h-1.73V94.91z M89.44,87.39h1.65v6.45h-1.65V87.39z"/>
		</g>
	</g>
</g>
</svg>
