<?xml version="1.0" encoding="utf-8"?>
<!-- Generator: Adobe Illustrator 23.0.3, SVG Export Plug-In . SVG Version: 6.00 Build 0)  -->
<svg version="1.1" xmlns="http://www.w3.org/2000/svg" xmlns:xlink="http://www.w3.org/1999/xlink" x="0px" y="0px"
	 viewBox="0 0 107 107" style="enable-background:new 0 0 107 107;" xml:space="preserve">
<style type="text/css">
	.st0{fill:#f4f4f4;}
</style>
<g id="Ebene_2">
</g>
<g id="Ebene_1">
	<g>
		<path class="st0" d="M95.06,57.51c0,5.47-4.43,9.9-9.9,9.9c-2.72,0-5.18-1.1-6.96-2.87c-1.55,3.46-5.01,5.87-9.04,5.87
			c-2.37,0-4.55-0.83-6.25-2.22c0.22-0.58,0.4-1.18,0.53-1.81c1.18-5.72-2.22-11.33-7.67-13.02c0.03-0.13,0.05-0.25,0.08-0.38
			c1.24-6-2.64-11.9-8.64-13.15c-0.1-0.02-0.21-0.04-0.31-0.05c1.8-1.95,4.39-3.17,7.26-3.17c1.42,0,2.77,0.31,4,0.85
			c-0.63-1-1-2.18-1-3.45c0-3.59,2.91-6.5,6.5-6.5s6.5,2.91,6.5,6.5c0,0.35-0.04,0.69-0.09,1.02c1.49-0.9,3.23-1.42,5.09-1.42
			c5.47,0,9.9,4.43,9.9,9.9c0,1.49-0.34,2.89-0.92,4.15c0.33-0.03,0.67-0.05,1.02-0.05C90.63,47.61,95.06,52.04,95.06,57.51z"/>
		<g>
			<path class="st0" d="M60.79,65.81c0,0.01,0,0.01,0,0.02c-0.24,1.16-0.7,2.22-1.36,3.14c-1.87,2.73-5.28,4.22-8.74,3.5
				c-1.1-0.23-2.11-0.66-3-1.25c-1.55,5.67-7.26,9.24-13.11,8.03c-4.79-0.99-8.23-4.91-8.86-9.5c-1.9,1.48-4.42,2.16-6.97,1.63
				c-4.62-0.96-7.6-5.48-6.64-10.11c0.72-3.48,3.46-6.02,6.75-6.66c-0.7-1.79-0.91-3.8-0.49-5.83c1.16-5.59,6.63-9.19,12.23-8.04
				c3.25,0.68,5.82,2.81,7.18,5.58c0.95-1.54,2.36-2.72,3.99-3.4c1.07-0.43,2.23-0.65,3.43-0.61c0.48,0.01,0.97,0.07,1.46,0.17
				c4.56,0.94,7.49,5.4,6.54,9.96c-0.24,1.16-0.71,2.22-1.35,3.13c0.75-0.05,1.53-0.01,2.3,0.15c0.59,0.12,1.15,0.3,1.68,0.55h0.01
				c1.44,0.62,2.65,1.62,3.53,2.85C60.71,60.99,61.29,63.39,60.79,65.81z"/>
		</g>
	</g>
</g>
</svg>
