<?xml version="1.0" encoding="utf-8"?>
<!-- Generator: Adobe Illustrator 24.0.2, SVG Export Plug-In . SVG Version: 6.00 Build 0)  -->
<svg version="1.1" id="Ebene_1" xmlns="http://www.w3.org/2000/svg" xmlns:xlink="http://www.w3.org/1999/xlink" x="0px" y="0px"
	 viewBox="0 0 158 117" style="enable-background:new 0 0 158 117;" xml:space="preserve">
<style type="text/css">
	.st0{enable-background:new    ;}
	.st1{fill:#7A9D34;}
	.st2{opacity:0.15;}
</style>
<title>Navigation_Icons</title>
<g>
	<g id="Ebene_1_1_">
		<g class="st0">
			<path class="st1" d="M45.7,101.5L45.7,101.5c0,0.9-0.3,1.6-0.8,2.1s-1.3,0.8-2.3,0.8c-1,0-1.8-0.3-2.4-1s-0.9-1.5-0.9-2.6v-1.6
				c0-1,0.3-1.9,0.9-2.6s1.4-1,2.4-1c1,0,1.8,0.3,2.4,0.8s0.9,1.2,0.8,2.1l0,0h-1.4c0-0.6-0.2-1-0.5-1.3s-0.8-0.5-1.4-0.5
				c-0.6,0-1,0.2-1.4,0.7s-0.5,1-0.5,1.7v1.6c0,0.7,0.2,1.3,0.5,1.7s0.8,0.7,1.4,0.7c0.6,0,1-0.2,1.3-0.5s0.5-0.7,0.5-1.3H45.7z"/>
		</g>
		<g class="st0">
			<path class="st1" d="M55,100.8c0,1-0.3,1.9-1,2.6s-1.5,1-2.6,1c-1,0-1.8-0.3-2.5-1s-1-1.5-1-2.6v-1.5c0-1,0.3-1.9,1-2.6
				s1.5-1,2.5-1c1,0,1.9,0.3,2.5,1s1,1.6,1,2.6V100.8z M53.6,99.2c0-0.7-0.2-1.3-0.6-1.8s-0.9-0.7-1.5-0.7c-0.6,0-1.1,0.2-1.5,0.7
				s-0.5,1-0.5,1.8v1.5c0,0.7,0.2,1.3,0.5,1.8s0.9,0.7,1.5,0.7c0.7,0,1.2-0.2,1.5-0.7s0.6-1,0.6-1.8V99.2z"/>
		</g>
		<g class="st0">
			<path class="st1" d="M62,102.3L62,102.3l2.5-6.6h1.8v8.5h-1.4v-6.1l0,0l-2.3,6.1h-1L59.2,98l0,0v6.2h-1.4v-8.5h1.9L62,102.3z"/>
			<path class="st1" d="M73.7,102.3L73.7,102.3l2.5-6.6H78v8.5h-1.4v-6.1l0,0l-2.3,6.1h-1L70.8,98l0,0v6.2h-1.4v-8.5h1.9L73.7,102.3
				z"/>
			<path class="st1" d="M87.5,95.8v5.6c0,0.9-0.3,1.7-0.9,2.2s-1.4,0.8-2.4,0.8c-1,0-1.8-0.3-2.4-0.8s-0.9-1.3-0.9-2.2v-5.6h1.4v5.6
				c0,0.6,0.2,1.1,0.5,1.4s0.8,0.5,1.3,0.5c0.6,0,1-0.2,1.4-0.5s0.5-0.8,0.5-1.4v-5.6H87.5z"/>
			<path class="st1" d="M97,104.3h-1.4l-3.8-6.1l0,0v6.1h-1.4v-8.5h1.4l3.8,6.1l0,0v-6.1H97V104.3z"/>
		</g>
		<g class="st0">
			<path class="st1" d="M101.6,104.3h-1.4v-8.5h1.4V104.3z"/>
		</g>
		<g class="st0">
			<path class="st1" d="M110.5,96.9h-2.6v7.4h-1.4v-7.4h-2.6v-1.1h6.7V96.9z"/>
		</g>
		<g class="st0">
			<path class="st1" d="M115.7,99.9l2.1-4.1h1.6l-3,5.5v3H115v-3.1l-2.9-5.5h1.6L115.7,99.9z"/>
		</g>
		<g class="st2">
			<g>
				<path class="st1" d="M88,52.4c0.5-5.2-1.6-9.3-6-12.3c-8-5.3-21.7-3.9-28.4,2.8c-4.4,4.5-4.8,10.6-0.8,15.3
					c1.1,1.2,2.3,2.3,3.6,3.2c1.5,1.1,2,1.9,1.1,3.6c-0.9,1.4-1.9,2.6-3.1,3.8C54,69.3,53.5,69.7,53,70c5.1,0.2,9.1-1.1,12.5-4.4
					c0.5-0.4,1.1-0.6,1.7-0.6c4.1,0.7,8.4,0.2,12.3-1.5C84.3,61.4,87.4,57.8,88,52.4 M108.4,51.9c-1.5-4.2-4.8-6.7-8.9-8.3
					c-3.3-1.3-6.9-1.8-10.5-1.5c3.8,4,5.2,8.5,4.1,13.6s-4.7,8.5-9.6,10.8c3.1,1.1,6.5,1.4,9.8,0.9c0.7,0,1.4,0.2,1.9,0.7
					c3,2.9,6.7,4,11,3.8c-0.9-0.6-1.8-1.3-2.6-2c-2.4-2.4-2.3-4.1,0.4-6.1C108.1,60.7,109.8,56.1,108.4,51.9"/>
			</g>
		</g>
	</g>
</g>
</svg>
