<svg id="Ebene_1" data-name="Ebene 1" xmlns="http://www.w3.org/2000/svg" viewBox="0 0 68.03 32.25"><defs><style>.cls-1{opacity:0.6;}.cls-2{fill:#fff;}</style></defs><g class="cls-1"><path class="cls-2" d="M211.53-175.72a7.34,7.34,0,0,0,7.34-7.33,7.34,7.34,0,0,0-7.34-7.34A7.34,7.34,0,0,0,204.2-183,7.33,7.33,0,0,0,211.53-175.72Z" transform="translate(-177.52 190.39)"/><path class="cls-2" d="M217.56-172.92H205.51a4.36,4.36,0,0,0-4.37,4.36v10.42h20.79v-10.42A4.37,4.37,0,0,0,217.56-172.92Z" transform="translate(-177.52 190.39)"/><path class="cls-2" d="M235.15-175.72a7.33,7.33,0,0,0,7.34-7.33,7.34,7.34,0,0,0-7.34-7.34,7.34,7.34,0,0,0-7.33,7.34A7.33,7.33,0,0,0,235.15-175.72Z" transform="translate(-177.52 190.39)"/><path class="cls-2" d="M241.18-172.92H229.13a4.37,4.37,0,0,0-4.37,4.36v10.42h20.79v-10.42A4.37,4.37,0,0,0,241.18-172.92Z" transform="translate(-177.52 190.39)"/><path class="cls-2" d="M187.91-175.72a7.34,7.34,0,0,0,7.34-7.33,7.34,7.34,0,0,0-7.34-7.34,7.34,7.34,0,0,0-7.34,7.34A7.34,7.34,0,0,0,187.91-175.72Z" transform="translate(-177.52 190.39)"/><path class="cls-2" d="M193.94-172.92H181.88a4.36,4.36,0,0,0-4.36,4.36v10.42H198.3v-10.42A4.36,4.36,0,0,0,193.94-172.92Z" transform="translate(-177.52 190.39)"/></g></svg>