<?xml version="1.0" encoding="utf-8"?>
<!-- Generator: Adobe Illustrator 24.0.2, SVG Export Plug-In . SVG Version: 6.00 Build 0)  -->
<svg version="1.1" id="Ebene_1" xmlns="http://www.w3.org/2000/svg" xmlns:xlink="http://www.w3.org/1999/xlink" x="0px" y="0px"
	 viewBox="0 0 158 117" style="enable-background:new 0 0 158 117;" xml:space="preserve">
<style type="text/css">
	.st0{enable-background:new    ;}
	.st1{fill:#7A9D34;}
	.st2{opacity:0.6;}
</style>
<title>Navigation_Icons</title>
<g>
	<g id="Ebene_1_1_">
		<g class="st0">
			<path class="st1" d="M22.3,103.1c-0.2,0.3-0.6,0.6-1.1,0.9s-1.2,0.4-2,0.4c-1,0-1.8-0.3-2.5-1s-1-1.5-1-2.5v-1.8
				c0-1,0.3-1.9,0.9-2.5s1.4-1,2.4-1c1,0,1.8,0.3,2.3,0.8s0.8,1.2,0.8,2l0,0h-1.4c0-0.5-0.1-0.9-0.4-1.2s-0.7-0.4-1.3-0.4
				c-0.6,0-1.1,0.2-1.4,0.7s-0.5,1-0.5,1.7v1.8c0,0.7,0.2,1.3,0.6,1.7s0.9,0.7,1.5,0.7c0.5,0,0.8-0.1,1.1-0.2s0.5-0.2,0.6-0.4V101
				h-1.8v-1.1h3.2V103.1z"/>
			<path class="st1" d="M29.7,102.3h-3l-0.7,2h-1.5l3-8.5h1.4l2.9,8.5h-1.5L29.7,102.3z M27.5,94.9h-1.4v-1.2h1.4V94.9z M27.1,101.1
				h2.2l-1.1-3.4h0L27.1,101.1z M30.3,94.9h-1.4v-1.2h1.4V94.9z"/>
		</g>
		<g class="st0">
			<path class="st1" d="M35.5,100.8v3.5h-1.4v-8.5H37c0.9,0,1.7,0.2,2.2,0.6s0.8,1,0.8,1.8c0,0.4-0.1,0.8-0.3,1.1s-0.6,0.6-1,0.8
				c0.5,0.2,0.8,0.4,1,0.7s0.3,0.8,0.3,1.3v0.7c0,0.3,0,0.5,0.1,0.7s0.2,0.4,0.3,0.5v0.1H39c-0.2-0.1-0.3-0.3-0.3-0.6
				s-0.1-0.5-0.1-0.8v-0.7c0-0.4-0.1-0.8-0.4-1s-0.6-0.4-1-0.4H35.5z M35.5,99.6H37c0.6,0,1-0.1,1.2-0.3s0.4-0.6,0.4-1
				c0-0.4-0.1-0.8-0.4-1s-0.7-0.4-1.2-0.4h-1.5V99.6z"/>
		</g>
		<g class="st0">
			<path class="st1" d="M48.6,96.9H46v7.4h-1.4v-7.4h-2.6v-1.1h6.7V96.9z"/>
		</g>
		<g class="st0">
			<path class="st1" d="M57.5,104.3h-1.4l-3.8-6.1l0,0v6.1h-1.4v-8.5h1.4l3.8,6.1l0,0v-6.1h1.4V104.3z"/>
		</g>
		<g class="st0">
			<path class="st1" d="M65.3,100.5H62v2.7h3.9v1.1h-5.4v-8.5h5.3v1.1H62v2.4h3.3V100.5z"/>
		</g>
		<g class="st0">
			<path class="st1" d="M69.8,100.8v3.5h-1.4v-8.5h2.9c0.9,0,1.7,0.2,2.2,0.6s0.8,1,0.8,1.8c0,0.4-0.1,0.8-0.3,1.1s-0.6,0.6-1,0.8
				c0.5,0.2,0.8,0.4,1,0.7s0.3,0.8,0.3,1.3v0.7c0,0.3,0,0.5,0.1,0.7s0.2,0.4,0.3,0.5v0.1h-1.5c-0.2-0.1-0.3-0.3-0.3-0.6
				s-0.1-0.5-0.1-0.8v-0.7c0-0.4-0.1-0.8-0.4-1s-0.6-0.4-1-0.4H69.8z M69.8,99.6h1.4c0.6,0,1-0.1,1.2-0.3s0.4-0.6,0.4-1
				c0-0.4-0.1-0.8-0.4-1s-0.7-0.4-1.2-0.4h-1.5V99.6z"/>
			<path class="st1" d="M83.9,104.3h-1.4l-3.8-6.1l0,0v6.1h-1.4v-8.5h1.4l3.8,6.1l0,0v-6.1h1.4V104.3z"/>
		</g>
		<g class="st0">
			<path class="st1" d="M93.8,102l0.2,0.6h0l0.1-0.6l2-6.2h1.5l-3,8.5h-1.4l-3-8.5h1.5L93.8,102z"/>
		</g>
		<g class="st0">
			<path class="st1" d="M106.4,100.8c0,1-0.3,1.9-1,2.6s-1.5,1-2.6,1c-1,0-1.8-0.3-2.5-1s-1-1.5-1-2.6v-1.5c0-1,0.3-1.9,1-2.6
				s1.5-1,2.5-1c1,0,1.9,0.3,2.5,1s1,1.6,1,2.6V100.8z M105,99.2c0-0.7-0.2-1.3-0.6-1.8s-0.9-0.7-1.5-0.7c-0.6,0-1.1,0.2-1.5,0.7
				s-0.5,1-0.5,1.8v1.5c0,0.7,0.2,1.3,0.5,1.8s0.9,0.7,1.5,0.7c0.7,0,1.2-0.2,1.5-0.7s0.6-1,0.6-1.8V99.2z"/>
		</g>
		<g class="st0">
			<path class="st1" d="M115.8,104.3h-1.4l-3.8-6.1l0,0v6.1h-1.4v-8.5h1.4l3.8,6.1l0,0v-6.1h1.4V104.3z"/>
		</g>
		<g class="st0">
			<path class="st1" d="M127.4,102.3h-3l-0.7,2h-1.5l3-8.5h1.4l2.9,8.5h-1.5L127.4,102.3z M124.8,101.1h2.2l-1.1-3.4h0L124.8,101.1z
				"/>
		</g>
		<g class="st0">
			<path class="st1" d="M135.3,101.2h-3.5v-1.1h3.5V101.2z"/>
		</g>
		<g class="st0">
			<path class="st1" d="M139.6,103.2h4.3v1.1h-6v-0.9l4.2-6.5H138v-1.1h5.8v0.9L139.6,103.2z"/>
		</g>
		<g class="st2">
			<path class="st1" d="M68.5,74.5c-0.7,2.5-3.2,3.9-5.7,3.3c-0.1,0-0.1,0-0.2-0.1c-2.5-0.8-3.8-3.5-3-6c0.8-2.4,3.3-3.8,5.8-3
				c0.1,0,0.2,0.1,0.3,0.1c0.9,0.4,2,0.4,2.8-0.1c0.7-0.3,1.5-0.6,2.2-0.9c-2.2-3.3-7-4.3-10.8-2.3c-4.2,2.3-5.8,7.6-3.5,11.8
				c1.9,3.5,6,5.3,9.9,4.3c4.3-1.1,7.1-5.4,6.2-9.8C71.3,72.8,69.1,72.3,68.5,74.5"/>
			<path class="st1" d="M64.1,73.6c-0.2,0.1-1-0.5-0.9-0.8c0-0.4,0.5-0.8,0.9-1.5c0.5,0.6,1,0.9,0.9,1.2
				C64.9,73.1,64.6,73.5,64.1,73.6 M119,39.6c0-0.1-0.1-0.3-0.1-0.5l0,0c-0.2-0.9-0.6-2.4-0.8-3c-0.2,0-1,0.3-1.2,0.2
				c-4.2,1.6-8.2,3-12.1,4.6c-0.3,0.1-0.6,0.6-0.8,1c-1.4,2.6-2.8,5.2-4.2,7.8c-0.7,1.4-1.5,2.7-2.4,4.3V42.2
				c-0.6,0-1.1,0.1-1.7,0.2L56,51.9c-1.6,0.4-3.2,0.8-4.8,1.3c-0.5,0.2-0.8,0.6-1,1.1c0,0.4,0.3,0.7,0.7,0.9
				c1.5,0.2,3.1,0.6,4.5,0.3c5.8-1.4,11.6-3,17.5-4.6c1.4-0.4,2.8-0.7,4.3-1l0.1,0.3l-21.3,6.2c3.4,2.4,6.7,4.7,9.9,7.1
				c2.2,1.8,5.3,2.3,8,1.3c4.3-1.5,8.4-3.3,12.6-5c3.5-1.5,6.8-3.2,10.2-4.8c0.5,4.5,1,8.9,1.5,13.3l-0.3,0.2
				c-1.7-2.2-3.5-4.4-5.2-6.6c-0.5-1-1.8-1.4-2.8-0.9c-0.1,0-0.1,0.1-0.2,0.1c-7.3,3.2-14.7,6.2-22.2,9.3c-0.7,0.2-1.5,0.2-2.2,0
				c-1.4-0.6-3,0-3.6,1.4c-0.5,1.3,0,2.8,1.2,3.4c1.3,0.7,3,0.3,3.7-1.1c0,0,0,0,0-0.1c0.4-0.6,0.9-1.1,1.5-1.4c7.1-3,14.3-6,21.4-9
				c0.6-0.4,1.5-0.2,1.9,0.4c0,0,0,0.1,0.1,0.1c1.7,2.2,3.4,4.4,5.1,6.6c0.7,0.9,1.8,1.6,2.8,0.9c0.7-0.7,1.1-1.6,1.1-2.6
				c-0.2-3-0.6-5.9-1.1-8.9c-0.5-2.4-0.1-5,1.3-7.1c1.7-2.7,3.2-5.4,4.5-8.3c1.1-2.5,3.4-2.6,5.5-3.1c2.6-0.6,5.2-1.1,7.8-1.7l0,0
				l0.4-0.1l0,0h0.1"/>
			<path class="st1" d="M81.6,11.7c4.6,5.3,5.9,12.5,2,18c-1,1.7-2.6,2.8-4.4,3.3c-0.5,0.1-1.1,0-1.6-0.2c-0.7-0.4-1.3-1-1.6-1.7
				c-0.3-0.8-0.3-1.7,0.2-2.5c0.9-1.5,2.1-2.9,3.1-4.3c0.6-0.8,1-1.8,1.1-2.8c-0.9,2.5-3.1,3.8-4.6,5.7c-0.8,1-1.8-0.1-2.2-0.9
				c-0.5-0.7-0.5-1.7-0.1-2.5c1.1-1.6,3.1-3,4.3-4.5C79.6,17.1,80.9,14.5,81.6,11.7"/>
			<path class="st1" d="M65.8,40c-0.6-1.1-0.8-2.3-0.5-3.5c0.4-1.9,2.1-3.3,4.1-3.3c0.3-1,1-1.8,1.9-2.3c0,0,0-0.1,0-0.1
				c-0.6-2.2-2.3-2.9-5-2c-0.1-2.8-1.2-4.3-3.3-4.2s-3.1,1.5-3.1,4.2c-2.8-0.8-4.5-0.1-5,2c-0.2,0.9-0.1,1.8,0.3,2.6
				c0.5,1,1.5,1.7,2.6,1.7c-1.5,1.9-1.5,3.9,0.2,5.1s3.6,0.6,5-1.7c1.1,1.6,2.3,2.3,3.5,2.2C66.1,40.5,65.9,40.3,65.8,40z
				 M64.7,33.1c-0.1,0.9-0.9,1.5-1.8,1.5c-0.9,0-1.8-0.4-1.8-1.5c0-0.9,0.7-1.7,1.6-1.7c0.1,0,0.2,0,0.4,0c0.8-0.1,1.6,0.5,1.7,1.4
				C64.7,32.9,64.7,33,64.7,33.1L64.7,33.1z"/>
			<path class="st1" d="M74.6,38.7c0.1-0.8-0.4-1.3-1.2-1.3c-0.7-0.1-1.3,0.4-1.4,1c0,0.1,0,0.2,0,0.3c0,0.9,0.7,1.1,1.4,1.2
				C74,39.9,74.6,39.4,74.6,38.7 M73.3,42.7c-1,1.7-2.5,2.1-3.7,1.2s-1.3-2.4-0.2-3.8c-0.9,0-1.6-0.5-2-1.3
				c-0.3-0.6-0.4-1.3-0.2-1.9c0.4-1.6,1.7-2.1,3.7-1.5c0-2,0.8-3.1,2.3-3.1s2.4,1.1,2.5,3.1c2-0.7,3.3-0.1,3.7,1.5
				c0.4,1.4-0.5,2.5-2.3,3c1.2,2,1.1,3.2-0.2,4.1S74.4,44.4,73.3,42.7"/>
		</g>
	</g>
</g>
</svg>
