<svg id="Ebene_1" data-name="Ebene 1" xmlns="http://www.w3.org/2000/svg" viewBox="0 0 52.1 47.06"><defs><style>.cls-1{fill:#fff;}</style></defs><path class="cls-1" d="M304.1-280.54h-3.47v-22.93h-.53a5.59,5.59,0,0,1-4.88-2.92l-.47-.84-.46.84a5.62,5.62,0,0,1-4.89,2.92,5.61,5.61,0,0,1-4.88-2.92l-.46-.84-.47.84a5.59,5.59,0,0,1-4.88,2.92,5.59,5.59,0,0,1-4.88-2.92l-.47-.84-.46.84a5.61,5.61,0,0,1-4.88,2.92,5.62,5.62,0,0,1-4.89-2.92l-.46-.84-.46.84a5.62,5.62,0,0,1-4.89,2.92h-.53v22.93h-3.64a.58.58,0,0,0-.58.58v2a.58.58,0,0,0,.58.58h51a.58.58,0,0,0,.58-.58v-2A.58.58,0,0,0,304.1-280.54Zm-19.24.07H261.41V-301h23.45Zm11.06,0h-8.35V-301h8.35Z" transform="translate(-252.57 324.45)"/><path class="cls-1" d="M263.83-312.69H304l-7.42-11.54a.47.47,0,0,0-.4-.22h-35a.47.47,0,0,0-.4.22l-7.41,11.54h10.41Z" transform="translate(-252.57 324.45)"/><path class="cls-1" d="M257.32-304.76a4.54,4.54,0,0,0,4.36-3.3,4.37,4.37,0,0,0,.2-1.26v-2h-9.12v2A4.57,4.57,0,0,0,257.32-304.76Z" transform="translate(-252.57 324.45)"/><path class="cls-1" d="M263.46-309.32a4.37,4.37,0,0,0,.2,1.26,4.54,4.54,0,0,0,4.36,3.3,4.55,4.55,0,0,0,4.36-3.3,4.37,4.37,0,0,0,.2-1.26v-2h-9.12Z" transform="translate(-252.57 324.45)"/><path class="cls-1" d="M274.15-309.32a4.37,4.37,0,0,0,.2,1.26,4.55,4.55,0,0,0,4.36,3.3,4.54,4.54,0,0,0,4.36-3.3,4.37,4.37,0,0,0,.2-1.26v-2h-9.12Z" transform="translate(-252.57 324.45)"/><path class="cls-1" d="M284.84-309.32a4.74,4.74,0,0,0,.2,1.26,4.55,4.55,0,0,0,4.36,3.3,4.54,4.54,0,0,0,4.36-3.3,4.37,4.37,0,0,0,.2-1.26v-2h-9.12Z" transform="translate(-252.57 324.45)"/><path class="cls-1" d="M295.54-309.32a4.37,4.37,0,0,0,.2,1.26,4.54,4.54,0,0,0,4.36,3.3,4.57,4.57,0,0,0,4.56-4.56v-2h-9.12Z" transform="translate(-252.57 324.45)"/><path class="cls-1" d="M289.22-285.28a.53.53,0,0,0,.53-.53v-5.46a.53.53,0,0,0-.53-.53.53.53,0,0,0-.53.53v5.46A.53.53,0,0,0,289.22-285.28Z" transform="translate(-252.57 324.45)"/><path class="cls-1" d="M265.91-285.85a.54.54,0,0,0,.37.16.55.55,0,0,0,.38-.16l8.92-8.92a.53.53,0,0,0,0-.75.54.54,0,0,0-.37-.16.55.55,0,0,0-.38.16l-8.92,8.92A.53.53,0,0,0,265.91-285.85Z" transform="translate(-252.57 324.45)"/><path class="cls-1" d="M270.6-285.68a.5.5,0,0,0,.37.16.52.52,0,0,0,.38-.16l5.44-5.44a.53.53,0,0,0,0-.75.54.54,0,0,0-.37-.16.57.57,0,0,0-.38.16l-5.44,5.44A.53.53,0,0,0,270.6-285.68Z" transform="translate(-252.57 324.45)"/><path class="cls-1" d="M266-290.48a.52.52,0,0,0,.38-.16l5.44-5.44a.53.53,0,0,0,0-.75.54.54,0,0,0-.37-.16.57.57,0,0,0-.38.16l-5.44,5.44a.53.53,0,0,0,0,.75A.5.5,0,0,0,266-290.48Z" transform="translate(-252.57 324.45)"/></svg>