<svg id="Ebene_1" data-name="Ebene 1" xmlns="http://www.w3.org/2000/svg" viewBox="0 0 59.47 58.89"><defs><style>.cls-1{opacity:0.6;}.cls-2{fill:#fff;}</style></defs><g class="cls-1"><path class="cls-2" d="M271.43-220a33.56,33.56,0,0,0-2.73-6.62,24.63,24.63,0,0,0-5.14-6.32c-2.87-2.63-6.58-5.42-10.78-6.51a.11.11,0,0,0-.12.18,36.93,36.93,0,0,1,5,10c2,6.7,4.81,10.2,6.15,11.59a20.4,20.4,0,0,1,4.37,8.57,45.33,45.33,0,0,1,1.14,9.71.12.12,0,0,0,.22.05,34.71,34.71,0,0,0,1.88-5.49C272.59-210,273-214.75,271.43-220Z" transform="translate(-213 240.95)"/><path class="cls-2" d="M260.38-214.34a13.36,13.36,0,0,1,4.35,3.23.11.11,0,0,0,.19-.11,19.14,19.14,0,0,0-11.47-12.68c-1.24-.41-3.07-.9-4.19-1.19a.12.12,0,0,0-.09.21C254-222.17,252.87-217.81,260.38-214.34Z" transform="translate(-213 240.95)"/><path class="cls-2" d="M258-204.77a.11.11,0,0,0-.19,0c-.83.85-5.36,5.72-5.81,11-.33,3.84-2.88,9.61-7.81,11.5a.11.11,0,0,0,0,.22,19,19,0,0,0,9.83-2.29c6-3.25,6.91-7.54,6.43-10.84A81.63,81.63,0,0,0,258-204.77Z" transform="translate(-213 240.95)"/><path class="cls-2" d="M249.17-190.63a.11.11,0,0,0-.17-.14c-5.85,5-8.25,5.16-11,5.65a37,37,0,0,1-8.09-.06.11.11,0,0,0-.06.21c1.87,1,8.57,4,13.64.86A18.17,18.17,0,0,0,249.17-190.63Z" transform="translate(-213 240.95)"/><path class="cls-2" d="M240.45-188a19.51,19.51,0,0,0,9-6.43.11.11,0,0,0-.07-.18,34.42,34.42,0,0,0-7.79-.3c-4.34.28-10.63,2.25-12.92,2.66a13.66,13.66,0,0,1-3.87.19,13.34,13.34,0,0,1-5.3-1.68.11.11,0,0,0-.14.17C226.2-186.52,232.74-185.25,240.45-188Z" transform="translate(-213 240.95)"/><path class="cls-2" d="M237.44-196c.12,0,.11-.22,0-.23a11.15,11.15,0,0,1-8.4-5.39c-3.39-5.4-7.33-3.76-10.66-7.47a22.22,22.22,0,0,1-4.88-8.68s-1.47,8.55.67,14.31C215.75-199.16,219.86-191.55,237.44-196Z" transform="translate(-213 240.95)"/><path class="cls-2" d="M238.58-225.77c-2.25.19-10.68,1.26-14.6,6.85a10.54,10.54,0,0,0-1.9,6.63c.07,3,.22,4,.57,4.11a5.89,5.89,0,0,0,5.41-4.75c1.72-7.88,6.89-10.78,10.58-12.62A.12.12,0,0,0,238.58-225.77Z" transform="translate(-213 240.95)"/><path class="cls-2" d="M239.85-235.31c2.34.31,4.62-.34,9.12,1.63,3.54,1.55,6.05,5.17,6.3,5.51a.11.11,0,0,0,.2-.1c-1.34-4.77-3-9.12-7.8-11.8-4.59-2.55-13.87,1.2-15.55,1.92-.09,0-.07.15,0,.21A15.55,15.55,0,0,0,239.85-235.31Z" transform="translate(-213 240.95)"/><path class="cls-2" d="M220.16-210.07c-1.4-8,3-11.92,8.21-15.37,4.27-2.82,3.72-5.42,8.7-7.88a.11.11,0,0,0,0-.2c-3.27-1.43-6.66-3-10.95-1.51a16.15,16.15,0,0,0-7.86,6.3A14,14,0,0,0,220-210,.11.11,0,0,0,220.16-210.07Z" transform="translate(-213 240.95)"/><path class="cls-2" d="M245.85-232.24a13.47,13.47,0,0,0-8,.59,15.19,15.19,0,0,0-4.66,3.63c-.38.39-.43.54-.42.59s.18,0,.45-.18a8.92,8.92,0,0,1,6.62-.73,20.57,20.57,0,0,0,6,.89,15.25,15.25,0,0,1,9.67,2.16c.1.06.22.1.27,0s0-.22-.16-.34C254.82-226.26,251.24-231.13,245.85-232.24Z" transform="translate(-213 240.95)"/><path class="cls-2" d="M259.1-212.8a.11.11,0,0,0-.15.11c.15,5.45,1.14,7.68,3,13.38a14.33,14.33,0,0,1-.07,9.82.11.11,0,0,0,.19.12c1.29-1.49,4.65-5.94,4.45-10.83a16.45,16.45,0,0,0-3.48-9.86A9.21,9.21,0,0,0,259.1-212.8Z" transform="translate(-213 240.95)"/><path class="cls-2" d="M243.25-200h.14a1.63,1.63,0,0,0,1.63-1.63v-.07h0v-6.74h6.81a1.63,1.63,0,0,0,1.63-1.63v-.14a1.63,1.63,0,0,0-1.63-1.63H245v-6.74h0v-.07a1.63,1.63,0,0,0-1.63-1.63h-.14a1.63,1.63,0,0,0-1.63,1.63v.08h0v6.74h-6.81a1.63,1.63,0,0,0-1.63,1.63v.14a1.63,1.63,0,0,0,1.63,1.63h6.81v6.74h0v.07A1.63,1.63,0,0,0,243.25-200Z" transform="translate(-213 240.95)"/></g></svg>