<svg id="Ebene_1" data-name="Ebene 1" xmlns="http://www.w3.org/2000/svg" viewBox="0 0 59.03 54.92"><defs><style>.cls-1{fill:#fff;opacity:0.6;}</style></defs><polygon class="cls-1" points="23.67 17.36 15.79 2.37 13.59 3.56 21.47 18.55 23.67 17.36"/><polygon class="cls-1" points="17.24 23.12 1.7 16.78 0.77 19.12 16.31 25.47 17.24 23.12"/><polygon class="cls-1" points="52.14 12.1 50.6 10.11 37.42 20.59 38.96 22.57 52.14 12.1"/><polygon class="cls-1" points="35.71 0.52 33.27 0 29.81 16.62 32.25 17.14 35.71 0.52"/><polygon class="cls-1" points="15.92 32.08 0 37.35 0.77 39.75 16.69 34.48 15.92 32.08"/><path class="cls-1" d="M247.4-130.11a9.45,9.45,0,0,1,6.47-7.07,8,8,0,0,0-6.76-3.83,8,8,0,0,0-8,8.09,8.07,8.07,0,0,0,5.67,7.73,8.08,8.08,0,0,1,2.45-2.12A9.41,9.41,0,0,1,247.4-130.11Z" transform="translate(-219.06 161.93)"/><path class="cls-1" d="M277-122.75a5.56,5.56,0,0,0-2.34-1.88h0a4.67,4.67,0,0,0-1.11-.37,5.38,5.38,0,0,0-1.12-.11h-.41a5.44,5.44,0,0,0,.9-2.07,5.56,5.56,0,0,0-4.33-6.59,5.47,5.47,0,0,0-1-.12h-.19a5.63,5.63,0,0,0-2.08.41,5.66,5.66,0,0,0-2.64,2.25,6.82,6.82,0,0,0-4.75-3.69,6.71,6.71,0,0,0-1.39-.15,6.86,6.86,0,0,0-6.71,5.47,6.81,6.81,0,0,0,.32,3.86,5.66,5.66,0,0,0-4.47,4.41,5.67,5.67,0,0,0,4.4,6.69,5.59,5.59,0,0,0,1.14.12,5.61,5.61,0,0,0,3.47-1.2,7.47,7.47,0,0,0,5.87,6.29,7.91,7.91,0,0,0,1.51.16,7.45,7.45,0,0,0,7.17-5.48,5.68,5.68,0,0,0,2,.83,5.62,5.62,0,0,0,1.15.12,5.61,5.61,0,0,0,4.63-2.44,5.42,5.42,0,0,0,.9-2.07v0A5.63,5.63,0,0,0,277-122.75Z" transform="translate(-219.06 161.93)"/><polygon class="cls-1" points="11.58 53.58 13.69 54.92 22.55 40.5 20.43 39.16 11.58 53.58"/></svg>