<svg id="Ebene_1" data-name="Ebene 1" xmlns="http://www.w3.org/2000/svg" viewBox="0 0 58.82 58.91"><defs><style>.cls-1{opacity:0.6;}.cls-2{fill:#fff;}</style></defs><g class="cls-1"><path class="cls-2" d="M277-121.5a9.16,9.16,0,0,0-4.92-4.29c1,3.4-.82,5-3.47,6.33-2.43,1.19-6.68,2.21-10.78,3.35-3.9,1.07-6.57,2.35-7.64,3.44-1.82,1.83-2.31,6.47,4.38,7.13,8.89.87,17.68-.89,21.95-6.35C279-115.11,278.6-118.59,277-121.5Z" transform="translate(-219.47 164.24)"/><path class="cls-2" d="M267.3-125.84c.37-1-.87-1.72-2.37-2.28a12.57,12.57,0,0,0-1.94-.43s-3.82-.47-3.82-.46a113.23,113.23,0,0,0-14.74-.26c-.08-2.21,0-5,0-5.89,4.24-.85,5.9-1.38,8.65-3.45,2.46-1.85,3.72-4.61,3.19-8.61-.62-4.75-6.38-8.41-6.53-8.73-2.48-5.24-3.59-8.31-9.8-8.29s-7.54,2.84-9.94,8.1c-.26.55-6.92,5.71-6.45,10.84.78,8.54,9.61,9.51,11.92,10.17a54.59,54.59,0,0,1,.13,7c-2.63.55-5.5,1.43-5.78,1.54-1.88.73-7.06,2.68-9.11,5.9-2.34,3.67-.79,7.65.59,9.54,2.34,3.21,8.38,5.39,10.07,5.64-1-5.15.46-8.28,5.53-10.76a51.43,51.43,0,0,1,10-3.49c5.45-1.38,11-2.25,16.46-3.67C264.07-123.65,266.86-124.6,267.3-125.84Z" transform="translate(-219.47 164.24)"/></g></svg>