<?xml version="1.0" encoding="utf-8"?>
<!-- Generator: Adobe Illustrator 24.0.2, SVG Export Plug-In . SVG Version: 6.00 Build 0)  -->
<svg version="1.1" id="Ebene_1" xmlns="http://www.w3.org/2000/svg" xmlns:xlink="http://www.w3.org/1999/xlink" x="0px" y="0px"
	 viewBox="0 0 158 117" style="enable-background:new 0 0 158 117;" xml:space="preserve">
<style type="text/css">
	.st0{opacity:0.15;}
	.st1{fill:#7A9D34;}
	.st2{enable-background:new    ;}
</style>
<title>Navigation_Icons</title>
<g>
	<g id="Ebene_1_1_">
		<g class="st0">
			<path class="st1" d="M100.6,61c0.4-1.2-1-1.9-2.6-2.5c-0.8-0.2-1.7-0.4-2.5-0.5c-0.3-0.8-0.5-1.7-0.7-2.5c0-0.6,0.6-1.3,1.8-2
				c0,0,2.3,2.1,3.8,1.8c2.1-0.4,4.1-2.8,5.4-3.7c1.6-1.2,3.4-1.8,5.3-2c-0.5-0.8-1.1-1.4-1.8-2c-1.8-1.4-4.8-2.8-6.8-2.9
				c-2.6-0.1-5.7,0.8-6.8,3.2c-0.3,0.7-0.2,1.5,0.1,2.2c2-1.1,4.2-1.9,6.4-2.4c1-0.2,2.1,0,3,0.4c-2.9,0-6.5,1.7-10.8,5.1
				c-0.2-1.5-0.4-3-0.4-4.5c-0.1-5,1.8-9.9,5.3-13.5c0-0.1,0-0.3,0-0.4c-0.1-0.2-0.2-0.3-0.4-0.4c-0.1,0-0.2,0-0.3,0
				c-0.4,0.1-1.9,1.6-4,3.9c0,0-0.5-0.8-0.9-1.4c0.8-0.3,1.4-1.1,1.3-1.9c-0.3-1.3-1.9-1.7-2.9-2.9c-0.6-0.7-1.2-1.5-1.6-2.4
				c-1.3,1.1-2.1,2.7-2.1,4.5c0.2,1.7,0.7,3.2,1.8,3.7c0.7,0.2,1.4,0.1,2.1-0.1c-1.6-3.4-1.8-4.8-1.8-5.2c0.9,2.3,2,4.5,3.4,6.6
				c-1.2,2.2-2.1,4.6-2.7,7c-0.3,1.6-0.5,3.3-0.4,4.9c0.1,2.2,0.4,4.3,0.8,6.5C85.8,57,79.9,57,74,57.3c-0.8,0-1.7,0.1-2.7,0.2
				c-0.4-0.5-0.7-1.1-0.8-1.8c-0.2-2-0.2-4.1-0.1-6.1c4.7-0.9,6.5-1.5,9.5-3.8c2.7-2,4.1-5.1,3.5-9.5c-0.7-5.2-7-9.3-7.2-9.6
				c-2.7-5.8-4-9.1-10.8-9.1s-8.3,3.1-10.9,8.9c-0.3,0.6-7.6,6.3-7.1,11.9C48.3,47.9,58,49,60.5,49.7c0,2.3,0.6,4.9-0.1,10
				c-0.4,0.1-0.8,0.3-1.1,0.4c-2.1,0.8-7.8,3-10,6.5c-2.6,4-0.9,8.4,0.7,10.5c2.6,3.5,9.2,5.9,11.1,6.2c-1.1-5.7,0.5-9.1,6.1-11.8
				c3.5-1.7,7.2-2.9,11-3.8c6-1.5,12.1-2.5,18.1-4C97.1,63.4,100.1,62.4,100.6,61"/>
			<path class="st1" d="M111.2,65.8c-1.9-3.4-5.3-4.8-5.4-4.7c1.2,3.7-0.9,5.5-3.8,7c-2.7,1.3-7.3,2.4-11.9,3.7
				c-4.3,1.2-7.2,2.6-8.4,3.8c-2,2-2.5,7.1,4.8,7.9c9.8,1,19.5-1,24.2-7C113.5,72.9,113,69,111.2,65.8"/>
		</g>
		<g class="st2">
			<path class="st1" d="M42.3,102.3L42.3,102.3l2.5-6.6h1.8v8.5h-1.4v-6.1l0,0l-2.3,6.1h-1L39.4,98l0,0v6.2H38v-8.5h1.9L42.3,102.3z
				"/>
			<path class="st1" d="M54.4,100.5H51v2.7H55v1.1h-5.4v-8.5h5.3v1.1H51v2.4h3.3V100.5z"/>
			<path class="st1" d="M59,104.3h-1.4v-8.5H59V104.3z"/>
			<path class="st1" d="M68.8,104.3h-1.4l-3.8-6.1l0,0v6.1h-1.4v-8.5h1.4l3.8,6.1l0,0v-6.1h1.4V104.3z"/>
		</g>
		<g class="st2">
			<path class="st1" d="M82.3,103.1c-0.2,0.3-0.6,0.6-1.1,0.9s-1.2,0.4-2,0.4c-1,0-1.8-0.3-2.5-1s-1-1.5-1-2.5v-1.8
				c0-1,0.3-1.9,0.9-2.5s1.4-1,2.4-1c1,0,1.8,0.3,2.3,0.8s0.8,1.2,0.8,2l0,0h-1.4c0-0.5-0.1-0.9-0.4-1.2s-0.7-0.4-1.3-0.4
				c-0.6,0-1.1,0.2-1.4,0.7s-0.5,1-0.5,1.7v1.8c0,0.7,0.2,1.3,0.6,1.7s0.9,0.7,1.5,0.7c0.5,0,0.8-0.1,1.1-0.2s0.5-0.2,0.6-0.4V101
				h-1.8v-1.1h3.2V103.1z"/>
			<path class="st1" d="M89.7,102.3h-3l-0.7,2h-1.5l3-8.5h1.4l2.9,8.5h-1.5L89.7,102.3z M87,101.1h2.2l-1.1-3.4h0L87,101.1z"/>
		</g>
		<g class="st2">
			<path class="st1" d="M95.5,100.8v3.5H94v-8.5H97c0.9,0,1.7,0.2,2.2,0.6s0.8,1,0.8,1.8c0,0.4-0.1,0.8-0.3,1.1s-0.6,0.6-1,0.8
				c0.5,0.2,0.8,0.4,1,0.7s0.3,0.8,0.3,1.3v0.7c0,0.3,0,0.5,0.1,0.7s0.2,0.4,0.3,0.5v0.1h-1.5c-0.2-0.1-0.3-0.3-0.3-0.6
				s-0.1-0.5-0.1-0.8v-0.7c0-0.4-0.1-0.8-0.4-1s-0.6-0.4-1-0.4H95.5z M95.5,99.6h1.4c0.6,0,1-0.1,1.2-0.3s0.4-0.6,0.4-1
				c0-0.4-0.1-0.8-0.4-1s-0.7-0.4-1.2-0.4h-1.5V99.6z"/>
		</g>
		<g class="st2">
			<path class="st1" d="M108.5,96.9h-2.6v7.4h-1.4v-7.4h-2.6v-1.1h6.7V96.9z"/>
			<path class="st1" d="M115.6,100.5h-3.3v2.7h3.9v1.1h-5.4v-8.5h5.3v1.1h-3.9v2.4h3.3V100.5z"/>
		</g>
		<g class="st2">
			<path class="st1" d="M125.3,104.3h-1.4l-3.8-6.1l0,0v6.1h-1.4v-8.5h1.4l3.8,6.1l0,0v-6.1h1.4V104.3z"/>
		</g>
	</g>
</g>
</svg>
