<svg id="Ebene_1" data-name="Ebene 1" xmlns="http://www.w3.org/2000/svg" viewBox="0 0 74.39 58.02"><defs><style>.cls-1{opacity:0.6;}.cls-2{fill:#fff;}</style></defs><g class="cls-1"><path class="cls-2" d="M217.29-174.94a.69.69,0,0,0-.35,0,.66.66,0,0,0-.33.3,2.55,2.55,0,0,0-.29.69,8.45,8.45,0,0,0-.24,1.22,11.19,11.19,0,0,0-.09,1.25,3,3,0,0,0,.1.77.73.73,0,0,0,.24.39.69.69,0,0,0,.33.14.73.73,0,0,0,.36,0,.81.81,0,0,0,.34-.33,2.93,2.93,0,0,0,.29-.71,7.79,7.79,0,0,0,.23-1.23,7.78,7.78,0,0,0,.09-1.24,2.83,2.83,0,0,0-.1-.75.7.7,0,0,0-.24-.37A.77.77,0,0,0,217.29-174.94Z" transform="translate(-171.93 210.58)"/><path class="cls-2" d="M224.35-188.26,226.64-177l-7.34,1.49.15.23a3.87,3.87,0,0,1,.43,1.32,6.56,6.56,0,0,1,0,1.76,6.68,6.68,0,0,1-.43,1.71,4,4,0,0,1-.76,1.19,2.69,2.69,0,0,1-1,.65,2.68,2.68,0,0,1-1.2.11,2.61,2.61,0,0,1-1.13-.42,2.58,2.58,0,0,1-.81-.89,3.71,3.71,0,0,1-.42-1.34,7,7,0,0,1,0-1.77,6.55,6.55,0,0,1,.39-1.57l-2.72.55a1.76,1.76,0,0,1-.09.2,6.4,6.4,0,0,1-.64.89,9.42,9.42,0,0,1-.84.83l-.89.75c.2,0,.42,0,.67,0l.63,0,1.29.17-.23,1.75-5.6-.74.16-1.19,1.43-1c.44-.33.83-.63,1.16-.92a3.08,3.08,0,0,0,.26-.24l-12.38,2.52-1.6,12.17L242-152.57l4.32-32.8Zm2.75,15.55a2.44,2.44,0,0,1-.33.92,5.6,5.6,0,0,1-.64.88,8.13,8.13,0,0,1-.83.83q-.45.41-.9.75l.67,0,.63.05,1.29.17-.23,1.76-5.59-.74.15-1.19,1.43-1c.44-.32.83-.62,1.17-.91a6.28,6.28,0,0,0,.81-.85,1.88,1.88,0,0,0,.36-.8,1.07,1.07,0,0,0-.16-.81,1,1,0,0,0-.66-.34,1.09,1.09,0,0,0-.71.14,5.12,5.12,0,0,0-.65.42l-1-1.26a6.5,6.5,0,0,1,.67-.48,3.06,3.06,0,0,1,.67-.3,2.71,2.71,0,0,1,.71-.14,3.57,3.57,0,0,1,.79,0,3.15,3.15,0,0,1,1.05.32,2.63,2.63,0,0,1,.77.62,2.24,2.24,0,0,1,.44.87A2.71,2.71,0,0,1,227.1-172.71Zm7.84,2.49a6.46,6.46,0,0,1-.44,1.71,3.68,3.68,0,0,1-.75,1.19,2.44,2.44,0,0,1-1,.65,2.49,2.49,0,0,1-1.19.11,2.56,2.56,0,0,1-1.14-.41,2.65,2.65,0,0,1-.8-.89,3.83,3.83,0,0,1-.42-1.35,6.14,6.14,0,0,1,0-1.76,6.47,6.47,0,0,1,.43-1.71,3.59,3.59,0,0,1,.76-1.16,2.42,2.42,0,0,1,1-.63,2.66,2.66,0,0,1,1.2-.09,2.68,2.68,0,0,1,1.13.4,2.43,2.43,0,0,1,.81.87A3.6,3.6,0,0,1,235-172,6.45,6.45,0,0,1,234.94-170.22Z" transform="translate(-171.93 210.58)"/><path class="cls-2" d="M232.72-172.83a.89.89,0,0,0-.34-.13.89.89,0,0,0-.36,0,.72.72,0,0,0-.33.29,2.83,2.83,0,0,0-.29.7,8.38,8.38,0,0,0-.23,1.22,7.75,7.75,0,0,0-.09,1.25,3,3,0,0,0,.09.76.8.8,0,0,0,.24.4.73.73,0,0,0,.34.14.75.75,0,0,0,.36-.05.82.82,0,0,0,.33-.32,3.22,3.22,0,0,0,.29-.72,8.93,8.93,0,0,0,.24-1.23,7.71,7.71,0,0,0,.09-1.24,2.75,2.75,0,0,0-.1-.74A.7.7,0,0,0,232.72-172.83Z" transform="translate(-171.93 210.58)"/><path class="cls-2" d="M218.28-210.58l-46.35,9.43,6.6,32.42,46.35-9.43ZM185.33-183l-.24-1.18c.37-.5.7-1,1-1.43s.58-.86.8-1.25a4.68,4.68,0,0,0,.49-1.06,1.59,1.59,0,0,0,.08-.87,1,1,0,0,0-.41-.71,1,1,0,0,0-.73-.11,1.06,1.06,0,0,0-.63.36,4.71,4.71,0,0,0-.47.61l-1.34-.88a7.77,7.77,0,0,1,.48-.67,3.12,3.12,0,0,1,.53-.5,2.45,2.45,0,0,1,.63-.36,3.38,3.38,0,0,1,.76-.23,3.17,3.17,0,0,1,1.1,0,2.66,2.66,0,0,1,.93.34,2.26,2.26,0,0,1,.7.68,2.77,2.77,0,0,1,.4,1,2.49,2.49,0,0,1,0,1,5.38,5.38,0,0,1-.32,1,7.91,7.91,0,0,1-.51,1.06l-.61,1,.64-.2a6,6,0,0,1,.62-.15l1.27-.26.35,1.73Zm12.14-3.38a2.52,2.52,0,0,1-.75.95,2.65,2.65,0,0,1-1.09.49,2.59,2.59,0,0,1-1.21,0,2.49,2.49,0,0,1-1-.58,3.74,3.74,0,0,1-.84-1.13,6.9,6.9,0,0,1-.55-1.68,6.46,6.46,0,0,1-.14-1.75,3.44,3.44,0,0,1,.33-1.35,2.48,2.48,0,0,1,.75-.91,2.5,2.5,0,0,1,1.1-.48,2.69,2.69,0,0,1,1.2,0,2.45,2.45,0,0,1,1.05.56,3.42,3.42,0,0,1,.83,1.1,6.29,6.29,0,0,1,.55,1.67,6.57,6.57,0,0,1,.15,1.76A3.73,3.73,0,0,1,197.47-186.41Zm2.77.35-.24-1.18,1-1.43c.31-.45.58-.87.8-1.25a5.42,5.42,0,0,0,.49-1.06,1.72,1.72,0,0,0,.08-.88,1.06,1.06,0,0,0-.41-.71,1,1,0,0,0-.73-.11,1.24,1.24,0,0,0-.64.36,7.74,7.74,0,0,0-.47.62l-1.33-.88a7.77,7.77,0,0,1,.48-.67,3.64,3.64,0,0,1,.53-.51,3.23,3.23,0,0,1,.63-.36,4.87,4.87,0,0,1,.76-.23,3.1,3.1,0,0,1,1.09,0,2.46,2.46,0,0,1,.94.34,2.23,2.23,0,0,1,.7.67,2.9,2.9,0,0,1,.4,1,2.44,2.44,0,0,1,0,1,5.26,5.26,0,0,1-.32,1,8,8,0,0,1-.52,1.06c-.2.35-.4.68-.6,1,.19-.07.4-.13.64-.2l.61-.16,1.28-.26.35,1.73Zm7.82-1.59-.34-1.66,1.63-.33-.8-4-1.44.3-.26-1.28a7.72,7.72,0,0,0,1-.52,4.82,4.82,0,0,0,.8-.63l1.52-.31,1.21,6,1.37-.28.34,1.66Z" transform="translate(-171.93 210.58)"/><path class="cls-2" d="M195.71-189.14a8.93,8.93,0,0,0-.32-1.2,2.74,2.74,0,0,0-.34-.67.63.63,0,0,0-.35-.28.87.87,0,0,0-.36,0,.86.86,0,0,0-.32.15.73.73,0,0,0-.22.39,2.69,2.69,0,0,0-.05.75,8.44,8.44,0,0,0,.18,1.23,8.49,8.49,0,0,0,.32,1.21,2.76,2.76,0,0,0,.34.69.75.75,0,0,0,.36.3.63.63,0,0,0,.36,0,.69.69,0,0,0,.32-.16.69.69,0,0,0,.21-.41,2.94,2.94,0,0,0,0-.77A7.82,7.82,0,0,0,195.71-189.14Z" transform="translate(-171.93 210.58)"/></g></svg>