<svg id="Ebene_1" data-name="Ebene 1" xmlns="http://www.w3.org/2000/svg" viewBox="0 0 158 117"><defs><style>.cls-1{fill:#7a9d34;}</style></defs><title>Navigation_Icons_Öko_Icon_v4</title><path class="cls-1" d="M58.68,100.79a3.64,3.64,0,0,1-1,2.6,3.37,3.37,0,0,1-2.55,1,3.26,3.26,0,0,1-2.49-1,3.66,3.66,0,0,1-1-2.6V99.26a3.69,3.69,0,0,1,.95-2.59,3.24,3.24,0,0,1,2.5-1,3.37,3.37,0,0,1,2.55,1,3.63,3.63,0,0,1,1,2.59Zm-4.2-6H53.07v-1.2h1.41Zm2.78,4.46a2.68,2.68,0,0,0-.57-1.76,1.91,1.91,0,0,0-1.54-.68,1.81,1.81,0,0,0-1.49.68,2.78,2.78,0,0,0-.54,1.76v1.54a2.73,2.73,0,0,0,.55,1.77,1.77,1.77,0,0,0,1.48.69,1.88,1.88,0,0,0,1.54-.69,2.65,2.65,0,0,0,.57-1.77Zm.06-4.46H55.9v-1.2h1.42Z"/><path class="cls-1" d="M63.51,100.6h-.69v3.69H61.39V95.76h1.43v3.62h.55l2.78-3.62h1.67v0l-3.2,4,3.47,4.49H66.3Z"/><path class="cls-1" d="M76.94,100.79a3.64,3.64,0,0,1-1,2.6,3.4,3.4,0,0,1-2.56,1,3.26,3.26,0,0,1-2.49-1,3.66,3.66,0,0,1-1-2.6V99.26a3.66,3.66,0,0,1,1-2.59,3.24,3.24,0,0,1,2.49-1,3.34,3.34,0,0,1,2.55,1,3.59,3.59,0,0,1,1,2.59Zm-1.43-1.54A2.73,2.73,0,0,0,75,97.49a1.93,1.93,0,0,0-1.55-.68,1.81,1.81,0,0,0-1.48.68,2.78,2.78,0,0,0-.54,1.76v1.54a2.79,2.79,0,0,0,.54,1.77,1.79,1.79,0,0,0,1.48.69,1.9,1.9,0,0,0,1.55-.69,2.7,2.7,0,0,0,.56-1.77Z"/><path class="cls-1" d="M84.14,102.1a1.1,1.1,0,0,0-.37-.87,3.5,3.5,0,0,0-1.34-.61,5.87,5.87,0,0,1-2.13-1A2,2,0,0,1,79.56,98a2.07,2.07,0,0,1,.82-1.69,3.66,3.66,0,0,1,4.32.07,2.27,2.27,0,0,1,.8,1.83v0H84.11a1.4,1.4,0,0,0-.44-1.07,1.77,1.77,0,0,0-1.2-.4,1.67,1.67,0,0,0-1.11.34A1.12,1.12,0,0,0,81,98a1,1,0,0,0,.43.81,4.5,4.5,0,0,0,1.42.61,4.93,4.93,0,0,1,2,1,2.16,2.16,0,0,1,.71,1.66,2,2,0,0,1-.83,1.69,3.56,3.56,0,0,1-2.19.63,3.81,3.81,0,0,1-2.27-.69,2.2,2.2,0,0,1-.94-2l0,0h1.37a1.32,1.32,0,0,0,.53,1.15,2.1,2.1,0,0,0,1.29.39,1.83,1.83,0,0,0,1.17-.32A1,1,0,0,0,84.14,102.1Z"/><path class="cls-1" d="M94.46,101.5v0a2.59,2.59,0,0,1-.84,2.08,3.28,3.28,0,0,1-2.32.79,3.15,3.15,0,0,1-2.42-1,3.68,3.68,0,0,1-.92-2.57V99.22a3.67,3.67,0,0,1,.91-2.57,3.06,3.06,0,0,1,2.39-1,3.46,3.46,0,0,1,2.37.76,2.67,2.67,0,0,1,.84,2.11v0H93.09a1.8,1.8,0,0,0-.46-1.31,1.89,1.89,0,0,0-1.36-.45,1.63,1.63,0,0,0-1.38.69,2.84,2.84,0,0,0-.5,1.74v1.63a2.86,2.86,0,0,0,.51,1.75,1.66,1.66,0,0,0,1.41.69,1.61,1.61,0,0,0,1.78-1.78Z"/><path class="cls-1" d="M101.48,102.3h-3l-.66,2H96.33l3-8.53h1.35l3,8.53h-1.48Zm-2.63-1.19h2.25L100,97.75h0Z"/><path class="cls-1" d="M112.52,104.29H111.1l-3.78-6.14h0v6.13h-1.42V95.76h1.42l3.78,6.15h0V95.76h1.42Z"/><path class="cls-1" d="M103.55,63.7a1.5,1.5,0,0,0-1.5,1.5v7.2a.83.83,0,0,1-.83.84H94a1.5,1.5,0,0,0,0,3h7.21a3.84,3.84,0,0,0,3.83-3.84V65.2A1.5,1.5,0,0,0,103.55,63.7Z"/><path class="cls-1" d="M71.69,73.24h-7.2a.83.83,0,0,1-.84-.84V65.2a1.5,1.5,0,0,0-3,0v7.2a3.84,3.84,0,0,0,3.84,3.84h7.2a1.5,1.5,0,0,0,0-3Z"/><path class="cls-1" d="M62.15,44.47a1.5,1.5,0,0,0,1.5-1.5V35.76a.84.84,0,0,1,.84-.84h7.2a1.5,1.5,0,0,0,0-3h-7.2a3.84,3.84,0,0,0-3.84,3.84V43A1.5,1.5,0,0,0,62.15,44.47Z"/><path class="cls-1" d="M101.22,31.92H94a1.5,1.5,0,0,0,0,3h7.21a.84.84,0,0,1,.83.84V43a1.5,1.5,0,0,0,3,0V35.76A3.84,3.84,0,0,0,101.22,31.92Z"/><path class="cls-1" d="M101.39,56.68l.76-.94-.76-.94c-4.51-5.62-10.49-8.89-17-9.34a9.49,9.49,0,0,0-3.13,0c-6.47.46-12.44,3.73-17,9.34l-.76.94.76.94c4.88,6.06,11.46,9.4,18.52,9.4S96.51,62.74,101.39,56.68Zm-11.21-1a7.31,7.31,0,1,1-8.58-7.2c.42,0,.85,0,1.27,0s.84,0,1.26,0A7.32,7.32,0,0,1,90.18,55.64Zm-22.7.1a22.51,22.51,0,0,1,6.36-5.07A10.26,10.26,0,0,0,74,60.89,22.65,22.65,0,0,1,67.48,55.74Zm24.25,5.15a10.26,10.26,0,0,0,.17-10.22,22.47,22.47,0,0,1,6.36,5.07A22.65,22.65,0,0,1,91.73,60.89Z"/><path class="cls-1" d="M81.51,51.5a.59.59,0,0,0-.39.73l.61,2.15-2-1a.59.59,0,0,0-.8.27,4.36,4.36,0,1,0,3.9-2.42A4.5,4.5,0,0,0,81.51,51.5Z"/><path class="cls-1" d="M78.06,42.82a1.5,1.5,0,0,0,1.45,1.11,1.74,1.74,0,0,0,.39,0A1.5,1.5,0,0,0,81,42l-.86-3.21a1.5,1.5,0,0,0-2.9.78Z"/><path class="cls-1" d="M85.84,43.88a1.74,1.74,0,0,0,.39,0,1.49,1.49,0,0,0,1.44-1.11l.87-3.21a1.5,1.5,0,0,0-2.9-.78L84.78,42A1.5,1.5,0,0,0,85.84,43.88Z"/></svg>