<svg id="Ebene_1" data-name="Ebene 1" xmlns="http://www.w3.org/2000/svg" viewBox="0 0 62.31 50.28"><defs><style>.cls-1{opacity:0.6;}.cls-2{fill:#fff;}</style></defs><g class="cls-1"><rect class="cls-2" x="371.15" y="-105.84" width="4.52" height="10.1" transform="translate(-331.11 225.54) rotate(-15)"/><polygon class="cls-2" points="16.85 19.89 20.7 34.25 45.06 38.65 35.75 3.88 16.85 19.89"/><rect class="cls-2" x="376.63" y="-110.58" width="11.05" height="14.64" transform="translate(-330.16 227.73) rotate(-15)"/><rect class="cls-2" x="411.55" y="-132.59" width="3.51" height="41.67" transform="translate(-326.91 235.5) rotate(-15)"/><polygon class="cls-2" points="11.83 38.1 19.8 50.28 24.66 48.67 16.86 36.74 11.83 38.1"/><path class="cls-2" d="M431.2-103.87l-4.78-1.07a1.31,1.31,0,0,0-1.57,1,1.33,1.33,0,0,0,1,1.58l4.78,1.07a1.36,1.36,0,0,0,.29,0,1.31,1.31,0,0,0,1.28-1A1.32,1.32,0,0,0,431.2-103.87Z" transform="translate(-369.92 132.33)"/><path class="cls-2" d="M425.48-113.71l4.73-1.28a1.33,1.33,0,0,0,.93-1.62,1.33,1.33,0,0,0-1.62-.93l-4.73,1.28a1.32,1.32,0,0,0-.92,1.62,1.31,1.31,0,0,0,1.27,1A1.32,1.32,0,0,0,425.48-113.71Z" transform="translate(-369.92 132.33)"/><path class="cls-2" d="M424.91-129.52a1.33,1.33,0,0,0-1.87-.07l-3.6,3.31a1.33,1.33,0,0,0-.07,1.87,1.31,1.31,0,0,0,1,.42,1.31,1.31,0,0,0,.89-.35l3.6-3.32A1.31,1.31,0,0,0,424.91-129.52Z" transform="translate(-369.92 132.33)"/></g></svg>