<svg id="Ebene_1" data-name="Ebene 1" xmlns="http://www.w3.org/2000/svg" viewBox="0 0 53.25 53.15"><defs><style>.cls-1{opacity:0.6;}.cls-2{fill:#fff;}</style></defs><g class="cls-1"><path class="cls-2" d="M187.63-186.51a1.8,1.8,0,0,0,1.8-1.8v-8.64a1,1,0,0,1,1-1h8.64a1.8,1.8,0,0,0,1.8-1.79,1.8,1.8,0,0,0-1.8-1.8h-8.64a4.6,4.6,0,0,0-4.6,4.6v8.64A1.8,1.8,0,0,0,187.63-186.51Z" transform="translate(-185.84 201.55)"/><path class="cls-2" d="M199.08-152h-8.64a1,1,0,0,1-1-1v-8.64a1.8,1.8,0,0,0-1.8-1.8,1.8,1.8,0,0,0-1.79,1.8V-153a4.61,4.61,0,0,0,4.6,4.61h8.64a1.81,1.81,0,0,0,1.8-1.8A1.8,1.8,0,0,0,199.08-152Z" transform="translate(-185.84 201.55)"/><path class="cls-2" d="M234.48-201.55h-8.64a1.8,1.8,0,0,0-1.8,1.8,1.8,1.8,0,0,0,1.8,1.79h8.64a1,1,0,0,1,1,1v8.64a1.8,1.8,0,0,0,1.8,1.8,1.81,1.81,0,0,0,1.8-1.8v-8.64A4.61,4.61,0,0,0,234.48-201.55Z" transform="translate(-185.84 201.55)"/><path class="cls-2" d="M237.29-163.45a1.8,1.8,0,0,0-1.8,1.8V-153a1,1,0,0,1-1,1h-8.64a1.8,1.8,0,0,0-1.8,1.8,1.81,1.81,0,0,0,1.8,1.8h8.64a4.62,4.62,0,0,0,4.61-4.61v-8.64A1.81,1.81,0,0,0,237.29-163.45Z" transform="translate(-185.84 201.55)"/><path class="cls-2" d="M234.67-170.45l.91-1.13-.91-1.12c-5.39-6.71-12.52-10.64-20.24-11.21a13,13,0,0,0-3.94,0c-7.72.58-14.85,4.5-20.24,11.21l-.9,1.12.9,1.13c5.85,7.27,13.74,11.27,22.21,11.27S228.82-163.18,234.67-170.45ZM194-171.58a26.92,26.92,0,0,1,7.62-6.08,12.26,12.26,0,0,0-1.53,6,12.34,12.34,0,0,0,1.72,6.3A26.91,26.91,0,0,1,194-171.58Zm18.45,8.65a8.78,8.78,0,0,1-8.77-8.77,8.78,8.78,0,0,1,7.23-8.63,22.61,22.61,0,0,1,3.08,0,8.78,8.78,0,0,1,7.23,8.63A8.77,8.77,0,0,1,212.46-162.93Zm10.64-2.47a12.25,12.25,0,0,0,1.73-6.3,12.33,12.33,0,0,0-1.54-6,27.32,27.32,0,0,1,7.63,6.09A27.08,27.08,0,0,1,223.1-165.4Z" transform="translate(-185.84 201.55)"/><path class="cls-2" d="M212.46-176.69a5.07,5.07,0,0,0-5.07,5.07,5.07,5.07,0,0,0,5.07,5.07,5.07,5.07,0,0,0,5.07-5.07A5.07,5.07,0,0,0,212.46-176.69Z" transform="translate(-185.84 201.55)"/><path class="cls-2" d="M215.6-186.65a2,2,0,0,0,.47.06,1.81,1.81,0,0,0,1.74-1.33l1-3.84a1.81,1.81,0,0,0-1.26-2.21,1.8,1.8,0,0,0-2.21,1.27l-1,3.84A1.8,1.8,0,0,0,215.6-186.65Z" transform="translate(-185.84 201.55)"/><path class="cls-2" d="M206.28-187.92a1.8,1.8,0,0,0,1.74,1.33,2,2,0,0,0,.47-.06,1.8,1.8,0,0,0,1.26-2.21l-1-3.84a1.8,1.8,0,0,0-2.21-1.27,1.81,1.81,0,0,0-1.27,2.21Z" transform="translate(-185.84 201.55)"/></g></svg>