<?xml version="1.0" encoding="utf-8"?>
<!-- Generator: Adobe Illustrator 24.0.2, SVG Export Plug-In . SVG Version: 6.00 Build 0)  -->
<svg version="1.1" id="Ebene_1" xmlns="http://www.w3.org/2000/svg" xmlns:xlink="http://www.w3.org/1999/xlink" x="0px" y="0px"
	 viewBox="0 0 158 117" style="enable-background:new 0 0 158 117;" xml:space="preserve">
<style type="text/css">
	.st0{opacity:0.15;}
	.st1{fill:#7A9D34;}
	.st2{opacity:0.6;}
	.st3{clip-path:url(#SVGID_2_);}
	.st4{clip-path:url(#SVGID_4_);}
	.st5{clip-path:url(#SVGID_6_);}
	.st6{opacity:0.6;clip-path:url(#SVGID_8_);}
	.st7{clip-path:url(#SVGID_10_);}
	.st8{opacity:0.15;clip-path:url(#SVGID_12_);}
	.st9{fill:#7A9E33;}
</style>
<g>
	<path class="st1" d="M14.6,102.5v3.2h-1.4v-8.5h3.3c0.9,0,1.7,0.2,2.2,0.7s0.8,1.1,0.8,1.9c0,0.8-0.3,1.4-0.8,1.9s-1.3,0.7-2.2,0.7
		H14.6z M14.6,101.3h1.8c0.5,0,0.9-0.1,1.2-0.4s0.4-0.6,0.4-1.1s-0.1-0.8-0.4-1.1s-0.7-0.4-1.2-0.4h-1.8V101.3z"/>
	<path class="st1" d="M26.9,102.1h-3.4v3.6h-1.4v-8.5h5.5v1.1h-4v2.6h3.4V102.1z"/>
	<path class="st1" d="M31.3,104.6h4v1.1h-5.4v-8.5h1.4V104.6z"/>
	<path class="st1" d="M42.2,103.7h-3l-0.7,2H37l3-8.5h1.4l2.9,8.5h-1.5L42.2,103.7z M39.5,102.5h2.2l-1.1-3.4h0L39.5,102.5z"/>
	<path class="st1" d="M53.2,105.7h-1.4L48,99.6l0,0v6.1h-1.4v-8.5H48l3.8,6.1l0,0v-6.1h1.4V105.7z"/>
	<path class="st1" d="M57.5,104.6h4.3v1.1h-6v-0.9l4.2-6.5h-4.1v-1.1h5.8v0.9L57.5,104.6z"/>
	<path class="st1" d="M69.2,101.9h-3.3v2.7h3.9v1.1h-5.4v-8.5h5.3v1.1h-3.9v2.4h3.3V101.9z"/>
	<path class="st1" d="M81.2,101.9h-3.3v2.7h3.9v1.1h-5.4v-8.5h5.3v1.1h-3.9v2.4h3.3V101.9z"/>
	<path class="st1" d="M85.7,102.2v3.5h-1.4v-8.5h2.9c0.9,0,1.7,0.2,2.2,0.6s0.8,1,0.8,1.8c0,0.4-0.1,0.8-0.3,1.1s-0.6,0.6-1,0.8
		c0.5,0.2,0.8,0.4,1,0.7s0.3,0.8,0.3,1.3v0.7c0,0.3,0,0.5,0.1,0.7s0.2,0.4,0.3,0.5v0.1h-1.5c-0.2-0.1-0.3-0.3-0.3-0.6
		s-0.1-0.5-0.1-0.8v-0.7c0-0.4-0.1-0.8-0.4-1s-0.6-0.4-1-0.4H85.7z M85.7,101h1.4c0.6,0,1-0.1,1.2-0.3s0.4-0.6,0.4-1
		c0-0.4-0.1-0.8-0.4-1s-0.7-0.4-1.2-0.4h-1.5V101z"/>
	<path class="st1" d="M99.4,104.6c-0.2,0.3-0.6,0.6-1.1,0.9s-1.2,0.4-2,0.4c-1,0-1.8-0.3-2.5-1s-1-1.5-1-2.5v-1.8
		c0-1,0.3-1.9,0.9-2.5s1.4-1,2.4-1c1,0,1.8,0.3,2.3,0.8s0.8,1.2,0.8,2l0,0H98c0-0.5-0.1-0.9-0.4-1.2s-0.7-0.4-1.3-0.4
		c-0.6,0-1.1,0.2-1.4,0.7s-0.5,1-0.5,1.7v1.8c0,0.7,0.2,1.3,0.6,1.7s0.9,0.7,1.5,0.7c0.5,0,0.8-0.1,1.1-0.2s0.5-0.2,0.6-0.4v-1.8
		h-1.8v-1.1h3.2V104.6z"/>
	<path class="st1" d="M106.8,103.7h-3l-0.7,2h-1.5l3-8.5h1.4l2.9,8.5h-1.5L106.8,103.7z M104.6,96.3h-1.4v-1.2h1.4V96.3z
		 M104.2,102.5h2.2l-1.1-3.4h0L104.2,102.5z M107.4,96.3H106v-1.2h1.4V96.3z"/>
	<path class="st1" d="M117.9,105.7h-1.4l-3.8-6.1l0,0v6.1h-1.4v-8.5h1.4l3.8,6.1l0,0v-6.1h1.4V105.7z"/>
	<path class="st1" d="M122.2,104.6h4.3v1.1h-6v-0.9l4.2-6.5h-4.1v-1.1h5.8v0.9L122.2,104.6z"/>
	<path class="st1" d="M133.8,101.9h-3.3v2.7h3.9v1.1h-5.4v-8.5h5.3v1.1h-3.9v2.4h3.3V101.9z"/>
	<path class="st1" d="M143.6,105.7h-1.4l-3.8-6.1l0,0v6.1h-1.4v-8.5h1.4l3.8,6.1l0,0v-6.1h1.4V105.7z"/>
</g>
<g class="st0">
	<path class="st9" d="M96.9,25.6c-3.5,4.1-1.2,7.9-0.7,8.6l15-13.4C105.1,23.7,100.3,21.6,96.9,25.6z"/>
	<path class="st9" d="M100.1,31.8c-1.3,0.9-3.8,2.7-3.8,2.7s-1.4,0.4-2.6,1.3c-4.1-3.2-9.3-5-14.7-4.9c-12.9-0.2-24.1,10.5-24.2,24
		c-0.1,13.1,10.4,24.3,24.1,24.3c13.8,0,24.3-11.2,24.3-24.2c0-7.4-3.3-13.9-8.5-18.3c1.3-1.4,2.2-1.7,2.2-1.7s4.5,3.7,8.8,0.7
		c3.3-2.2,3.7-8.3,5.5-14.7C111.2,20.9,103.5,29.3,100.1,31.8z M90.9,58.5h-9.4v9c0,1.4-1.1,2.5-2.5,2.5s-2.5-1.1-2.5-2.5v-9h-9.4
		c-1.4,0-2.5-1.1-2.5-2.5s1.1-2.5,2.5-2.5h9.4v-9.9c0-1.4,1.1-2.5,2.5-2.5s2.5,1.1,2.5,2.5v9.9h9.4c1.4,0,2.5,1.1,2.5,2.5
		S92.3,58.5,90.9,58.5z"/>
</g>
</svg>
