<?xml version="1.0" encoding="utf-8"?>
<!-- Generator: Adobe Illustrator 24.0.2, SVG Export Plug-In . SVG Version: 6.00 Build 0)  -->
<svg version="1.1" id="Ebene_1" xmlns="http://www.w3.org/2000/svg" xmlns:xlink="http://www.w3.org/1999/xlink" x="0px" y="0px"
	 viewBox="0 0 158 117" style="enable-background:new 0 0 158 117;" xml:space="preserve">
<style type="text/css">
	.st0{fill:#7A9D34;}
	.st1{opacity:0.15;fill:#7A9E33;}
</style>
<g>
	<g>
		<path class="st0" d="M30.4,101v3.2H29v-8.5h3.3c0.9,0,1.7,0.2,2.2,0.7s0.8,1.1,0.8,1.9c0,0.8-0.3,1.4-0.8,1.9s-1.3,0.7-2.2,0.7
			H30.4z M30.4,99.8h1.8c0.5,0,0.9-0.1,1.2-0.4s0.4-0.6,0.4-1.1s-0.1-0.8-0.4-1.1s-0.7-0.4-1.2-0.4h-1.8V99.8z"/>
		<path class="st0" d="M42.7,100.5h-3.4v3.6h-1.4v-8.5h5.5v1.1h-4v2.6h3.4V100.5z"/>
		<path class="st0" d="M47.1,103h4v1.1h-5.4v-8.5h1.4V103z"/>
		<path class="st0" d="M58.1,102.2h-3l-0.7,2h-1.5l3-8.5h1.4l2.9,8.5h-1.5L58.1,102.2z M55.4,101h2.2l-1.1-3.4h0L55.4,101z"/>
		<path class="st0" d="M69.1,104.2h-1.4L63.9,98l0,0v6.1h-1.4v-8.5h1.4l3.8,6.1l0,0v-6.1h1.4V104.2z"/>
		<path class="st0" d="M73.4,103h4.3v1.1h-6v-0.9l4.2-6.5h-4.1v-1.1h5.8v0.9L73.4,103z"/>
		<path class="st0" d="M85.1,100.3h-3.3v2.7h3.9v1.1h-5.4v-8.5h5.3v1.1h-3.9v2.4h3.3V100.3z"/>
		<path class="st0" d="M94.8,104.2h-1.4L89.6,98l0,0v6.1h-1.4v-8.5h1.4l3.8,6.1l0,0v-6.1h1.4V104.2z"/>
		<path class="st0" d="M101.3,101.1h-3.5V100h3.5V101.1z"/>
		<path class="st0" d="M104.3,104.2v-8.5h2.8c1.1,0,2,0.3,2.6,1s1,1.5,1,2.6v1.3c0,1.1-0.3,1.9-1,2.6s-1.6,1-2.6,1H104.3z
			 M105.7,96.8v6.3h1.4c0.7,0,1.2-0.2,1.6-0.7s0.6-1.1,0.6-1.8v-1.3c0-0.7-0.2-1.3-0.6-1.8s-0.9-0.7-1.6-0.7H105.7z"/>
		<path class="st0" d="M120.2,100.7c0,1-0.3,1.9-1,2.6s-1.5,1-2.6,1c-1,0-1.8-0.3-2.5-1s-1-1.5-1-2.6v-1.5c0-1,0.3-1.9,1-2.6
			s1.5-1,2.5-1c1,0,1.9,0.3,2.5,1s1,1.6,1,2.6V100.7z M118.8,99.1c0-0.7-0.2-1.3-0.6-1.8s-0.9-0.7-1.5-0.7c-0.6,0-1.1,0.2-1.5,0.7
			s-0.5,1-0.5,1.8v1.5c0,0.7,0.2,1.3,0.5,1.8s0.9,0.7,1.5,0.7c0.7,0,1.2-0.2,1.5-0.7s0.6-1,0.6-1.8V99.1z"/>
		<path class="st0" d="M129.2,101.4L129.2,101.4c0,0.9-0.3,1.6-0.8,2.1c-0.6,0.5-1.3,0.8-2.3,0.8c-1,0-1.8-0.3-2.4-1
			s-0.9-1.5-0.9-2.6v-1.6c0-1,0.3-1.9,0.9-2.6s1.4-1,2.4-1c1,0,1.8,0.3,2.4,0.8c0.6,0.5,0.9,1.2,0.8,2.1l0,0h-1.4
			c0-0.6-0.2-1-0.5-1.3s-0.8-0.5-1.4-0.5c-0.6,0-1,0.2-1.4,0.7s-0.5,1-0.5,1.7v1.6c0,0.7,0.2,1.3,0.5,1.7s0.8,0.7,1.4,0.7
			c0.6,0,1-0.2,1.3-0.5s0.5-0.7,0.5-1.3H129.2z"/>
	</g>
</g>
<path class="st1" d="M66.9,65.7c2.2-2.3,5.2-4.1,5.2-4.1s2.5-1.8,3.8-2.7C79.3,56.5,87,48,87,48L72,61.4c-0.5-0.7-2.8-4.5,0.7-8.6
	c3.4-4.1,8.2-1.9,14.3-4.8c-1.8,6.4-2.2,12.5-5.5,14.7c-4.3,2.9-8.8-0.7-8.8-0.7s-2.2,1.8-4,3.7l0,13.5h21.8V65.7h14.4V45.1H90.5
	V31.6H68.7v13.5H54.3v20.5H66.9z"/>
</svg>
