<svg id="Ebene_1" data-name="Ebene 1" xmlns="http://www.w3.org/2000/svg" viewBox="0 0 55.46 52.95"><defs><style>.cls-1{fill:#fff;opacity:0.6;}</style></defs><path class="cls-1" d="M401.08-133.66c-15.32,0-27.74,11.85-27.74,26.47s12.42,26.47,27.74,26.47,27.73-11.85,27.73-26.47S416.39-133.66,401.08-133.66Zm15.29,7.73a21.63,21.63,0,0,1,6.3,7.15.84.84,0,0,1,0,1q-4,5.55-8,11.13c-.06.08-.13.14-.31.34-1.53-7.8-3-15.47-4.56-23.32A28,28,0,0,1,416.37-125.93Zm-15.49-5.2c.51,0,1,0,1.53,0a40.87,40.87,0,0,1,5.34.93.93.93,0,0,1,.61.61q1.33,6.72,2.6,13.44a1.79,1.79,0,0,1,0,.39L390.65-129A27.93,27.93,0,0,1,400.88-131.13Zm3.35,28.49a5.5,5.5,0,0,1-7-.46c-3.31-2.73-1.64-6.57-4-11.49,5.17,1.41,10.13,1.64,11.95,4.26,2.4,3.45-.49,7.11-.49,7.11a7.67,7.67,0,0,0,2.49,2.66c.69.53.11,1.48-.59,1.07-1.39-.82-2.21-3.22-2.21-3.22s-1.46-2-2.23-3.06c-2-2.68-8.92-8.82-8.92-8.82Zm-19-23.34a31.91,31.91,0,0,1,3.52-2.2.78.78,0,0,1,.39-.08,1,1,0,0,1,.48.11c3.88,2.56,7.73,5.16,11.59,7.74.08,0,.14.13.34.3l-24.12,4.42A25.54,25.54,0,0,1,385.19-126ZM377.85-97.3c-.49-1.66-1.07-3.3-1.45-5a20.86,20.86,0,0,1,.4-11.35,1.11,1.11,0,0,1,.66-.68c4.61-.86,9.23-1.68,13.84-2.5h.47l-13.64,19.5ZM389-86.22a23.53,23.53,0,0,1-9.73-9.26,1,1,0,0,1,.09-1.28c2.56-3.53,5.09-7.09,7.63-10.64.14-.19.3-.38.56-.71,1.53,7.83,3,15.51,4.57,23.42C391-85.26,390-85.7,389-86.22Zm14.12,2.88a21.91,21.91,0,0,1-8.89-.83,1.16,1.16,0,0,1-.7-.72c-.89-4.45-1.74-8.91-2.59-13.37a2.54,2.54,0,0,1,0-.4l20.3,13.3A29.47,29.47,0,0,1,403.11-83.34ZM422-94a22.24,22.24,0,0,1-8.64,7.83,1,1,0,0,1-1.11,0q-5.65-3.81-11.31-7.59a6.2,6.2,0,0,1-.51-.42l24-4.38.17.17C423.67-97,422.89-95.46,422-94Zm2-5.87c-4.33.72-8.64,1.53-13,2.3-.21,0-.44.06-.85.1,4.63-6.62,9.15-13.08,13.8-19.71.41,1.19.8,2.21,1.11,3.26a22.77,22.77,0,0,1,.26,12.83A1.49,1.49,0,0,1,423.91-99.91Z" transform="translate(-373.34 133.66)"/></svg>