<?xml version="1.0" encoding="utf-8"?>
<!-- Generator: Adobe Illustrator 24.0.2, SVG Export Plug-In . SVG Version: 6.00 Build 0)  -->
<svg version="1.1" id="Ebene_1" xmlns="http://www.w3.org/2000/svg" xmlns:xlink="http://www.w3.org/1999/xlink" x="0px" y="0px"
	 viewBox="0 0 158 117" style="enable-background:new 0 0 158 117;" xml:space="preserve">
<style type="text/css">
	.st0{enable-background:new    ;}
	.st1{fill:#7A9D34;}
	.st2{opacity:0.6;}
</style>
<title>Navigation_Icons</title>
<g>
	<g id="Ebene_1_1_">
		<g>
			<g>
				<g class="st0">
					<path class="st1" d="M29.4,101v3.2H28v-8.5h3.3c0.9,0,1.7,0.2,2.2,0.7s0.8,1.1,0.8,1.9c0,0.8-0.3,1.4-0.8,1.9s-1.3,0.7-2.2,0.7
						H29.4z M29.4,99.8h1.8c0.5,0,0.9-0.1,1.2-0.4s0.4-0.6,0.4-1.1s-0.1-0.8-0.4-1.1s-0.7-0.4-1.2-0.4h-1.8V99.8z"/>
					<path class="st1" d="M41.7,100.6h-3.4v3.6h-1.4v-8.5h5.5v1.1h-4v2.6h3.4V100.6z"/>
				</g>
				<g class="st0">
					<path class="st1" d="M46.1,103.1h4v1.1h-5.4v-8.5h1.4V103.1z"/>
				</g>
				<g class="st0">
					<path class="st1" d="M57.1,102.2h-3l-0.7,2h-1.5l3-8.5h1.4l2.9,8.5h-1.5L57.1,102.2z M54.4,101h2.2l-1.1-3.4h0L54.4,101z"/>
					<path class="st1" d="M68.1,104.2h-1.4l-3.8-6.1l0,0v6.1h-1.4v-8.5h1.4l3.8,6.1l0,0v-6.1h1.4V104.2z"/>
					<path class="st1" d="M72.4,103.1h4.3v1.1h-6v-0.9l4.2-6.5h-4.1v-1.1h5.8v0.9L72.4,103.1z"/>
					<path class="st1" d="M84.1,100.4h-3.3v2.7h3.9v1.1h-5.4v-8.5h5.3v1.1h-3.9v2.4h3.3V100.4z"/>
				</g>
				<g class="st0">
					<path class="st1" d="M93.8,104.2h-1.4l-3.8-6.1l0,0v6.1h-1.4v-8.5h1.4l3.8,6.1l0,0v-6.1h1.4V104.2z"/>
				</g>
				<g class="st0">
					<path class="st1" d="M101.3,102c0-0.4-0.1-0.6-0.4-0.9s-0.7-0.4-1.3-0.6c-0.9-0.3-1.6-0.6-2.1-1s-0.7-1-0.7-1.6
						c0-0.7,0.3-1.3,0.8-1.7s1.3-0.7,2.1-0.7c0.9,0,1.7,0.2,2.2,0.7s0.8,1.1,0.8,1.8l0,0h-1.4c0-0.4-0.1-0.8-0.4-1.1
						s-0.7-0.4-1.2-0.4c-0.5,0-0.9,0.1-1.1,0.3s-0.4,0.5-0.4,0.9c0,0.3,0.1,0.6,0.4,0.8s0.8,0.4,1.4,0.6c0.9,0.3,1.6,0.6,2,1
						s0.7,1,0.7,1.7c0,0.7-0.3,1.3-0.8,1.7s-1.3,0.6-2.2,0.6c-0.9,0-1.6-0.2-2.3-0.7s-1-1.1-0.9-2l0,0h1.4c0,0.5,0.2,0.9,0.5,1.2
						s0.8,0.4,1.3,0.4c0.5,0,0.9-0.1,1.2-0.3S101.3,102.4,101.3,102z"/>
					<path class="st1" d="M111.6,101.4L111.6,101.4c0,0.9-0.3,1.6-0.8,2.1s-1.3,0.8-2.3,0.8c-1,0-1.8-0.3-2.4-1s-0.9-1.5-0.9-2.6
						v-1.6c0-1,0.3-1.9,0.9-2.6s1.4-1,2.4-1c1,0,1.8,0.3,2.4,0.8s0.9,1.2,0.8,2.1l0,0h-1.4c0-0.6-0.2-1-0.5-1.3s-0.8-0.5-1.4-0.5
						c-0.6,0-1,0.2-1.4,0.7s-0.5,1-0.5,1.7v1.6c0,0.7,0.2,1.3,0.5,1.7s0.8,0.7,1.4,0.7c0.6,0,1-0.2,1.3-0.5s0.5-0.7,0.5-1.3H111.6z"
						/>
					<path class="st1" d="M118.6,102.2h-3l-0.7,2h-1.5l3-8.5h1.4l2.9,8.5h-1.5L118.6,102.2z M116,101h2.2l-1.1-3.4h0L116,101z"/>
				</g>
				<g class="st0">
					<path class="st1" d="M129.7,104.2h-1.4l-3.8-6.1l0,0v6.1H123v-8.5h1.4l3.8,6.1l0,0v-6.1h1.4V104.2z"/>
				</g>
				<g>
					<g>
						<g class="st2">
							<path class="st1" d="M103,58.9c-4.5,0.8-9,1.6-13.5,2.4c-0.2,0-0.5,0.1-0.9,0.1L103,40.9c0.4,1.2,0.8,2.3,1.2,3.4
								c1.4,4.3,1.5,9,0.3,13.4C104.3,58.4,103.7,58.9,103,58.9 M101,65c-2.2,3.5-5.3,6.3-9,8.2c-0.3,0.2-0.8,0.2-1.2,0
								c-3.9-2.7-7.8-5.3-11.8-7.9c-0.2-0.1-0.3-0.2-0.5-0.4l25-4.6l0.2,0.2C102.8,62,102,63.6,101,65 M81.3,76.2
								c-3.1,0.4-6.3,0.1-9.3-0.9c-0.3-0.1-0.6-0.4-0.7-0.8c-0.9-4.6-1.8-9.3-2.7-13.9c0-0.1,0-0.3,0-0.4l21.1,13.8
								C87.1,75.2,84.2,75.9,81.3,76.2 M66.6,73.2c-4.2-2.2-7.8-5.5-10.1-9.6c-0.3-0.4-0.2-1,0.1-1.3c2.7-3.7,5.3-7.4,8-11.1
								c0.2-0.2,0.3-0.4,0.6-0.7l4.8,24.4C68.7,74.2,67.7,73.8,66.6,73.2 M55,61.6c-0.5-1.7-1.1-3.4-1.5-5.2c-1-3.9-0.8-8,0.4-11.8
								c0.1-0.3,0.4-0.6,0.7-0.7c4.8-0.9,9.6-1.8,14.4-2.6h0.5L55.3,61.6L55,61.6 M62.7,31.8c1.2-0.8,2.4-1.6,3.7-2.3
								c0.1-0.1,0.3-0.1,0.4-0.1c0.2,0,0.3,0,0.5,0.1c4,2.7,8,5.4,12.1,8c0.1,0.1,0.2,0.1,0.4,0.3l-25.1,4.6
								C56.3,38.3,59.1,34.6,62.7,31.8 M82.5,56.1c-2.2,1.6-5.3,1.4-7.3-0.5c-3.4-2.8-1.7-6.8-4.2-12c5.4,1.5,10.6,1.7,12.4,4.5
								c2.5,3.6-0.5,7.4-0.5,7.4c0.6,1.1,1.5,2.1,2.6,2.8c0.7,0.5,0.1,1.5-0.6,1.1c-1.5-0.9-2.3-3.4-2.3-3.4s-1.5-2.1-2.3-3.2
								c-2.1-2.8-9.3-9.2-9.3-9.2L82.5,56.1z M79,26.4c0.5,0,1.1,0,1.6,0c1.9,0.2,3.7,0.5,5.6,1c0.3,0.1,0.5,0.3,0.6,0.6
								c0.9,4.7,1.8,9.3,2.7,14c0,0.1,0,0.3,0,0.4L68.3,28.6C71.7,27.2,75.3,26.5,79,26.4 M95.1,31.8c2.7,2,5,4.5,6.6,7.5
								c0.2,0.3,0.2,0.8,0,1.1c-2.8,3.9-5.6,7.7-8.3,11.6c-0.1,0.1-0.1,0.2-0.3,0.3c-1.6-8.2-3.1-16.1-4.7-24.3
								C90.7,29,93,30.2,95.1,31.8 M79.2,23.8c-15.9,0-28.9,12.3-28.9,27.6s12.9,27.5,28.9,27.5s28.9-12.3,28.9-27.6
								S95.2,23.8,79.2,23.8"/>
						</g>
					</g>
				</g>
			</g>
		</g>
	</g>
</g>
</svg>
