<svg id="Ebene_1" data-name="Ebene 1" xmlns="http://www.w3.org/2000/svg" viewBox="0 0 63.79 41.91"><defs><style>.cls-1{opacity:0.7;}.cls-2{fill:#fff;}</style></defs><g class="cls-1"><path class="cls-2" d="M386-102.91a6.19,6.19,0,0,0,7.82.52L381.48-115.8C384.13-110.27,382.25-106,386-102.91Z" transform="translate(-369.18 128.15)"/><path class="cls-2" d="M394.33-103s3.25-4.1.56-8c-2.05-2.94-7.61-3.2-13.41-4.79,0,0,7.78,6.9,10,9.9.86,1.16,2.5,3.42,2.5,3.42s.91,2.7,2.47,3.62c.79.46,1.43-.61.66-1.2A8.53,8.53,0,0,1,394.33-103Z" transform="translate(-369.18 128.15)"/><path class="cls-2" d="M409.52-102.16a20.35,20.35,0,0,0,.74-5.44,20.57,20.57,0,0,0-20.54-20.55,20.57,20.57,0,0,0-20.54,20.55,20.57,20.57,0,0,0,20.54,20.54,20.55,20.55,0,0,0,16.87-8.84l23.78,9.67,2.6-6.39Zm-19.8,9.61a15.07,15.07,0,0,1-15.05-15,15.07,15.07,0,0,1,15.05-15.06,15.08,15.08,0,0,1,15.06,15.06A15.07,15.07,0,0,1,389.72-92.55Z" transform="translate(-369.18 128.15)"/></g></svg>