<?xml version="1.0" encoding="utf-8"?>
<!-- Generator: Adobe Illustrator 24.0.2, SVG Export Plug-In . SVG Version: 6.00 Build 0)  -->
<svg version="1.1" id="Ebene_1" xmlns="http://www.w3.org/2000/svg" xmlns:xlink="http://www.w3.org/1999/xlink" x="0px" y="0px"
	 viewBox="0 0 158 117" style="enable-background:new 0 0 158 117;" xml:space="preserve">
<style type="text/css">
	.st0{enable-background:new    ;}
	.st1{fill:#7A9D34;}
	.st2{opacity:0.6;}
</style>
<title>Navigation_Icons</title>
<g>
	<g id="Ebene_1_1_">
		<g class="st0">
			<path class="st1" d="M25.4,101v3.2H24v-8.5h3.3c0.9,0,1.7,0.2,2.2,0.7s0.8,1.1,0.8,1.9c0,0.8-0.3,1.4-0.8,1.9s-1.3,0.7-2.2,0.7
				H25.4z M25.4,99.8h1.8c0.5,0,0.9-0.1,1.2-0.4s0.4-0.6,0.4-1.1s-0.1-0.8-0.4-1.1s-0.7-0.4-1.2-0.4h-1.8V99.8z"/>
			<path class="st1" d="M37.7,100.6h-3.4v3.6h-1.4v-8.5h5.5v1.1h-4v2.6h3.4V100.6z"/>
		</g>
		<g class="st0">
			<path class="st1" d="M42.1,103.1h4v1.1h-5.4v-8.5h1.4V103.1z"/>
		</g>
		<g class="st0">
			<path class="st1" d="M53.1,102.2h-3l-0.7,2h-1.5l3-8.5h1.4l2.9,8.5h-1.5L53.1,102.2z M50.4,101h2.2l-1.1-3.4h0L50.4,101z"/>
			<path class="st1" d="M64.1,104.2h-1.4l-3.8-6.1l0,0v6.1h-1.4v-8.5h1.4l3.8,6.1l0,0v-6.1h1.4V104.2z"/>
			<path class="st1" d="M68.4,103.1h4.3v1.1h-6v-0.9l4.2-6.5h-4.1v-1.1h5.8v0.9L68.4,103.1z"/>
			<path class="st1" d="M80.1,100.4h-3.3v2.7h3.9v1.1h-5.4v-8.5h5.3v1.1h-3.9v2.4h3.3V100.4z"/>
		</g>
		<g class="st0">
			<path class="st1" d="M89.8,104.2h-1.4l-3.8-6.1l0,0v6.1h-1.4v-8.5h1.4l3.8,6.1l0,0v-6.1h1.4V104.2z"/>
		</g>
		<g class="st0">
			<path class="st1" d="M97.3,102c0-0.4-0.1-0.6-0.4-0.9s-0.7-0.4-1.3-0.6c-0.9-0.3-1.6-0.6-2.1-1s-0.7-1-0.7-1.6
				c0-0.7,0.3-1.3,0.8-1.7s1.3-0.7,2.1-0.7c0.9,0,1.7,0.2,2.2,0.7s0.8,1.1,0.8,1.8l0,0h-1.4c0-0.4-0.1-0.8-0.4-1.1s-0.7-0.4-1.2-0.4
				c-0.5,0-0.9,0.1-1.1,0.3s-0.4,0.5-0.4,0.9c0,0.3,0.1,0.6,0.4,0.8s0.8,0.4,1.4,0.6c0.9,0.3,1.6,0.6,2,1s0.7,1,0.7,1.7
				c0,0.7-0.3,1.3-0.8,1.7s-1.3,0.6-2.2,0.6c-0.9,0-1.6-0.2-2.3-0.7s-1-1.1-0.9-2l0,0h1.4c0,0.5,0.2,0.9,0.5,1.2s0.8,0.4,1.3,0.4
				c0.5,0,0.9-0.1,1.2-0.3S97.3,102.4,97.3,102z"/>
			<path class="st1" d="M107.9,95.7v5.6c0,0.9-0.3,1.7-0.9,2.2s-1.4,0.8-2.4,0.8c-1,0-1.8-0.3-2.4-0.8s-0.9-1.3-0.9-2.2v-5.6h1.4
				v5.6c0,0.6,0.2,1.1,0.5,1.4s0.8,0.5,1.3,0.5c0.6,0,1-0.2,1.4-0.5s0.5-0.8,0.5-1.4v-5.6H107.9z"/>
			<path class="st1" d="M117,101.4L117,101.4c0,0.9-0.3,1.6-0.8,2.1s-1.3,0.8-2.3,0.8c-1,0-1.8-0.3-2.4-1s-0.9-1.5-0.9-2.6v-1.6
				c0-1,0.3-1.9,0.9-2.6s1.4-1,2.4-1c1,0,1.8,0.3,2.4,0.8s0.9,1.2,0.8,2.1l0,0h-1.4c0-0.6-0.2-1-0.5-1.3s-0.8-0.5-1.4-0.5
				c-0.6,0-1,0.2-1.4,0.7s-0.5,1-0.5,1.7v1.6c0,0.7,0.2,1.3,0.5,1.7s0.8,0.7,1.4,0.7c0.6,0,1-0.2,1.3-0.5s0.5-0.7,0.5-1.3H117z"/>
			<path class="st1" d="M126.2,104.2h-1.4v-3.6H121v3.6h-1.4v-8.5h1.4v3.8h3.8v-3.8h1.4V104.2z"/>
		</g>
		<g class="st0">
			<path class="st1" d="M134,100.4h-3.3v2.7h3.9v1.1h-5.4v-8.5h5.3v1.1h-3.9v2.4h3.3V100.4z"/>
		</g>
		<g class="st2">
			<path class="st1" d="M72.3,55.5L60.6,42.8c2.5,5.2,0.7,9.3,4.2,12.2C66.9,56.9,70,57.1,72.3,55.5 M75.4,57.7
				c-1.1-0.7-2-1.7-2.6-2.8c0,0,3.1-3.9,0.5-7.5c-1.9-2.8-7.2-3-12.7-4.5c0,0,7.3,6.5,9.5,9.4c0.8,1.1,2.4,3.2,2.4,3.2
				s0.9,2.5,2.3,3.4C75.5,59.3,76.2,58.2,75.4,57.7 M82.7,50.6c0,7.9-6.4,14.2-14.2,14.3s-14.2-6.4-14.3-14.2s6.4-14.2,14.2-14.3
				c0,0,0,0,0,0C76.3,36.3,82.7,42.7,82.7,50.6 M87.2,55.7c2.9-10.4-3.2-21.1-13.6-24s-21.1,3.2-24,13.6s3.2,21.1,13.6,24
				c8,2.2,16.5-0.8,21.2-7.6l22.5,9.1l2.5-6L87.2,55.7z"/>
		</g>
	</g>
</g>
</svg>
