<?xml version="1.0" encoding="utf-8"?>
<!-- Generator: Adobe Illustrator 24.0.2, SVG Export Plug-In . SVG Version: 6.00 Build 0)  -->
<svg version="1.1" id="Ebene_1" xmlns="http://www.w3.org/2000/svg" xmlns:xlink="http://www.w3.org/1999/xlink" x="0px" y="0px"
	 viewBox="0 0 158 117" style="enable-background:new 0 0 158 117;" xml:space="preserve">
<style type="text/css">
	.st0{opacity:0.6;}
	.st1{fill:#7A9D34;}
	.st2{enable-background:new    ;}
</style>
<title>Navigation_Icons</title>
<g>
	<g id="Ebene_1_1_">
		<g class="st0">
			<path class="st1" d="M86.1,42.4c-1.6,5.7-2,11.1-4.9,13.1c-3.8,2.6-7.8-0.7-7.8-0.7c-1.2,0.6-2.2,1.6-3,2.7
				c-0.6,0.8-1.7,0.1-1.2-0.7c0.9-1.5,3.6-2.4,3.6-2.4s2.3-1.5,3.4-2.4C79.3,50,86.1,42.4,86.1,42.4L72.8,54.3
				c-1.7-2.4-1.4-5.6,0.6-7.7C76.4,43,80.7,44.9,86.1,42.4 M108.6,40.4l-20.5-3.5L79.4,18l-9.7,18.4l-20.6,2.5l14.5,14.9l-4,20.4
				l18.6-9.2l18.1,10.1l-3-20.6L108.6,40.4z M113,39L95.6,55.1L99,78.6L78.3,67L57,77.5l4.6-23.3L45,37.3l23.6-2.8l11-21l10,21.6
				L113,39z M115.1,38.4l-24.9-4.3L79.7,11.2L68,33.5l-25,3l17.6,18l-5,24.8l22.6-11.2l22,12.3l-3.6-24.9L115.1,38.4z"/>
		</g>
		<g class="st2">
			<path class="st1" d="M17.5,101.1v3.2h-1.4v-8.5h3.3c0.9,0,1.7,0.2,2.2,0.7s0.8,1.1,0.8,1.9c0,0.8-0.3,1.4-0.8,1.9
				s-1.3,0.7-2.2,0.7H17.5z M17.5,99.9h1.8c0.5,0,0.9-0.1,1.2-0.4s0.4-0.6,0.4-1.1s-0.1-0.8-0.4-1.1s-0.7-0.4-1.2-0.4h-1.8V99.9z"/>
		</g>
		<g class="st2">
			<path class="st1" d="M26.3,100.8v3.5h-1.4v-8.5h2.9c0.9,0,1.7,0.2,2.2,0.6s0.8,1,0.8,1.8c0,0.4-0.1,0.8-0.3,1.1s-0.6,0.6-1,0.8
				c0.5,0.2,0.8,0.4,1,0.7s0.3,0.8,0.3,1.3v0.7c0,0.3,0,0.5,0.1,0.7s0.2,0.4,0.3,0.5v0.1h-1.5c-0.2-0.1-0.3-0.3-0.3-0.6
				s-0.1-0.5-0.1-0.8v-0.7c0-0.4-0.1-0.8-0.4-1s-0.6-0.4-1-0.4H26.3z M26.3,99.6h1.4c0.6,0,1-0.1,1.2-0.3s0.4-0.6,0.4-1
				c0-0.4-0.1-0.8-0.4-1s-0.7-0.4-1.2-0.4h-1.5V99.6z"/>
		</g>
		<g class="st2">
			<path class="st1" d="M38.5,100.5h-3.3v2.7h3.9v1.1h-5.4v-8.5H39v1.1h-3.9v2.4h3.3V100.5z"/>
			<path class="st1" d="M45.9,102.3L45.9,102.3l2.5-6.6h1.8v8.5h-1.4v-6.1l0,0l-2.3,6.1h-1L43,98l0,0v6.2h-1.4v-8.5h1.9L45.9,102.3z
				"/>
			<path class="st1" d="M54.7,104.3h-1.4v-8.5h1.4V104.3z"/>
			<path class="st1" d="M64.4,95.8v5.6c0,0.9-0.3,1.7-0.9,2.2s-1.4,0.8-2.4,0.8c-1,0-1.8-0.3-2.4-0.8s-0.9-1.3-0.9-2.2v-5.6h1.4v5.6
				c0,0.6,0.2,1.1,0.5,1.4s0.8,0.5,1.3,0.5c0.6,0,1-0.2,1.4-0.5s0.5-0.8,0.5-1.4v-5.6H64.4z"/>
			<path class="st1" d="M71.5,102.3L71.5,102.3l2.5-6.6h1.8v8.5h-1.4v-6.1l0,0l-2.3,6.1h-1L68.7,98l0,0v6.2h-1.4v-8.5h1.9
				L71.5,102.3z"/>
		</g>
		<g class="st2">
			<path class="st1" d="M82.4,101.2h-3.5v-1.1h3.5V101.2z"/>
		</g>
		<g class="st2">
			<path class="st1" d="M91.6,101.5L91.6,101.5c0,0.9-0.3,1.6-0.8,2.1s-1.3,0.8-2.3,0.8c-1,0-1.8-0.3-2.4-1s-0.9-1.5-0.9-2.6v-1.6
				c0-1,0.3-1.9,0.9-2.6s1.4-1,2.4-1c1,0,1.8,0.3,2.4,0.8s0.9,1.2,0.8,2.1l0,0h-1.4c0-0.6-0.2-1-0.5-1.3s-0.8-0.5-1.4-0.5
				c-0.6,0-1,0.2-1.4,0.7s-0.5,1-0.5,1.7v1.6c0,0.7,0.2,1.3,0.5,1.7s0.8,0.7,1.4,0.7c0.6,0,1-0.2,1.3-0.5s0.5-0.7,0.5-1.3H91.6z"/>
			<path class="st1" d="M100.9,100.8c0,1-0.3,1.9-1,2.6s-1.5,1-2.6,1c-1,0-1.8-0.3-2.5-1s-1-1.5-1-2.6v-1.5c0-1,0.3-1.9,1-2.6
				s1.5-1,2.5-1c1,0,1.9,0.3,2.5,1s1,1.6,1,2.6V100.8z M99.5,99.2c0-0.7-0.2-1.3-0.6-1.8s-0.9-0.7-1.5-0.7c-0.6,0-1.1,0.2-1.5,0.7
				s-0.5,1-0.5,1.8v1.5c0,0.7,0.2,1.3,0.5,1.8s0.9,0.7,1.5,0.7c0.7,0,1.2-0.2,1.5-0.7s0.6-1,0.6-1.8V99.2z"/>
		</g>
		<g class="st2">
			<path class="st1" d="M110.3,104.3h-1.4l-3.8-6.1l0,0v6.1h-1.4v-8.5h1.4l3.8,6.1l0,0v-6.1h1.4V104.3z"/>
		</g>
		<g class="st2">
			<path class="st1" d="M119.1,96.9h-2.6v7.4H115v-7.4h-2.6v-1.1h6.7V96.9z"/>
			<path class="st1" d="M126.1,100.5h-3.3v2.7h3.9v1.1h-5.4v-8.5h5.3v1.1h-3.9v2.4h3.3V100.5z"/>
		</g>
		<g class="st2">
			<path class="st1" d="M135.8,104.3h-1.4l-3.8-6.1l0,0v6.1h-1.4v-8.5h1.4l3.8,6.1l0,0v-6.1h1.4V104.3z"/>
		</g>
		<g class="st2">
			<path class="st1" d="M144.6,96.9H142v7.4h-1.4v-7.4H138v-1.1h6.7V96.9z"/>
		</g>
	</g>
</g>
</svg>
