<svg id="Ebene_1" data-name="Ebene 1" xmlns="http://www.w3.org/2000/svg" viewBox="0 0 158 117"><defs><style>.cls-1,.cls-3,.cls-4{fill:#7a9d34;}.cls-1,.cls-2{opacity:0.6;}.cls-4{opacity:0.6;}</style></defs><title>Navigation_Icons_V2_Shop_X</title><path class="cls-1" d="M103,77.71H99.73V56.1h-.5a5.27,5.27,0,0,1-4.6-2.75l-.44-.79-.43.79a5.23,5.23,0,0,1-9.21,0l-.43-.79-.44.79a5.22,5.22,0,0,1-9.2,0L74,52.56l-.44.79a5.22,5.22,0,0,1-9.2,0L64,52.56l-.44.79a5.27,5.27,0,0,1-4.6,2.75h-.5V77.71H55a.54.54,0,0,0-.54.54v1.88a.54.54,0,0,0,.54.54h48a.54.54,0,0,0,.54-.54V78.25A.54.54,0,0,0,103,77.71Zm-18.14.06H62.78V58.42H84.87Zm10.43,0H87.42V58.41H95.3Z"/><g class="cls-2"><path class="cls-3" d="M65.06,47.42h37.85l-7-10.88a.47.47,0,0,0-.38-.21H62.61a.45.45,0,0,0-.38.21l-7,10.88h9.82Z"/><path class="cls-3" d="M58.93,54.88A4.3,4.3,0,0,0,63,51.77a4.16,4.16,0,0,0,.18-1.18V48.67H54.63v1.92A4.3,4.3,0,0,0,58.93,54.88Z"/><path class="cls-3" d="M64.71,50.59a4.16,4.16,0,0,0,.18,1.18,4.27,4.27,0,0,0,8.22,0,4.16,4.16,0,0,0,.19-1.18V48.67H64.71Z"/><path class="cls-3" d="M74.78,50.59A4.16,4.16,0,0,0,75,51.77a4.27,4.27,0,0,0,8.22,0,4.16,4.16,0,0,0,.19-1.18V48.67h-8.6Z"/><path class="cls-3" d="M84.86,50.59a4.16,4.16,0,0,0,.19,1.18,4.26,4.26,0,0,0,8.21,0,3.84,3.84,0,0,0,.19-1.18V48.67H84.86Z"/><path class="cls-3" d="M94.93,50.59a4.16,4.16,0,0,0,.19,1.18,4.29,4.29,0,0,0,8.41-1.18V48.67h-8.6Z"/></g><path class="cls-3" d="M66.68,102.1a1.09,1.09,0,0,0-.38-.87,3.37,3.37,0,0,0-1.33-.61,5.87,5.87,0,0,1-2.13-1A2,2,0,0,1,62.09,98a2.11,2.11,0,0,1,.82-1.7,3.68,3.68,0,0,1,4.33.07,2.27,2.27,0,0,1,.8,1.83l0,0H66.65a1.41,1.41,0,0,0-.44-1.08,1.77,1.77,0,0,0-1.2-.4,1.67,1.67,0,0,0-1.11.34,1.12,1.12,0,0,0-.39.88,1,1,0,0,0,.43.81,4.5,4.5,0,0,0,1.42.61,5,5,0,0,1,2,1,2.18,2.18,0,0,1,.71,1.66,2,2,0,0,1-.84,1.69,3.51,3.51,0,0,1-2.18.64,3.82,3.82,0,0,1-2.27-.7,2.2,2.2,0,0,1-.94-2l0,0h1.37a1.32,1.32,0,0,0,.53,1.15,2.1,2.1,0,0,0,1.29.39,1.91,1.91,0,0,0,1.17-.31A1.05,1.05,0,0,0,66.68,102.1Z"/><path class="cls-3" d="M77.43,104.29H76v-3.64H72.19v3.64H70.77V95.76h1.42v3.75H76V95.76h1.43Z"/><path class="cls-3" d="M87.12,100.79a3.59,3.59,0,0,1-1,2.6,3.37,3.37,0,0,1-2.55,1,3.27,3.27,0,0,1-2.49-1,3.66,3.66,0,0,1-1-2.6V99.26a3.66,3.66,0,0,1,1-2.59,3.24,3.24,0,0,1,2.49-1,3.37,3.37,0,0,1,2.55,1,3.59,3.59,0,0,1,1,2.59ZM85.7,99.25a2.63,2.63,0,0,0-.57-1.75,1.89,1.89,0,0,0-1.54-.69,1.77,1.77,0,0,0-1.48.69,2.68,2.68,0,0,0-.55,1.75v1.54a2.79,2.79,0,0,0,.55,1.77,1.79,1.79,0,0,0,1.48.69,1.88,1.88,0,0,0,1.54-.69,2.65,2.65,0,0,0,.57-1.77Z"/><path class="cls-3" d="M91.26,101.06v3.23H89.84V95.76h3.27a3.15,3.15,0,0,1,2.21.73,2.5,2.5,0,0,1,.8,1.92,2.47,2.47,0,0,1-.8,1.92,3.15,3.15,0,0,1-2.21.73Zm0-1.14h1.85a1.55,1.55,0,0,0,1.18-.43,1.48,1.48,0,0,0,.4-1.07,1.45,1.45,0,0,0-1.58-1.52H91.26Z"/><g class="cls-2"><path class="cls-4" d="M89,67.1a.5.5,0,0,0-.5.5v5.14a.5.5,0,0,0,.5.5.5.5,0,0,0,.5-.5V67.6A.5.5,0,0,0,89,67.1Z"/><path class="cls-4" d="M76.13,63.59a.51.51,0,0,0-.71,0L67,72a.48.48,0,0,0,0,.7.48.48,0,0,0,.7,0l8.41-8.4A.5.5,0,0,0,76.13,63.59Z"/><path class="cls-4" d="M76.57,67l-5.13,5.13a.5.5,0,0,0,.7.71l5.13-5.13a.5.5,0,0,0,0-.71A.5.5,0,0,0,76.57,67Z"/><path class="cls-4" d="M67.47,68.19l5.13-5.13a.5.5,0,0,0,0-.7.5.5,0,0,0-.71,0l-5.13,5.13a.5.5,0,0,0,.35.85A.51.51,0,0,0,67.47,68.19Z"/></g></svg>