<?xml version="1.0" encoding="utf-8"?>
<!-- Generator: Adobe Illustrator 24.0.2, SVG Export Plug-In . SVG Version: 6.00 Build 0)  -->
<svg version="1.1" id="Ebene_1" xmlns="http://www.w3.org/2000/svg" xmlns:xlink="http://www.w3.org/1999/xlink" x="0px" y="0px"
	 viewBox="0 0 158 117" style="enable-background:new 0 0 158 117;" xml:space="preserve">
<style type="text/css">
	.st0{enable-background:new    ;}
	.st1{fill:#7A9D34;}
	.st2{opacity:0.15;}
</style>
<title>Navigation_Icons</title>
<g>
	<g id="Ebene_1_1_">
		<g class="st0">
			<path class="st1" d="M27.7,96.9H25v7.4h-1.4v-7.4H21v-1.1h6.7V96.9z"/>
		</g>
		<g class="st0">
			<path class="st1" d="M36.5,100.8c0,1-0.3,1.9-1,2.6s-1.5,1-2.6,1c-1,0-1.8-0.3-2.5-1s-1-1.5-1-2.6v-1.5c0-1,0.3-1.9,1-2.6
				s1.5-1,2.5-1c1,0,1.9,0.3,2.5,1s1,1.6,1,2.6V100.8z M35.1,99.2c0-0.7-0.2-1.3-0.6-1.8s-0.9-0.7-1.5-0.7c-0.6,0-1.1,0.2-1.5,0.7
				s-0.5,1-0.5,1.8v1.5c0,0.7,0.2,1.3,0.5,1.8s0.9,0.7,1.5,0.7c0.7,0,1.2-0.2,1.5-0.7s0.6-1,0.6-1.8V99.2z"/>
		</g>
		<g class="st0">
			<path class="st1" d="M42.7,101.2h-3.5v-1.1h3.5V101.2z"/>
		</g>
		<g class="st0">
			<path class="st1" d="M45.7,104.3v-8.5h2.8c1.1,0,2,0.3,2.6,1s1,1.5,1,2.6v1.3c0,1.1-0.3,1.9-1,2.6s-1.6,1-2.6,1H45.7z M47.2,96.9
				v6.3h1.4c0.7,0,1.2-0.2,1.6-0.7s0.6-1.1,0.6-1.8v-1.3c0-0.7-0.2-1.3-0.6-1.8s-0.9-0.7-1.6-0.7H47.2z"/>
			<path class="st1" d="M61.7,100.8c0,1-0.3,1.9-1,2.6s-1.5,1-2.6,1c-1,0-1.8-0.3-2.5-1s-1-1.5-1-2.6v-1.5c0-1,0.3-1.9,1-2.6
				s1.5-1,2.5-1c1,0,1.9,0.3,2.5,1s1,1.6,1,2.6V100.8z M60.3,99.2c0-0.7-0.2-1.3-0.6-1.8s-0.9-0.7-1.5-0.7c-0.6,0-1.1,0.2-1.5,0.7
				s-0.5,1-0.5,1.8v1.5c0,0.7,0.2,1.3,0.5,1.8s0.9,0.7,1.5,0.7c0.7,0,1.2-0.2,1.5-0.7s0.6-1,0.6-1.8V99.2z"/>
		</g>
		<g class="st0">
			<path class="st1" d="M67.9,101.2h-3.5v-1.1h3.5V101.2z"/>
		</g>
		<g class="st0">
			<path class="st1" d="M73,100.6h-0.7v3.7h-1.4v-8.5h1.4v3.6h0.6l2.8-3.6h1.7l0,0l-3.2,4l3.5,4.5h-1.8L73,100.6z"/>
			<path class="st1" d="M84.2,102.3h-3l-0.7,2H79l3-8.5h1.4l2.9,8.5h-1.5L84.2,102.3z M81.6,101.1h2.2l-1.1-3.4h0L81.6,101.1z"/>
		</g>
		<g class="st0">
			<path class="st1" d="M90,103.2h4v1.1h-5.4v-8.5H90V103.2z"/>
		</g>
		<g class="st0">
			<path class="st1" d="M101.2,100.5h-3.3v2.7h3.9v1.1h-5.4v-8.5h5.3v1.1h-3.9v2.4h3.3V100.5z"/>
		</g>
		<g class="st0">
			<path class="st1" d="M110.9,104.3h-1.4l-3.8-6.1l0,0v6.1h-1.4v-8.5h1.4l3.8,6.1l0,0v-6.1h1.4V104.3z"/>
		</g>
		<g class="st0">
			<path class="st1" d="M113.9,104.3v-8.5h2.8c1.1,0,2,0.3,2.6,1s1,1.5,1,2.6v1.3c0,1.1-0.3,1.9-1,2.6s-1.6,1-2.6,1H113.9z
				 M115.3,96.9v6.3h1.4c0.7,0,1.2-0.2,1.6-0.7s0.6-1.1,0.6-1.8v-1.3c0-0.7-0.2-1.3-0.6-1.8s-0.9-0.7-1.6-0.7H115.3z"/>
			<path class="st1" d="M127.9,100.5h-3.3v2.7h3.9v1.1h-5.4v-8.5h5.3v1.1h-3.9v2.4h3.3V100.5z"/>
		</g>
		<g class="st0">
			<path class="st1" d="M132.4,100.8v3.5H131v-8.5h2.9c0.9,0,1.7,0.2,2.2,0.6s0.8,1,0.8,1.8c0,0.4-0.1,0.8-0.3,1.1s-0.6,0.6-1,0.8
				c0.5,0.2,0.8,0.4,1,0.7s0.3,0.8,0.3,1.3v0.7c0,0.3,0,0.5,0.1,0.7s0.2,0.4,0.3,0.5v0.1h-1.5c-0.2-0.1-0.3-0.3-0.3-0.6
				s-0.1-0.5-0.1-0.8v-0.7c0-0.4-0.1-0.8-0.4-1s-0.6-0.4-1-0.4H132.4z M132.4,99.6h1.4c0.6,0,1-0.1,1.2-0.3s0.4-0.6,0.4-1
				c0-0.4-0.1-0.8-0.4-1s-0.7-0.4-1.2-0.4h-1.5V99.6z"/>
		</g>
		<g class="st2">
			<g>
				<path class="st1" d="M78.8,60.3c-0.4,0.1-0.7,0.2-1,0.4l0.3-2.9h5.5v-2.5h-8.1l-0.8,7.8l2.9,0.2c0.1-0.3,0.3-0.5,0.6-0.7
					c0.3-0.2,0.6-0.3,1-0.3c0.5,0,1,0.2,1.3,0.7c0.3,0.6,0.4,1.2,0.4,1.8c0,0.6-0.1,1.1-0.3,1.6c-0.3,0.4-0.8,0.6-1.3,0.5
					c-0.4,0-0.9-0.1-1.2-0.4c-0.3-0.3-0.5-0.7-0.5-1.2l-3.1,0.2l0,0c-0.1,1.1,0.5,2.2,1.4,2.8c1,0.7,2.2,1,3.4,1
					c1.4,0.1,2.7-0.4,3.7-1.3c0.8-0.9,1.2-2.1,1.2-3.3c0.1-1.2-0.3-2.5-1-3.5c-0.8-0.8-1.9-1.3-3-1.2C79.6,60,79.2,60.1,78.8,60.3
					 M96.5,51v20.4c0.1,0.7-0.4,1.4-1.1,1.6c-0.2,0.1-0.4,0.1-0.5,0.1H63.1c-0.9,0-1.6-0.6-1.6-1.5c0-0.1,0-0.1,0-0.2V50.8h35.1V51z
					 M96.5,47.6H61.5c0,0,0-0.1,0-0.1v-4.7c0-0.8,0.6-1.6,1.5-1.6c0,0,0,0,0.1,0h1.7v3.2h3.2v-3.2H71v3.2h3.2v-3.2h3.3v3.2h3.2v-3.2
					h3.3v3.2h3.3v-3.2h2.8v3.2h3.2v-3.2h1.6c0.9,0,1.6,0.7,1.6,1.5c0,0,0,0.1,0,0.1c0,0.7,0,1.3,0,2L96.5,47.6L96.5,47.6z
					 M99.7,42.8c0-0.9-0.2-1.7-0.7-2.4c-0.8-1.5-2.4-2.4-4.1-2.4c-0.5,0-1,0-1.4,0h-0.2v-3.2h-3.2V38h-2.8v-3.2h-3.3V38h-3.3v-3.2
					h-3.2V38h-3.3v-3.2H71V38h-3.2v-3.2h-3.2v3.2c-0.5,0-0.9,0-1.3,0c-0.4,0-0.8,0-1.2,0.1c-2.3,0.4-3.9,2.4-3.9,4.7v28.7
					c0,0.3,0,0.5,0.1,0.8c0.4,2.3,2.4,4,4.7,4h32c0.3,0,0.7,0,1-0.1c2.2-0.5,3.8-2.4,3.8-4.7L99.7,42.8"/>
			</g>
		</g>
	</g>
</g>
</svg>
