<svg id="Ebene_1" data-name="Ebene 1" xmlns="http://www.w3.org/2000/svg" viewBox="0 0 54.54 54.52"><defs><style>.cls-1{fill:#fff;opacity:0.6;}</style></defs><path class="cls-1" d="M400.78-101a4.42,4.42,0,0,0-1.31.58l.47-3.78h7.23v-3.27H396.51l-1,10.19,3.78.21A1.82,1.82,0,0,1,400-98a2.32,2.32,0,0,1,1.35-.36,1.84,1.84,0,0,1,1.7.86,4.41,4.41,0,0,1,.54,2.36A4,4,0,0,1,403.1-93a1.82,1.82,0,0,1-1.64.71,2.3,2.3,0,0,1-1.6-.55,1.92,1.92,0,0,1-.61-1.51l-4.13.25,0,.07A4.06,4.06,0,0,0,397-90.41,7.56,7.56,0,0,0,401.46-89a6.07,6.07,0,0,0,4.8-1.75,6.43,6.43,0,0,0,1.52-4.38,6.78,6.78,0,0,0-1.37-4.55,4.68,4.68,0,0,0-3.9-1.55,6.75,6.75,0,0,0-1.73.25m23.37-12.24v26.91a2.07,2.07,0,0,1-1.43,2.11,2.51,2.51,0,0,1-.72.11H380.15a2.09,2.09,0,0,1-2.15-2.2v-27.16h46.15Zm0-4.44H378s0-.09,0-.14v-6.1a2.05,2.05,0,0,1,1.57-2.07,1.76,1.76,0,0,1,.39-.06h2.23v4.17h4.2v-4.16h4.18v4.17h4.27v-4.17h4.35v4.17h4.27v-4.17h4.36v4.17h4.26v-4.17h3.68v4.17H420v-4.17l.12,0c.65,0,1.31,0,2,0a2.08,2.08,0,0,1,2.11,2.14c0,.87,0,1.75,0,2.62v3.62Zm4.19-6.28a5.86,5.86,0,0,0-.88-3.19,6.17,6.17,0,0,0-5.39-3.1h-2.13v-4.18h-4.19v4.17h-3.67v-4.17h-4.26v4.17h-4.36v-4.17h-4.27v4.17h-4.35v-4.17h-4.27v4.17h-4.18v-4.17h-4.2v4.18h-1.73a10.74,10.74,0,0,0-1.51.1,6.31,6.31,0,0,0-5.14,6.17q0,18.9,0,37.8a6.58,6.58,0,0,0,.08,1,6.32,6.32,0,0,0,6.19,5.29h42a6.4,6.4,0,0,0,1.31-.13,6.32,6.32,0,0,0,5-6.16q0-18.87,0-37.75" transform="translate(-373.81 134.45)"/></svg>