<?xml version="1.0" encoding="utf-8"?>
<!-- Generator: Adobe Illustrator 24.0.2, SVG Export Plug-In . SVG Version: 6.00 Build 0)  -->
<svg version="1.1" id="Ebene_1" xmlns="http://www.w3.org/2000/svg" xmlns:xlink="http://www.w3.org/1999/xlink" x="0px" y="0px"
	 viewBox="0 0 158 117" style="enable-background:new 0 0 158 117;" xml:space="preserve">
<style type="text/css">
	.st0{opacity:0.15;}
	.st1{fill:#7A9D34;}
	.st2{opacity:0.6;}
	.st3{clip-path:url(#SVGID_2_);}
	.st4{clip-path:url(#SVGID_4_);}
	.st5{clip-path:url(#SVGID_6_);}
	.st6{opacity:0.6;clip-path:url(#SVGID_8_);}
	.st7{clip-path:url(#SVGID_10_);}
	.st8{opacity:0.15;clip-path:url(#SVGID_12_);}
	.st9{fill:#7A9E33;}
</style>
<g>
	<path class="st1" d="M58.4,102l0.2,0.6h0l0.1-0.6l2-6.2h1.5l-3,8.5h-1.4l-3-8.5h1.5L58.4,102z"/>
	<path class="st1" d="M66,104.3h-1.4v-8.5H66V104.3z"/>
	<path class="st1" d="M69.1,104.3v-8.5h2.8c1.1,0,2,0.3,2.6,1s1,1.5,1,2.6v1.3c0,1.1-0.3,1.9-1,2.6s-1.6,1-2.6,1H69.1z M70.5,96.9
		v6.3h1.4c0.7,0,1.2-0.2,1.6-0.7s0.6-1.1,0.6-1.8v-1.3c0-0.7-0.2-1.3-0.6-1.8s-0.9-0.7-1.6-0.7H70.5z"/>
	<path class="st1" d="M83.1,100.5h-3.3v2.7h3.9v1.1h-5.4v-8.5h5.3v1.1h-3.9v2.4h3.3V100.5z"/>
	<path class="st1" d="M92.9,100.8c0,1-0.3,1.9-1,2.6s-1.5,1-2.6,1c-1,0-1.8-0.3-2.5-1s-1-1.5-1-2.6v-1.5c0-1,0.3-1.9,1-2.6
		s1.5-1,2.5-1c1,0,1.9,0.3,2.5,1s1,1.6,1,2.6V100.8z M91.5,99.2c0-0.7-0.2-1.3-0.6-1.8s-0.9-0.7-1.5-0.7c-0.6,0-1.1,0.2-1.5,0.7
		s-0.5,1-0.5,1.8v1.5c0,0.7,0.2,1.3,0.5,1.8s0.9,0.7,1.5,0.7c0.7,0,1.2-0.2,1.5-0.7s0.6-1,0.6-1.8V99.2z"/>
	<path class="st1" d="M100.1,102.1c0-0.4-0.1-0.6-0.4-0.9s-0.7-0.4-1.3-0.6c-0.9-0.3-1.6-0.6-2.1-1s-0.7-1-0.7-1.6
		c0-0.7,0.3-1.3,0.8-1.7s1.3-0.7,2.1-0.7c0.9,0,1.7,0.2,2.2,0.7s0.8,1.1,0.8,1.8l0,0h-1.4c0-0.4-0.1-0.8-0.4-1.1s-0.7-0.4-1.2-0.4
		c-0.5,0-0.9,0.1-1.1,0.3s-0.4,0.5-0.4,0.9c0,0.3,0.1,0.6,0.4,0.8s0.8,0.4,1.4,0.6c0.9,0.3,1.6,0.6,2,1s0.7,1,0.7,1.7
		c0,0.7-0.3,1.3-0.8,1.7s-1.3,0.6-2.2,0.6c-0.9,0-1.6-0.2-2.3-0.7s-1-1.1-0.9-2l0,0h1.4c0,0.5,0.2,0.9,0.5,1.2s0.8,0.4,1.3,0.4
		c0.5,0,0.9-0.1,1.2-0.3S100.1,102.5,100.1,102.1z"/>
</g>
<g class="st2">
	<path class="st1" d="M79,30.8c-12.9-0.2-24.1,10.5-24.2,24c-0.1,13.1,10.4,24.3,24.1,24.3c13.8,0,24.3-11.2,24.3-24.2
		C103.2,41.3,92,30.6,79,30.8z M75.1,65c-1.6,0.9-2.4,0.4-2.4-1.4c0-2.7,0-5.5,0-8.2s0-5.5,0-8.2c0-1.8,0.9-2.3,2.4-1.4
		c4.7,2.7,9.4,5.5,14.1,8.3c1.4,0.8,1.4,1.9,0,2.7"/>
</g>
</svg>
