<svg id="Ebene_1" data-name="Ebene 1" xmlns="http://www.w3.org/2000/svg" viewBox="0 0 55.18 55.18"><defs><style>.cls-1{fill:#fff;opacity:0.31;}</style></defs><path class="cls-1" d="M229.07-148.47a27.59,27.59,0,0,0-27.59,27.59,27.59,27.59,0,0,0,27.59,27.59,27.59,27.59,0,0,0,27.59-27.59A27.59,27.59,0,0,0,229.07-148.47Zm12.12,28.79-8.75,5.14-8.69,5.11a1.39,1.39,0,0,1-2.09-1.2v-20.51a1.39,1.39,0,0,1,2.09-1.2l8.69,5.11,8.75,5.15A1.4,1.4,0,0,1,241.19-119.68Z" transform="translate(-201.48 148.47)"/></svg>