<?xml version="1.0" encoding="utf-8"?>
<!-- Generator: Adobe Illustrator 24.0.2, SVG Export Plug-In . SVG Version: 6.00 Build 0)  -->
<svg version="1.1" id="Ebene_1" xmlns="http://www.w3.org/2000/svg" xmlns:xlink="http://www.w3.org/1999/xlink" x="0px" y="0px"
	 viewBox="0 0 158 117" style="enable-background:new 0 0 158 117;" xml:space="preserve">
<style type="text/css">
	.st0{enable-background:new    ;}
	.st1{fill:#7A9D34;}
</style>
<title>Navigation_Icons</title>
<g>
	<g id="Ebene_1_1_">
		<g class="st0">
			<path class="st1" d="M59.9,101.9L59.9,101.9l1.3-6.2h1.5l-2,8.5h-1.3l-1.7-6.1h0l-1.7,6.1h-1.3l-2-8.5h1.5l1.3,6.1h0l1.6-6.1h1.3
				L59.9,101.9z"/>
			<path class="st1" d="M69.8,100.5h-3.3v2.7h3.9v1.1H65v-8.5h5.3v1.1h-3.9v2.4h3.3V100.5z"/>
		</g>
		<g class="st0">
			<path class="st1" d="M78.8,96.9h-2.6v7.4h-1.4v-7.4h-2.6v-1.1h6.7V96.9z"/>
		</g>
		<g class="st0">
			<path class="st1" d="M87.1,96.9h-2.6v7.4h-1.4v-7.4h-2.6v-1.1h6.7V96.9z"/>
			<path class="st1" d="M94.2,100.5h-3.3v2.7h3.9v1.1h-5.4v-8.5h5.3v1.1h-3.9v2.4h3.3V100.5z"/>
		</g>
		<g class="st0">
			<path class="st1" d="M98.7,100.8v3.5h-1.4v-8.5h2.9c0.9,0,1.7,0.2,2.2,0.6s0.8,1,0.8,1.8c0,0.4-0.1,0.8-0.3,1.1s-0.6,0.6-1,0.8
				c0.5,0.2,0.8,0.4,1,0.7s0.3,0.8,0.3,1.3v0.7c0,0.3,0,0.5,0.1,0.7s0.2,0.4,0.3,0.5v0.1h-1.5c-0.2-0.1-0.3-0.3-0.3-0.6
				s-0.1-0.5-0.1-0.8v-0.7c0-0.4-0.1-0.8-0.4-1s-0.6-0.4-1-0.4H98.7z M98.7,99.6h1.4c0.6,0,1-0.1,1.2-0.3s0.4-0.6,0.4-1
				c0-0.4-0.1-0.8-0.4-1s-0.7-0.4-1.2-0.4h-1.5V99.6z"/>
		</g>
		<g>
			<g>
				<path class="st1" d="M67.5,63.1L57.2,79.9l2.5,1.6l10.3-16.7L67.5,63.1z M62.2,54.9L43.8,61l0.9,2.8l18.5-6.1L62.2,54.9z
					 M63.8,44.5l-18-7.4l-1.1,2.7l18,7.4L63.8,44.5z M68.7,39.2l2.6-1.4l-9.1-17.4l-2.5,1.4L68.7,39.2z M76.3,42
					c-5.2,0.1-9.3,4.3-9.3,9.5c0.1,4.1,2.7,7.6,6.6,8.8c0.8-1,1.7-1.8,2.8-2.5c-0.1-1.1,0-2.2,0.2-3.3c0.8-3.9,3.7-7,7.5-8.2
					C82.5,43.7,79.5,42,76.3,42 M81.2,37.6l4-19.3l-2.8-0.6l-4,19.3L81.2,37.6z M89,43.9l15.3-12.2l-1.8-2.3L87.2,41.6L89,43.9z
					 M111,63.1c-0.7-0.9-1.6-1.7-2.7-2.1l0,0c-0.4-0.2-0.8-0.3-1.3-0.4c-0.6-0.1-1.2-0.2-1.8-0.1c0.5-0.7,0.8-1.5,1-2.4
					c0.7-3.5-1.5-6.9-5-7.6c0,0,0,0,0,0c-0.4-0.1-0.7-0.1-1.1-0.1c-0.9,0-1.8,0.1-2.6,0.5c-1.3,0.5-2.3,1.4-3.1,2.6
					c-1.9-3.9-6.7-5.6-10.6-3.6c-3.7,1.8-5.4,6.2-3.9,10c-3.6,0.7-5.9,4.1-5.2,7.7s4.1,5.9,7.7,5.2c1-0.2,2-0.6,2.8-1.3
					c0.6,4.7,5,8,9.7,7.4c3.4-0.5,6.3-2.9,7.2-6.3c0.7,0.5,1.5,0.8,2.3,1c2.6,0.5,5.2-0.5,6.7-2.7c0.5-0.7,0.8-1.5,1-2.4l0,0
					C112.5,66.6,112.1,64.7,111,63.1"/>
			</g>
		</g>
	</g>
</g>
</svg>
