<svg id="Ebene_1" data-name="Ebene 1" xmlns="http://www.w3.org/2000/svg" viewBox="0 0 42.52 42.52"><defs><style>.cls-1{fill:#7a9e33;}</style></defs><title>Icons_Geräteliste</title><path class="cls-1" d="M28.19,37.15a1.69,1.69,0,1,0,3.37,0,57.5,57.5,0,0,0-1.69-6.27,57.77,57.77,0,0,0-1.68,6.27m9-9.93L28.5,29.43a.65.65,0,0,1-.79-.47l-.6-2.37a.64.64,0,0,1,.47-.79l.51-.13a2.75,2.75,0,0,0-2.29-2.94,7.46,7.46,0,0,1-5.87,2.43,7.26,7.26,0,0,1-6-2.65H11.34a3.74,3.74,0,0,1-3.19,1.78H6V12.81H8.15a3.72,3.72,0,0,1,3.14,1.7h0V18a.5.5,0,0,0,.5.5.51.51,0,0,0,.5-.5V14.51h2.56V12.43a1.26,1.26,0,0,1,1.24-1.25h2.71a.5.5,0,0,0,.5-.5.5.5,0,0,0-.5-.5H17.57v-2a3.27,3.27,0,0,1-1-.7C13.37,7.77,9.79,8,9.29,8a1.69,1.69,0,1,1,0-3.38c.49,0,3.9.2,7.06.53a4.28,4.28,0,0,1,3.58-1.55,4.28,4.28,0,0,1,3.58,1.55c3.16-.33,6.58-.53,7.06-.53a1.69,1.69,0,0,1,0,3.38c-.5,0-4.08-.22-7.31-.56a3.35,3.35,0,0,1-1,.7v3h1.45A1.25,1.25,0,0,1,25,12.43v2.14c3.49.24,6.13,1.29,8,3.18a10,10,0,0,1,2.68,4.93l-1.58.4a.5.5,0,0,0-.36.61.49.49,0,0,0,.6.36l1.9-.47a.66.66,0,0,1,.79.47l.6,2.38a.65.65,0,0,1-.47.79"/></svg>