<svg id="Ebene_1" data-name="Ebene 1" xmlns="http://www.w3.org/2000/svg" viewBox="0 0 42.52 42.52"><defs><style>.cls-1{fill:#7a9e33;}</style></defs><title>Icons_Geräteliste</title><path class="cls-1" d="M28.53,37.88H14.11a43.68,43.68,0,0,1-2.38-9,77.3,77.3,0,0,0,9.78.61,69.39,69.39,0,0,0,9.59-.62c0,.16-.05.32-.08.47a32.54,32.54,0,0,1-2.49,8.55m-14.44-32H28.43a53.23,53.23,0,0,1,2.27,8.34,75.77,75.77,0,0,0-18.85,0,42.73,42.73,0,0,1,2.24-8.32M11.51,16.59a73.89,73.89,0,0,1,19.58,0,45.3,45.3,0,0,1,.28,9.84,72.55,72.55,0,0,1-19.94,0,46.51,46.51,0,0,1,.08-9.88M30.34,4.26l-.28-.76H12.56l-.31.69A41.94,41.94,0,0,0,9.38,14.81a47.85,47.85,0,0,0,2.84,24.68l.3.73H29.93l.33-.59a31.37,31.37,0,0,0,3.06-9.81c.91-5.61,1.13-14.61-3-25.56"/></svg>