<svg id="Ebene_1" data-name="Ebene 1" xmlns="http://www.w3.org/2000/svg" viewBox="0 0 42.52 42.52"><defs><style>.cls-1{fill:#7a9e33;}</style></defs><title>Icons_Geräteliste</title><path class="cls-1" d="M17.75,9.83A8.19,8.19,0,0,1,21,11.46a.4.4,0,0,0,.63-.13l.2-.41A8.76,8.76,0,0,1,23,12.15a5,5,0,0,1,.51,2.47l2.64,2.63c.18-2.06.22-5.1-.95-6.71-1.53-2.09-7.18-5.76-7.82-6.17a1.36,1.36,0,0,0-1.84.36l-3.83,5.41a10.63,10.63,0,0,1,3.55-.31L17,7.38l1,.71c-.18.36-.34.69-.58,1.16a.39.39,0,0,0,.26.58"/><path class="cls-1" d="M28.69,22.31l-4,4.05L35.46,36.64a.62.62,0,0,0,.91-.1l2.22-2.23a.63.63,0,0,0,.12-.91Z"/><path class="cls-1" d="M16.16,22.47a2.81,2.81,0,1,1,0-4,2.81,2.81,0,0,1,0,4M5.59,21.13,4.37,22.35a.34.34,0,0,0,0,.46l7.43,7.44a.35.35,0,0,0,.47,0l1.18-1.19a8.85,8.85,0,0,0,6.76-2.12l2.45-2.45.81.74,4.12-4.12L20.4,13.79A8.87,8.87,0,0,0,8.14,14a8.76,8.76,0,0,0-2.55,7.11"/></svg>