<svg id="Ebene_1" data-name="Ebene 1" xmlns="http://www.w3.org/2000/svg" viewBox="0 0 42.39 42.52"><defs><style>.cls-1{fill:#7a9e33;}</style></defs><title>Icons_Geräteliste</title><path class="cls-1" d="M27.86,15.26A16.06,16.06,0,0,0,17.4,6.57a1.66,1.66,0,0,0-2,1,45.93,45.93,0,0,0-1.81,6,14.22,14.22,0,0,0,1,7.88A25.32,25.32,0,0,1,28,15.71C27.94,15.5,27.91,15.38,27.86,15.26Z"/><path class="cls-1" d="M14.08,7.85c-5.73,3.33-9.76,8-11.48,14.4A33,33,0,0,0,2,26.6a25.69,25.69,0,0,1,11.62-5.14C11.83,16.86,12.25,12.34,14.08,7.85Z"/><path class="cls-1" d="M28.67,14.85c3.65-2.28,7.37-4.12,11.69-4.44C36.39,5.5,25.72,3.27,18.51,6A16.75,16.75,0,0,1,28.67,14.85Z"/><path class="cls-1" d="M16.25,5.47l-.89-2-.91.42c.32.72.59,1.34.88,2Z"/><rect class="cls-1" x="25.2" y="19.17" width="2.16" height="20.9" transform="translate(-9.34 12.32) rotate(-22.52)"/></svg>