<?xml version="1.0" encoding="utf-8"?>
<!-- Generator: Adobe Illustrator 24.0.2, SVG Export Plug-In . SVG Version: 6.00 Build 0)  -->
<svg version="1.1" id="Ebene_1" xmlns="http://www.w3.org/2000/svg" xmlns:xlink="http://www.w3.org/1999/xlink" x="0px" y="0px"
	 viewBox="0 0 231.8 60.9" style="enable-background:new 0 0 231.8 60.9;" xml:space="preserve">
<style type="text/css">
	.st0{fill:#FFFFFF;}
</style>
<title>Gardify_Logo_Header</title>
<g>
	<g>
		<path class="st0" d="M56.5,32.8c-0.7-3.1-2.2-5.9-4.2-8.3c-1.3-1.4-4-4.7-6-11.2c-1.1-3.5-2.7-6.8-4.8-9.7c0-0.1,0-0.1,0-0.2h0.1
			c4.1,1,7.7,3.8,10.4,6.3c2,1.7,3.7,3.8,5,6.1c1.1,2,2,4.2,2.6,6.4c1.5,5.1,1.1,9.6,0,14.7c-0.5,1.8-1.1,3.6-1.8,5.3
			c0,0.1-0.1,0.1-0.1,0.1s-0.1,0-0.1-0.1C57.6,39.1,57.2,36,56.5,32.8"/>
		<path class="st0" d="M38.1,17.5c-0.1,0-0.1-0.1,0-0.2c0,0,0.1-0.1,0.1,0c1.1,0.3,2.9,0.8,4.1,1.1c5.4,2.1,9.5,6.7,11.1,12.3
			c0,0.1,0,0.1,0,0.1h-0.1c-1.2-1.3-2.6-2.4-4.2-3.1C41.7,24.4,42.8,20.1,38.1,17.5"/>
		<path class="st0" d="M38.9,29.3c1.3,3.8-0.6,7.9-4.4,9.3c-3.8,1.3-7.9-0.6-9.3-4.4s0.6-7.9,4.4-9.3l0,0
			C33.4,23.5,37.6,25.5,38.9,29.3"/>
		<path class="st0" d="M33.3,58.7C33.2,58.7,33.2,58.8,33.3,58.7c-0.1,0.1-0.1,0.2,0,0.2c3.3,0.1,6.6-0.6,9.5-2.2
			c5.8-3.1,6.7-7.3,6.2-10.5c-0.6-3.1-1.4-6.2-2.4-9.3c0,0-0.1-0.1-0.2,0l0,0c-0.8,0.8-5.2,5.5-5.6,10.7
			C40.5,51.4,38,56.9,33.3,58.7"/>
		<path class="st0" d="M38,50.5c0,0,0.1,0,0.2,0v0.1c-1.3,2.5-3.2,4.7-5.5,6.3C27.8,60,21.3,57,19.5,56.1c-0.1,0-0.1-0.1-0.1-0.1
			l0.1-0.1c2.6,0.3,5.2,0.3,7.8,0.1C30,55.5,32.3,55.4,38,50.5"/>
		<path class="st0" d="M38.3,46.8C38.4,46.8,38.4,46.9,38.3,46.8L38.3,46.8c-2.1,3-5.1,5.1-8.6,6.3c-7.5,2.6-13.8,1.4-20.5-5.4
			c0,0,0-0.1,0-0.2h0.1c1.6,0.9,3.3,1.5,5.1,1.6c1.2,0.1,2.5,0.1,3.7-0.2c2.2-0.4,8.3-2.3,12.5-2.6C33.3,46.3,35.8,46.4,38.3,46.8"
			/>
		<path class="st0" d="M3.6,24.4c0,0-1.4,8.3,0.6,13.9c1.6,4.2,5.5,11.5,22.6,7.2c0.1,0,0.1,0,0.1-0.1s0-0.1-0.1-0.1
			c-3.4-0.4-6.4-2.3-8.1-5.2c-3.3-5.2-7.1-3.6-10.3-7.2C6.1,30.4,4.5,27.5,3.6,24.4"/>
		<path class="st0" d="M12.4,33.7c2.6-0.2,4.7-2.1,5.2-4.6c1.7-7.6,6.7-10.4,10.2-12.2c0.1,0,0.1-0.1,0.1-0.1l-0.1-0.1
			c-2.2,0.2-10.3,1.2-14.1,6.6c-1.3,1.9-2,4.1-1.8,6.4C12,32.6,12.1,33.5,12.4,33.7"/>
		<path class="st0" d="M21.6,4.8c-0.1,0-0.1-0.2,0-0.2c1.6-0.7,10.6-4.3,15-1.9c4.7,2.6,6.3,6.8,7.6,11.4c0,0.1,0,0.1-0.1,0.1
			s-0.1,0-0.1,0l0,0c-1.6-2.3-3.7-4.1-6.1-5.3c-4.4-1.9-6.6-1.3-8.8-1.6C26.4,7.2,23.8,6.3,21.6,4.8"/>
		<path class="st0" d="M10,31.8c0,0.1,0,0.1-0.1,0.1H9.8C4.7,27.2,4,19.3,8.2,13.8c1.8-2.8,4.5-4.9,7.6-6.1
			c4.1-1.5,7.4,0.1,10.6,1.5c0.1,0,0.1,0.1,0.1,0.1s0,0-0.1,0.1c-4.8,2.4-4.3,4.9-8.4,7.6C12.9,20.3,8.7,24.1,10,31.8"/>
		<path class="st0" d="M29.1,14.1c-2.1-0.6-4.4-0.3-6.4,0.7C22.4,15,22.3,15,22.3,15s0-0.2,0.4-0.6c1.3-1.5,2.8-2.7,4.5-3.5
			c2.5-1,5.2-1.2,7.8-0.6c5.2,1.1,8.7,5.8,9.4,6.4c0.1,0.1,0.2,0.3,0.1,0.3s-0.2,0-0.3,0c-2.8-1.7-6.1-2.5-9.3-2.1
			C32.9,15,31,14.7,29.1,14.1"/>
		<path class="st0" d="M54.9,41.4c0.2,4.7-3.1,9-4.3,10.5c0,0.1-0.1,0.1-0.2,0c0,0-0.1-0.1,0-0.1c1.2-3.1,1.2-6.4,0.1-9.5
			c-1.8-5.5-2.7-7.7-2.9-13c0-0.1,0-0.1,0.1-0.1l0,0c1.5,0.5,2.8,1.4,3.8,2.6C53.7,34.6,54.9,37.9,54.9,41.4"/>
		<path class="st0" d="M89.9,36.2L89.9,36.2c-1.2,2.3-3.7,3.7-6.4,3.6c-4.2,0.2-7.7-3.1-7.9-7.3c0-0.2,0-0.4,0-0.7
			c0.2-4.5,4-8,8.5-7.9c4.3,0.2,7.7,3.6,7.9,7.9v6.3c0,5.9-3.5,8.2-8.1,8.2c-3.7,0-6.6-1.5-7.6-4.9h2.1c0.8,2.2,3,3.1,5.5,3.1
			c3.5,0,6-1.8,6-6.3V36.2z M83.8,25.8c-3.2-0.1-6,2.4-6.1,5.6c0,0.2,0,0.3,0,0.5c0.1,3.4,3,6,6.4,5.9c3.2-0.1,5.7-2.7,5.9-5.9
			c0.1-3.2-2.4-6-5.6-6.1C84.1,25.8,84,25.8,83.8,25.8"/>
		<path class="st0" d="M112.1,39.5h-1.9v-3.6h-0.1c-1.1,2.6-3.7,4.1-6.5,4c-4.2,0.1-7.8-3.2-7.9-7.4c0-0.2,0-0.4,0-0.6
			c0.2-4.5,4-8,8.5-7.9c4.3,0.2,7.7,3.6,7.9,7.9V39.5z M110,31.9c0-3.4-2.7-6.1-6.1-6.1s-6.1,2.7-6.1,6.1s2.7,6.1,6.1,6.1l0,0
			c3.2,0.1,6-2.4,6.1-5.6C110,32.2,110,32.1,110,31.9"/>
		<path class="st0" d="M127.3,30.6v-0.2c0-3.2-1.8-4.6-4.4-4.6s-4.4,1.4-4.4,4.6v9.1h-2.1v-9.1c0-4.4,2.6-6.5,6.4-6.5
			s6.4,2.1,6.4,6.5v0.2H127.3z"/>
		<path class="st0" d="M132.3,31.9c-0.2-4.2,3.1-7.8,7.3-8c0.2,0,0.4,0,0.6,0c2.6-0.1,5.1,1.2,6.4,3.5h0.1v-9.8h2.1v14.2
			c-0.1,4.5-3.9,8.1-8.4,7.9C135.9,39.6,132.5,36.2,132.3,31.9 M146.6,31.9c0-3.4-2.7-6.1-6.1-6.1c-3.4,0-6.1,2.7-6.1,6.1
			s2.7,6.1,6.1,6.1l0,0c3.2,0.1,6-2.4,6.1-5.6C146.6,32.2,146.6,32.1,146.6,31.9"/>
		<path class="st0" d="M152.8,20.1c0-0.9,0.7-1.6,1.6-1.6c0.9,0,1.6,0.7,1.6,1.6s-0.7,1.6-1.6,1.6S152.8,21,152.8,20.1 M153.4,24.3
			h2.1v15.3h-2.1V24.3z"/>
		<path class="st0" d="M160.5,39.5V23.6c0-4.3,2.6-6.5,6.4-6.5s6.4,2.2,6.4,6.5h-2c0-3.2-1.8-4.6-4.4-4.6s-4.4,1.5-4.4,4.5v2.7h9
			v1.9h-9v11.2h-2V39.5z"/>
		<path class="st0" d="M188.3,24.3h2.1V39c0,5.3-3.4,7.5-7.6,7.5c-3.5,0-6.3-1.6-7.3-4.9h2.1c0.8,2.1,2.7,3.1,5.2,3.1
			c3.3,0,5.5-1.6,5.5-5.6v-2.4h-0.1c-1.1,2.1-3.3,3.4-5.7,3.2c-4.1,0-7.2-2.5-7.2-7.7v-7.9h2.1v7.9c0,3.8,2.2,5.8,5.5,5.8
			s5.5-2,5.5-5.8v-7.9H188.3z"/>
		<path class="st0" d="M197.3,21.4h0.6c0.6,0,1.1-0.2,1.1-0.7s-0.3-0.8-1-0.8c-0.2,0-0.4,0-0.6,0.1L197.3,21.4z M197.3,24.2h-1.1
			v-4.9c0.6-0.1,1.3-0.2,1.9-0.2c0.6-0.1,1.2,0.1,1.7,0.4c0.3,0.2,0.5,0.6,0.5,1c0,0.6-0.4,1.1-1,1.2v0.1c0.5,0.2,0.9,0.7,0.9,1.2
			c0,0.4,0.2,0.8,0.4,1.2h-1.2c-0.2-0.4-0.3-0.8-0.4-1.2c-0.1-0.5-0.4-0.8-1-0.8h-0.5L197.3,24.2z M198.1,17.7
			c-2.2,0.1-3.8,2-3.7,4.2c0.1,2,1.7,3.6,3.8,3.7c2.1,0,3.8-1.7,3.8-3.8c0-0.1,0-0.1,0-0.2c0.1-2.1-1.6-3.9-3.7-3.9
			C198.2,17.7,198.2,17.7,198.1,17.7L198.1,17.7z M198.2,16.7c2.8,0.1,4.9,2.4,4.9,5.1c-0.1,2.8-2.4,4.9-5.1,4.9
			c-2.7-0.1-4.9-2.3-4.9-5.1c0-2.7,2.2-4.9,5-4.9C198.1,16.7,198.1,16.7,198.2,16.7z"/>
	</g>
</g>
</svg>
