<?xml version="1.0" encoding="UTF-8" standalone="no"?>
<svg
   xmlns:dc="http://purl.org/dc/elements/1.1/"
   xmlns:cc="http://creativecommons.org/ns#"
   xmlns:rdf="http://www.w3.org/1999/02/22-rdf-syntax-ns#"
   xmlns:svg="http://www.w3.org/2000/svg"
   xmlns="http://www.w3.org/2000/svg"
   xmlns:sodipodi="http://sodipodi.sourceforge.net/DTD/sodipodi-0.dtd"
   xmlns:inkscape="http://www.inkscape.org/namespaces/inkscape"
   inkscape:version="1.0 (4035a4fb49, 2020-05-01)"
   sodipodi:docname="netzlab_Logo.svg"
   version="1.1"
   viewBox="0 0 315.5 126.44"
   data-name="Ebene 1"
   id="Ebene_1">
  <metadata
     id="metadata53">
    <rdf:RDF>
      <cc:Work
         rdf:about="">
        <dc:format>image/svg+xml</dc:format>
        <dc:type
           rdf:resource="http://purl.org/dc/dcmitype/StillImage" />
      </cc:Work>
    </rdf:RDF>
  </metadata>
  <sodipodi:namedview
     inkscape:current-layer="Ebene_1"
     inkscape:window-maximized="1"
     inkscape:window-y="-6"
     inkscape:window-x="-6"
     inkscape:cy="-2.9019622"
     inkscape:cx="207.56552"
     inkscape:zoom="2.3734583"
     showgrid="false"
     id="namedview51"
     inkscape:window-height="738"
     inkscape:window-width="1280"
     inkscape:pageshadow="2"
     inkscape:pageopacity="0"
     guidetolerance="10"
     gridtolerance="10"
     objecttolerance="10"
     borderopacity="1"
     bordercolor="#666666"
     pagecolor="#ffffff" />
  <defs
     id="defs4">
    <style
       id="style2">.cls-1{fill:#c86835;}.cls-2,.cls-3{fill:none;stroke:#c86835;}.cls-2{stroke-width:1.25px;}.cls-3{stroke-width:0.5px;}</style>
  </defs>
  <title
     id="title6">netzlab_Logo_mit_Unterzeile_v3_2</title>
  <path
     style="stroke:#ffffff;stroke-opacity:1;fill:#ffffff;fill-opacity:1"
     id="path8"
     transform="translate(-259.71 -233.28)"
     d="M260.83,354.17V351.8h1.47v2.37Z"
     class="cls-1" />
  <path
     style="stroke:#ffffff;stroke-opacity:1;fill:#ffffff;fill-opacity:1"
     id="path10"
     transform="translate(-259.71 -233.28)"
     d="M281.44,344.27v6.32a19.38,19.38,0,0,0,.3,3.58h-1a17.29,17.29,0,0,1-.24-2.88h0a5.81,5.81,0,0,1-5.58,3.18c-3,0-5-1.71-5-4.29,0-2.4,1.38-3.9,5.49-4.53,1.41-.21,3.54-.48,5.07-.6v-.87c0-3.27-1.8-4.62-4.29-4.62-2.91,0-4.38,1.65-4.53,4h-1.11c.18-2.91,2.16-4.92,5.64-4.92C279.25,338.6,281.44,340.34,281.44,344.27ZM280.39,346c-1.47.12-3.63.39-4.95.6-3.39.51-4.5,1.65-4.5,3.54,0,2,1.59,3.36,4.11,3.36a5.07,5.07,0,0,0,3.87-1.56c1.08-1.17,1.47-2.07,1.47-4.35Z"
     class="cls-1" />
  <path
     style="stroke:#ffffff;stroke-opacity:1;fill:#ffffff;fill-opacity:1"
     id="path12"
     transform="translate(-259.71 -233.28)"
     d="M303.58,346.55c0,4.89-2.46,7.92-6.39,7.92a5.18,5.18,0,0,1-5.07-3.57h0v8.82H291V338.93h1.08v3.24h0a5.21,5.21,0,0,1,5.07-3.57C301.12,338.6,303.58,341.63,303.58,346.55Zm-11.55,0c0,4.29,2,7,5,7,3.33,0,5.4-2.67,5.4-7s-2.07-7-5.4-7C294,339.56,292,342.23,292,346.55Z"
     class="cls-1" />
  <path
     style="stroke:#ffffff;stroke-opacity:1;fill:#ffffff;fill-opacity:1"
     id="path14"
     transform="translate(-259.71 -233.28)"
     d="M324.7,346.55c0,4.89-2.46,7.92-6.39,7.92a5.18,5.18,0,0,1-5.07-3.57h0v8.82h-1.08V338.93h1.08v3.24h0a5.21,5.21,0,0,1,5.07-3.57C322.24,338.6,324.7,341.63,324.7,346.55Zm-11.55,0c0,4.29,2,7,5,7,3.33,0,5.4-2.67,5.4-7s-2.07-7-5.4-7C315.1,339.56,313.15,342.23,313.15,346.55Z"
     class="cls-1" />
  <path
     style="stroke:#ffffff;stroke-opacity:1;fill:#ffffff;fill-opacity:1"
     id="path16"
     transform="translate(-259.71 -233.28)"
     d="M341.44,354.17V351.8h1.47v2.37Z"
     class="cls-1" />
  <path
     style="stroke:#ffffff;stroke-opacity:1;fill:#ffffff;fill-opacity:1"
     id="path18"
     transform="translate(-259.71 -233.28)"
     d="M361.3,343.82h-1.11c0-2.67-1.59-4.23-4.32-4.23-2.28,0-3.93,1.17-3.93,3.06,0,2,1.32,2.46,4.14,3.09,3.39.75,5.67,1.44,5.67,4.5,0,2.52-2.19,4.26-5.34,4.26-3.72,0-5.85-2-5.88-5.52h1.08c0,2.88,1.74,4.53,4.8,4.53,2.46,0,4.26-1.29,4.26-3.21,0-2.25-1.44-2.76-4.89-3.54-2.82-.63-4.92-1.23-4.92-4.05,0-2.49,2.13-4.11,5-4.11C359.26,338.6,361.27,340.55,361.3,343.82Z"
     class="cls-1" />
  <path
     style="stroke:#ffffff;stroke-opacity:1;fill:#ffffff;fill-opacity:1"
     id="path20"
     transform="translate(-259.71 -233.28)"
     d="M382.33,346.55c0,4.95-2.52,7.95-6.69,7.95s-6.66-3-6.66-7.95,2.52-7.95,6.66-7.95S382.33,341.6,382.33,346.55Zm-12.24,0c0,4.35,2.07,7,5.55,7s5.58-2.61,5.58-7-2.07-7-5.58-7S370.09,342.2,370.09,346.55Z"
     class="cls-1" />
  <path
     style="stroke:#ffffff;stroke-opacity:1;fill:#ffffff;fill-opacity:1"
     id="path22"
     transform="translate(-259.71 -233.28)"
     d="M392.59,336.62v2.31h3.18v1h-3.18v14.28h-1.08V339.89h-2.82v-1h2.82v-2.4c0-2.58,1.17-3.81,3.3-3.81a4.84,4.84,0,0,1,1,.09v1a3.37,3.37,0,0,0-.87-.12C393.37,333.68,392.59,334.55,392.59,336.62Z"
     class="cls-1" />
  <path
     style="stroke:#ffffff;stroke-opacity:1;fill:#ffffff;fill-opacity:1"
     id="path24"
     transform="translate(-259.71 -233.28)"
     d="M408.34,353.12v1a7,7,0,0,1-1.17.11c-2.25,0-3.18-1.07-3.18-3.74V339.89h-2.85v-1H404v-3.51h1.08v3.51h3.12v1h-3.12v10.59c0,2,.6,2.76,2.22,2.76A5.07,5.07,0,0,0,408.34,353.12Z"
     class="cls-1" />
  <path
     style="stroke:#ffffff;stroke-opacity:1;fill:#ffffff;fill-opacity:1"
     id="path26"
     transform="translate(-259.71 -233.28)"
     d="M429.46,354.17l-2.37-7.44L425,340h-.06l-2.13,6.78-2.37,7.44h-1.56L414,338.93h1.11l2.22,7.05,2.22,7.14h.06c.75-2.34,1.5-4.74,2.25-7.11l2.19-7.08h1.68L428,346c.75,2.37,1.5,4.77,2.25,7.11h.06l2.22-7.14,2.22-7.05h1.11L431,354.17Z"
     class="cls-1" />
  <path
     style="stroke:#ffffff;stroke-opacity:1;fill:#ffffff;fill-opacity:1"
     id="path28"
     transform="translate(-259.71 -233.28)"
     d="M453.4,344.27v6.32a19.38,19.38,0,0,0,.3,3.58h-1a17.29,17.29,0,0,1-.24-2.88h0a5.81,5.81,0,0,1-5.58,3.18c-3,0-5-1.71-5-4.29,0-2.4,1.38-3.9,5.49-4.53,1.41-.21,3.54-.48,5.07-.6v-.87c0-3.27-1.8-4.62-4.29-4.62-2.91,0-4.38,1.65-4.53,4h-1.11c.18-2.91,2.16-4.92,5.64-4.92C451.21,338.6,453.4,340.34,453.4,344.27Zm-1,1.74c-1.47.12-3.63.39-5,.6-3.39.51-4.5,1.65-4.5,3.54,0,2,1.59,3.36,4.11,3.36a5.07,5.07,0,0,0,3.87-1.56c1.08-1.17,1.47-2.07,1.47-4.35Z"
     class="cls-1" />
  <path
     style="stroke:#ffffff;stroke-opacity:1;fill:#ffffff;fill-opacity:1"
     id="path30"
     transform="translate(-259.71 -233.28)"
     d="M469.87,338.93V340a7.93,7.93,0,0,0-.87-.06c-3,0-4.95,1.95-4.95,5.79v8.46H463V338.93h1.08v3h0a5.1,5.1,0,0,1,4.89-3.06A4.58,4.58,0,0,1,469.87,338.93Z"
     class="cls-1" />
  <path
     style="stroke:#ffffff;stroke-opacity:1;fill:#ffffff;fill-opacity:1"
     id="path32"
     transform="translate(-259.71 -233.28)"
     d="M487.74,349.67h1.14c-.45,2.76-2.64,4.83-6.12,4.83-4.14,0-6.69-3.21-6.69-8.25,0-4.56,2.49-7.65,6.51-7.65,3.36,0,5.67,2.1,6.27,5.49a13.42,13.42,0,0,1,.18,2.55H477.15c.06,4.38,2.31,6.9,5.61,6.9A4.67,4.67,0,0,0,487.74,349.67Zm-10.59-4H488c-.12-3.93-2.31-6.12-5.4-6.12C479.31,339.56,477.3,342,477.15,345.68Z"
     class="cls-1" />
  <path
     style="stroke:#ffffff;stroke-opacity:1;fill:#ffffff;fill-opacity:1"
     id="path34"
     transform="translate(-259.71 -233.28)"
     d="M505.78,354.17V351.8h1.47v2.37Z"
     class="cls-1" />
  <path
     style="stroke:#ffffff;stroke-opacity:1;fill:#ffffff;fill-opacity:1"
     id="path36"
     transform="translate(-259.71 -233.28)"
     d="M528.06,354.17l-2.37-7.44L523.56,340h-.06l-2.12,6.78L519,354.17h-1.56l-4.8-15.24h1.11L516,346l2.22,7.14h.06c.75-2.34,1.5-4.74,2.25-7.11l2.19-7.08h1.69l2.18,7.08c.75,2.37,1.5,4.77,2.25,7.11h.06l2.22-7.14,2.22-7.05h1.11l-4.8,15.24Z"
     class="cls-1" />
  <path
     style="stroke:#ffffff;stroke-opacity:1;fill:#ffffff;fill-opacity:1"
     id="path38"
     transform="translate(-259.71 -233.28)"
     d="M552.24,349.67h1.14c-.45,2.76-2.64,4.83-6.12,4.83-4.14,0-6.69-3.21-6.69-8.25,0-4.56,2.49-7.65,6.51-7.65,3.36,0,5.67,2.1,6.27,5.49a13.42,13.42,0,0,1,.18,2.55H541.65c.06,4.38,2.31,6.9,5.61,6.9A4.67,4.67,0,0,0,552.24,349.67Zm-10.59-4h10.83c-.12-3.93-2.31-6.12-5.4-6.12C543.81,339.56,541.8,342,541.65,345.68Z"
     class="cls-1" />
  <path
     style="stroke:#ffffff;stroke-opacity:1;fill:#ffffff;fill-opacity:1"
     id="path40"
     transform="translate(-259.71 -233.28)"
     d="M563.19,342.17a5.21,5.21,0,0,1,5.07-3.57c3.93,0,6.39,3,6.39,7.95s-2.46,7.92-6.39,7.92a5.18,5.18,0,0,1-5.07-3.57h0v3.27h-1.08V332.81h1.08v9.36Zm-.09,4.38c0,4.29,1.95,7,5,7,3.33,0,5.4-2.67,5.4-7s-2.07-7-5.4-7C565.05,339.56,563.1,342.23,563.1,346.55Z"
     class="cls-1" />
  <polygon
     style="fill:#ffffff;fill-opacity:1"
     id="polygon42"
     points="178.6 19.04 178.6 17.14 145.5 17.14 145.5 18.43 177.2 18.43 177.2 18.54 144.6 55.03 144.6 56.94 146 56.94 146 55.63 146 55.53 178.6 19.04 178.6 19.04"
     class="cls-1" />
  <path
     style="stroke:none;stroke-opacity:1;fill:#ffffff;fill-opacity:1"
     id="path44"
     transform="translate(-259.71 -233.28)"
     d="M276.31,249.71c-7.8,0-13.5,4.6-15.4,10.6h-.1c.3-3.4.3-6.6.3-9.9h-1.4v39.8h1.4v-24.9c0-8.4,7-14.4,15.2-14.4,8.4,0,13.6,4.9,13.6,15.1v24.2h1.4V266c0-10.9-5.8-16.3-15-16.3Zm50.5,40c-10.7,0-17.5-7.8-17.5-19.8h35a38.14,38.14,0,0,0-.4-5.9c-1.7-8.8-8.3-14.4-17.8-14.4-11,0-18.2,7.7-18.2,19.9,0,13.1,7.4,21.4,18.9,21.4,9.1,0,15.7-4.9,17-12.4h-1.5c-1.1,6.8-7.1,11.2-15.5,11.2Zm-.7-38.8c9.7,0,16.9,6.3,16.9,17.8h-33.7c.3-10.4,6.4-17.8,16.8-17.8Zm44.4,38.2c-4.8,0-6.6-2.2-6.6-7.8v-29.6h9.2v-1.3h-9.2v-9.2h-1.4v9.2h-8.4v1.3h8.4v29.6c0,6.3,2.4,9.1,8,9.1a23.33,23.33,0,0,0,3-.3v-1.3a23.33,23.33,0,0,1-3,.3Zm100.3,1.1v-55.7h-1.4v55.7Zm34.3-40.5c-9.6,0-15.1,5.1-15.7,12.8h1.4c.5-6.7,5.1-11.5,14.3-11.5,7.7,0,13.2,3.8,13.2,13.2v2.6c-4.9.5-11.6,1.3-15.6,1.8-11.2,1.5-15.2,5.4-15.2,11.5,0,6.7,5.8,11,14.4,11,8.2,0,14.3-4.1,16.5-10.6h.1a18.48,18.48,0,0,0-.1,2.3,58.59,58.59,0,0,0,.6,7.6h1.4a56.49,56.49,0,0,1-.8-8.9v-17.4c.1-10.1-6-14.4-14.5-14.4Zm13.2,23.4c0,6.5-1,8.9-4.3,12.2-2.7,2.7-6.6,4.5-12.1,4.5-7.8,0-13-3.7-13-9.7,0-5.3,3.4-8.8,14-10.2,3.8-.5,10.8-1.3,15.4-1.8v5Zm23.1-38.6H540v55.7h1.4V288c0-3.2,0-6.5-.3-9.9h.1c1.7,7.2,6.7,12.9,15.6,12.9,11.4,0,18.4-7.8,18.4-20.7s-7-20.7-18.4-20.7c-9,0-13.9,5.7-15.6,12.9h-.1c.3-3.4.3-6.7.3-9.9v-18.1Zm15.5,16.4c10.6,0,17,7.4,17,19.4s-6.4,19.4-17,19.4c-9.6,0-15.6-7.4-15.6-19.4s6-19.4,15.6-19.4Z"
     class="cls-1" />
  <path
     style="stroke:#ffffff;stroke-opacity:1"
     id="path46"
     transform="translate(-259.71 -233.28)"
     d="M404.81,289.61h26.5c10.1,0,19.8-5.1,21.4-19.2,0,0,3.9-35.8-30.3-36.5-34.7-.7-34.3,36.3-34.3,36.3s-1.2,35.7,33.5,36.3a32,32,0,0,0,16-4"
     class="cls-2" />
  <line
     style="stroke:#ffffff;stroke-opacity:1"
     id="line48"
     y2="88.72"
     x2="315.5"
     y1="88.72"
     class="cls-3" />
</svg>
