<svg id="Ebene_1" data-name="Ebene 1" xmlns="http://www.w3.org/2000/svg" viewBox="0 0 42.52 42.52"><defs><style>.cls-1{fill:#7a9e33;}</style></defs><title>Icons_Geräteliste</title><path class="cls-1" d="M27.52,37.79l-.1.13V26.48a.84.84,0,0,0-.84-.84H16a.85.85,0,0,0-.84.84V37.92l-.09-.13"/><path class="cls-1" d="M5.71,24.8A1.17,1.17,0,0,0,5,25l-.07,0-.15.12a6,6,0,0,0-.46.42,4.17,4.17,0,0,0-.52.62,1.79,1.79,0,0,0,0,2.15,4.17,4.17,0,0,0,.52.62,6,6,0,0,0,.46.42l.15.12L5,29.6a1.11,1.11,0,0,0,1.34-1.78l0,0-.1-.09-.31-.28-.11-.12.11-.11.31-.28.1-.09,0,0a1.12,1.12,0,0,0,.22-1.56A1.13,1.13,0,0,0,5.71,24.8Z"/><path class="cls-1" d="M36.86,24.8a1.18,1.18,0,0,0-.84.45,1.12,1.12,0,0,0,.22,1.56l0,0,.1.09.31.28.11.11-.11.12-.31.28-.1.09,0,0a1.11,1.11,0,1,0,1.34,1.78l.07-.05.15-.12c.15-.13.31-.27.46-.42a4.17,4.17,0,0,0,.52-.62,1.79,1.79,0,0,0,0-2.15,4.17,4.17,0,0,0-.52-.62c-.15-.15-.31-.29-.46-.42l-.15-.12-.07,0a1.11,1.11,0,0,0-.72-.23"/><path class="cls-1" d="M32.67,21.18a1.17,1.17,0,0,0-.84.44,1.13,1.13,0,0,0,.22,1.57l0,0,.1.08a2.8,2.8,0,0,1,.31.28c.09.09.06.05.11.12l-.11.12-.31.28-.1.08,0,0A1.12,1.12,0,0,0,33.39,26l.07-.06a.79.79,0,0,0,.15-.12,6,6,0,0,0,.46-.42,3.64,3.64,0,0,0,.52-.62A1.87,1.87,0,0,0,35,23.69a1.85,1.85,0,0,0-.37-1.07,3.69,3.69,0,0,0-.52-.63,6,6,0,0,0-.46-.42l-.15-.12-.07-.05a1,1,0,0,0-.72-.22"/><path class="cls-1" d="M9.89,21.18a1.18,1.18,0,0,0-.72.22l-.06.05L9,21.57A5.89,5.89,0,0,0,8.5,22a3.77,3.77,0,0,0-.53.63,1.91,1.91,0,0,0-.36,1.07A1.93,1.93,0,0,0,8,24.76a3.72,3.72,0,0,0,.53.62A5.89,5.89,0,0,0,9,25.8l.16.12s.05,0,.06.06a1.12,1.12,0,1,0,1.34-1.79l0,0a.44.44,0,0,0-.1-.08l-.31-.28a.69.69,0,0,0-.11-.12l.11-.12.31-.28.1-.08,0,0a1.12,1.12,0,0,0,.23-1.57,1.14,1.14,0,0,0-.85-.44"/><path class="cls-1" d="M21.29,8.06h-.12a9.71,9.71,0,0,0-5.49,2.37,6.07,6.07,0,0,0-1.34,1.85,4.26,4.26,0,0,0-.23.65,2,2,0,0,0-.07.3.49.49,0,0,0,0,.12v2a.83.83,0,0,0,.84.83h1.67v2a.83.83,0,0,0,.84.83,1.16,1.16,0,0,1,1.11,1.14,1.13,1.13,0,0,1-1.11,1.1.83.83,0,0,0-.84.83v2H26V22a.84.84,0,0,0-.84-.83,1.12,1.12,0,1,1,0-2.24.84.84,0,0,0,.84-.83v-2H27.7a.84.84,0,0,0,.84-.83v-2a1.37,1.37,0,0,0,0-.19l-.09-.28a5.42,5.42,0,0,0-.27-.63,6.78,6.78,0,0,0-1.39-1.83,9.8,9.8,0,0,0-5.36-2.36Z"/><path class="cls-1" d="M36.86,17.55a1.12,1.12,0,0,0-.62,2l0,0,.1.08.31.28.11.12-.11.12-.31.28-.1.08,0,0a1.12,1.12,0,0,0,1.34,1.79l.07-.05.15-.13.46-.41a4.23,4.23,0,0,0,.52-.63,1.77,1.77,0,0,0,0-2.14,4.23,4.23,0,0,0-.52-.63L37.8,18l-.15-.13-.07-.05a1.16,1.16,0,0,0-.72-.22"/><path class="cls-1" d="M28.49,17.55a1.12,1.12,0,0,0-.62,2l0,0,.1.08.31.28.11.12-.11.12-.31.28-.1.08,0,0a1.12,1.12,0,0,0,1.34,1.79l.07-.05.15-.13.46-.41a4.23,4.23,0,0,0,.52-.63,1.77,1.77,0,0,0,0-2.14,4.23,4.23,0,0,0-.52-.63L29.43,18l-.15-.13-.07-.05a1.18,1.18,0,0,0-.72-.22"/><path class="cls-1" d="M5.71,17.55a1.22,1.22,0,0,0-.72.22l-.07.05L4.77,18c-.16.13-.31.27-.46.41a4.23,4.23,0,0,0-.52.63,1.77,1.77,0,0,0,0,2.14,4.23,4.23,0,0,0,.52.63c.15.14.3.28.46.41l.15.13.07.05a1.12,1.12,0,0,0,1.34-1.79l0,0-.1-.08-.31-.28-.11-.12.11-.12.31-.28.1-.08,0,0A1.12,1.12,0,0,0,6.55,18,1.1,1.1,0,0,0,5.71,17.55Z"/><path class="cls-1" d="M14.08,17.55a1.22,1.22,0,0,0-.72.22l-.07.05-.15.13c-.16.13-.31.27-.46.41a4.23,4.23,0,0,0-.52.63,1.77,1.77,0,0,0,0,2.14,4.23,4.23,0,0,0,.52.63c.15.14.3.28.46.41l.15.13.07.05a1.12,1.12,0,0,0,1.34-1.79l0,0-.1-.08-.31-.28-.11-.12.11-.12.31-.28.1-.08,0,0A1.12,1.12,0,0,0,14.92,18a1.1,1.1,0,0,0-.84-.45"/><path class="cls-1" d="M9.89,13.92a1.25,1.25,0,0,0-.72.22l-.06.06L9,14.32a5.89,5.89,0,0,0-.45.42,3.72,3.72,0,0,0-.53.62,1.79,1.79,0,0,0,0,2.15,4.17,4.17,0,0,0,.53.62,5.89,5.89,0,0,0,.45.42l.16.12.06,0a1.12,1.12,0,1,0,1.34-1.79l0,0-.1-.08-.31-.28L10,16.43a.69.69,0,0,0,.11-.12l.31-.28a.44.44,0,0,0,.1-.08l0,0a1.11,1.11,0,0,0,.23-1.56,1.15,1.15,0,0,0-.85-.45"/><path class="cls-1" d="M32.67,13.92a1.18,1.18,0,0,0-.84.45,1.12,1.12,0,0,0,.22,1.56l0,0,.1.08.31.28.11.12c-.05.07,0,0-.11.12a2.8,2.8,0,0,1-.31.28l-.1.08,0,0a1.12,1.12,0,0,0,1.34,1.79l.07,0,.15-.12a6,6,0,0,0,.46-.42,4.07,4.07,0,0,0,.52-.62,1.75,1.75,0,0,0,0-2.15,3.64,3.64,0,0,0-.52-.62,6,6,0,0,0-.46-.42.79.79,0,0,0-.15-.12l-.07-.06a1.16,1.16,0,0,0-.72-.22"/><path class="cls-1" d="M5.71,10.3a1.1,1.1,0,0,0-.72.22l-.07.05-.15.12a6,6,0,0,0-.46.42,4.17,4.17,0,0,0-.52.62,1.79,1.79,0,0,0,0,2.15,4.17,4.17,0,0,0,.52.62,6,6,0,0,0,.46.42l.15.12.07.05a1.11,1.11,0,0,0,1.34-1.78l0,0-.1-.09a2.7,2.7,0,0,1-.31-.28l-.11-.11.11-.12.31-.28.1-.08,0,0a1.12,1.12,0,0,0,.22-1.56A1.09,1.09,0,0,0,5.71,10.3Z"/><path class="cls-1" d="M36.86,10.3a1.13,1.13,0,0,0-.84.44,1.12,1.12,0,0,0,.22,1.56l0,0,.1.08.31.28.11.12-.11.11a2.7,2.7,0,0,1-.31.28l-.1.09,0,0a1.11,1.11,0,1,0,1.34,1.78l.07-.05.15-.12c.15-.13.31-.27.46-.42a4.17,4.17,0,0,0,.52-.62,1.79,1.79,0,0,0,0-2.15,4.17,4.17,0,0,0-.52-.62c-.15-.15-.31-.29-.46-.42l-.15-.12-.07-.05a1,1,0,0,0-.72-.22"/></svg>