<?xml version="1.0" encoding="utf-8"?>
<!-- Generator: Adobe Illustrator 23.0.3, SVG Export Plug-In . SVG Version: 6.00 Build 0)  -->
<svg version="1.1" id="Ebene_1" xmlns="http://www.w3.org/2000/svg" xmlns:xlink="http://www.w3.org/1999/xlink" x="0px" y="0px"
	 viewBox="0 0 31.29 31.29" style="enable-background:new 0 0 31.29 31.29;" xml:space="preserve">
<style type="text/css">
	.st0{fill:#7A9E33;}
</style>
<path class="st0" d="M24.97,10.94c0,0-4.1-0.17-5.59,1.26c-1.49,1.43-0.41,2.97-0.41,2.97l2.38-1.91c-0.06,0.19-0.12,0.41-0.27,0.61
	c-0.37,0.5-0.93,1.32-1.58,1.7c-0.65,0.37-1.01,0.38-1.66,0.77c-0.65,0.39-0.85,0.62-1.09,1.08c-0.07,0.13-0.13,0.35-0.17,0.59V3.32
	h-2v6.97c-0.01-0.01-0.01-0.03-0.02-0.04c-0.24-0.45-0.44-0.68-1.09-1.08c-0.65-0.39-1.01-0.4-1.66-0.77
	c-0.65-0.37-1.21-1.2-1.58-1.7c-0.15-0.2-0.21-0.42-0.27-0.61l2.38,1.91c0,0,1.08-1.54-0.41-2.97c-1.49-1.42-5.59-1.26-5.59-1.26
	S7.43,4.98,7.89,5.8C8.36,6.61,7.56,8.04,8.5,9.17c0.93,1.13,2.54,0.62,3.06,0.33c0.52-0.3,2.37-0.1,2.5,1.69
	c0.02,0.31,0.3,0.68,0.51,0.87v12.62c-0.01-0.01-0.01-0.03-0.02-0.04c-0.24-0.45-0.44-0.68-1.09-1.08c-0.65-0.39-1.01-0.4-1.66-0.77
	c-0.65-0.37-1.21-1.2-1.58-1.69c-0.15-0.2-0.21-0.42-0.27-0.61l2.38,1.91c0,0,1.08-1.54-0.41-2.97s-5.59-1.26-5.59-1.26
	s1.11,1.21,1.57,2.02C8.36,21,7.56,22.43,8.5,23.55c0.93,1.13,2.54,0.62,3.06,0.33c0.52-0.3,2.37-0.1,2.5,1.69
	c0.02,0.31,0.3,0.68,0.51,0.87v1.52h2v-8.63c0.18-0.08,0.64-0.59,0.66-0.99c0.13-1.79,1.98-1.98,2.5-1.69
	c0.52,0.3,2.13,0.8,3.06-0.33c0.94-1.13,0.14-2.56,0.6-3.37C23.86,12.14,24.97,10.94,24.97,10.94z"/>
</svg>
