<?xml version="1.0" encoding="utf-8"?>
<!-- Generator: Adobe Illustrator 23.0.3, SVG Export Plug-In . SVG Version: 6.00 Build 0)  -->
<svg version="1.1" id="Ebene_1" xmlns="http://www.w3.org/2000/svg" xmlns:xlink="http://www.w3.org/1999/xlink" x="0px" y="0px"
	 viewBox="0 0 31.29 31.29" style="enable-background:new 0 0 31.29 31.29;" xml:space="preserve">
<style type="text/css">
	.st0{fill:#7A9E33;}
</style>
<g>
	<path class="st0" d="M8.36,17.81l2.36,4.11c-0.28-0.14-0.6-0.28-0.88-0.56c-0.68-0.69-1.8-1.74-2.21-2.84
		c-0.41-1.09-0.34-1.65-0.78-2.73c-0.44-1.09-0.75-1.45-1.38-1.93c-0.64-0.48-2.79-0.99-2.91-0.83c-0.11,0.16,0.67,1.19,1.35,1.35
		c2.71,0.63,2.56,3.51,1.98,4.24c-0.58,0.73-1.74,3.07-0.24,4.77c1.5,1.71,3.88,0.84,5.02,1.75c1.14,0.91,2.72,2.9,2.72,2.9
		s1.25-6.25-0.57-8.88C10.99,16.54,8.36,17.81,8.36,17.81z"/>
	<path class="st0" d="M28.74,8.99l-3.89-0.86c-1.31-0.29-2.31-0.18-3.08,0.09c-0.2-0.34-0.34-0.68-0.36-1.02
		c-0.07-1.46,0.4-3.96,0.4-3.96s-2.63,1.51-4.52,3.45c0,0,0,0,0,0c-0.37-0.23-0.81-0.46-1.34-0.65l-3.74-1.36
		c0,0,0.5,4.57,1.97,5.74c0.35,0.28,0.71,0.6,1.06,0.93c-0.29,0.12-0.59,0.24-0.86,0.32c-1.26,0.4-2.74,3.26-2.74,3.26
		s0.02,0.39,2.79,0.05c2.55-0.31,2.96-1.26,2.98-1.28l0.29-0.83l0-0.01l0,0l1.25-3.59c0.02,0.1,0.05,0.22,0.08,0.33
		c0.02,0.08,0.03,0.17,0.04,0.26c0.02,0.14,0.04,0.29,0.03,0.44c-0.01,0.09-0.01,0.21-0.02,0.31c0,0.06-0.01,0.11-0.01,0.17
		c-0.07,0.95-0.19,2.17-0.65,3.06c-0.55,1.03-1.01,1.33-1.54,2.38c-0.53,1.04-0.61,1.51-0.55,2.31c0.06,0.79,1.09,2.76,1.29,2.73
		c0.19-0.02,0.46-1.28,0.13-1.91c-1.31-2.45,0.96-4.23,1.9-4.27c0.2-0.01,0.48-0.05,0.79-0.13c0.36,0.4,0.89,0.79,1.69,1.09
		L24.75,17c0,0-0.35-3.21-1.39-4.03c-0.04-0.03-0.07-0.06-0.11-0.09c0.25-0.04,0.49-0.07,0.73-0.1
		C25.86,12.58,28.74,8.99,28.74,8.99z"/>
</g>
</svg>
