<?xml version="1.0" encoding="utf-8"?>
<!-- Generator: Adobe Illustrator 23.0.3, SVG Export Plug-In . SVG Version: 6.00 Build 0)  -->
<svg version="1.1" id="Ebene_1" xmlns="http://www.w3.org/2000/svg" xmlns:xlink="http://www.w3.org/1999/xlink" x="0px" y="0px"
	 viewBox="0 0 31.29 31.29" style="enable-background:new 0 0 31.29 31.29;" xml:space="preserve">
<style type="text/css">
	.st0{fill:#7A9E33;}
</style>
<path class="st0" d="M29.15,28.06L24.3,23.2c0.98-1.29,1.57-2.9,1.57-4.64c0-4.24-3.45-7.69-7.69-7.69c-1.86,0-3.56,0.66-4.89,1.76
	c0.01-1.56-0.82-3.02-1.32-3.62c-0.76-0.9-1.05-4.53,2.36-5.42c0.85-0.22,1.81-1.55,1.66-1.75c-0.15-0.2-2.85,0.52-3.64,1.14
	c-0.79,0.62-1.16,1.1-1.68,2.48c-0.52,1.39-0.41,2.08-0.89,3.47c-0.49,1.39-1.87,2.76-2.7,3.65c-0.34,0.36-0.74,0.56-1.09,0.74
	l2.84-5.27c0,0-3.36-1.52-5.57,1.86c-2.21,3.38-0.43,11.23-0.43,11.23s1.92-2.57,3.33-3.75c1.06-0.89,3.03-0.54,4.73-1.24
	c-0.25,0.75-0.39,1.56-0.39,2.39c0,4.24,3.45,7.69,7.69,7.69c1.77,0,3.41-0.61,4.71-1.62l4.85,4.85L29.15,28.06z M13.05,22.85
	c0.12-0.41,0.25-0.86,0.33-1.23c1.07,1.31,1.64,2.47,1.64,2.47s0.37-1.26,0.6-3.42l1.96,0.93l-0.56-3.9l1.65,0.25L16.82,14
	l2.64-0.03l-1.72-2.08c0.15-0.01,0.29-0.02,0.44-0.02c3.69,0,6.69,3,6.69,6.69c0,3.69-3,6.69-6.69,6.69
	C16.12,25.25,14.28,24.31,13.05,22.85z"/>
</svg>
