<?xml version="1.0" encoding="utf-8"?>
<!-- Generator: Adobe Illustrator 23.0.3, SVG Export Plug-In . SVG Version: 6.00 Build 0)  -->
<svg version="1.1" id="Ebene_1" xmlns="http://www.w3.org/2000/svg" xmlns:xlink="http://www.w3.org/1999/xlink" x="0px" y="0px"
	 viewBox="0 0 22 22" style="enable-background:new 0 0 22 22;" xml:space="preserve">
<style type="text/css">
	.st0{clip-path:url(#SVGID_2_);fill:#7A9E33;}
</style>
<g>
	<defs>
		<rect id="SVGID_1_" x="3.23" y="0.61" width="15.55" height="20.78"/>
	</defs>
	<clipPath id="SVGID_2_">
		<use xlink:href="#SVGID_1_"  style="overflow:visible;"/>
	</clipPath>
	<path class="st0" d="M11.26,7.25c0,0,3.63-1.76,6.15,1.87c2.52,3.63,0.79,12.27,0.79,12.27s-2.18-2.75-3.75-4.01
		c-1.57-1.26-4.87-0.05-6.94-2.41c-2.07-2.36-0.47-5.59,0.33-6.6c0.8-1.01,1.01-4.99-2.73-5.86C4.17,2.3,3.08,0.87,3.24,0.65
		C3.4,0.43,6.38,1.13,7.26,1.79c0.88,0.66,1.3,1.17,1.91,2.67c0.61,1.5,0.51,2.26,1.08,3.77c0.57,1.51,2.13,2.97,3.06,3.92
		c0.93,0.95,2.31,0.78,1.96,2.09"/>
</g>
</svg>
