<?xml version="1.0" encoding="utf-8"?>
<!-- Generator: Adobe Illustrator 23.0.3, SVG Export Plug-In . SVG Version: 6.00 Build 0)  -->
<svg version="1.1" id="Ebene_1" xmlns="http://www.w3.org/2000/svg" xmlns:xlink="http://www.w3.org/1999/xlink" x="0px" y="0px"
	 viewBox="0 0 22 22" style="enable-background:new 0 0 22 22;" xml:space="preserve">
<style type="text/css">
	.st0{fill:#7A9E33;}
</style>
<path class="st0" d="M16.94,13c2.39-0.09,4.94-0.97,4.94-0.97s-2.36-1.7-4.71-2.44c2-1.3,3.74-3.37,3.74-3.37s-3.95-0.34-6.44,0.69
	c-0.42,0.17-0.77,0.35-1.08,0.52c0.09-0.22,0.18-0.46,0.26-0.73c0.81-2.57,0.12-6.47,0.12-6.47s-2.06,2.06-3.15,4.27
	C9.64,2.31,7.87,0.28,7.87,0.28s-0.7,2.82-0.5,5.28c-1.96-1.37-4.53-2.2-4.53-2.2S3.7,6.14,5.13,8.14C2.75,7.98,0.12,8.59,0.12,8.59
	s2.17,1.94,4.43,2.92c-2.13,1.09-4.07,2.96-4.07,2.96s2.86,0.55,5.3,0.22c-1.26,2.03-1.96,4.64-1.96,4.64s2.73-1,4.66-2.54
	c-0.04,2.39,0.7,4.98,0.7,4.98s1.83-2.26,2.69-4.57c1.2,2.07,3.17,3.91,3.17,3.91s0.4-2.89-0.05-5.31c2.09,1.16,4.73,1.72,4.73,1.72
	S18.58,14.84,16.94,13z M11,12.55c-0.86,0-1.55-0.69-1.55-1.55c0-0.86,0.7-1.56,1.55-1.56s1.55,0.7,1.55,1.56
	C12.55,11.87,11.86,12.55,11,12.55z"/>
</svg>
