<?xml version="1.0" encoding="utf-8"?>
<!-- Generator: Adobe Illustrator 23.0.3, SVG Export Plug-In . SVG Version: 6.00 Build 0)  -->
<svg version="1.1" id="Ebene_1" xmlns="http://www.w3.org/2000/svg" xmlns:xlink="http://www.w3.org/1999/xlink" x="0px" y="0px"
	 viewBox="0 0 22 22" style="enable-background:new 0 0 22 22;" xml:space="preserve">
<style type="text/css">
	.st0{clip-path:url(#SVGID_2_);fill:#7B9F34;}
</style>
<g>
	<defs>
		<rect id="SVGID_1_" x="3.53" y="1.32" width="14.94" height="19.36"/>
	</defs>
	<clipPath id="SVGID_2_">
		<use xlink:href="#SVGID_1_"  style="overflow:visible;"/>
	</clipPath>
	<path class="st0" d="M16.99,12.29c0.04,0.28,0.08,0.49,0.1,0.68c0.09,0.46,0.15,0.93,0.15,1.41c0,0.56-0.07,1.11-0.19,1.63
		c-1.52,6.23-10.59,6.23-12.1,0c-0.13-0.52-0.2-1.07-0.2-1.63c0-0.12,0-0.24,0.01-0.36c0.02-0.23,0.04-0.47,0.08-0.7
		c0.02-0.11,0.03-0.23,0.06-0.35c0.02-0.09,0.03-0.19,0.04-0.3c0.02-0.11,0.04-0.23,0.06-0.37c1.26-7.66-1.23-9.36-1.47-9.52
		c2.56,0.57,4.72,3.95,5.41,7.82c0.05-0.38-0.1-3.47,0.03-4.5c0.23-1.89,1.28-3.77,1.9-4.62c0.04-0.05,0.08-0.1,0.12-0.16
		c0.08,0.1,0.17,0.21,0.26,0.34c0.63,0.92,1.56,2.67,1.77,4.43c0.12,1.03-0.03,4.12,0.03,4.5c0.69-3.87,2.85-7.25,5.41-7.82
		C18.22,2.93,15.73,4.64,16.99,12.29"/>
</g>
</svg>
