<?xml version="1.0" encoding="utf-8"?>
<!-- Generator: Adobe Illustrator 23.0.3, SVG Export Plug-In . SVG Version: 6.00 Build 0)  -->
<svg version="1.1" id="Ebene_1" xmlns="http://www.w3.org/2000/svg" xmlns:xlink="http://www.w3.org/1999/xlink" x="0px" y="0px"
	 viewBox="0 0 25.76 25.76" style="enable-background:new 0 0 25.76 25.76;" xml:space="preserve">
<style type="text/css">
	.st0{clip-path:url(#SVGID_2_);fill:none;stroke:#7A9E33;}
	.st1{fill:#7A9E33;}
</style>
<g>
	<defs>
		<rect id="SVGID_1_" x="1.84" y="1.11" width="22.55" height="23.53"/>
	</defs>
	<clipPath id="SVGID_2_">
		<use xlink:href="#SVGID_1_"  style="overflow:visible;"/>
	</clipPath>
	<line class="st0" x1="23.89" y1="1.65" x2="18.93" y2="6.97"/>
	<polyline class="st0" points="18.44,2.05 23.89,1.65 23.89,7.13 	"/>
	<line class="st0" x1="7.29" y1="18.8" x2="2.34" y2="24.12"/>
	<polyline class="st0" points="7.79,23.72 2.34,24.12 2.35,18.64 	"/>
</g>
<path class="st1" d="M14.23,8.38c-0.08-1.47-0.64-3.03-0.64-3.03s-1.02,1.47-1.46,2.92C11.31,7.05,10.02,6,10.02,6
	s-0.17,2.44,0.48,3.96c0.11,0.26,0.22,0.47,0.33,0.66c-0.14-0.05-0.28-0.11-0.45-0.15C8.79,9.99,6.4,10.45,6.4,10.45
	s1.29,1.25,2.66,1.9c-1.34,0.62-2.57,1.73-2.57,1.73s1.74,0.4,3.26,0.26c-0.83,1.22-1.31,2.81-1.31,2.81s1.7-0.56,2.92-1.45
	c-0.08,1.47,0.32,3.08,0.32,3.08s1.17-1.35,1.76-2.75c0.69,1.3,1.86,2.48,1.86,2.48s0.31-1.77,0.09-3.27
	c1.26,0.76,2.87,1.16,2.87,1.16s-0.64-1.67-1.61-2.85c1.47,0,3.06-0.48,3.06-0.48s-1.41-1.11-2.84-1.61
	c1.26-0.76,2.38-1.99,2.38-1.99s-1.78-0.22-3.27,0.08c0.69-1.3,1.02-2.93,1.02-2.93S15.35,7.35,14.23,8.38z M14.01,12.04
	c0.01,0.53-0.41,0.96-0.94,0.97c-0.53,0.01-0.97-0.42-0.97-0.94s0.42-0.96,0.95-0.97C13.58,11.09,14,11.51,14.01,12.04z"/>
</svg>
