<?xml version="1.0" encoding="utf-8"?>
<!-- Generator: Adobe Illustrator 23.0.3, SVG Export Plug-In . SVG Version: 6.00 Build 0)  -->
<svg version="1.1" id="Ebene_1" xmlns="http://www.w3.org/2000/svg" xmlns:xlink="http://www.w3.org/1999/xlink" x="0px" y="0px"
	 viewBox="0 0 31.29 31.29" style="enable-background:new 0 0 31.29 31.29;" xml:space="preserve">
<style type="text/css">
	.st0{fill:#7A9E33;}
</style>
<g>
	<rect x="4.03" y="8.95" class="st0" width="23.23" height="1.89"/>
	<path class="st0" d="M21.17,18.52c-0.05-0.04-0.2-0.28-0.26-0.29c-0.06,0-0.09,0.02-0.14,0.04c-0.06,0.03-0.12,0.06-0.17,0.1
		c-0.04,0.04-0.04,0.14-0.04,0.25c0.01,0.27-0.23,0.86,0,1.37c0.32,0.73,0.86,1.04,1.3,0.83c0.44-0.22,0.68-0.82,0.33-1.53
		C22.01,18.95,21.4,18.71,21.17,18.52z"/>
	<path class="st0" d="M15.66,14.14c-0.06-0.05-0.23-0.32-0.3-0.32c-0.07-0.01-0.1,0.02-0.16,0.05c-0.07,0.03-0.13,0.07-0.19,0.12
		c-0.05,0.04-0.05,0.15-0.04,0.28c0.02,0.3-0.26,0.97,0,1.56c0.36,0.83,0.98,1.18,1.48,0.93c0.5-0.25,0.77-0.93,0.37-1.74
		C16.62,14.63,15.93,14.35,15.66,14.14z"/>
	<path class="st0" d="M22.56,13.51c-0.25-0.1-0.68-0.57-1.24-0.58c-0.79-0.02-1.31,0.34-1.3,0.83c0.01,0.49,0.45,0.96,1.25,0.95
		c0.38-0.01,0.86-0.46,1.13-0.59c0.06-0.03,0.34-0.06,0.37-0.12c0.03-0.05,0.02-0.09,0.02-0.15c0-0.07-0.01-0.13-0.02-0.19
		C22.75,13.59,22.66,13.55,22.56,13.51z"/>
	<path class="st0" d="M9.96,15.16c-0.25-0.1-0.68-0.57-1.24-0.58c-0.79-0.02-1.31,0.34-1.3,0.83c0.01,0.49,0.45,0.96,1.25,0.95
		c0.38-0.01,0.86-0.46,1.13-0.59c0.06-0.03,0.34-0.06,0.37-0.12c0.03-0.05,0.02-0.08,0.02-0.15c0-0.07-0.01-0.13-0.02-0.19
		C10.16,15.24,10.07,15.2,9.96,15.16z"/>
	<path class="st0" d="M13.02,20.3c-0.47-0.77-1.13-1.04-1.59-0.73c-0.46,0.31-0.64,1.02-0.14,1.77c0.24,0.36,0.97,0.54,1.26,0.72
		c0.06,0.04,0.26,0.28,0.34,0.28c0.07,0,0.1-0.03,0.16-0.07c0.06-0.04,0.12-0.09,0.17-0.14c0.04-0.05,0.03-0.16,0.01-0.29
		C13.17,21.54,13.36,20.84,13.02,20.3z"/>
</g>
</svg>
