<?xml version="1.0" encoding="utf-8"?>
<!-- Generator: Adobe Illustrator 23.0.3, SVG Export Plug-In . SVG Version: 6.00 Build 0)  -->
<svg version="1.1" id="Ebene_1" xmlns="http://www.w3.org/2000/svg" xmlns:xlink="http://www.w3.org/1999/xlink" x="0px" y="0px"
	 viewBox="0 0 22 30.1" style="enable-background:new 0 0 22 30.1;" xml:space="preserve">
<style type="text/css">
	.st0{fill:#7A9E33;}
</style>
<path class="st0" d="M13.99,8.56c1.21-0.04,2.49-0.49,2.49-0.49s-1.19-0.86-2.37-1.23c1.01-0.66,1.88-1.7,1.88-1.7
	S14,4.97,12.75,5.49c-0.21,0.09-0.39,0.18-0.55,0.26c0.05-0.11,0.09-0.23,0.13-0.37c0.41-1.29,0.06-3.26,0.06-3.26
	s-1.03,1.04-1.58,2.15c-0.5-1.1-1.39-2.12-1.39-2.12S9.07,3.57,9.17,4.81C8.24,4.16,7.05,3.75,6.9,3.71
	c0.04,0.14,0.46,1.44,1.14,2.4c-1.2-0.08-2.52,0.23-2.52,0.23s1.09,0.97,2.23,1.47C6.68,8.36,5.7,9.3,5.7,9.3s1.44,0.28,2.67,0.11
	c-0.64,1.03-0.99,2.34-0.99,2.34s1.38-0.51,2.35-1.28c-0.02,1.2,0.35,2.51,0.35,2.51s0.63-0.77,1.09-1.7
	c-0.01,0.36-0.02,0.72-0.04,1.07c-0.04,0.64-0.1,1.27-0.18,1.87c-0.04,0.26-0.08,0.52-0.13,0.77H7.84l1.59,2.88
	c-1,0.65-1.66,1.78-1.66,3.07c0,1.44,0.8,5.06,1.98,7.03h3.13c1.17-1.97,1.98-5.59,1.98-7.03c0-1.27-0.63-2.38-1.59-3.03l1.62-2.92
	h-3.18c0.01-0.11,0.03-0.21,0.04-0.32c0.06-0.73,0.1-1.47,0.1-2.21c0-0.41-0.01-0.8-0.02-1.2c0.56,0.79,1.21,1.38,1.21,1.38
	s0.2-1.45-0.03-2.67c1.05,0.58,2.38,0.87,2.38,0.87S14.82,9.49,13.99,8.56z M11,8.31c-0.42,0-0.76-0.34-0.76-0.75
	c0-0.43,0.34-0.78,0.76-0.78c0.42,0,0.76,0.35,0.76,0.78C11.76,7.97,11.42,8.31,11,8.31z"/>
</svg>
