<?xml version="1.0" encoding="utf-8"?>
<!-- Generator: Adobe Illustrator 23.0.3, SVG Export Plug-In . SVG Version: 6.00 Build 0)  -->
<svg version="1.1" id="Ebene_1" xmlns="http://www.w3.org/2000/svg" xmlns:xlink="http://www.w3.org/1999/xlink" x="0px" y="0px"
	 viewBox="0 0 31.29 31.29" style="enable-background:new 0 0 31.29 31.29;" xml:space="preserve">
<style type="text/css">
	.st0{fill:#7A9E33;}
</style>
<g>
	<path class="st0" d="M8.15,18.91c0.18,0.54,0.44,1.05,0.78,1.5h-2.5v-1.5H8.15z"/>
	<path class="st0" d="M24.86,18.91v1.5h-6.35c0.34-0.45,0.6-0.96,0.78-1.5H24.86z"/>
	<path class="st0" d="M15.98,24.53c0.32,0.64,0.1,1.18-0.3,1.38c-0.4,0.2-0.89-0.09-1.17-0.74c-0.2-0.46,0.02-1,0-1.24
		c-0.01-0.1-0.01-0.19,0.03-0.22c0.05-0.04,0.1-0.07,0.15-0.09c0.05-0.02,0.07-0.04,0.13-0.04c0.06,0,0.19,0.22,0.24,0.26
		C15.27,24.01,15.82,24.22,15.98,24.53"/>
	<path class="st0" d="M20.1,23.48c-0.63,0.01-0.98-0.36-0.99-0.75c-0.01-0.39,0.4-0.67,1.03-0.66c0.44,0.01,0.79,0.38,0.99,0.46
		c0.08,0.03,0.15,0.07,0.17,0.11c0.01,0.05,0.02,0.1,0.02,0.15c0,0.05,0.01,0.07-0.02,0.12c-0.03,0.04-0.25,0.07-0.29,0.09
		C20.78,23.11,20.41,23.47,20.1,23.48"/>
	<path class="st0" d="M8.89,23.86c-0.4-0.59-0.26-1.16,0.11-1.4c0.37-0.25,0.89-0.03,1.26,0.58c0.26,0.43,0.12,0.99,0.16,1.23
		c0.02,0.1,0.03,0.19,0,0.23c-0.04,0.05-0.09,0.08-0.14,0.11c-0.05,0.03-0.07,0.05-0.12,0.05c-0.06,0-0.22-0.19-0.27-0.22
		C9.65,24.28,9.08,24.14,8.89,23.86"/>
	<path class="st0" d="M22.82,11.6h-1.34v1.34h-1.24V11.6H18.9v-1.24h1.34V9.02h1.24v1.34h1.34V11.6z M20.86,5.32
		c0,0-3.14,3.93-3.14,5.67c0,1.73,1.41,3.14,3.14,3.14c1.73,0,3.14-1.41,3.14-3.14C24.01,9.25,20.86,5.32,20.86,5.32"/>
	<path class="st0" d="M16.43,17.92h-1.84v1.84h-1.7v-1.84h-1.83v-1.7h1.83v-1.83h1.7v1.83h1.84V17.92z M13.74,9.24
		c0,0-4.34,5.43-4.34,7.83c0,2.4,1.94,4.34,4.34,4.34s4.34-1.94,4.34-4.34C18.08,14.67,13.74,9.24,13.74,9.24"/>
</g>
</svg>
