<?xml version="1.0" encoding="utf-8"?>
<!-- Generator: Adobe Illustrator 23.0.3, SVG Export Plug-In . SVG Version: 6.00 Build 0)  -->
<svg version="1.1" id="Ebene_1" xmlns="http://www.w3.org/2000/svg" xmlns:xlink="http://www.w3.org/1999/xlink" x="0px" y="0px"
	 viewBox="0 0 22 22" style="enable-background:new 0 0 22 22;" xml:space="preserve">
<style type="text/css">
	.st0{clip-path:url(#SVGID_2_);fill:#7A9E33;}
</style>
<g>
	<defs>
		<rect id="SVGID_1_" x="2.45" y="1.83" width="17.69" height="18.34"/>
	</defs>
	<clipPath id="SVGID_2_">
		<use xlink:href="#SVGID_1_"  style="overflow:visible;"/>
	</clipPath>
	<path class="st0" d="M8.08,7.97C8.65,7.8,9.99,7.8,10.59,8.02c0.04,0.02,1.19,0.58,2.28,0.58c1.09-0.01,2.24-0.56,2.28-0.58
		c0.6-0.22,1.93-0.22,2.51-0.05c2.13,0.61,3.06,3.82,2.1,7.16c-0.97,3.34-3.47,5.55-5.6,4.94c-0.11-0.03-0.2-0.06-0.3-0.1
		c-0.31-0.14-0.65-0.19-0.99-0.19c-0.34,0-0.68,0.05-0.99,0.19c-0.1,0.04-0.19,0.08-0.3,0.1c-2.13,0.61-4.63-1.6-5.6-4.94
		C5.01,11.79,5.95,8.58,8.08,7.97"/>
	<path class="st0" d="M12.69,8.68c0.07-0.44,0.1-0.84,0.09-1.27c-0.01-0.42-0.05-0.85-0.13-1.27c-0.16-0.84-0.52-1.69-1.1-2.41
		l-1,0.92c0.47,0.46,0.83,1.06,1.05,1.75c0.11,0.34,0.19,0.7,0.23,1.07c0.05,0.36,0.06,0.75,0.05,1.09L12.69,8.68z"/>
	<path class="st0" d="M8.77,4.07c0,0,0.23-1.62-1.48-2.14C5.57,1.41,2.45,3.14,2.45,3.14s1.33,0.5,2.01,0.95
		c0.68,0.45,0.62,1.87,1.79,2.38c1.17,0.51,2.22-0.51,2.51-0.94c0.29-0.44,1.8-1.01,2.6,0.33c0.2,0.34,0.89,0.58,0.95,0.49
		c0.07-0.09-0.57-1.15-0.94-1.41c-0.36-0.26-0.61-0.36-1.27-0.41C9.45,4.49,9.17,4.62,8.51,4.59C7.86,4.55,7.1,4.13,6.62,3.89
		c-0.48-0.24-0.59-0.8-1.05-0.5"/>
</g>
</svg>
