<?xml version="1.0" encoding="utf-8"?>
<!-- Generator: Adobe Illustrator 23.0.3, SVG Export Plug-In . SVG Version: 6.00 Build 0)  -->
<svg version="1.1" id="Ebene_1" xmlns="http://www.w3.org/2000/svg" xmlns:xlink="http://www.w3.org/1999/xlink" x="0px" y="0px"
	 viewBox="0 0 22 27.25" style="enable-background:new 0 0 22 27.25;" xml:space="preserve">
<style type="text/css">
	.st0{clip-path:url(#SVGID_2_);fill:#7A9E33;}
	
		.st1{clip-path:url(#SVGID_2_);fill:none;stroke:#7A9E33;stroke-width:0.9;stroke-linecap:round;stroke-linejoin:round;stroke-miterlimit:10;}
</style>
<g>
	<defs>
		<rect id="SVGID_1_" x="2.74" y="1.84" width="17.42" height="23.57"/>
	</defs>
	<clipPath id="SVGID_2_">
		<use xlink:href="#SVGID_1_"  style="overflow:visible;"/>
	</clipPath>
	<path class="st0" d="M9.33,4.74c0,0,0.64-1.5-0.88-2.46C6.94,1.33,3.47,2.2,3.47,2.2s1.16,0.83,1.69,1.44
		c0.54,0.61,0.12,1.97,1.11,2.76c1,0.79,2.27,0.08,2.67-0.26c0.39-0.34,2-0.51,2.43,0.99c0.11,0.38,0.71,0.79,0.79,0.72
		c0.09-0.07-0.26-1.26-0.54-1.6c-0.28-0.34-0.5-0.5-1.12-0.72C9.89,5.31,9.58,5.37,8.96,5.17S7.71,4.36,7.31,4
		C6.9,3.64,6.95,3.08,6.42,3.25"/>
	<path class="st0" d="M10.43,21.81c-0.56,2.08-2.97,4.06-5.05,3.51c-2.08-0.56-3.04-3.44-2.48-5.52c0.56-2.08,2.35-2.31,4.39-0.78
		C10.13,18.96,10.99,19.73,10.43,21.81"/>
	<path class="st0" d="M19.65,18.75c0.99,1.91,0.55,5-1.37,5.99c-1.91,0.99-4.57-0.49-5.56-2.4c-0.99-1.91,0.18-3.29,2.71-3.53
		C17.5,16.85,18.66,16.84,19.65,18.75"/>
	<path class="st1" d="M7.25,19.31c0,0-0.46-2.61,0.52-5.85c0.73-2.42,3.08-5.55,3.59-5.87c0.51-0.33,0.37-0.11,0.51-0.33
		c0.14-0.22,1.36-0.86,1.36-0.86l0.2,0.52l-1.35,0.65c0,0-0.3-1-0.53,1.34c-0.23,2.43-1.21,5.46,2.85,8.91
		c1.51,1.28,1.51,1.71,1.51,1.71"/>
</g>
</svg>
