<?xml version="1.0" encoding="utf-8"?>
<!-- Generator: Adobe Illustrator 23.0.3, SVG Export Plug-In . SVG Version: 6.00 Build 0)  -->
<svg version="1.1" id="Ebene_1" xmlns="http://www.w3.org/2000/svg" xmlns:xlink="http://www.w3.org/1999/xlink" x="0px" y="0px"
	 viewBox="0 0 22 22" style="enable-background:new 0 0 22 22;" xml:space="preserve">
<style type="text/css">
	.st0{clip-path:url(#SVGID_2_);fill:#7A9E33;}
</style>
<g>
	<defs>
		<rect id="SVGID_1_" x="1.17" y="0.4" width="19.67" height="21.19"/>
	</defs>
	<clipPath id="SVGID_2_">
		<use xlink:href="#SVGID_1_"  style="overflow:visible;"/>
	</clipPath>
	<path class="st0" d="M12.74,14.14c-1.03,0.34-2.96,3.03-0.73,5.31c0.57,0.58,0.68,2.06,0.47,2.14c-0.21,0.09-1.98-1.74-2.3-2.59
		c-0.32-0.86-0.39-1.4-0.14-2.72c0.24-1.33,0.66-1.81,0.93-3.12c0.23-1.12-0.03-2.51-0.27-3.58c-0.05-0.19-0.08-0.38-0.11-0.54
		c-0.09-0.45-0.32-0.79-0.5-1.09l-0.22,4.36L8.59,9.78c0,0-0.81,0.78-1.74,1.53c-0.29-0.52-0.47-1.16-0.49-1.97
		C6.31,8.19,6.78,6.89,7.43,5.66C8.9,2.9,11.32,0.4,11.32,0.4s0.29,2.9,0.83,4.48c0.54,1.58,3.4,2.21,3.79,4.79
		C16.33,12.25,13.75,13.8,12.74,14.14"/>
	<path class="st0" d="M11.11,8.42c0,0,0.56-3.3,5.14-3.6l4.58-0.31c0,0-2.03,4.87-4.04,5.69c-2.01,0.82-4.53,2.4-4.53,2.4
		L11.11,8.42z"/>
	<path class="st0" d="M10.88,8.97l-0.17,0.62c-0.05-0.19-0.08-0.38-0.11-0.54c-0.09-0.45-0.32-0.79-0.5-1.09l-0.24,4.75l-0.13,0.46
		c0,0-1.26-0.79-2.71-1.56c-0.6-0.3-1.23-0.61-1.82-0.85c-2-0.81-4.03-5.69-4.03-5.69l4.57,0.3c0.65,0.05,1.21,0.15,1.69,0.29
		c1.15,0.33,1.92,0.89,2.44,1.46c0.09,0.1,0.17,0.19,0.24,0.3C10.75,8.22,10.88,8.97,10.88,8.97"/>
	<path class="st0" d="M9.88,12.32v0.01l-0.06,1.01c-0.01,0.02-0.15,1.2-2.88,2.36c-2.95,1.25-3.1,0.84-3.1,0.84s0.71-3.62,1.98-4.47
		c0.33-0.22,0.69-0.48,1.03-0.76c0.93-0.74,1.74-1.52,1.74-1.52L9.88,12.32z"/>
	<path class="st0" d="M12.18,11.87c0,0,0.39,2.31,3.6,2.52L19,14.61c0,0-1.42-3.42-2.83-3.99c-1.41-0.58-3.17-1.69-3.17-1.69
		L12.18,11.87z"/>
</g>
</svg>
