<?xml version="1.0" encoding="utf-8"?>
<!-- Generator: Adobe Illustrator 23.0.3, SVG Export Plug-In . SVG Version: 6.00 Build 0)  -->
<svg version="1.1" id="Ebene_1" xmlns="http://www.w3.org/2000/svg" xmlns:xlink="http://www.w3.org/1999/xlink" x="0px" y="0px"
	 viewBox="0 0 22 22" style="enable-background:new 0 0 22 22;" xml:space="preserve">
<style type="text/css">
	.st0{clip-path:url(#SVGID_2_);fill:#7A9E33;}
	.st1{fill:none;stroke:#7A9E33;}
	.st2{fill:none;stroke:#7A9E33;stroke-width:0.89;}
</style>
<g>
	<defs>
		<rect id="SVGID_1_" x="1.7" y="1.48" width="18.61" height="19.04"/>
	</defs>
	<clipPath id="SVGID_2_">
		<use xlink:href="#SVGID_1_"  style="overflow:visible;"/>
	</clipPath>
	<path class="st0" d="M14.48,13.11c0,0-2.74-0.95-2.17-4.07c0.57-3.12,5.82-6.62,5.82-6.62S17.84,4.92,18,6.35
		c0.16,1.43,2.44,2.49,2.3,4.74s-2.6,3.07-3.52,3.18c-0.92,0.1-3.04,2.01-1.59,4.36c0.37,0.59,0.19,1.86,0,1.89
		c-0.19,0.03-1.35-1.84-1.46-2.62c-0.11-0.78-0.07-1.25,0.38-2.32c0.45-1.07,0.89-1.41,1.37-2.46c0.47-1.06,0.43-2.58,0.44-3.54
		c0.01-0.96-0.78-1.57,0.07-2.06"/>
</g>
<g>
	<polyline class="st1" points="6.12,11.93 7.13,17.3 1.7,17.93 	"/>
	<path class="st2" d="M13.21,2.3c-0.77-0.23-1.59-0.38-2.45-0.38c-4.47,0-8.1,3.63-8.1,8.09c0,2.94,1.57,5.52,3.91,6.94"/>
</g>
</svg>
