<?xml version="1.0" encoding="utf-8"?>
<!-- Generator: Adobe Illustrator 25.1.0, SVG Export Plug-In . SVG Version: 6.00 Build 0)  -->
<svg version="1.1" id="Ebene_1" xmlns="http://www.w3.org/2000/svg" xmlns:xlink="http://www.w3.org/1999/xlink" x="0px" y="0px"
	 viewBox="0 0 28.02 26.96" style="enable-background:new 0 0 28.02 26.96;" xml:space="preserve">
<style type="text/css">
	.st0{fill:#7B9E32;}
</style>
<g>
	<path class="st0" d="M22.36,9.95c0.01-0.09,0.03-0.18,0.03-0.28c0-2.19-1.77-3.96-3.96-3.96c-0.3,0-0.58,0.04-0.86,0.1
		c-0.64-1.32-1.98-2.24-3.55-2.24c-1.5,0-2.78,0.84-3.46,2.06C10.28,5.58,10,5.54,9.71,5.54c-2.19,0-3.96,1.77-3.96,3.96
		c0,0.12,0.02,0.23,0.03,0.35c-1.24,0.86-1.96,2.4-1.61,4.09c0.32,1.55,1.61,2.79,3.17,3.06c1.18,0.21,2.28-0.12,3.11-0.77
		c0.34-0.27,0.81-0.27,1.15,0c0.66,0.52,1.49,0.83,2.4,0.83c0.9,0,1.71-0.3,2.37-0.81c0.36-0.28,0.85-0.28,1.21,0
		c0.83,0.64,1.91,0.95,3.08,0.75c1.54-0.27,2.82-1.49,3.16-3.02C24.2,12.33,23.52,10.84,22.36,9.95z"/>
	<path class="st0" d="M14.91,14.56h-0.84h-0.12h-0.84c0,0,0.29,7.16-1.1,8.83h1.94h0.12h1.94C14.62,21.72,14.91,14.56,14.91,14.56z"
		/>
</g>
</svg>
