<?xml version="1.0" encoding="utf-8"?>
<!-- Generator: Adobe Illustrator 23.0.3, SVG Export Plug-In . SVG Version: 6.00 Build 0)  -->
<svg version="1.1" id="Ebene_1" xmlns="http://www.w3.org/2000/svg" xmlns:xlink="http://www.w3.org/1999/xlink" x="0px" y="0px"
	 viewBox="0 0 31.29 31.29" style="enable-background:new 0 0 31.29 31.29;" xml:space="preserve">
<style type="text/css">
	.st0{fill:#7A9E33;}
</style>
<g>
	<polygon class="st0" points="13.18,10.41 9.81,4.21 9.09,4.59 12.46,10.79 	"/>
	<polygon class="st0" points="10.32,13.03 3.68,10.4 3.38,11.15 10.02,13.77 	"/>
	<polygon class="st0" points="18.55,3.33 17.76,3.17 16.28,10.04 17.08,10.21 	"/>
	<polygon class="st0" points="25.83,8.18 25.33,7.55 19.7,11.88 20.2,12.51 	"/>
	<polygon class="st0" points="9.83,16.98 3.03,19.16 3.28,19.92 10.08,17.74 	"/>
	
		<rect x="24.27" y="12.39" transform="matrix(0.0337 -0.9994 0.9994 0.0337 7.8825 40.0811)" class="st0" width="0.8" height="7.16"/>
	<polygon class="st0" points="19.31,19.66 24.63,24.36 25.18,23.76 19.85,19.07 	"/>
	<polygon class="st0" points="15.72,21.17 16.72,28.12 17.53,28.01 16.52,21.05 	"/>
	<path class="st0" d="M15.32,12.14c-1.88,0-3.4,1.49-3.4,3.34s1.52,3.34,3.4,3.34c1.88,0,3.4-1.49,3.4-3.34S17.2,12.14,15.32,12.14z
		"/>
	<polygon class="st0" points="8.2,26.01 8.89,26.43 12.67,20.47 11.98,20.05 	"/>
</g>
</svg>
