<?xml version="1.0" encoding="utf-8"?>
<!-- Generator: Adobe Illustrator 24.2.0, SVG Export Plug-In . SVG Version: 6.00 Build 0)  -->
<svg version="1.1" id="Ebene_1" xmlns="http://www.w3.org/2000/svg" xmlns:xlink="http://www.w3.org/1999/xlink" x="0px" y="0px"
	 viewBox="0 0 22 22" style="enable-background:new 0 0 22 22;" xml:space="preserve">
<style type="text/css">
	.st0{fill:#7A9E33;}
</style>
<path class="st0" d="M6.8,6.2c0,0-4,1.5-3.9,6.4c0,4.9,4.2,7,4.2,7s5.1,2.4,9-0.9s2.8-7.5,2.8-7.5s-0.5-2.5-3-4.4
	c0,0-2.3,0.8-3.9,0.6c0,0-2.3,2.7-2.7,3.2c0,0-0.3-1.3,0.2-3.4C9.4,7.2,8.5,7.1,6.8,6.2z"/>
<path class="st0" d="M10.3,6.8c0,0-0.9,1.3-0.8,3c0,0,1-1.5,2.5-2.9c0,0,1.4,0.3,3.6-0.6c0,0,1.6-0.6,2.5-0.5c0,0-1.2-0.7-3.4-0.2
	c0,0-1.4,0.2-1.9,0.2c0,0,1.3-2.5,2.9-3.2c0,0-1.5-0.2-3.8,2.5c0,0-0.2-1,0-1.7c0.2-0.6-0.4-0.7-0.6-0.4s-0.5,2-0.5,2
	S9.7,3.7,9.4,3.3S8.1,1.7,7.3,1.7c0,0,1.1,1.1,1.4,1.9S10,5.6,10,5.6s-1-0.1-2.2-0.4S5.5,4.7,5,5C5,5,6.4,5.1,7,5.7
	S10.3,6.8,10.3,6.8z"/>
</svg>
