<?xml version="1.0" encoding="utf-8"?>
<!-- Generator: Adobe Illustrator 23.0.3, SVG Export Plug-In . SVG Version: 6.00 Build 0)  -->
<svg version="1.1" id="Ebene_1" xmlns="http://www.w3.org/2000/svg" xmlns:xlink="http://www.w3.org/1999/xlink" x="0px" y="0px"
	 viewBox="0 0 31.29 31.29" style="enable-background:new 0 0 31.29 31.29;" xml:space="preserve">
<style type="text/css">
	.st0{fill:#7A9E33;}
</style>
<path class="st0" d="M23.29,10.88L23.29,10.88l-4.54,1.65l1.65-4.54l0,0l2.14-5.88c0,0-2.91,1.42-3.91,4.27
	c-0.85,2.43-0.89,5.24-0.89,5.24l0,0l-0.26,0.7c-0.34,0-0.69,0.13-0.95,0.39c-0.21,0.21-0.31,0.48-0.35,0.75l-3.26,1.18l-0.25-0.68
	L2.12,17.82l0.92,2.54l10.56-3.84l-0.25-0.67l3.24-1.18c0.01,0.01,0.02,0.01,0.03,0.02l-1.18,3.25l-0.67-0.25l-3.84,10.56l2.54,0.92
	l3.84-10.56l-0.68-0.25l1.25-3.43c0.2-0.06,0.39-0.16,0.55-0.32c0.21-0.21,0.31-0.48,0.35-0.75l0.88-0.32l0,0
	c0,0,2.81-0.04,5.23-0.89c2.85-1,4.27-3.91,4.27-3.91L23.29,10.88z"/>
</svg>
