<?xml version="1.0" encoding="utf-8"?>
<!-- Generator: Adobe Illustrator 23.0.3, SVG Export Plug-In . SVG Version: 6.00 Build 0)  -->
<svg version="1.1" id="Ebene_1" xmlns="http://www.w3.org/2000/svg" xmlns:xlink="http://www.w3.org/1999/xlink" x="0px" y="0px"
	 viewBox="0 0 30.08 30.08" style="enable-background:new 0 0 30.08 30.08;" xml:space="preserve">
<style type="text/css">
	.st0{fill:#FFFFFF;}
</style>
<path class="st0" d="M21.69,20.63l-3.81-3.81c0.72-0.96,1.11-2.1,1.11-3.24c0-1.38-0.53-2.77-1.59-3.82
	c-1.05-1.06-2.44-1.59-3.83-1.59c-1.38,0-2.77,0.53-3.83,1.59c-1.05,1.05-1.59,2.44-1.58,3.82c0,1.38,0.53,2.77,1.58,3.83
	c1.05,1.05,2.44,1.59,3.83,1.58c1.14,0,2.28-0.38,3.24-1.11l3.81,3.81c0.29,0.29,0.77,0.29,1.06,0
	C21.98,21.4,21.98,20.92,21.69,20.63z M10.81,16.35c-0.77-0.77-1.14-1.76-1.14-2.77c0-1,0.38-2,1.14-2.76
	c0.77-0.77,1.76-1.14,2.77-1.15c1,0,2,0.38,2.76,1.15c0.77,0.77,1.14,1.76,1.15,2.76c0,1-0.38,2-1.15,2.77s-1.76,1.15-2.76,1.15
	C12.58,17.49,11.58,17.11,10.81,16.35z"/>
</svg>
