<?xml version="1.0" encoding="utf-8"?>
<!-- Generator: Adobe Illustrator 23.0.3, SVG Export Plug-In . SVG Version: 6.00 Build 0)  -->
<svg version="1.1" id="Ebene_1" xmlns="http://www.w3.org/2000/svg" xmlns:xlink="http://www.w3.org/1999/xlink" x="0px" y="0px"
	 viewBox="0 0 31.29 31.29" style="enable-background:new 0 0 31.29 31.29;" xml:space="preserve">
<style type="text/css">
	.st0{fill:#7A9E33;}
</style>
<g>
	<path class="st0" d="M10.86,15.64c0,1.39,0.56,2.63,1.45,3.46c-0.71,0.67-1.63,1.08-2.64,1.08c-2.26,0-4.1-2.03-4.1-4.54
		c0-2.5,1.84-4.54,4.1-4.54c1.01,0,1.93,0.41,2.64,1.08C11.42,13.01,10.86,14.26,10.86,15.64"/>
	<path class="st0" d="M17.81,18.9c0.15,0.16,0.31,0.31,0.48,0.44c-0.67,0.53-1.49,0.84-2.37,0.84c-0.16,0-0.32-0.01-0.48-0.03
		c-1.06-0.14-2-0.73-2.64-1.59c-0.61-0.79-0.97-1.81-0.97-2.92s0.36-2.13,0.97-2.92c0.64-0.86,1.58-1.45,2.64-1.59
		c0.16-0.02,0.32-0.03,0.48-0.03c0.88,0,1.7,0.31,2.37,0.84c-0.17,0.13-0.33,0.28-0.48,0.45c-0.77,0.82-1.25,1.97-1.25,3.25
		S17.04,18.08,17.81,18.9"/>
	<path class="st0" d="M25.72,15.64c0,2.51-1.84,4.54-4.1,4.54c-0.16,0-0.32-0.01-0.48-0.03c-0.91-0.12-1.73-0.57-2.36-1.25
		c-0.18-0.19-0.35-0.4-0.49-0.63c-0.48-0.74-0.76-1.65-0.76-2.63s0.28-1.89,0.76-2.63c0.14-0.22,0.31-0.44,0.49-0.62v-0.01
		c0.63-0.68,1.45-1.13,2.36-1.25c0.16-0.02,0.32-0.03,0.48-0.03C23.88,11.1,25.72,13.14,25.72,15.64"/>
</g>
</svg>
