<?xml version="1.0" encoding="utf-8"?>
<!-- Generator: Adobe Illustrator 23.0.3, SVG Export Plug-In . SVG Version: 6.00 Build 0)  -->
<svg version="1.1" id="Ebene_1" xmlns="http://www.w3.org/2000/svg" xmlns:xlink="http://www.w3.org/1999/xlink" x="0px" y="0px"
	 viewBox="0 0 31.29 31.29" style="enable-background:new 0 0 31.29 31.29;" xml:space="preserve">
<style type="text/css">
	.st0{fill:#7A9E33;}
</style>
<g>
	<path class="st0" d="M15.64,7.14c0.37,1.56,0.78,2.81,1.25,3.74c0.47,0.93,1.18,1.93,2.14,3.01l0.41,0.46
		c1.25,1.4,1.87,2.79,1.87,4.19c0,1.54-0.56,2.86-1.67,3.97c-1.12,1.1-2.45,1.66-4.01,1.66c-1.55,0-2.88-0.55-3.99-1.66
		c-1.12-1.1-1.67-2.42-1.67-3.97c0-1.4,0.62-2.79,1.87-4.19l0.41-0.46c0.96-1.08,1.67-2.08,2.14-3.01
		C14.86,9.95,15.28,8.7,15.64,7.14"/>
</g>
</svg>
