<?xml version="1.0" encoding="utf-8"?>
<!-- Generator: Adobe Illustrator 23.0.3, SVG Export Plug-In . SVG Version: 6.00 Build 0)  -->
<svg version="1.1" id="Ebene_1" xmlns="http://www.w3.org/2000/svg" xmlns:xlink="http://www.w3.org/1999/xlink" x="0px" y="0px"
	 viewBox="0 0 22 22" style="enable-background:new 0 0 22 22;" xml:space="preserve">
<style type="text/css">
	.st0{fill:#7A9E33;}
</style>
<g>
	<path class="st0" d="M10.16,11.1c0,0-2.74-0.95-2.17-4.07c0.57-3.12,5.82-6.62,5.82-6.62s-0.29,2.5-0.13,3.93
		c0.16,1.43,2.44,2.49,2.3,4.74c-0.15,2.25-2.6,3.07-3.52,3.18c-0.92,0.1-3.04,2.01-1.59,4.36c0.37,0.59,0.19,1.86,0,1.89
		c-0.19,0.03-1.35-1.84-1.46-2.62c-0.11-0.78-0.07-1.25,0.38-2.32c0.45-1.07,0.89-1.41,1.37-2.46c0.47-1.06,0.43-2.59,0.44-3.54
		c0.01-0.96-0.78-1.57,0.07-2.06"/>
	<path class="st0" d="M0.91,21.6c0.17-0.41,0.69-1.77,1-2.06c0.69-0.66,0.97-1.31,2.02-1.53c0.55,0.16,0.87-0.01,0.98-0.48
		c0.06-0.5,0.37-0.69,0.94-0.55c0.64-0.06,1.27-0.02,1.89,0.13c0.11,0.29,0.22,0.57,0.36,0.84c0.62,0.48,1.61,0.05,2.08-0.38
		c0.98-0.91,1.19-1.5,2.69-1.57c0.96-0.05,2.53-0.33,3.08,0.51c-0.18,0.36-0.12,0.67,0.17,0.92c0.4,0.05,0.65,0.25,0.76,0.62
		c0.06,0.14,0.13,0.27,0.19,0.41c0.61,0.13,1.23,0.16,1.86,0.07c0.66,0.05,1.71,0.31,2.02,0.99c0.14,0.31,0.23,1.88-0.05,2.1"/>
</g>
</svg>
